<?xml version="1.0" standalone="no"?>
<!DOCTYPE svg PUBLIC "-//W3C//DTD SVG 1.1//EN" "http://www.w3.org/Graphics/SVG/1.1/DTD/svg11.dtd" >
<svg xmlns="http://www.w3.org/2000/svg">
<metadata></metadata>
<defs>
<font id="goudy_old_stylebold_italic" horiz-adv-x="1024" >
<font-face units-per-em="2048" ascent="1536" descent="-512" />
<missing-glyph horiz-adv-x="552" />
<glyph horiz-adv-x="0" />
<glyph horiz-adv-x="0" />
<glyph unicode="&#xd;" horiz-adv-x="512" />
<glyph unicode=" "  horiz-adv-x="552" />
<glyph unicode="&#x09;" horiz-adv-x="552" />
<glyph unicode="&#xa0;" horiz-adv-x="552" />
<glyph unicode="!" horiz-adv-x="753" d="M143 154q0 16 14.5 34.5t41.5 44.5q47 49 80.5 76t56.5 27q20 0 33 -17l114 -129q12 -12 13 -32q0 -16 -19 -35l-137 -129q-12 -12 -33 -12q-12 0 -38.5 20.5t-54.5 48t-49.5 57t-21.5 46.5zM313 1319q0 74 22.5 100.5t108.5 26.5q92 0 125 -12.5t33 -63.5q0 -14 -10 -61 l-164 -664q-16 -66 -29.5 -99.5t-40.5 -33.5q-29 0 -35 34t-6 99z" />
<glyph unicode="&#x22;" horiz-adv-x="694" d="M84 1334v20q0 109 94 108q96 0 96 -108v-19.5t-2 -19.5l-73 -459h-39l-74 459q-2 10 -2 19zM420 1334v20q0 53 25.5 80.5t70.5 27.5t70.5 -27.5t25.5 -78.5q0 -10 -1 -20.5t-3 -20.5l-73 -459h-39l-74 459q-2 10 -2 19z" />
<glyph unicode="#" horiz-adv-x="1574" d="M70 428l59 168h301l92 262h-319l61 166h318l155 436h183l-156 -436h268l156 436h182l-156 -436h291l-59 -166h-291l-92 -262h307l-59 -168h-307l-154 -434h-184l155 434h-268l-154 -434h-184l156 434h-301zM608 594h275l94 264h-275z" />
<glyph unicode="$" horiz-adv-x="1107" d="M8 209q0 14 12.5 70.5t47.5 136.5q20 43 33.5 66.5t31.5 23.5q27 0 27 -37q0 -10 -1 -25.5t-1 -31.5q0 -133 68.5 -219.5t197.5 -114.5l68 581q-350 121 -351 351q0 74 30 138t85 113.5t135 81t180 37.5l19 152q4 33 13 49t38 16q18 0 30.5 -15t12.5 -38v-8l-16 -156 q80 -12 142 -33.5t107.5 -46t69 -49t23.5 -43.5q0 -29 -11.5 -70.5t-28 -80.5t-36 -66.5t-37.5 -27.5t-24.5 14t-7.5 36.5t-2 51.5t-11 57q-51 162 -193 187l-51 -461q201 -66 297 -163t96 -251q0 -90 -33.5 -169t-97 -136t-154.5 -91t-204 -36l-27 -225q-6 -57 -51 -58 q-43 0 -43 52v16l25 217q-205 37 -306.5 90t-101.5 115zM322 1092q0 -78 47 -127.5t145 -83.5l49 430h-8q-106 0 -169.5 -61.5t-63.5 -157.5zM520 74q68 4 123 27.5t95 63.5t61.5 91t21.5 109q0 197 -237 262z" />
<glyph unicode="%" horiz-adv-x="1593" d="M57 893q0 104 33 197.5t87 162t126 109.5t152 41q123 0 200.5 -90t77.5 -250q0 -106 -32.5 -200.5t-88 -165t-127 -110.5t-147.5 -40q-123 0 -202 93t-79 253zM223 956q0 -338 164 -338q86 0 133 100.5t47 293.5q0 160 -43 243.5t-118 83.5q-80 0 -131.5 -98t-51.5 -285z M305 0q0 20 35 72l801 1253q16 25 26.5 40t20.5 23.5t25.5 11.5t39.5 3q27 0 27 -27q0 -12 -37 -71l-801 -1254q-16 -27 -27.5 -42t-21.5 -23.5t-24.5 -10.5t-38.5 -2q-16 0 -20.5 5.5t-4.5 21.5zM852 317q0 104 31.5 197.5t86 162t126 109.5t151.5 41q123 0 202 -90 t79 -250q0 -109 -34 -203t-89 -163.5t-124.5 -109.5t-141.5 -40q-129 0 -208 93.5t-79 252.5zM1018 379q0 -336 164 -336q86 0 133 100.5t47 292.5q0 160 -43 244t-119 84q-80 0 -131 -99.5t-51 -285.5z" />
<glyph unicode="&#x26;" horiz-adv-x="1658" d="M92 440q0 154 88 286t254 216q-6 55 -6 90q0 88 33 166t89 136.5t134 92t168 33.5q115 0 180.5 -47t65.5 -119q0 -66 -53.5 -111.5t-122.5 -45.5q-18 0 -29.5 9t-11.5 19q0 16 9 36t9 42q0 41 -29.5 67.5t-78.5 26.5t-98.5 -23.5t-89.5 -64.5t-65.5 -96t-25.5 -117 q0 -23 6 -57q72 27 146 27q86 0 137 -47.5t51 -114.5q0 -61 -47 -103.5t-125 -42.5q-72 0 -129 39t-88 113q-63 -39 -100 -119t-37 -190q0 -102 33.5 -188.5t93 -149t142.5 -97t183 -34.5q94 0 175 32.5t140.5 85t93.5 118t34 132.5q0 80 -51.5 134.5t-118.5 54.5 q-55 0 -96.5 -40t-41.5 -97q0 -37 22.5 -59.5t53.5 -22.5q29 0 45.5 16t26.5 16q27 0 26 -30q0 -27 -36.5 -55.5t-89.5 -28.5q-70 0 -115 49t-45 127q0 123 105.5 223t312.5 199q80 39 146.5 71.5t114.5 67.5t73.5 78t25.5 100q0 61 -36 100t-89 39q-41 0 -68.5 -21.5 t-27.5 -51.5q0 -18 13 -27.5t28.5 -18t29 -18.5t13.5 -33q0 -41 -30 -70.5t-75 -29.5q-53 0 -88 38t-35 103q0 84 66 141.5t170 57.5q53 0 98 -20.5t77 -55.5t49.5 -81t17.5 -99q0 -231 -443 -446q59 -29 93 -88.5t34 -139.5q0 -98 -51 -199.5t-151 -185.5 q-100 -86 -231.5 -131t-276.5 -45q-131 0 -236.5 35t-180.5 98.5t-116 151.5t-41 194zM532 895q35 -109 134 -109q23 0 40 17.5t17 46.5t-23.5 51.5t-62.5 22.5q-42 0 -105 -29z" />
<glyph unicode="'" horiz-adv-x="358" d="M84 1334v20q0 109 94 108q96 0 96 -108v-19.5t-2 -19.5l-73 -459h-39l-74 459q-2 10 -2 19z" />
<glyph unicode="(" horiz-adv-x="782" d="M168 467q0 211 71.5 394t213.5 364q98 123 167.5 184t92.5 61q27 0 26 -24q0 -25 -48 -74t-111 -149q-94 -147 -151.5 -365.5t-57.5 -480.5q0 -293 84 -504q33 -86 61.5 -125t28.5 -53q0 -12 -9.5 -22.5t-19.5 -10.5q-27 0 -59.5 36t-81.5 109q-104 156 -155.5 322 t-51.5 338z" />
<glyph unicode=")" horiz-adv-x="782" d="M20 -311q0 25 48.5 74t111.5 149q47 74 86 167t66.5 198.5t43 221t15.5 234.5q0 147 -18.5 278.5t-65.5 252.5q-33 86 -61.5 123t-28.5 53q0 14 9.5 23.5t21.5 9.5q25 0 57.5 -36t79.5 -110q207 -315 207 -657q0 -211 -70.5 -395.5t-212.5 -364.5q-96 -123 -166.5 -184.5 t-93.5 -61.5q-29 0 -29 25z" />
<glyph unicode="*" d="M145 870q0 41 31 70t86 33t116.5 10t129.5 41q-74 39 -137.5 45t-118.5 10q-47 4 -77 31t-30 70q0 49 33 86t74 37q43 0 67.5 -24t49 -60.5t58.5 -79.5t95 -84q-2 61 -17.5 105t-32.5 79t-30.5 62.5t-13.5 56.5q0 45 29.5 73.5t81.5 28.5q53 0 82.5 -29.5t29.5 -74.5 q0 -23 -13 -50.5t-30.5 -63.5t-33 -82t-21.5 -105q59 35 93 78t59.5 80.5t52 63.5t69.5 26q41 0 73 -38t32 -83q0 -66 -41 -83.5t-107 -21.5q-53 -4 -105 -12t-108 -37q49 -29 102.5 -39t112.5 -14q68 -4 107 -24.5t39 -84.5q0 -47 -33 -81.5t-78 -34.5q-39 0 -64.5 25.5 t-51 63.5t-59.5 81t-89 77q2 -57 16.5 -102t32 -80t31.5 -64.5t14 -56.5q0 -41 -28.5 -70.5t-81.5 -29.5q-49 0 -80 26.5t-31 71.5q0 27 13.5 56.5t31 65.5t32.5 81t19 102q-61 -37 -95 -80t-58.5 -80.5t-49 -62t-67.5 -24.5q-49 0 -80 39.5t-31 80.5z" />
<glyph unicode="+" horiz-adv-x="1705" d="M254 528v166h514v527h170v-527h514v-166h-514v-528h-170v528h-514z" />
<glyph unicode="," horiz-adv-x="555" d="M27 -238q0 16 22.5 40t50 54.5t50 68.5t22.5 81q0 37 -15.5 65.5t-35 51t-34.5 42.5t-15 40q0 16 21.5 39.5t52 45t62.5 38t50 16.5q16 0 41 -17.5t46.5 -46t36.5 -68.5t15 -83q0 -150 -190 -315q-94 -82 -158 -82q-23 0 -22 30z" />
<glyph unicode="-" horiz-adv-x="673" d="M94 324v92q0 27 6 39t33 22l373 133q12 4 16 4q20 0 21 -34v-93q0 -27 -4 -40t-33 -23l-373 -133q-12 -4 -16 -4q-23 0 -23 37z" />
<glyph unicode="." horiz-adv-x="555" d="M80 154q0 16 14.5 34.5t40.5 44.5q47 49 80 76t55 27q8 0 18.5 -4t16.5 -13l115 -129q10 -10 10 -32q0 -18 -16 -35l-138 -129q-12 -12 -34 -12q-12 0 -39 20.5t-54.5 48t-48 57t-20.5 46.5z" />
<glyph unicode="/" horiz-adv-x="569" d="M-117 -162q0 14 6.5 30.5t16.5 41.5l575 1472q23 55 43.5 67.5t71.5 12.5q18 0 24.5 -6t6.5 -22q0 -10 -25 -72l-571 -1473q-20 -51 -40 -65t-71 -14q-37 0 -37 28z" />
<glyph unicode="0" horiz-adv-x="1107" d="M47 547q0 170 46 324.5t132 279.5q174 254 416 254q90 0 167 -38t132 -110.5t87 -177t32 -239.5q0 -184 -52.5 -348t-146.5 -291q-84 -113 -185.5 -171.5t-199.5 -58.5q-94 0 -173 40t-135 115t-88 181.5t-32 239.5zM274 653q1 -594 265 -594q139 0 217 176.5t78 518.5 q0 285 -71 430t-194 145q-131 0 -213 -172t-82 -504z" />
<glyph unicode="1" horiz-adv-x="1107" d="M223 20q0 18 8.5 26.5t21.5 14t28.5 7.5t29.5 6q59 18 85 78.5t36 164.5l76 707q6 66 6 74q0 109 -94 108q-23 0 -43.5 -6t-38.5 -6q-41 0 -41 35q0 33 46 45t122 29q61 12 104 29.5t73 32.5t49.5 26.5t33.5 11.5q27 0 27 -35q0 -6 -1 -17.5t-3 -25.5l-113 -1024 q-2 -16 -3 -31.5t-1 -25.5q0 -68 19.5 -106t72.5 -54q27 -6 50.5 -10t42 -9.5t28.5 -14.5t10 -27q0 -37 -55 -37q-66 0 -129.5 7t-126.5 7q-82 0 -150.5 -6t-128.5 -6q-41 0 -41 32z" />
<glyph unicode="2" horiz-adv-x="1107" d="M4 27q0 29 19.5 53t52.5 59l299 334q166 186 254 322.5t88 253.5q0 94 -54.5 144t-158.5 50q-59 0 -124 -28.5t-118 -81.5q-23 -23 -37 -43.5t-30 -20.5q-31 0 -31 25q0 20 23.5 66t76.5 100q70 70 159 105.5t189 35.5q78 0 141.5 -23.5t108.5 -64.5t69.5 -96.5 t24.5 -120.5q0 -180 -243 -424l-420 -420q-10 -10 -15.5 -19.5t-5.5 -13.5q0 -29 209 -29q104 0 183 10.5t145 53.5q23 16 39 32.5t28.5 31t24.5 23.5t27 9q27 0 26 -41q0 -23 -30.5 -75t-77.5 -148q-12 -23 -18.5 -40t-16.5 -28.5t-25.5 -17.5t-46.5 -6q-33 0 -103.5 6 t-180.5 6q-174 0 -267.5 -6t-111.5 -6q-72 0 -72 33z" />
<glyph unicode="3" horiz-adv-x="1107" d="M-45 172q0 37 39 37q10 0 34.5 -22.5t64.5 -48t97.5 -48t133.5 -22.5q86 0 157.5 30.5t122.5 82.5t79 120t28 143q0 117 -69 179.5t-202 62.5q-20 0 -35.5 -2t-27.5 -2q-45 0 -45 31q0 16 12 25.5t32.5 17.5t49.5 18t59 27q205 106 205 282q0 90 -54 145.5t-142 55.5 q-100 0 -213 -90q-37 -31 -57.5 -55.5t-45.5 -24.5q-20 0 -20 33q0 25 33.5 69t92 85.5t138.5 72.5t172 31q72 0 131 -20.5t100 -56.5t63.5 -84t22.5 -103q0 -88 -61 -166t-184 -154q135 -41 206.5 -127t71.5 -207q0 -100 -41 -192t-117.5 -164t-184 -115t-241.5 -43 q-98 0 -173.5 22.5t-127 54.5t-78 66t-26.5 56z" />
<glyph unicode="4" horiz-adv-x="1107" d="M-8 383q0 53 91 166t265 303q248 274 382 413.5t163 139.5q14 0 23.5 -9.5t9.5 -19.5q0 -23 -36 -243t-71 -641q10 -2 17.5 -2.5t15.5 -0.5q43 0 69.5 12.5t44 28t29 27.5t23.5 12q23 0 22 -34q0 -6 -2 -26t-7 -42.5t-11 -47t-14 -42.5q-16 -35 -39 -47.5t-62 -12.5 q-6 0 -31.5 1t-70.5 1q-29 -190 -35 -296.5t-31 -133.5q-10 -12 -31.5 -22t-46 -19.5t-49 -14.5t-43.5 -5q-33 0 -32 45q0 27 9 71t19 98t19.5 117.5t9.5 127.5q0 29 -28.5 35t-121.5 6q-147 0 -237 -5.5t-121 -5.5q-49 0 -70.5 14.5t-21.5 51.5zM172 504q0 -23 57 -23 q258 0 381 6l54 435q6 47 16 91t25 89q-272 -274 -402.5 -428t-130.5 -170z" />
<glyph unicode="5" horiz-adv-x="1107" d="M-23 78q0 16 13.5 29.5t32.5 13.5q14 0 36.5 -8.5t56.5 -17.5t79 -17t100 -8q106 0 191 26.5t144.5 71.5t91.5 106.5t32 131.5q0 123 -95.5 202.5t-269.5 79.5q-39 0 -69.5 -2t-55.5 -2q-53 0 -73.5 12.5t-20.5 48.5q0 29 39 148t92 352q10 47 16.5 69.5t19.5 32t42 9.5 t86 2l309 10q59 2 96 16.5t60.5 31t38 29.5t28.5 13q27 0 27 -26q0 -18 -21.5 -65.5t-58.5 -133.5q-8 -20 -18.5 -31.5t-26.5 -17.5t-40.5 -8t-61.5 -5l-293 -8q-41 -2 -66.5 -2t-42 -5t-25 -15.5t-16.5 -32.5q-10 -29 -26.5 -85t-32.5 -142q41 2 71.5 3t49.5 1 q129 0 229 -31t169 -86t104.5 -132t35.5 -169q0 -100 -44 -190.5t-124.5 -158t-196.5 -107.5t-261 -40q-164 0 -257.5 35t-93.5 72z" />
<glyph unicode="6" horiz-adv-x="1107" d="M51 537q0 115 31 224t88 205.5t141 177.5t189 140q117 66 243.5 98.5t231.5 32.5q78 0 78 -37q0 -20 -22.5 -28.5t-64.5 -15.5t-99.5 -19t-127.5 -43q-323 -140 -413 -502q152 139 356 139q74 0 137.5 -29.5t111.5 -83t75.5 -130t27.5 -168.5q0 -115 -38 -211.5 t-104.5 -167t-156.5 -109.5t-196 -39q-104 0 -194.5 40t-155 114t-101.5 178.5t-37 233.5zM289 479q0 -98 21.5 -178t60.5 -138.5t92 -90t117 -31.5q113 0 178 89t65 255q0 193 -73.5 300.5t-192.5 107.5q-121 0 -194.5 -81t-73.5 -233z" />
<glyph unicode="7" horiz-adv-x="1107" d="M131 1030q0 35 17.5 89.5t50.5 127.5q16 37 28.5 61.5t23.5 39t25.5 20.5t34.5 6q41 0 83 -2t89 -2q223 0 343 4t143 4q35 0 51 -13t16 -52q0 -31 -7 -77t-24.5 -104.5t-45 -126t-68.5 -137.5q-66 -113 -127.5 -214t-109.5 -195t-77.5 -184.5t-29.5 -180.5q0 -43 8 -78.5 t8 -66.5q0 -29 -47 -52.5t-125 -23.5q-59 0 -85.5 35t-26.5 112q0 92 26.5 175.5t72.5 163t109.5 159.5t137.5 168q137 166 213.5 282.5t76.5 188.5q0 16 -19 20.5t-60 4.5h-312q-96 0 -159.5 -11.5t-100.5 -46.5q-18 -18 -28.5 -41.5t-19.5 -46t-19.5 -38t-28.5 -15.5 q-37 0 -37 47z" />
<glyph unicode="8" horiz-adv-x="1107" d="M6 348q0 131 75.5 223.5t231.5 155.5q-76 63 -112.5 131t-36.5 150q0 80 33.5 150.5t96 124.5t150.5 86t195 32q205 0 320.5 -82t115.5 -217q0 -117 -83 -196t-232 -138q276 -117 276 -360q0 -90 -39 -169t-109.5 -138.5t-168.5 -93.5t-215 -34q-236 0 -367 101.5 t-131 273.5zM207 371q0 -76 23.5 -138.5t66.5 -106.5t102.5 -67.5t128.5 -23.5q68 0 126.5 23.5t101.5 62.5t67.5 91t24.5 107q0 170 -248 275q-104 43 -157.5 66.5t-69.5 23.5t-44 -21.5t-55.5 -61.5t-47 -98.5t-19.5 -131.5zM348 1090q0 -113 105 -185q78 -53 137 -75.5 t76 -22.5q31 0 69.5 21.5t72.5 60.5t57.5 94t23.5 125q0 98 -70.5 163.5t-193.5 65.5q-59 0 -110.5 -19.5t-88.5 -52t-57.5 -77.5t-20.5 -98z" />
<glyph unicode="9" horiz-adv-x="1107" d="M51 -2q0 20 23.5 28.5t65.5 14.5t99.5 18.5t127.5 42.5q323 142 411 502q-76 -72 -164 -104.5t-192 -32.5q-72 0 -136.5 28.5t-112.5 83t-75.5 130t-27.5 168.5q0 115 37.5 211t104.5 166.5t157 109.5t196 39t195.5 -40t154 -113.5t101.5 -178t37 -231.5 q0 -115 -31 -224.5t-88 -206t-140 -177t-188 -140.5q-117 -66 -246 -99.5t-231 -33.5q-78 0 -78 39zM281 989q0 -193 74.5 -300t193.5 -107q121 0 193.5 83t72.5 232q0 98 -21.5 179t-60.5 137.5t-92 88t-117 31.5q-113 0 -178 -89t-65 -255z" />
<glyph unicode=":" horiz-adv-x="577" d="M80 154q0 16 14.5 34.5t40.5 44.5q47 49 80 76t55 27q8 0 18.5 -4t16.5 -13l115 -129q10 -10 10 -32q0 -18 -16 -35l-138 -129q-12 -12 -34 -12q-12 0 -39 20.5t-54.5 48t-48 57t-20.5 46.5zM131 711q0 16 14.5 33.5t40.5 43.5q47 49 80 76t56 27q8 0 18 -4t16 -13 l115 -129q10 -10 10 -32q0 -16 -16 -33l-137 -131q-12 -12 -31 -12q-14 0 -42 21.5t-55.5 50t-48 57t-20.5 45.5z" />
<glyph unicode=";" horiz-adv-x="577" d="M27 -238q0 16 22.5 40t50 54.5t50 68.5t22.5 81q0 37 -15.5 65.5t-35 51t-34.5 42.5t-15 40q0 16 21.5 39.5t52 45t62.5 38t50 16.5q16 0 41 -17.5t46.5 -46t36.5 -68.5t15 -83q0 -150 -190 -315q-94 -82 -158 -82q-23 0 -22 30zM131 711q0 16 14.5 33.5t40.5 43.5 q47 49 80 76t56 27q8 0 18 -4t16 -13l115 -129q10 -10 10 -32q0 -16 -16 -33l-137 -131q-12 -12 -31 -12q-14 0 -42 21.5t-55.5 50t-48 57t-20.5 45.5z" />
<glyph unicode="&#x3c;" horiz-adv-x="1705" d="M264 530v160l1178 486v-185l-934 -381l934 -381v-182z" />
<glyph unicode="=" horiz-adv-x="1705" d="M254 322v165h1198v-165h-1198zM254 733v168h1198v-168h-1198z" />
<glyph unicode="&#x3e;" horiz-adv-x="1705" d="M264 47v182l934 381l-934 381v185l1178 -486v-160z" />
<glyph unicode="?" horiz-adv-x="843" d="M131 154q0 16 14.5 34.5t40.5 44.5q47 49 80 76t56 27q8 0 18 -4t16 -13l113 -129q12 -12 12 -32q0 -18 -16 -35l-139 -129q-12 -12 -33 -12q-12 0 -39 20.5t-54.5 48t-48 57t-20.5 46.5zM186 1260q0 33 21.5 67.5t60.5 64t91.5 48t113.5 18.5q66 0 120 -19.5t94 -53 t62.5 -78.5t22.5 -99q0 -51 -22.5 -102t-67.5 -98q-66 -66 -130.5 -123.5t-109.5 -122.5q-33 -49 -44 -93t-14 -76t-6 -50.5t-22 -18.5q-29 0 -46 32t-17 91q0 68 23.5 125t56.5 117q59 115 99 192.5t40 128.5t-35 88t-88 37q-37 0 -64.5 -14t-47 -31.5t-36 -32t-32.5 -14.5 q-23 0 -23 17z" />
<glyph unicode="@" horiz-adv-x="2019" d="M139 537q0 203 85 380t251 314q135 111 296 168t347 57q174 0 315.5 -49t242 -140t154.5 -218t54 -283q0 -162 -59.5 -299t-167.5 -236q-127 -111 -262 -110q-98 0 -152.5 52t-60.5 153q-63 -104 -136 -153.5t-167 -49.5q-135 0 -213 92t-78 248q0 111 48 217t142 197 q70 66 149 99.5t160 33.5q182 0 218 -187l51 170h172l-172 -616q-6 -25 -11.5 -48.5t-5.5 -47.5q0 -102 82 -103q29 0 79 19.5t97 58.5q111 88 169.5 221t58.5 297q0 139 -50.5 254t-140.5 196t-218 126t-286 45q-174 0 -328.5 -63.5t-273.5 -186.5q-246 -248 -245 -643 q0 -340 239 -541q104 -88 244.5 -135t304.5 -47q330 0 625 209l37 -47q-297 -223 -662 -224q-193 0 -350.5 47.5t-271.5 133.5q-152 115 -231 277.5t-79 361.5zM772 367q0 -86 38 -134.5t93 -48.5q66 0 118 43t105 131q59 104 91 217t32 197q0 86 -37.5 134t-99.5 48 q-68 0 -120 -47t-103 -145q-59 -115 -88 -216.5t-29 -178.5z" />
<glyph unicode="A" horiz-adv-x="1460" d="M-70 20q0 29 28 40.5t52 27.5q59 41 135 184l586 1100q23 41 37 63.5t39 22.5q23 0 35 -22.5t28 -67.5l357 -1067q29 -84 52.5 -133t63.5 -72q23 -12 45.5 -18t40 -12.5t28.5 -15.5t11 -27q0 -37 -55 -37q-41 0 -99.5 7t-135.5 7q-92 0 -152.5 -6t-95.5 -6q-41 0 -41 32 q0 23 15.5 33t41.5 21q70 27 70 110q0 18 -4 38t-13 44l-55 168q-12 35 -25.5 53.5t-60.5 18.5h-416q-37 0 -55 -11.5t-35 -43.5l-73 -150q-27 -57 -27 -104q0 -53 27.5 -79t89.5 -42q39 -10 61.5 -17.5t22.5 -35.5q0 -37 -56 -37q-43 0 -97 7t-124 7q-59 0 -110.5 -6 t-94.5 -6q-41 0 -41 32zM461 647q0 -31 47 -31h328q32 0 32 29v13q0 6 -4 16l-110 330q-27 83 -45 83q-19 -1 -60 -75l-176 -330q-12 -25 -12 -35z" />
<glyph unicode="B" horiz-adv-x="1388" d="M6 20q0 16 9.5 25.5t23.5 16t31.5 12.5t31.5 18q41 31 57.5 85t26.5 140l88 805q2 16 3.5 31.5t1.5 32.5q0 66 -21.5 102.5t-73.5 52.5q-41 12 -70.5 18.5t-29.5 39.5q0 37 55 37q29 0 99.5 -7.5t189.5 -7.5q90 0 178 4.5t178 4.5q233 0 355.5 -89.5t122.5 -242.5 q0 -98 -71 -185.5t-202 -130.5q145 -66 215 -152.5t70 -211.5q0 -195 -150.5 -313.5t-431.5 -118.5q-74 0 -171 7t-224 7q-92 0 -153.5 -6t-96.5 -6q-41 0 -41 32zM416 213q0 -78 41 -107.5t155 -29.5q197 0 301.5 87t104.5 228q0 152 -111.5 235t-333.5 83q-37 0 -58 -6.5 t-33.5 -20.5t-17.5 -40t-9 -62l-33 -283q-6 -61 -6 -84zM489 907q0 -31 5.5 -52t20.5 -34.5t45 -19.5t79 -6q182 0 276.5 73.5t94.5 202.5q0 119 -84 193.5t-238 74.5q-45 0 -74.5 -5t-49 -21.5t-29 -45t-15.5 -75.5l-28 -258q-2 -10 -2.5 -16.5t-0.5 -10.5z" />
<glyph unicode="C" horiz-adv-x="1435" d="M61 672q0 270 150 485q102 147 246.5 223t318.5 76q90 0 165 -16.5t132 -37t97 -36.5t63 -16q29 0 48 12t28 12q41 0 41 -49q0 -10 -4.5 -46t-4.5 -95q0 -92 5.5 -150.5t5.5 -87.5q0 -39 -27 -39q-23 0 -38 39t-46 103q-78 158 -195.5 238.5t-261.5 80.5q-106 0 -192 -43 t-147.5 -125t-94.5 -197.5t-33 -263.5q0 -143 35 -257.5t97.5 -194.5t149.5 -122t192 -42q111 0 213 49t186 141q35 39 50 63.5t42 24.5q23 0 23 -34q0 -18 -26 -66.5t-81 -110.5q-100 -111 -227 -170t-264 -59q-135 0 -253 52.5t-205 145.5t-137.5 224t-50.5 289z" />
<glyph unicode="D" horiz-adv-x="1540" d="M6 20q0 16 9.5 25.5t23.5 16t31.5 12.5t31.5 18q41 31 57.5 85t26.5 140l88 805q2 16 3.5 31.5t1.5 32.5q0 66 -21.5 102.5t-73.5 52.5q-41 12 -70.5 18.5t-29.5 39.5q0 37 55 37q27 0 100.5 -7.5t196.5 -7.5q117 0 215.5 6.5t177.5 6.5q315 0 488.5 -153t173.5 -435 q0 -211 -94 -395.5t-267 -307.5q-106 -76 -240 -115.5t-288 -39.5q-86 0 -166 6t-151 6q-82 0 -141.5 -6t-96.5 -6q-41 0 -41 32zM418 240q0 -88 38 -126t140 -38q256 0 432 194q92 104 147.5 254t55.5 307q0 117 -34 211.5t-96.5 162t-151.5 104.5t-197 37 q-74 0 -118 -12.5t-68.5 -41t-36 -77t-19.5 -119.5l-88 -799q-2 -20 -3 -34.5t-1 -22.5z" />
<glyph unicode="E" horiz-adv-x="1280" d="M6 20q0 16 9.5 25.5t23.5 16t31.5 12.5t31.5 18q41 31 57.5 85t26.5 140l88 805q2 16 3.5 31.5t1.5 32.5q0 66 -21.5 102.5t-73.5 52.5q-41 12 -70.5 18.5t-29.5 39.5q0 37 55 37q16 0 106.5 -7t264.5 -8q158 0 321.5 7.5t337.5 7.5q29 0 46.5 -5.5t26.5 -29t12 -71.5 t3 -134q0 -53 -7 -78.5t-36 -25.5q-23 0 -33 15t-14 37.5t-9 49.5t-17 47q-55 90 -430 90q-63 0 -99.5 -4t-55.5 -24.5t-27.5 -64.5t-16.5 -124l-31 -291v-6q0 -27 23 -26h262q51 0 87 12t71 59q27 35 41 64.5t43 29.5q12 0 20 -12t8 -31q0 -31 -12 -101.5t-12 -174.5 q0 -25 1 -44.5t1 -31.5q0 -78 -39 -78q-18 0 -28.5 14.5t-18.5 37t-16.5 49t-22.5 49.5q-39 61 -164 61h-227q-31 0 -35 -32l-41 -377q-4 -23 -4 -40.5v-29.5q0 -74 42 -96.5t128 -22.5q147 0 251.5 30t204.5 114q31 25 50.5 50t35 44.5t27.5 32t29 12.5q29 0 28 -45 q0 -18 -6 -48t-16 -64t-26.5 -69.5t-39.5 -66.5q-43 -61 -93 -79.5t-134 -18.5q-78 0 -189.5 7t-258.5 7q-188 0 -288 -7t-116 -7q-41 0 -41 32z" />
<glyph unicode="F" horiz-adv-x="1185" d="M6 20q0 16 9.5 25.5t23.5 16t31.5 12.5t31.5 18q41 31 57.5 85t26.5 140l88 805q2 16 3.5 31.5t1.5 32.5q0 66 -21.5 102.5t-73.5 52.5q-41 12 -70.5 18.5t-29.5 39.5q0 37 55 37q16 0 103.5 -7t249.5 -8q137 0 295.5 7.5t338.5 7.5q29 0 46.5 -5.5t26.5 -29t11 -71.5 t2 -134q0 -53 -6 -78.5t-35 -25.5q-23 0 -33 15t-14 37.5t-9 49.5t-17 47q-55 90 -414 90q-51 0 -82 -5t-48 -26.5t-25.5 -65.5t-16.5 -120l-31 -291v-6q0 -27 23 -26h239q51 0 87 12t71 59q27 35 41 64.5t43 29.5q12 0 20.5 -12t8.5 -31q0 -31 -12.5 -101.5t-12.5 -174.5 q0 -25 1 -44.5t1 -31.5q0 -78 -39 -78q-18 0 -28.5 14.5t-18.5 37t-16 49t-23 49.5q-39 61 -164 61h-204q-31 0 -35 -32l-41 -361q-2 -18 -3 -32.5t-1 -24.5q0 -70 20.5 -108t73.5 -56q39 -12 70.5 -18t31.5 -39q0 -35 -55 -35q-33 0 -97.5 6t-164.5 6q-92 0 -153.5 -6 t-96.5 -6q-41 0 -41 32z" />
<glyph unicode="G" horiz-adv-x="1484" d="M61 647q0 178 54.5 327.5t150.5 256t231.5 166t297.5 59.5q92 0 167.5 -16.5t134 -37t98.5 -36.5t60 -16q29 0 48.5 12t27.5 12q43 0 43 -49q0 -10 -4 -46t-4 -95q0 -92 5 -150.5t5 -87.5q0 -39 -28 -39q-23 0 -38.5 39t-45.5 103q-78 160 -197 240.5t-266 80.5 q-229 0 -353 -172t-124 -500q0 -313 109.5 -472.5t311.5 -159.5q129 0 210 64.5t94 176.5l14 137q0 6 1 12.5t1 12.5q0 98 -94 139q-18 8 -38 12.5t-36 9.5t-26.5 13t-10.5 23q0 41 78 41q25 0 79 -5.5t140 -5.5q98 0 155.5 5.5t80.5 5.5q63 0 63 -41q0 -14 -10 -21.5 t-24.5 -12.5t-32 -11.5t-33.5 -18.5q-27 -20 -36 -58t-17 -98l-37 -325q-74 -12 -142.5 -39t-137 -53.5t-141.5 -47t-155 -20.5q-139 0 -255 48t-198.5 138.5t-129 217.5t-46.5 282z" />
<glyph unicode="H" horiz-adv-x="1624" d="M6 20q0 16 9.5 25.5t23.5 16t31.5 12.5t31.5 18q41 31 57.5 85t26.5 140l88 805q2 16 3.5 31.5t1.5 32.5q0 66 -21.5 102.5t-73.5 52.5q-41 12 -70.5 18.5t-29.5 39.5q0 37 55 37q33 0 98.5 -7.5t163.5 -7.5q92 0 152.5 7.5t95.5 7.5q41 0 41 -33q0 -16 -9 -25.5 t-23.5 -16.5t-31 -13.5t-32.5 -18.5q-41 -31 -56.5 -84t-25.5 -139l-31 -272v-7q0 -29 23 -28h629q31 0 34 32l33 291q2 16 3 31.5t1 32.5q0 66 -21.5 102.5t-72.5 52.5q-39 12 -69.5 18.5t-30.5 39.5q0 37 53 37q33 0 97.5 -7.5t164.5 -7.5q92 0 153.5 7.5t96.5 7.5 q41 0 41 -33q0 -16 -9.5 -25.5t-23.5 -16.5t-30.5 -13.5t-32.5 -18.5q-41 -31 -56.5 -84t-25.5 -139l-90 -805q-2 -20 -3.5 -34.5t-1.5 -22.5q0 -70 20.5 -108t74.5 -56q37 -12 68.5 -18t31.5 -39q0 -37 -53 -37q-35 0 -99.5 7t-162.5 7q-92 0 -153.5 -6t-96.5 -6 q-41 0 -41 32q0 16 9 25.5t23.5 16t32 12.5t31.5 18q41 29 56.5 84t25.5 141l39 340v5q0 29 -31 28h-622q-31 0 -35 -33l-39 -356q-2 -20 -3 -34.5t-1 -22.5q0 -70 20.5 -108t73.5 -56q39 -12 70.5 -18t31.5 -39q0 -37 -55 -37q-33 0 -97.5 7t-164.5 7q-92 0 -153.5 -6 t-96.5 -6q-41 0 -41 32z" />
<glyph unicode="I" horiz-adv-x="712" d="M16 20q0 16 9.5 25.5t23.5 16t31.5 12.5t32.5 18q41 31 56 85t26 140l90 805q2 16 3 31.5t1 32.5q0 123 -96 155q-41 12 -71 18.5t-30 39.5q0 37 55 37q33 0 100.5 -7.5t168.5 -7.5q92 0 152.5 7.5t95.5 7.5q41 0 41 -33q0 -16 -9.5 -25.5t-24 -16.5t-30.5 -13.5 t-33 -18.5q-41 -31 -56 -84t-26 -139l-90 -805q-2 -20 -3 -34.5t-1 -22.5q0 -70 20.5 -108t73.5 -56q39 -12 70 -18t31 -39q0 -37 -54 -37q-35 0 -99 7t-163 7q-96 0 -158.5 -6t-95.5 -6q-41 0 -41 32z" />
<glyph unicode="J" horiz-adv-x="882" d="M-31 86q0 27 11.5 54.5t28 51t38 38t39.5 14.5q35 0 48 -31t28 -78q31 -102 88 -102q49 0 76.5 65.5t42.5 198.5l92 825q2 16 3 31.5t1 32.5q0 123 -96 155q-41 12 -71 18.5t-30 39.5q0 37 56 37q33 0 98 -7.5t164 -7.5q92 0 152.5 7.5t95.5 7.5q43 0 43 -33 q0 -16 -9.5 -25.5t-25 -16.5t-31.5 -13.5t-33 -18.5q-41 -31 -56 -84t-26 -139l-65 -598q-6 -57 -13.5 -111.5t-20.5 -107.5t-37.5 -104.5t-65.5 -102.5q-59 -74 -145.5 -118t-164.5 -44q-92 0 -153.5 47t-61.5 119z" />
<glyph unicode="K" horiz-adv-x="1521" d="M6 20q0 16 9.5 25.5t23.5 16t31.5 12.5t31.5 18q41 31 57.5 85t26.5 140l88 805q2 16 3.5 31.5t1.5 32.5q0 66 -21.5 102.5t-73.5 52.5q-41 12 -70.5 18.5t-29.5 39.5q0 37 55 37q33 0 98.5 -7.5t163.5 -7.5q92 0 152.5 7.5t95.5 7.5q41 0 41 -33q0 -16 -9 -25.5 t-23.5 -16.5t-31 -13.5t-32.5 -18.5q-41 -31 -56.5 -85t-25.5 -138l-43 -369l545 471q29 27 45 47.5t16 40.5q0 23 -20.5 34t-45 19.5t-45 17.5t-20.5 26q0 41 66 41q18 0 76.5 -6.5t160.5 -6.5q109 0 168.5 6.5t71.5 6.5q45 0 45 -31q0 -23 -19.5 -36t-60.5 -26 q-76 -23 -128 -46t-89 -47.5t-62.5 -47t-50.5 -43.5l-303 -254q-29 -23 -28 -47q0 -14 10 -31l381 -551q47 -70 105.5 -117.5t115.5 -70.5q23 -8 44 -12t37.5 -9.5t27 -14.5t10.5 -25q0 -33 -41 -33q-8 0 -47 4t-113 4q-86 0 -132 -5t-56 -5q-35 0 -54.5 20.5t-42.5 52.5 l-434 656l-147 -119l-33 -299q-2 -16 -3 -31.5t-1 -25.5q0 -70 20.5 -108t73.5 -56q39 -12 70.5 -18t31.5 -39q0 -37 -55 -37q-33 0 -97.5 7t-164.5 7q-92 0 -153.5 -6t-96.5 -6q-41 0 -41 32z" />
<glyph unicode="L" horiz-adv-x="1232" d="M6 20q0 16 9.5 25.5t23.5 16t31.5 12.5t31.5 18q41 31 57.5 85t26.5 140l88 805q2 16 3.5 31.5t1.5 32.5q0 66 -21.5 102.5t-73.5 52.5q-41 12 -70.5 18.5t-29.5 39.5q0 37 55 37q33 0 98.5 -7.5t163.5 -7.5q92 0 152.5 7.5t95.5 7.5q41 0 41 -33q0 -16 -9 -25.5 t-23.5 -16.5t-31 -13.5t-32.5 -18.5q-41 -29 -56.5 -83t-25.5 -140l-90 -821q-4 -23 -4 -40.5v-29.5q0 -76 42 -97.5t128 -21.5q147 0 251.5 30t204.5 114q31 25 50.5 50t35 44.5t27.5 32t29 12.5q28 0 28 -42q0 -21 -6 -51t-16 -64t-26.5 -69.5t-39.5 -66.5 q-43 -61 -93 -77.5t-134 -16.5q-78 0 -189.5 5t-258.5 5q-188 0 -288 -7t-116 -7q-41 0 -41 32z" />
<glyph unicode="M" horiz-adv-x="1878" d="M-29 20q0 31 28 40.5t52 23.5q53 31 78 89t41 144l109 582q16 94 22 150.5t6 72.5q0 43 -12 81t-34.5 67.5t-54.5 47t-69 17.5q-10 0 -24.5 -1t-34.5 -1q-18 0 -30.5 9.5t-12.5 21.5q0 66 168 66q35 0 69.5 -2.5t69.5 -2.5q23 0 47.5 1t48.5 1q61 0 111 -127l325 -874 q27 -72 48 -72q18 0 55 72l471 930q23 43 48.5 57t70.5 14q25 0 51.5 -3t56.5 -3q47 0 84 4.5t66 4.5q69 0 69 -34q0 -20 -9 -28t-24.5 -11t-34 -4t-34.5 -5q-72 -16 -95.5 -86t-27.5 -199l-18 -762v-22q0 -72 13 -114t52 -67q23 -14 45.5 -21t40 -13.5t28.5 -14.5t11 -26 q0 -37 -55 -37q-33 0 -98.5 7t-163.5 7q-92 0 -152.5 -6t-95.5 -6q-41 0 -41 32q0 31 26.5 40.5t53.5 23.5q51 29 72.5 85t25.5 148l25 803l-518 -1022q-49 -98 -82 -98q-35 0 -78 115l-344 938l-127 -752q-6 -33 -6 -55q0 -131 104 -166q37 -12 68.5 -18.5t31.5 -38.5 q0 -37 -53 -37q-43 0 -98 7t-125 7q-55 0 -104.5 -6t-94.5 -6q-41 0 -41 32z" />
<glyph unicode="N" horiz-adv-x="1585" d="M-12 20q0 29 24.5 39.5t57.5 28.5q51 29 76.5 83t39.5 146l93 582q6 41 13 89t7 106q0 195 -135 237q-25 8 -49.5 11.5t-44 8.5t-31.5 13t-12 27q0 45 61 45q35 0 81 -6.5t101 -6.5q39 0 74 2t70 2q29 0 48 -8t34.5 -23.5t31 -39t35.5 -51.5l651 -924l80 694q2 10 3 27.5 t1 44.5q0 72 -26.5 115t-89.5 69q-25 10 -48.5 14.5t-43 10.5t-30.5 15t-11 28q0 37 55 37t119.5 -7.5t138.5 -7.5q68 0 123 7.5t96 7.5t41 -33q0 -29 -25.5 -40t-58.5 -30q-49 -29 -76.5 -83t-40.5 -144l-147 -1065q-8 -55 -35 -55q-25 0 -45 22.5t-49 63.5l-731 1044 l-101 -768q-2 -16 -2 -33.5v-40.5q0 -137 95 -176q31 -12 59.5 -18t50 -12t33.5 -16.5t12 -28.5q0 -37 -55 -37t-121 7t-139 7q-68 0 -122 -6t-95 -6t-41 32z" />
<glyph unicode="O" horiz-adv-x="1636" d="M55 635q0 160 59.5 306t172.5 265q242 252 604 252q156 0 284 -48t219 -134t141 -207t50 -268q0 -158 -53 -300.5t-154 -256.5q-119 -135 -277.5 -209t-334.5 -74q-166 0 -298 48t-223 137.5t-140.5 213t-49.5 275.5zM317 635q0 -281 121 -431.5t332 -150.5 q125 0 226.5 52.5t174 148.5t112.5 230t40 296q0 283 -120.5 434.5t-325.5 151.5q-125 0 -227.5 -53t-176.5 -150.5t-115 -231.5t-41 -296z" />
<glyph unicode="P" horiz-adv-x="1275" d="M6 20q0 16 9.5 25.5t23.5 16t31.5 12.5t31.5 18q41 31 57.5 85t26.5 140l88 805q2 16 3.5 31.5t1.5 32.5q0 66 -21.5 102.5t-73.5 52.5q-41 12 -70.5 18.5t-29.5 39.5q0 37 55 37q25 0 100.5 -7.5t202.5 -7.5q86 0 167 4.5t159 4.5q119 0 212 -31t156.5 -85t96.5 -128 t33 -160t-36 -159.5t-100.5 -128t-154.5 -86t-199 -31.5q-104 0 -162.5 20.5t-58.5 48.5q0 33 43 34q23 0 50.5 -4.5t62.5 -4.5q135 0 216 83t81 218q0 72 -25 132t-69 103t-105 67.5t-135 24.5q-80 0 -112 -32.5t-42 -118.5l-98 -891q-2 -16 -3 -31.5t-1 -25.5 q0 -70 20.5 -107t73.5 -53q25 -6 47.5 -10t39.5 -9.5t27.5 -14.5t10.5 -27q0 -37 -55 -37q-29 0 -98.5 7t-186.5 7q-92 0 -153.5 -6t-96.5 -6q-41 0 -41 32z" />
<glyph unicode="Q" horiz-adv-x="1636" d="M55 631q0 164 59.5 310t172.5 265q242 252 604 252q156 0 284 -48t219 -134t141 -207t50 -268q0 -156 -51 -296t-144.5 -251t-225.5 -185.5t-292 -99.5q168 -92 279 -149.5t186 -57.5q49 0 81 21.5t53.5 47.5t37 47.5t31.5 21.5q23 0 23 -33q0 -18 -14.5 -50t-45.5 -73 q-55 -72 -114.5 -105.5t-135.5 -33.5q-80 0 -177 38t-220 109q-156 92 -259 152.5t-185 60.5q-61 0 -96 -30.5t-35 -84.5q0 -29 9 -50t19 -36.5t19.5 -29t9.5 -25.5q0 -25 -29 -24q-20 0 -44.5 16t-46 46t-36 69t-14.5 86q0 74 37 126t98 68q-123 98 -185.5 233.5 t-62.5 301.5zM319 635q0 -281 121 -431.5t332 -150.5q125 0 226.5 52.5t174 148.5t112.5 230t40 296q0 141 -31.5 250t-91 183.5t-141.5 113.5t-184 39q-125 0 -227.5 -53t-176.5 -150.5t-114 -231.5t-40 -296z" />
<glyph unicode="R" horiz-adv-x="1351" d="M6 20q0 16 9.5 25.5t23.5 16t31.5 12.5t31.5 18q41 31 57.5 85t26.5 140l88 805q2 16 3.5 31.5t1.5 32.5q0 66 -21.5 102.5t-73.5 52.5q-41 12 -70.5 18.5t-29.5 39.5q0 37 55 37q25 0 99.5 -7.5t203.5 -7.5q84 0 159 3t140 3q115 0 205 -30.5t151.5 -83.5t94.5 -123 t33 -148q0 -125 -81 -216t-243 -144q106 -256 179 -400.5t130 -172.5q18 -8 38 -11.5t36 -6.5t27.5 -9t11.5 -23q0 -35 -53 -60.5t-125 -25.5q-63 0 -114.5 29t-97.5 85t-89 143t-92 204q-27 66 -42.5 112t-35 75.5t-51 44t-93.5 14.5q-35 0 -52 -18.5t-23 -67.5l-33 -293 q-2 -20 -3 -34.5t-1 -22.5q0 -70 20.5 -108t73.5 -56q39 -12 70.5 -18t31.5 -39q0 -37 -55 -37q-33 0 -97.5 7t-164.5 7q-92 0 -153.5 -6t-96.5 -6q-41 0 -41 32zM483 860q0 -61 36 -82.5t145 -21.5q156 0 231.5 62.5t75.5 197.5q0 68 -22.5 127t-63.5 102t-97.5 67.5 t-123.5 24.5q-74 0 -104 -28.5t-40 -116.5l-35 -297q-2 -16 -2 -23.5v-11.5z" />
<glyph unicode="S" horiz-adv-x="1089" d="M41 313q0 70 37 70q27 0 41 -28.5t43 -78.5q63 -109 139 -166t197 -57q113 0 179 62.5t66 158.5q0 86 -61 169t-172 188q-72 66 -133.5 123t-107.5 113.5t-72.5 118t-26.5 134.5q0 72 28.5 133.5t80 107.5t122 71.5t156.5 25.5q55 0 103.5 -8t87 -19.5t68.5 -19.5t48 -8 t37 11t35 11q37 0 37 -71q0 -117 9 -173.5t10 -70.5q0 -23 -9.5 -37t-21.5 -14q-29 0 -43.5 35.5t-40.5 79.5q-118 196 -285 196h-2q-90 0 -143.5 -52t-53.5 -130q0 -84 63.5 -159t174.5 -173q74 -66 135 -123t106.5 -115.5t71 -123t25.5 -142.5q0 -180 -140.5 -285.5 t-408.5 -105.5q-135 0 -214 18.5t-100 47.5q-6 8 -16 38.5t-21.5 71.5t-19.5 88t-8 88z" />
<glyph unicode="T" horiz-adv-x="1374" d="M45 1067q0 6 10 51l54 203q16 59 31.5 85t76.5 26q18 0 122.5 -7t301.5 -6q322 0 489.5 6.5t190.5 6.5q39 0 54.5 -20.5t17.5 -80.5l4 -172v-14q0 -68 -35 -68q-27 0 -37 26.5t-22 70.5q-33 119 -136 124l-178 11h-12q-100 0 -113 -95l-102 -913q-2 -20 -3 -34.5 t-1 -22.5q0 -70 20.5 -108t73.5 -56q39 -12 69.5 -18t30.5 -39q0 -37 -55 -37q-33 0 -97.5 7t-164.5 7q-92 0 -152.5 -6t-95.5 -6q-41 0 -41 32q0 16 9.5 25.5t23.5 16t31.5 12.5t31.5 18q41 31 56.5 85t25.5 140l103 906q0 4 1 11t1 17q0 37 -31 49.5t-94 12.5 q-119 0 -192.5 -16.5t-114.5 -73.5q-27 -37 -41.5 -72t-25.5 -61.5t-23.5 -43t-30.5 -16.5q-12 0 -21.5 11.5t-9.5 25.5z" />
<glyph unicode="U" horiz-adv-x="1677" d="M92 1399q0 37 55 37q33 0 98.5 -7.5t164.5 -7.5q92 0 153.5 7.5t95.5 7.5q41 0 41 -33q0 -20 -14 -30.5t-35.5 -20t-43 -22.5t-38.5 -38q-25 -43 -49 -186q-39 -236 -49 -392.5t-10 -215.5q0 -209 90 -316.5t264 -107.5q193 0 316.5 115.5t171.5 345.5q49 250 65 404.5 t16 207.5q0 78 -27.5 114.5t-90.5 69.5q-45 23 -74 30t-29 38q0 37 56 37q35 0 90 -7.5t133 -7.5q72 0 127 7.5t96 7.5t41 -33q0 -31 -30.5 -42t-67.5 -36q-47 -31 -66.5 -89t-36.5 -144q-49 -270 -77.5 -447.5t-57.5 -261.5q-150 -422 -622 -422q-268 0 -405.5 119 t-137.5 344q0 109 13 212t28.5 199.5t28 185.5t12.5 169q0 61 -21.5 98t-72.5 53q-41 12 -71 18.5t-30 39.5z" />
<glyph unicode="V" horiz-adv-x="1421" d="M12 1397q0 37 56 37q39 0 100 -7.5t147 -7.5q78 0 136.5 6.5t97.5 6.5q43 0 43 -33q0 -27 -22.5 -33t-53.5 -16q-35 -10 -56.5 -41t-21.5 -74q0 -33 17 -82l229 -737q27 -84 45 -84q14 0 57 76l392 712q31 55 30 97q0 53 -28.5 80.5t-92.5 43.5q-39 10 -62.5 18.5 t-23.5 37.5q0 37 56 37q43 0 98 -7.5t125 -7.5q59 0 109.5 6.5t93.5 6.5q41 0 41 -33q0 -29 -25.5 -40t-54.5 -30q-35 -23 -65.5 -69t-67.5 -113l-606 -1100q-23 -41 -38.5 -63.5t-37.5 -22.5q-23 0 -36 21.5t-28 68.5l-336 1069q-27 84 -53 133.5t-65 71.5q-14 8 -32 14.5 t-32 13.5t-24.5 17t-10.5 27z" />
<glyph unicode="W" horiz-adv-x="2037" d="M43 1397q0 37 55 37q39 0 100.5 -7.5t147.5 -7.5q78 0 136.5 6.5t97.5 6.5q41 0 41 -33q0 -27 -23 -33t-53 -16q-76 -23 -76 -115q0 -18 5 -37.5t11 -44.5l174 -678q10 -41 24.5 -62.5t21.5 -21.5q4 0 21 19.5t36 56.5l221 438q23 41 23 58q0 6 -11 47l-28 110 q-43 160 -119 205q-14 8 -31.5 14.5t-32 13.5t-24.5 17t-10 27q0 37 55 37q39 0 100.5 -7.5t147.5 -7.5q78 0 136 6.5t97 6.5q41 0 41 -33q0 -27 -21.5 -33t-52.5 -16q-35 -10 -56 -41t-21 -74q0 -18 5 -38.5t11 -43.5l172 -668q10 -43 23.5 -64.5t21.5 -21.5q6 0 22.5 19.5 t34.5 56.5l314 645q31 61 30 97q0 53 -27.5 80.5t-90.5 43.5q-39 10 -62.5 18.5t-23.5 37.5q0 37 55 37q43 0 97 -7.5t124 -7.5q59 0 110.5 6.5t94.5 6.5q41 0 41 -33q0 -29 -25.5 -40t-54.5 -30q-29 -18 -64.5 -65t-70.5 -117l-553 -1100q-20 -41 -33.5 -63.5t-36.5 -22.5 q-31 0 -55 90l-162 635q-10 37 -21.5 58.5t-15.5 21.5q-14 0 -51 -72l-330 -647q-23 -43 -37 -64.5t-34 -21.5q-37 0 -58 90l-268 1069q-18 78 -50 130.5t-67 74.5q-14 8 -31.5 14.5t-32 13.5t-24.5 17t-10 27z" />
<glyph unicode="X" horiz-adv-x="1511" d="M31 20q0 35 71 64q39 14 71 30.5t59.5 37t55 48t58.5 64.5l332 389q12 12 12 37q0 12 -10 39l-156 385q-37 90 -79 135t-101 45q-51 0 -90 -37.5t-39 -97.5q0 -27 8 -48t19.5 -39.5t19.5 -35t8 -30.5q0 -12 -10 -22.5t-27 -10.5q-39 0 -77.5 52t-38.5 138 q0 61 24.5 113.5t68.5 90.5t102.5 60.5t125.5 22.5q113 0 181.5 -57.5t119.5 -180.5l105 -256q25 -57 35 -57q12 0 55 51l182 217q45 55 45 97q0 49 -57 73q-41 18 -67.5 25.5t-26.5 30.5q0 41 63 41q20 0 79.5 -6.5t160.5 -6.5q76 0 123 6.5t69 6.5q45 0 45 -31 q0 -37 -69 -64q-39 -14 -70 -30.5t-58.5 -38t-55 -49t-60.5 -64.5l-299 -346q-16 -20 -16 -37q0 -8 10 -35l201 -487q35 -84 75.5 -124t98.5 -40q27 0 48 9t39.5 19.5t33 19.5t26.5 9t22.5 -10t10.5 -22q0 -18 -19.5 -42t-56.5 -45.5t-89 -36t-118 -14.5q-119 0 -189.5 48.5 t-111.5 154.5l-137 344q-18 43 -31 43q-10 0 -45 -41l-223 -268q-37 -47 -37 -94q0 -63 92 -84q45 -10 74 -16t29 -31q0 -43 -66 -43q-18 0 -76.5 6t-160.5 6q-113 0 -173.5 -5t-72.5 -5q-45 0 -45 30z" />
<glyph unicode="Y" horiz-adv-x="1341" d="M55 1395q0 39 56 39q37 0 99 -7.5t148 -7.5q78 0 136.5 6.5t97.5 6.5q41 0 41 -33q0 -27 -22.5 -33t-53.5 -16q-72 -23 -72 -103q0 -41 25 -94l166 -338q39 -82 55 -82q18 0 66 72l229 348q16 25 26.5 47.5t10.5 46.5q0 70 -90 94q-41 10 -65.5 18.5t-24.5 37.5 q0 37 55 37q43 0 98.5 -7.5t124.5 -7.5q59 0 109.5 6.5t93.5 6.5q41 0 41 -33q0 -20 -20.5 -32.5t-54.5 -34t-80 -61.5t-95 -114l-315 -471q-23 -31 -37.5 -61.5t-18.5 -67.5l-28 -256q-2 -16 -3 -30.5t-1 -24.5q0 -72 19.5 -109t74.5 -53q47 -14 84 -20.5t37 -40.5 q0 -37 -56 -37q-29 0 -99.5 7t-182.5 7q-117 0 -185.5 -6t-97.5 -6q-41 0 -41 32q0 31 30 41.5t71 26.5q31 12 50 27.5t30.5 41t18.5 64.5t13 96l19 175q2 10 3 20t1 20q0 29 -7.5 53.5t-21.5 53.5l-238 481q-33 66 -59.5 117t-67.5 84q-16 12 -32.5 20.5t-29.5 14.5 t-21.5 15t-8.5 24z" />
<glyph unicode="Z" horiz-adv-x="1247" d="M55 16q0 41 100.5 185.5t278.5 419.5q197 303 291 472t94 203q0 23 -43 27t-129 4q-139 0 -226 -20.5t-138 -100.5q-16 -25 -26.5 -48t-20.5 -42.5t-18.5 -31t-22.5 -11.5q-10 0 -19.5 11.5t-9.5 33.5q0 2 9 63.5t34 176.5q10 43 29.5 58.5t60.5 15.5q29 0 116 -7.5 t238 -7.5q207 0 319.5 10.5t133.5 10.5q41 0 56.5 -10t15.5 -35q0 -39 -110 -196t-302 -462q-180 -289 -265 -441.5t-85 -164.5q0 -23 34.5 -28t104.5 -5h102q84 0 179.5 40t175.5 118q47 45 67.5 82t50.5 37q29 0 29 -45q0 -31 -17.5 -97.5t-58.5 -132.5t-85 -87t-111 -21 q-53 0 -136 5t-200 5q-190 0 -300 -7t-138 -7q-57 0 -58 30z" />
<glyph unicode="[" horiz-adv-x="782" d="M84 -309l197 1730h352q27 0 39 -8t12 -31q0 -16 -13.5 -29.5t-37.5 -13.5h-113q-33 0 -50 -12t-21 -45l-164 -1434q0 -6 -1 -12t-1 -10q0 -53 51 -53h119q43 0 43 -37q0 -45 -58 -45h-354z" />
<glyph unicode="\" horiz-adv-x="569" d="M-61 1434q0 16 5 22t23 6q51 0 72.5 -12t44.5 -68l575 -1472q10 -25 16.5 -41t6.5 -31q0 -29 -37 -28q-51 0 -70.5 14t-39.5 65l-574 1473q-23 57 -22 72z" />
<glyph unicode="]" horiz-adv-x="782" d="M66 -272q0 45 51 45h112q66 0 72 59l164 1434q0 6 1 12t1 10q0 51 -51 51h-119q-43 0 -43 39q0 43 57 43h355l-197 -1730h-352q-51 0 -51 37z" />
<glyph unicode="^" horiz-adv-x="2048" d="M412 897l503 565h215l502 -565h-104l-506 397l-506 -397h-104z" />
<glyph unicode="_" d="M0 -311h1024v-172h-1024v172z" />
<glyph unicode="`" d="M365 1278q0 41 24.5 63.5t59.5 22.5q51 0 98 -59l246 -304h-105l-260 193q-29 23 -46 42t-17 42z" />
<glyph unicode="a" horiz-adv-x="1005" d="M25 291q0 111 43 219t125 203q80 92 164.5 135t189.5 43q37 0 66.5 -9.5t52 -19.5t39 -19t24.5 -9q20 0 41 20t41 46t39.5 46.5t36.5 20.5q10 0 18 -8.5t8 -18.5q0 -18 -29.5 -124.5t-54.5 -307.5l-20 -164q-6 -45 -7 -73.5t-1 -41.5q0 -79 44 -79h1q23 0 38 13 t27.5 29.5t25.5 30t28 13.5q18 0 18 -27q0 -20 -23.5 -59t-60.5 -76t-81 -64.5t-85 -27.5q-55 0 -88 51t-33 153v17l-12 -2q-141 -217 -321 -217q-113 0 -183.5 83t-70.5 224zM233 334q0 -217 140 -217q78 0 147.5 76.5t91.5 218.5l39 239q6 43 6 76q0 100 -106 100 q-68 0 -125 -37.5t-100 -103t-68 -157t-25 -195.5z" />
<glyph unicode="b" horiz-adv-x="946" d="M14 1415q0 31 36 38t102 17q84 10 131 26.5t63 16.5q41 0 41 -47q0 -8 -6 -67l-82 -713q66 102 148.5 153.5t170.5 51.5q117 0 191 -87t74 -237q0 -117 -40 -225.5t-114 -191t-176 -133t-225 -50.5q-137 0 -210 68.5t-73 204.5q0 18 3 50t7 79l105 905q0 6 1 13t1 18 q0 84 -66 84q-8 0 -18 -1.5t-23 -1.5q-16 0 -28.5 8.5t-12.5 20.5zM244 172q0 -133 127 -133q61 0 117.5 35t97.5 97t65.5 147t24.5 184q0 117 -45 177t-121 60q-86 0 -152.5 -71.5t-83.5 -204.5l-26 -236q-2 -16 -3 -29.5t-1 -25.5z" />
<glyph unicode="c" horiz-adv-x="829" d="M31 336q0 115 37.5 216t106.5 177t164 119t208 43q57 0 102 -14.5t77 -36t48.5 -48t16.5 -49.5q0 -18 -10.5 -39.5t-26 -40t-36 -29.5t-40.5 -11q-33 0 -52.5 21.5t-39.5 55.5q-29 49 -55.5 80t-81.5 31q-43 0 -84 -27.5t-72 -79t-50.5 -123t-19.5 -161.5 q0 -152 66.5 -236t181.5 -84q72 0 109.5 22.5t44.5 22.5q6 0 16 9.5t22.5 19.5t25.5 19.5t26 9.5q27 0 26 -27q0 -20 -29.5 -56t-81.5 -70t-123 -58.5t-155 -24.5q-141 0 -231 96.5t-90 272.5z" />
<glyph unicode="d" horiz-adv-x="1005" d="M25 291q0 111 43 220.5t125 201.5q80 92 164.5 135t189.5 43q59 0 117 -29l47 412q0 6 1 13t1 18q0 84 -64 84q-8 0 -19.5 -1.5t-23.5 -1.5q-16 0 -28.5 8.5t-12.5 20.5q0 31 36 38t101 17q86 12 132.5 27.5t62.5 15.5q41 0 41 -47q0 -2 -6 -67l-123 -1055 q-6 -49 -7 -77.5t-1 -37.5q0 -79 44 -79h1q23 0 38 13t28.5 29.5t25.5 30t27 13.5q18 0 18 -27q0 -20 -23.5 -59t-60.5 -76t-81 -64.5t-85 -27.5q-55 0 -88 51t-33 153v17l-12 -2q-141 -217 -321 -217q-113 0 -183.5 83t-70.5 224zM233 332q0 -215 140 -215q39 0 77.5 20.5 t72.5 60.5t58.5 98t32.5 132l29 223q4 20 4 38v32q0 102 -100 102q-63 0 -120.5 -37.5t-100.5 -103.5t-68 -156t-25 -194z" />
<glyph unicode="e" horiz-adv-x="839" d="M31 326q0 113 45 215t118.5 180t169 124t195.5 46q102 0 157.5 -47t55.5 -119q0 -94 -92 -177t-272 -128q-86 -23 -133.5 -24t-47.5 -23q0 -57 17.5 -107.5t50.5 -87.5t77 -57.5t99 -20.5t96 17.5t72 38t51.5 38t34.5 17.5q27 0 27 -27q0 -20 -31 -57t-84 -73t-127 -61.5 t-158 -25.5q-70 0 -129 24.5t-102 71t-66.5 113t-23.5 150.5zM227 485q0 -16 8.5 -19t30.5 -3q61 0 115.5 21.5t94.5 55t63.5 76.5t23.5 86q0 47 -25.5 74t-72.5 27q-51 0 -95 -30t-76 -77t-49.5 -102t-17.5 -109z" />
<glyph unicode="f" horiz-adv-x="598" d="M-68 -272q0 14 12.5 20t30 11t37 12.5t33.5 21.5q41 39 54.5 121t27.5 213l66 604v10q0 27 -23 27h-133q-25 0 -25 18v7l8 57q0 12 31 12h127q25 0 33 15.5t12 51.5t12.5 92t32.5 138q23 80 60 144.5t80 111.5t89 72.5t87 25.5q94 0 94 -88q0 -53 -24.5 -101t-53.5 -48 q-10 0 -24.5 8t-29 17.5t-27.5 16.5t-25 7q-41 0 -59.5 -102.5t-18.5 -319.5q0 -27 5 -34t30 -7h163q27 0 27 -18v-4l-4 -49q-4 -23 -37 -23h-164q-35 0 -37 -33l-65 -577q-31 -281 -91.5 -422.5t-170.5 -141.5q-29 0 -54.5 13.5t-44 34t-30 44t-11.5 42.5z" />
<glyph unicode="g" horiz-adv-x="944" d="M-45 -172q0 143 199 213q-45 45 -45 103q0 84 110 157q-72 53 -104.5 114.5t-32.5 139.5q0 72 25.5 133.5t73.5 106.5t113.5 70.5t145.5 25.5q82 0 159 -20.5t149 -20.5q39 0 67.5 8t51 17.5t40 17.5t31.5 8q16 0 27.5 -19.5t11.5 -50.5q0 -45 -22.5 -74.5t-57.5 -29.5 q-23 0 -42 9t-36.5 20.5t-33 20.5t-31.5 9t-17 -10q0 -6 8.5 -20.5t18.5 -39t18.5 -58t8.5 -80.5q0 -66 -28 -125.5t-78 -103.5t-120.5 -69.5t-156.5 -25.5q-70 0 -136 25q-10 -16 -17 -28.5t-7 -27.5q0 -39 53 -56t152 -38q84 -16 151.5 -35.5t115.5 -49.5t73.5 -73 t25.5 -106q0 -57 -29.5 -106.5t-85 -86.5t-136.5 -58.5t-183 -21.5q-205 0 -317.5 66t-112.5 170zM104 -143q0 -84 81 -141.5t212 -57.5q104 0 165 42t61 101q0 49 -32 74t-88.5 41t-132 34.5t-163.5 53.5q-102 -51 -103 -147zM281 537q0 -104 39.5 -161t105.5 -57 q72 0 123 81t51 216q0 104 -42 159.5t-103 55.5q-68 0 -121 -79.5t-53 -214.5z" />
<glyph unicode="h" horiz-adv-x="1009" d="M55 1415q0 31 35 38t100 17q86 12 132.5 27.5t62.5 15.5q41 0 41 -47q0 -14 -6 -67l-74 -674q123 168 293 168q92 0 145.5 -61.5t53.5 -182.5q0 -31 -13 -135l-18 -166q-6 -51 -7 -78.5t-1 -33.5q0 -80 45 -80q23 0 38 13t28.5 30.5t25.5 31t27 13.5q22 0 22 -28 q0 -22 -24.5 -60.5t-64.5 -75.5t-90 -64.5t-99 -27.5q-55 0 -89 42t-34 109q0 72 18 213l25 193q2 16 3 31.5t1 29.5q0 162 -119 162q-78 0 -126 -96.5t-75 -288.5l-37 -272q-8 -59 -19 -87t-48 -28h-105q-25 0 -32 12t-7 41v24.5t5 45.5l131 1155q0 6 1 13t1 18 q0 84 -64 84q-8 0 -19.5 -1.5t-23.5 -1.5q-39 0 -39 29z" />
<glyph unicode="i" horiz-adv-x="559" d="M39 803q0 33 39 38t108 9q76 4 121 17.5t64 13.5q41 0 41 -37q0 -8 -3 -26.5t-8 -53.5l-65 -416q-6 -35 -8 -62.5t-2 -47.5q0 -41 13 -61.5t34 -20.5q23 0 38 13t28.5 30.5t25.5 31t27 13.5q20 0 20 -31q0 -20 -24.5 -58t-63.5 -75t-89 -64.5t-99 -27.5q-59 0 -94.5 45 t-35.5 129q0 29 4.5 77t14.5 113l51 301q2 14 3 25.5t1 21.5q0 41 -16.5 56.5t-57.5 15.5q-68 0 -67 31zM229 1217q0 20 19 40l84 93q24 24 40 24h1q18 0 37 -24l69 -103q18 -25 19 -37q0 -16 -19 -34l-104 -103q-14 -14 -35 -14q-25 0 -45 33l-53 90q-12 23 -13 35z" />
<glyph unicode="j" horiz-adv-x="507" d="M-119 -291q0 10 10.5 14.5t25.5 7.5t32.5 6t34.5 13q41 25 65.5 87.5t36.5 166.5l74 649q2 16 3 30.5t1 29.5q0 59 -74 59q-68 0 -67 31q0 33 38.5 38t106.5 9q80 6 125 18.5t61 12.5q37 0 37 -43q0 -6 -2 -24.5t-6 -49.5l-90 -787q-23 -190 -90.5 -286.5t-151.5 -96.5 q-27 0 -57.5 12.5t-55 30t-41 37t-16.5 35.5zM197 1217q0 20 18 40l84 93q24 24 40 24h1q18 0 37 -24l69 -103q18 -25 19 -37q0 -16 -19 -34l-104 -103q-14 -14 -35 -14q-25 0 -45 33l-53 90q-12 23 -12 35z" />
<glyph unicode="k" horiz-adv-x="933" d="M55 1415q0 31 35 38t100 17q86 12 132.5 27.5t62.5 15.5q41 0 41 -47q0 -6 -6 -67l-103 -920q76 35 141.5 94.5t106.5 124.5q23 37 38 72t28.5 61.5t32 43t47.5 16.5q43 0 70.5 -25.5t28.5 -62.5q0 -53 -69 -110.5t-204 -149.5q61 -74 100 -140.5t65.5 -115.5t46 -79 t44.5 -30q18 0 30.5 14.5t23.5 33t21.5 32.5t22.5 14q10 0 16 -9t6 -21q0 -33 -21.5 -76t-53 -83t-68.5 -67.5t-68 -27.5q-53 0 -87.5 37.5t-67.5 99t-70 141.5t-94 164l-47 -27q-23 -14 -27 -32.5t-8 -46.5l-27 -213q-8 -61 -19 -88t-48 -27h-105q-25 0 -32 12t-7 41v24.5 t5 45.5l131 1155q0 6 1 13t1 18q0 84 -64 84q-8 0 -19.5 -1.5t-23.5 -1.5q-39 0 -39 29z" />
<glyph unicode="l" horiz-adv-x="522" d="M55 1415q0 31 35 38t100 17q86 12 132.5 27.5t62.5 15.5q41 0 41 -47q0 -14 -6 -67l-117 -1051q-6 -51 -7 -78.5t-1 -33.5q0 -80 45 -80q23 0 38 13t28.5 30.5t25.5 31t27 13.5q20 0 20 -31q0 -20 -24.5 -58t-63.5 -75t-89 -64.5t-99 -27.5q-57 0 -90 41t-33 110 q0 53 5 106.5t11 106.5l103 922q0 6 1 13t1 18q0 84 -64 84q-8 0 -19.5 -1.5t-23.5 -1.5q-39 0 -39 29z" />
<glyph unicode="m" horiz-adv-x="1566" d="M-6 621q0 33 23.5 78.5t58.5 87.5t76 72t75 30q61 0 88 -53.5t27 -169.5l10 -7q61 113 152.5 173.5t177.5 60.5q168 0 168 -174v-23l16 -4q78 102 156 151.5t174 49.5q94 0 146.5 -61.5t52.5 -182.5q0 -25 -13 -135l-18 -166q-4 -45 -7 -72.5t-3 -39.5q0 -39 13 -59.5 t34 -20.5q23 0 38 13t28.5 30.5t25.5 31t27 13.5q20 0 20 -31q0 -20 -24.5 -58t-63.5 -75t-89 -64.5t-99 -27.5q-55 0 -89 42t-34 109q0 41 5 94.5t13 118.5l23 193q2 16 3 31.5t1 29.5q0 162 -119 162q-45 0 -77 -26.5t-54.5 -77t-38.5 -122t-33 -159.5l-47 -272 q-12 -66 -22.5 -90.5t-44.5 -24.5h-105q-23 0 -34 12t-11 31q0 4 12 80l70 426q6 35 6 63q0 76 -32.5 118t-90.5 42q-45 0 -76.5 -26.5t-54 -77t-38 -122t-31.5 -159.5l-48 -272q-12 -66 -22 -90.5t-45 -24.5h-105q-45 0 -45 45q0 4 2 22.5t9 55.5l57 315q8 47 11 88t3 76 q0 88 -51 88q-20 0 -36.5 -14.5t-30 -31.5t-24.5 -31.5t-24 -14.5q-23 0 -22 27z" />
<glyph unicode="n" horiz-adv-x="1067" d="M-6 621q0 33 23.5 78.5t58.5 87.5t76 72t75 30q61 0 88 -53.5t27 -169.5l10 -7q135 233 344 234q94 0 145.5 -61.5t51.5 -182.5q0 -20 -2 -54t-8 -81l-23 -166q-6 -45 -7 -73.5t-1 -38.5q0 -39 13.5 -59.5t33.5 -20.5q23 0 38 13t27.5 30.5t24.5 31t27 13.5q22 0 22 -28 q0 -22 -24.5 -60.5t-63.5 -75.5t-89 -64.5t-99 -27.5q-55 0 -89 42t-34 109q0 37 3 89.5t13 123.5l27 193q2 16 3 30.5t1 28.5q0 80 -31.5 122t-89.5 42q-45 0 -76.5 -26.5t-54 -77t-38 -122t-31.5 -159.5l-48 -272q-12 -66 -22 -90.5t-45 -24.5h-105q-45 0 -45 45 q0 4 2 22.5t9 55.5l57 315q8 47 11 88t3 76q0 88 -51 88q-20 0 -36.5 -14.5t-30 -31.5t-24.5 -31.5t-24 -14.5q-23 0 -22 27z" />
<glyph unicode="o" horiz-adv-x="958" d="M27 336q0 115 37.5 216t104.5 177t159 119t200 43q82 0 148.5 -26.5t115 -75t75 -116t26.5 -147.5q0 -119 -38 -221t-105.5 -177t-160.5 -118t-202 -43q-80 0 -145.5 26.5t-113.5 76t-74.5 117t-26.5 149.5zM242 289q0 -254 159 -254q55 0 105.5 39t88.5 109.5t60.5 170 t22.5 219.5q0 254 -156 254q-57 0 -108.5 -39.5t-90 -111.5t-60 -170t-21.5 -217z" />
<glyph unicode="p" horiz-adv-x="999" d="M-68 -391q0 25 22.5 31t37.5 14q41 25 57 145l127 957q-49 -14 -75.5 -28.5t-39.5 -14.5q-10 0 -19 9t-9 19q0 29 39 47.5t114 45.5l27 194q6 43 23.5 69.5t56.5 37.5l45 12q12 4 21.5 6t17.5 2q51 0 51 -43q0 -12 -2 -24.5t-4 -22.5l-25 -197q47 6 86 10.5t76 4.5 q186 0 280.5 -88t94.5 -254q0 -115 -43 -216.5t-114.5 -178t-167 -120.5t-199.5 -44q-49 0 -129 12l-27 -193q-6 -35 -6 -67q0 -61 47 -76q16 -6 32.5 -7t30 -4t21.5 -9.5t8 -20.5q0 -31 -43 -31q-12 0 -57 4t-125 4q-90 0 -139.5 -6t-59.5 -6q-12 0 -21.5 8.5t-9.5 18.5z M301 135q0 -90 98 -90q66 0 124.5 38t101.5 103.5t67.5 154.5t24.5 191q0 276 -228 277q-63 0 -84.5 -13.5t-27.5 -60.5l-72 -540q-2 -16 -3 -32t-1 -28z" />
<glyph unicode="q" horiz-adv-x="958" d="M25 291q0 111 43 220.5t125 201.5q80 92 164.5 135t189.5 43q37 0 66.5 -9.5t52 -19.5t38 -19t25.5 -9q23 0 42.5 20t35.5 46t32.5 46.5t32.5 20.5q10 0 16.5 -7.5t6.5 -17.5q0 -14 -13.5 -79.5t-29.5 -188.5l-117 -873q-6 -47 -6 -67q0 -39 18.5 -55.5t40 -23.5 t39 -13.5t17.5 -24.5q0 -31 -43 -31q-12 0 -46 4t-91 4h-33q-96 0 -149.5 -6t-63.5 -6q-12 0 -21.5 9.5t-9.5 19.5q0 12 7 17t19.5 9.5t28 7.5t29.5 13q33 20 42 52t17 89l52 375q-59 -94 -141.5 -142t-161.5 -48q-113 0 -183.5 83t-70.5 224zM233 334q0 -215 142 -215 q78 0 147.5 76.5t91.5 216.5l37 239q6 47 6 76q0 100 -106 100q-68 0 -125 -37.5t-100 -103t-68 -157t-25 -195.5z" />
<glyph unicode="r" horiz-adv-x="735" d="M-6 621q0 33 23.5 78.5t58.5 87.5t76 72t75 30q61 0 88 -53.5t27 -169.5l10 -7q141 233 303 234q84 0 84 -66q0 -23 -6 -52.5t-15 -57t-21.5 -47t-26.5 -19.5q-20 0 -33.5 15.5t-26 34t-27 34t-38.5 15.5q-35 0 -58.5 -24t-40 -70t-28.5 -114.5t-29 -158.5l-47 -272 q-6 -35 -9 -57.5t-9.5 -35t-17.5 -17.5t-32 -5h-108q-29 0 -35 9t-6 34q0 10 2 29.5t6 50.5l55 315q6 35 8.5 64.5t2.5 52.5q0 68 -19.5 101.5t-48.5 33.5q-20 0 -36.5 -14.5t-30 -31.5t-24.5 -31.5t-24 -14.5q-23 0 -22 27z" />
<glyph unicode="s" horiz-adv-x="729" d="M2 154q0 39 27.5 65.5t68.5 26.5q55 0 88 -39q14 -18 22 -40t11.5 -41.5t5.5 -31.5t6 -12q2 0 6.5 -7t13.5 -16.5t25.5 -16.5t40.5 -7q61 0 96.5 37t35.5 100q0 82 -91 160q-45 41 -89 73.5t-76.5 66.5t-53 73t-20.5 92q0 51 23.5 97t64.5 81t98 55.5t127 20.5 q55 0 101.5 -13.5t79 -35t51 -48t18.5 -53.5q0 -35 -24.5 -60.5t-59.5 -25.5q-70 0 -106 76q-18 39 -37 63.5t-60 24.5q-49 0 -79.5 -26.5t-30.5 -71.5q0 -51 40 -90t107 -90q94 -72 149.5 -136.5t55.5 -160.5q0 -59 -24.5 -109.5t-69.5 -87.5t-108.5 -58.5t-141.5 -21.5 q-66 0 -119 15.5t-92 42t-59.5 59.5t-20.5 70z" />
<glyph unicode="t" horiz-adv-x="630" d="M33 795q0 16 14 26t41 26.5t64.5 43.5t83.5 72q45 43 75.5 81.5t53 68.5t39 46.5t30.5 16.5q16 0 17 -25q0 -12 -5.5 -27.5t-9.5 -38.5l-33 -186q0 -4 -1 -7t-1 -7q0 -20 25 -21h170q29 0 29 -16v-6l-13 -56q-4 -16 -8 -20t-20 -4h-172q-16 0 -24.5 -5t-12.5 -22 l-56 -381q-4 -29 -5 -50t-1 -34q0 -108 73 -108h1q33 0 59.5 23.5t49 51t41 50t34.5 22.5q20 0 21 -28q0 -12 -22.5 -57.5t-73.5 -104.5q-117 -137 -226 -137q-76 0 -120 57t-44 162q0 55 5.5 117.5t15.5 127.5l47 287q0 4 1 6t1 4q0 18 -24 19h-70q-25 0 -37 6t-12 27z" />
<glyph unicode="u" horiz-adv-x="1081" d="M0 641q0 20 23.5 60t63.5 80t91 71t105 31q59 0 93 -46t34 -139q0 -66 -10.5 -130t-24 -124.5t-23.5 -116t-10 -102.5q0 -57 35 -57q25 0 62.5 29.5t79.5 86t86 135.5t83 177q31 78 43 131t20.5 87t19.5 48.5t38 14.5h104q45 0 45 -46q0 -10 -12 -77l-67 -338 q-25 -117 -25 -183q0 -69 44 -69h1q23 0 41 16.5t32.5 36t28 35.5t27.5 16q10 0 17.5 -8t7.5 -18q0 -33 -28 -78t-70 -85t-94 -67.5t-101 -27.5q-123 0 -123 168q0 53 12.5 118.5t34.5 143.5l-12 6q-111 -217 -225.5 -324.5t-206.5 -107.5q-121 0 -121 141q0 29 5 69t15 89 l51 258q6 31 8.5 56.5t2.5 41.5q0 41 -13.5 62.5t-33.5 21.5t-39 -18.5t-34 -40t-28.5 -40t-25.5 -18.5q-27 0 -27 31z" />
<glyph unicode="v" horiz-adv-x="1019" d="M31 512q0 74 27.5 141.5t71.5 117.5t98.5 80t109.5 30q149 0 149 -188q0 -90 -16 -184q-16 -95 -16 -202q0 -190 96 -190q37 0 84 36.5t98 110.5q51 76 77 157t26 142q0 47 -11.5 80t-26 57.5t-25.5 45t-11 38.5q0 35 39 64t84 29q37 0 50 -32t13 -97q0 -129 -32.5 -246 t-102.5 -234q-88 -147 -191.5 -224t-193.5 -77q-104 0 -142 75t-38 239q-217 27 -217 231zM115 487q0 -68 30.5 -98.5t102.5 -38.5q6 106 17 180t11 117q0 53 -34 53q-20 0 -43 -16t-41.5 -46t-30.5 -69t-12 -82z" />
<glyph unicode="w" horiz-adv-x="1550" d="M31 512q0 74 27.5 141.5t71.5 117.5t98.5 80t109.5 30q149 0 149 -179q0 -106 -16 -198q-16 -94 -16 -185q0 -172 82 -172q27 0 60.5 24t68 72t67.5 119.5t58 167.5q27 104 32.5 179t18.5 116q10 37 30.5 44.5t77.5 7.5q51 0 72.5 -9.5t21.5 -44.5q0 -51 -21.5 -147 t-21.5 -234q0 -135 38 -209.5t91 -74.5q35 0 76 37.5t76 97t59.5 131.5t24.5 139q0 47 -11.5 80t-25.5 57.5t-25.5 45t-11.5 38.5q0 35 38 64t83 29q29 0 48.5 -30t19.5 -83q0 -129 -34 -253t-99 -235q-88 -147 -177.5 -219.5t-158.5 -72.5q-82 0 -137.5 91t-71.5 273 q-43 -90 -96.5 -159.5t-106.5 -116.5t-102 -71t-84 -24q-78 0 -122 71t-44 208v25q-217 27 -217 231zM115 487q0 -68 30.5 -98.5t102.5 -38.5q6 106 17 180t11 117q0 53 -34 53q-20 0 -43 -16t-41.5 -46t-30.5 -69t-12 -82z" />
<glyph unicode="x" horiz-adv-x="905" d="M-41 76q0 47 27.5 80.5t72.5 33.5q20 0 42 -7t51 -7q53 0 103 58.5t116 168.5l-60 170q-41 109 -108 109q-33 0 -50.5 -16.5t-26.5 -37t-17.5 -37t-24.5 -16.5q-12 0 -22.5 9.5t-10.5 27.5q0 43 19.5 91.5t52.5 88t73 66.5t78 27q74 0 129.5 -66.5t102.5 -204.5 q90 129 162.5 197t142.5 68q43 0 72.5 -28t29.5 -67t-28.5 -65.5t-69.5 -26.5q-23 0 -44 9.5t-50 9.5q-47 0 -88 -45t-98 -127l129 -355q47 -123 137 -123q6 0 18 1t29 1q41 0 41 -28q0 -55 -195 -55q-51 0 -87 6t-60.5 24.5t-43 50t-36.5 82.5l-64 181 q-111 -172 -193.5 -259.5t-154.5 -87.5q-45 0 -70.5 26t-25.5 73z" />
<glyph unicode="y" horiz-adv-x="962" d="M-2 571q0 55 21.5 109.5t55.5 98.5t76 71t85 27q55 0 102 -40t95 -119t101 -196.5t121 -275.5q47 100 74 178t27 141q0 33 -10.5 61.5t-21.5 56.5t-21.5 54.5t-10.5 53.5q0 90 90 90q98 0 99 -125q0 -41 -14.5 -116t-48.5 -175t-88 -221t-134 -254q-117 -193 -241 -293 t-218 -100q-66 0 -100.5 31.5t-34.5 86.5q0 45 28.5 74t75.5 29q20 0 40 -9.5t39.5 -19.5t38 -19.5t38.5 -9.5q39 0 81 27t77 68t57.5 90t22.5 96q0 57 -44 176t-143 293q-51 92 -88 138t-69 46q-18 0 -40 -19.5t-38 -58.5q-16 -35 -20.5 -63.5t-30.5 -28.5 q-10 0 -19.5 12.5t-9.5 34.5z" />
<glyph unicode="z" horiz-adv-x="800" d="M4 8q0 20 8 31.5t23 28.5l469 534q-55 8 -100.5 25.5t-82 35t-66.5 31t-52 13.5q-27 0 -43.5 -15.5t-16.5 -38.5q0 -16 8.5 -29.5t17.5 -23.5t16.5 -20.5t7.5 -22.5q0 -23 -33 -22q-33 0 -63.5 40.5t-30.5 100.5q0 92 55 149.5t145 57.5q55 0 104.5 -16.5t97.5 -35 t93 -35t90 -16.5q31 0 46.5 16.5t25.5 36t20.5 36t28.5 16.5q16 0 27.5 -12.5t11.5 -30.5q0 -14 -10 -38t-33 -48l-469 -523q66 -25 116 -77t97 -136q35 -66 59.5 -110.5t63.5 -44.5q33 0 33 43q0 4 -1 13t-1 24q0 23 18 42t47 19t47.5 -18.5t18.5 -53.5q0 -53 -49.5 -96 t-129.5 -43q-70 0 -136 34t-142 97q-66 53 -101.5 92t-76.5 39q-18 0 -32.5 -11t-29 -25.5t-29 -25.5t-34.5 -11q-16 0 -24.5 7t-8.5 17z" />
<glyph unicode="{" d="M178 602v68q82 8 135.5 26.5t84 52t42 88t11.5 132.5v200q0 98 18 165t64.5 107t123 57.5t193.5 17.5v-58q-70 0 -114 -14t-68.5 -46t-32.5 -82t-8 -122v-137q0 -96 -9.5 -168t-37 -122t-79.5 -82t-139 -50q86 -18 138.5 -50t80 -82t37 -122t9.5 -168v-137q0 -72 8 -122 t32.5 -81t68.5 -45t114 -14v-58h-10q-113 0 -187.5 17.5t-120 58.5t-63.5 106.5t-18 163.5v201q0 78 -12.5 131t-43 89t-83 54.5t-134.5 24.5z" />
<glyph unicode="|" d="M424 -483v2048h178v-2048h-178z" />
<glyph unicode="}" d="M174 -186q70 0 114 14t68.5 45t32.5 81t8 122v137q0 96 8.5 168t36 122t79.5 81.5t141 50.5q-88 18 -140.5 50t-80 83t-36 122t-8.5 167v137q0 72 -8 122t-32.5 82t-68.5 46t-114 14v58h10q113 0 189 -17.5t121 -58.5t63 -106.5t18 -164.5v-200q0 -78 11.5 -132.5t42 -88 t84 -52t135.5 -26.5v-68q-82 -6 -135.5 -24.5t-84 -54.5t-42 -89t-11.5 -131v-201q0 -98 -18 -163.5t-63 -106.5t-121 -58.5t-189 -17.5h-10v58z" />
<glyph unicode="~" horiz-adv-x="1705" d="M178 434v187q211 143 387 143q88 0 159 -18.5t134 -40.5q76 -27 146.5 -50.5t146.5 -23.5q90 0 182 39t197 114v-184q-100 -70 -194.5 -105.5t-186.5 -35.5q-90 0 -191 35q-106 35 -201 67.5t-194 32.5q-90 0 -182 -41t-203 -119z" />
<glyph unicode="&#xa1;" horiz-adv-x="753" d="M164 57q0 27 8 62l166 663q16 66 28.5 99.5t39.5 33.5q29 0 36 -33.5t7 -99.5l4 -676q0 -37 -4.5 -61.5t-18.5 -37.5t-39.5 -19t-68.5 -6q-92 0 -125 12t-33 63zM270 1268q0 20 19 35l137 131q12 12 33 12q12 0 38.5 -20.5t54.5 -48t48.5 -58.5t20.5 -49 q0 -12 -14.5 -29.5t-41.5 -46.5q-49 -49 -80.5 -75.5t-52.5 -26.5q-18 0 -35 16l-114 129q-12 12 -13 31z" />
<glyph unicode="&#xa2;" horiz-adv-x="1107" d="M162 365q0 104 30.5 197t86 167t132 123t171.5 68l18 155q4 33 12.5 49.5t30.5 16.5q35 0 35 -43v-13l-19 -159h7q61 0 108 -13.5t79 -35t49.5 -48t17.5 -51.5q0 -18 -9.5 -39.5t-25 -40t-36 -30t-40.5 -11.5q-31 0 -48.5 17.5t-32.5 43t-31.5 57.5t-47.5 61l-82 -699 q8 0 14.5 -1t14.5 -1q55 0 96 16.5t71 35t49 35t34 16.5q25 0 24 -27q0 -18 -21.5 -48t-63.5 -61.5t-101 -58.5t-133 -39l-21 -205q-4 -35 -12 -54t-31 -19q-12 0 -23 12t-11 22v19.5t2 19.5l22 201q-150 10 -232.5 104.5t-82.5 260.5zM354 461q0 -229 140 -301l77 688 q-92 -12 -154.5 -116.5t-62.5 -270.5z" />
<glyph unicode="&#xa3;" horiz-adv-x="1107" d="M66 20q0 25 14 43.5t33.5 33t39 28.5t31.5 29q27 35 43.5 127t32.5 245h-67q-29 0 -45.5 9.5t-16.5 39.5q0 51 64 52h75q23 393 132.5 586.5t322.5 193.5q111 0 170 -40t59 -91q0 -35 -23.5 -57.5t-58.5 -22.5q-63 0 -98 66q-16 29 -30.5 52t-49.5 23q-158 0 -229 -710 h160q35 0 52 -13.5t17 -35.5q0 -51 -76 -52h-169q-18 -109 -44.5 -188.5t-85.5 -140.5q43 27 83 40t83 13q61 0 115.5 -22.5t103 -48t89.5 -48t75 -22.5q29 0 44.5 14t15.5 35q0 25 -21.5 33t-60.5 22q-10 4 -23.5 22.5t-13.5 40.5q0 41 26.5 67t69.5 26q53 0 84 -40 t31 -108q0 -45 -16.5 -87t-45 -74.5t-70.5 -51t-93 -18.5q-39 0 -84 15t-93.5 32.5t-100.5 33t-109 15.5q-66 0 -109 -19.5t-72.5 -42t-52 -42t-47.5 -19.5q-27 0 -44 17.5t-17 39.5z" />
<glyph unicode="&#xa4;" horiz-adv-x="1241" d="M76 432l203 205q-80 109 -80 248q0 141 80 248l-203 204l92 93l203 -203q109 82 250 82q143 0 251 -82l203 203l94 -93l-204 -204q80 -106 79 -248q0 -139 -79 -248l204 -205l-94 -92l-203 205q-113 -82 -249 -82q-143 0 -252 82l-203 -205zM332 885q0 -59 22.5 -112.5 t62.5 -92.5t92 -61.5t114 -22.5q61 0 113 22.5t92 61.5t62.5 92.5t22.5 112.5t-22.5 111.5t-62.5 92t-93 63.5t-112 24t-112.5 -24t-93.5 -63.5t-62.5 -92t-22.5 -111.5z" />
<glyph unicode="&#xa5;" horiz-adv-x="1107" d="M-12 1348q0 35 53 34q41 0 97.5 -6t125.5 -6q63 0 114.5 6t88.5 6q39 0 39 -30q0 -25 -21.5 -32t-52.5 -17q-70 -23 -70 -99q0 -41 25 -90l160 -328q39 -78 55 -77q18 0 64 69l221 336q16 23 25.5 43.5t9.5 44.5q0 68 -86 92q-39 10 -63.5 17.5t-24.5 36.5q0 35 53 34 q45 0 98 -6t117 -6q59 0 107 6t89 6q39 0 39 -30q0 -20 -19.5 -32.5t-51 -33t-75.5 -59.5t-93 -111l-174 -252h221l-10 -80h-263l-108 -163h352l-10 -82h-367l-28 -248q-2 -16 -3 -29.5t-1 -23.5q0 -68 18 -104t72 -52q23 -6 44 -10t37.5 -9.5t26.5 -13.5t10 -26 q0 -35 -53 -35q-29 0 -94.5 6t-165.5 6q-96 0 -157.5 -6t-90.5 -6q-41 0 -41 32q0 29 28 38.5t69 25.5q29 10 47 25.5t30.5 40t19.5 62.5t13 95l19 168q2 16 2 24.5v12.5v13t-2 14h-383l10 82h342l-76 163h-248l11 80h194l-104 217q-31 66 -57.5 115t-65.5 80 q-16 12 -31.5 19.5t-28 13.5t-20.5 14t-8 25z" />
<glyph unicode="&#xa6;" d="M424 -350v758h178v-758h-178zM424 674v758h178v-758h-178z" />
<glyph unicode="&#xa7;" d="M104 -43q0 53 35 88t82 35q45 0 74 -28.5t29 -67.5q0 -23 -10.5 -42.5t-21.5 -36t-21.5 -28.5t-10.5 -22q0 -23 32 -41.5t85 -18.5q86 0 139 48t53 112q0 78 -50 141.5t-128 151.5l-108 123q-72 80 -113 149.5t-41 149.5q0 53 21.5 100t59.5 81t90 53.5t116 19.5h18 q-141 147 -141 274q0 55 25.5 103.5t69.5 84t103.5 55t126.5 19.5q135 0 204 -57t69 -135q0 -53 -33 -88t-86 -35q-41 0 -69.5 26.5t-28.5 65.5q0 23 8 38t19.5 29.5t19.5 26.5t8 25q0 20 -27.5 36.5t-85.5 16.5q-78 0 -128 -44t-50 -112q0 -59 48.5 -123.5t131.5 -156.5 l109 -121q74 -84 116 -153.5t42 -153.5q0 -106 -77 -177t-200 -71h-26q145 -158 145 -291q0 -55 -26.5 -103t-71.5 -83t-106.5 -54.5t-131.5 -19.5q-68 0 -121 17.5t-90 46t-56.5 67.5t-19.5 80zM268 727q0 -68 101 -199q70 -90 120 -135t115 -45q59 0 98 37t39 100 q0 74 -94 199q-141 184 -229 184q-59 0 -104.5 -41t-45.5 -100z" />
<glyph unicode="&#xa8;" d="M322 1163q0 10 17 33t42 46.5t49.5 42t38.5 18.5q16 0 27 -15l88 -98q10 -10 10 -25q0 -12 -14 -26l-107 -103q-8 -8 -24 -8q-8 0 -30 15.5t-43.5 37t-37.5 45t-16 37.5zM684 1163q0 10 17.5 33t42 46.5t49 42t38.5 18.5q16 0 27 -15l88 -98q10 -10 10 -25q0 -12 -14 -26 l-106 -103q-8 -8 -25 -8q-8 0 -29.5 15.5t-43 37t-38 45t-16.5 37.5z" />
<glyph unicode="&#xa9;" horiz-adv-x="1683" d="M121 678q0 143 53 274t158 236q102 102 234.5 157.5t277.5 55.5q141 0 273 -55.5t233 -155.5q102 -102 157.5 -235.5t55.5 -276.5q0 -141 -54.5 -273.5t-158.5 -236.5q-102 -104 -231.5 -156.5t-276.5 -52.5q-145 0 -274.5 52t-233.5 157q-104 104 -158.5 233t-54.5 277z M219 678q0 -129 47 -240.5t137 -201.5q182 -182 439 -183q127 0 238.5 46t199.5 137q90 92 137 205.5t47 236.5q0 125 -48 241.5t-136 204.5q-86 86 -199.5 133.5t-236.5 47.5q-125 0 -240 -47.5t-203 -137.5q-90 -92 -136 -204.5t-46 -237.5zM416 670q0 92 31.5 172t88 138 t132 91t163.5 33q49 0 87 -10.5t66 -22.5t47.5 -22.5t31.5 -10.5q29 0 42 13.5t19 48.5h41l2 -320h-47q-33 135 -102.5 204t-171.5 69q-236 0 -236 -369q0 -186 65.5 -282.5t188.5 -96.5q164 0 277 174l43 -26q-125 -213 -350 -213q-88 0 -165 32.5t-133.5 91t-88 137.5 t-31.5 169z" />
<glyph unicode="&#xaa;" horiz-adv-x="819" d="M72 551l30 119h623l-31 -119h-622zM76 1034q0 78 31.5 154t86 135t127 97t154.5 38q57 0 90 -19.5t45 -19.5t26.5 14.5t30 32t32 31.5t32.5 14q10 0 18.5 -7t8.5 -17q0 -20 -21.5 -94t-38.5 -209l-16 -115q-4 -25 -4 -44v-34q0 -51 27 -51q14 0 24 9t20.5 21.5t20.5 21.5 t25 9q20 0 20 -26q0 -18 -18.5 -46t-47 -55.5t-63.5 -47t-68 -19.5q-41 0 -68.5 31.5t-27.5 87.5v17t2 18h-6q-45 -74 -109.5 -113t-132.5 -39q-92 0 -146 60.5t-54 164.5zM250 1057q0 -143 98 -144q55 0 103.5 52.5t64.5 146.5l27 174q2 14 3 26.5t1 24.5q0 63 -70 64 q-49 0 -90 -25.5t-71.5 -72t-48 -108.5t-17.5 -138z" />
<glyph unicode="&#xab;" horiz-adv-x="876" d="M84 426q0 12 18 25q172 129 251 205.5t102 76.5t22 -20q0 -25 -51.5 -98.5t-157.5 -190.5q90 -221 90 -266q0 -33 -24 -33q-18 0 -35.5 19.5t-44.5 57.5t-67 92t-101 124q0 2 -1 4t-1 4zM401 426q0 12 19 25q172 129 252 205.5t102 76.5q20 0 21 -20q0 -25 -51.5 -98.5 t-157.5 -190.5q90 -221 90 -266q0 -33 -25 -33q-18 0 -35.5 19.5t-44 57.5t-66.5 92t-102 124q0 2 -1 4t-1 4z" />
<glyph unicode="&#xac;" horiz-adv-x="1705" d="M254 696v166h1198v-502h-166v336h-1032z" />
<glyph unicode="&#xad;" horiz-adv-x="673" d="M94 324v92q0 27 6 39t33 22l373 133q12 4 16 4q20 0 21 -34v-93q0 -27 -4 -40t-33 -23l-373 -133q-12 -4 -16 -4q-23 0 -23 37z" />
<glyph unicode="&#xae;" horiz-adv-x="1683" d="M121 678q0 143 54 274t157 236q102 102 234.5 157.5t277.5 55.5t279 -56.5t235 -160.5q98 -100 151.5 -233.5t53.5 -280.5q0 -137 -58.5 -271.5t-167.5 -240.5q-201 -199 -510 -199q-135 0 -263 53.5t-230 155.5q-213 213 -213 510zM219 678q0 -129 47 -240.5t137 -201.5 q182 -182 439 -183q127 0 238.5 46t199.5 137q90 92 137 205.5t47 236.5t-49 240.5t-135 205.5q-86 86 -199.5 133.5t-236.5 47.5q-125 0 -240 -47.5t-203 -137.5q-90 -92 -136 -203.5t-46 -238.5zM467 287v47q66 4 89.5 23.5t23.5 72.5v520q0 53 -24 72.5t-89 24.5v49h399 q154 0 237 -57.5t83 -139.5q0 -88 -67.5 -135t-215.5 -74q94 -25 146.5 -72t70.5 -129q6 -29 8 -57.5t6.5 -51t14.5 -35.5t35 -13q59 0 59 133h49v-23q0 -174 -170 -174q-94 0 -133 58q-14 25 -19 50t-7 52t-2 52.5t-7 49.5q-33 145 -182 146h-24v-246q0 -51 23.5 -70.5 t84.5 -25.5v-47h-389zM748 723q23 -2 36 -2h17q102 0 155.5 44t53.5 126q0 68 -45 113t-123 45q-94 0 -94 -68v-258z" />
<glyph unicode="&#xaf;" d="M346 1090l31 147h553l-31 -147h-553z" />
<glyph unicode="&#xb0;" horiz-adv-x="673" d="M43 1163q0 61 23.5 115.5t63.5 94.5t93.5 63.5t114.5 23.5t115.5 -23.5t94.5 -63.5t62.5 -94t22.5 -116q0 -59 -23.5 -113.5t-63.5 -94.5t-94.5 -63.5t-115.5 -23.5t-114.5 22.5t-93.5 62.5t-62.5 94.5t-22.5 115.5zM152 1165q0 -78 54 -132t132 -54t131 55t53 131 q0 78 -53 131.5t-131 53.5t-132 -53.5t-54 -131.5z" />
<glyph unicode="&#xb1;" horiz-adv-x="1705" d="M254 14v168h1198v-168h-1198zM254 707v165h514v334h170v-334h514v-165h-514v-334h-170v334h-514z" />
<glyph unicode="&#xb2;" horiz-adv-x="731" d="M2 567q0 16 13.5 30.5t33.5 37.5l199 201q111 111 168 192.5t57 151.5q0 117 -141 116q-39 0 -82 -16t-78 -49q-14 -14 -23.5 -26.5t-19.5 -12.5q-20 0 -20 14q0 12 15 40t50 61q94 84 229 84q104 0 166 -52.5t62 -130.5q0 -106 -160 -254l-278 -252q-12 -12 -13 -20 q0 -16 137 -16q70 0 121 6t97 30q31 18 44 39t33 21q18 0 19 -25q0 -14 -20.5 -46t-51.5 -89q-16 -29 -23.5 -42t-48.5 -13q-23 0 -68.5 4t-117.5 4q-115 0 -177.5 -4t-74.5 -4q-47 0 -47 20z" />
<glyph unicode="&#xb3;" horiz-adv-x="731" d="M-31 653q0 23 27 23q6 0 22.5 -13.5t43 -29t64.5 -28.5t87 -13q57 0 104.5 18.5t81 49t52 71.5t18.5 86q0 70 -45 108t-133 38q-14 0 -23.5 -1t-19.5 -1q-29 0 -29 18t30 25.5t70 27.5q135 63 136 168q0 53 -35 87t-94 34q-66 0 -142 -53q-23 -18 -37 -33.5t-30 -15.5 q-12 0 -13 20q0 16 23 42t60.5 51.5t90 44t113.5 18.5q96 0 153.5 -47.5t57.5 -112.5q0 -101 -162 -191q90 -25 136.5 -77t46.5 -123q0 -59 -28 -115.5t-78 -99.5t-120.5 -68.5t-158.5 -25.5q-63 0 -113.5 13t-85.5 31.5t-52.5 39t-17.5 34.5z" />
<glyph unicode="&#xb4;" d="M426 1001l307 306q61 57 115 57q33 0 56.5 -25.5t23.5 -60.5q0 -55 -68 -92l-330 -185h-104z" />
<glyph unicode="&#xb5;" horiz-adv-x="1183" d="M-109 -319q0 39 16.5 101t42 148t57.5 196t61 247l108 512h207l-100 -467q-20 -94 -21 -139q0 -66 37 -102t102 -36q88 0 139.5 53.5t75.5 167.5l111 523h209l-113 -533q-6 -29 -12 -59.5t-6 -65.5q0 -43 22.5 -66.5t63.5 -23.5q78 0 129 90q23 41 34 75t40 34 q23 0 22 -31q0 -23 -14.5 -79t-42.5 -107q-82 -143 -219 -144q-84 0 -129 53.5t-47 157.5q-86 -211 -267 -211q-98 0 -156.5 57.5t-68.5 168.5q-29 -158 -42 -274.5t-27.5 -193.5t-38 -115t-74.5 -38q-47 0 -73 26.5t-26 74.5z" />
<glyph unicode="&#xb6;" d="M55 1130q0 78 28 141.5t78 109.5t122.5 72t162.5 26h523v-99h-117v-1380h-129v1380h-170v-1380h-129v784q-174 6 -271.5 102.5t-97.5 243.5z" />
<glyph unicode="&#xb7;" horiz-adv-x="555" d="M119 688q0 66 45.5 113t111.5 47t112 -47t46 -113t-46 -112t-112 -46t-111.5 46.5t-45.5 111.5z" />
<glyph unicode="&#xb8;" d="M125 -375l41 90q66 -35 122 -55t115 -20q96 0 97 88q0 82 -103 82q-16 0 -38.5 -4.5t-51.5 -10.5l66 205h69l-34 -113q47 6 73 7q78 0 128 -46.5t50 -123.5q0 -84 -59 -132.5t-170 -48.5q-72 0 -145.5 23.5t-159.5 58.5z" />
<glyph unicode="&#xb9;" horiz-adv-x="731" d="M147 563q0 23 19.5 25t38.5 8q39 10 55 46t25 99l51 424q2 20 3 30.5t1 14.5q0 63 -64 64q-16 0 -28 -3t-25 -3q-27 0 -26 20q0 20 29.5 27.5t80.5 17.5q82 14 116 37t54 23q18 0 19 -21q0 -4 -1 -10t-1 -16l-76 -615q0 -10 -1 -18t-1 -17q0 -41 13 -62.5t48 -31.5 t60.5 -12t25.5 -25t-37 -22q-43 0 -85 4t-83 4q-53 0 -99 -4t-85 -4q-27 0 -27 20z" />
<glyph unicode="&#xba;" horiz-adv-x="739" d="M68 551l28 119h551l-31 -119h-548zM82 1065q0 80 28.5 151.5t80 125t122 85t154.5 31.5q129 0 206 -73.5t77 -188.5q0 -86 -30 -158.5t-81 -127t-120.5 -84t-149.5 -29.5q-129 0 -208 74.5t-79 193.5zM262 1038q0 -178 113 -178q39 0 74.5 25.5t62.5 73t42 113t15 145.5 q1 182 -110 182q-41 0 -77 -28t-62.5 -76t-42 -113.5t-15.5 -143.5z" />
<glyph unicode="&#xbb;" horiz-adv-x="876" d="M39 147q0 25 51.5 98.5t157.5 190.5q-47 111 -68.5 177.5t-21.5 88.5q0 31 24 31q18 0 36 -19.5t44.5 -56t65.5 -91t100 -124.5q2 -6 2 -12q0 -8 -16 -20q-174 -129 -253 -206t-102 -77q-20 0 -20 20zM356 147q0 25 51.5 98.5t157.5 190.5q-47 111 -68.5 177.5 t-21.5 88.5q0 31 25 31q18 0 35.5 -19.5t44 -56t65.5 -91t100 -124.5q2 -6 3 -12q0 -8 -17 -20q-174 -129 -253 -206t-101 -77q-20 0 -21 20z" />
<glyph unicode="&#xbc;" horiz-adv-x="1736" d="M141 618q0 18 18.5 21.5t37.5 7.5q37 10 53 44t22 93l47 396q4 18 4.5 27.5t0.5 13.5q0 61 -60 61q-14 0 -26.5 -4t-24.5 -4q-27 0 -27 20q0 18 30 25.5t77 15.5q78 14 111.5 36t52.5 22q16 0 16 -21v-10t-2 -14l-72 -574q0 -10 -1 -17t-1 -14q0 -39 12.5 -59t47.5 -31 q33 -8 57.5 -10t24.5 -25q0 -20 -35 -20q-41 0 -81 4t-81 4q-51 0 -95 -3t-81 -3q-25 0 -25 18zM381 0q0 14 37 72l801 1253q16 25 26 40t20.5 23.5t26 11.5t39.5 3q27 0 27 -27q0 -12 -37 -71l-801 -1254q-16 -27 -26.5 -42t-21.5 -23.5t-25.5 -10.5t-38.5 -2q-27 0 -27 27 zM1034 215q0 29 58.5 92.5t167.5 169.5q158 154 241.5 231.5t102.5 77.5q20 0 20 -16q0 -12 -22.5 -135t-45.5 -361h21q29 0 45 7.5t26.5 15.5t17.5 15t15 7q14 0 15 -20q0 -8 -6.5 -38t-16.5 -50t-24.5 -26.5t-38.5 -6.5h-64q-18 -106 -21 -165.5t-20 -73.5 q-14 -14 -49 -24.5t-57 -10.5q-23 0 -23 24q0 31 18.5 95.5t18.5 136.5q0 16 -17.5 20t-76.5 4q-92 0 -149.5 -3t-75.5 -3q-31 0 -45.5 7.5t-14.5 29.5zM1149 283q0 -12 37 -13h140t99 2l33 244q10 55 27 100q-172 -154 -254 -239.5t-82 -93.5z" />
<glyph unicode="&#xbd;" horiz-adv-x="1736" d="M141 618q0 18 18.5 21.5t37.5 7.5q37 10 53 44t22 93l47 396q4 18 4.5 27.5t0.5 13.5q0 61 -60 61q-14 0 -26.5 -4t-24.5 -4q-27 0 -27 20q0 18 30 25.5t77 15.5q78 14 111.5 36t52.5 22q16 0 16 -21v-10t-2 -14l-72 -574q0 -10 -1 -17t-1 -14q0 -39 12.5 -59t47.5 -31 q33 -8 57.5 -10t24.5 -25q0 -20 -35 -20q-41 0 -81 4t-81 4q-51 0 -95 -3t-81 -3q-25 0 -25 18zM381 0q0 14 37 72l801 1253q16 25 26 40t20.5 23.5t26 11.5t39.5 3q27 0 27 -27q0 -12 -37 -71l-801 -1254q-16 -27 -26.5 -42t-21.5 -23.5t-25.5 -10.5t-38.5 -2q-27 0 -27 27 zM1042 14q0 16 12.5 29.5t32.5 34.5l189 186q104 104 159.5 181t55.5 143q0 109 -133 108q-37 0 -78 -16t-74 -45q-16 -14 -24 -25.5t-19 -11.5q-20 0 -20 14q0 10 14 37t49 56q90 80 219 79q100 0 158.5 -49t58.5 -121q0 -104 -153 -237l-264 -236q-12 -12 -13 -18 q0 -16 131 -17q66 0 116 6.5t91 28.5q29 18 42.5 37t31.5 19t18 -23q0 -12 -19 -42t-50 -83q-14 -27 -21.5 -40t-46.5 -13q-20 0 -64 4t-114 4q-111 0 -169 -4t-71 -4q-45 0 -45 18z" />
<glyph unicode="&#xbe;" horiz-adv-x="1738" d="M-29 702q0 20 25 21q6 0 21.5 -12.5t41 -27.5t61.5 -27.5t85 -12.5q55 0 99 17.5t77 47t50.5 67.5t17.5 81q0 66 -43.5 100.5t-129.5 34.5q-12 0 -21 -2t-17 -2q-29 0 -29 19q0 16 27.5 23t68.5 26q129 59 129 157q0 51 -33.5 82t-89.5 31q-66 0 -135 -51 q-23 -16 -35 -29.5t-28 -13.5q-12 0 -13 18q0 14 21.5 38t58.5 47.5t87 41t108 17.5q92 0 145 -43t53 -105q1 -94 -153 -178q174 -47 174 -188q0 -55 -25.5 -107.5t-74 -92.5t-116 -63.5t-151.5 -23.5q-61 0 -109 12t-81 29.5t-49.5 37t-16.5 31.5zM381 0q0 14 37 72 l801 1253q16 25 26 40t20.5 23.5t26 11.5t39.5 3q27 0 27 -27q0 -12 -37 -71l-801 -1254q-16 -27 -26.5 -42t-21.5 -23.5t-25.5 -10.5t-38.5 -2q-27 0 -27 27zM1034 215q0 29 58.5 92.5t167.5 169.5q158 154 241.5 231.5t102.5 77.5q20 0 20 -16q0 -12 -22.5 -135 t-45.5 -361h21q29 0 45 7.5t26.5 15.5t17.5 15t15 7q14 0 15 -20q0 -8 -6.5 -38t-16.5 -50t-24.5 -26.5t-38.5 -6.5h-64q-18 -106 -21 -165.5t-20 -73.5q-14 -14 -49 -24.5t-57 -10.5q-23 0 -23 24q0 31 18.5 95.5t18.5 136.5q0 16 -17.5 20t-76.5 4q-92 0 -149.5 -3 t-75.5 -3q-31 0 -45.5 7.5t-14.5 29.5zM1149 283q0 -12 37 -13h140t99 2l33 244q10 55 27 100q-172 -154 -254 -239.5t-82 -93.5z" />
<glyph unicode="&#xbf;" horiz-adv-x="843" d="M86 231q0 51 22.5 102.5t67.5 98.5q66 66 130.5 123t109.5 123q35 51 45 94t13 75t6 50t22 18q63 1 63 -122q0 -70 -24.5 -127.5t-57.5 -116.5q-59 -115 -98 -191.5t-39 -130.5q0 -51 35 -88t88 -37q37 0 64.5 14.5t47 33t36 33t32.5 14.5q23 0 23 -19q0 -33 -21.5 -67.5 t-60.5 -63.5t-91.5 -47t-113.5 -18q-63 0 -118.5 19t-95.5 53t-62.5 79t-22.5 98zM377 1280q0 20 16 35l137 131q12 12 35 12q12 0 39 -20.5t54.5 -48t48 -58.5t20.5 -49q0 -12 -14.5 -29.5t-40.5 -46.5q-49 -49 -81 -75.5t-52 -26.5t-37 16l-113 129q-12 12 -12 31z" />
<glyph unicode="&#xc0;" horiz-adv-x="1460" d="M-70 20q0 29 28 40.5t52 27.5q59 41 135 184l586 1100q23 41 37 63.5t39 22.5q23 0 35 -22.5t28 -67.5l357 -1067q29 -84 52.5 -133t63.5 -72q23 -12 45.5 -18t40 -12.5t28.5 -15.5t11 -27q0 -37 -55 -37q-41 0 -99.5 7t-135.5 7q-92 0 -152.5 -6t-95.5 -6q-41 0 -41 32 q0 23 15.5 33t41.5 21q70 27 70 110q0 18 -4 38t-13 44l-55 168q-12 35 -25.5 53.5t-60.5 18.5h-416q-37 0 -55 -11.5t-35 -43.5l-73 -150q-27 -57 -27 -104q0 -53 27.5 -79t89.5 -42q39 -10 61.5 -17.5t22.5 -35.5q0 -37 -56 -37q-43 0 -97 7t-124 7q-59 0 -110.5 -6 t-94.5 -6q-41 0 -41 32zM461 647q0 -31 47 -31h328q33 0 32 31v10.5t-4 16.5l-110 330q-27 84 -45 83q-18 0 -60 -75l-176 -330q-12 -25 -12 -35zM584 1847q0 41 24.5 63.5t59.5 22.5q51 0 98 -59l246 -304h-105l-260 193q-29 23 -46 42t-17 42z" />
<glyph unicode="&#xc1;" horiz-adv-x="1460" d="M-70 20q0 29 28 40.5t52 27.5q59 41 135 184l586 1100q23 41 37 63.5t39 22.5q23 0 35 -22.5t28 -67.5l357 -1067q29 -84 52.5 -133t63.5 -72q23 -12 45.5 -18t40 -12.5t28.5 -15.5t11 -27q0 -37 -55 -37q-41 0 -99.5 7t-135.5 7q-92 0 -152.5 -6t-95.5 -6q-41 0 -41 32 q0 23 15.5 33t41.5 21q70 27 70 110q0 18 -4 38t-13 44l-55 168q-12 35 -25.5 53.5t-60.5 18.5h-416q-37 0 -55 -11.5t-35 -43.5l-73 -150q-27 -57 -27 -104q0 -53 27.5 -79t89.5 -42q39 -10 61.5 -17.5t22.5 -35.5q0 -37 -56 -37q-43 0 -97 7t-124 7q-59 0 -110.5 -6 t-94.5 -6q-41 0 -41 32zM461 647q0 -31 47 -31h328q33 0 32 31v10.5t-4 16.5l-110 330q-27 84 -45 83q-18 0 -60 -75l-176 -330q-12 -25 -12 -35zM645 1570l307 306q61 57 115 57q33 0 56.5 -25.5t23.5 -60.5q0 -55 -68 -92l-330 -185h-104z" />
<glyph unicode="&#xc2;" horiz-adv-x="1460" d="M-70 20q0 29 28 40.5t52 27.5q59 41 135 184l586 1100q23 41 37 63.5t39 22.5q23 0 35 -22.5t28 -67.5l357 -1067q29 -84 52.5 -133t63.5 -72q23 -12 45.5 -18t40 -12.5t28.5 -15.5t11 -27q0 -37 -55 -37q-41 0 -99.5 7t-135.5 7q-92 0 -152.5 -6t-95.5 -6q-41 0 -41 32 q0 23 15.5 33t41.5 21q70 27 70 110q0 18 -4 38t-13 44l-55 168q-12 35 -25.5 53.5t-60.5 18.5h-416q-37 0 -55 -11.5t-35 -43.5l-73 -150q-27 -57 -27 -104q0 -53 27.5 -79t89.5 -42q39 -10 61.5 -17.5t22.5 -35.5q0 -37 -56 -37q-43 0 -97 7t-124 7q-59 0 -110.5 -6 t-94.5 -6q-41 0 -41 32zM461 647q0 -31 47 -31h328q33 0 32 31v10.5t-4 16.5l-110 330q-27 84 -45 83q-18 0 -60 -75l-176 -330q-12 -25 -12 -35zM514 1570l305 351h127l164 -351h-80l-168 181l-246 -181h-102z" />
<glyph unicode="&#xc3;" horiz-adv-x="1460" d="M-70 20q0 29 28 40.5t52 27.5q59 41 135 184l586 1100q23 41 37 63.5t39 22.5q23 0 35 -22.5t28 -67.5l357 -1067q29 -84 52.5 -133t63.5 -72q23 -12 45.5 -18t40 -12.5t28.5 -15.5t11 -27q0 -37 -55 -37q-41 0 -99.5 7t-135.5 7q-92 0 -152.5 -6t-95.5 -6q-41 0 -41 32 q0 23 15.5 33t41.5 21q70 27 70 110q0 18 -4 38t-13 44l-55 168q-12 35 -25.5 53.5t-60.5 18.5h-416q-37 0 -55 -11.5t-35 -43.5l-73 -150q-27 -57 -27 -104q0 -53 27.5 -79t89.5 -42q39 -10 61.5 -17.5t22.5 -35.5q0 -37 -56 -37q-43 0 -97 7t-124 7q-59 0 -110.5 -6 t-94.5 -6q-41 0 -41 32zM461 647q0 -31 47 -31h328q33 0 32 31v10.5t-4 16.5l-110 330q-27 84 -45 83q-18 0 -60 -75l-176 -330q-12 -25 -12 -35zM569 1593q18 119 72.5 180.5t126.5 61.5q33 0 59 -9l88 -22q23 -6 37.5 -8t24.5 -2q82 0 102 84h66q-20 -117 -71.5 -176.5 t-125.5 -59.5q-31 0 -57 8l-107 27q-16 4 -27.5 5t-21.5 1q-41 0 -63.5 -20.5t-36.5 -69.5h-66z" />
<glyph unicode="&#xc4;" horiz-adv-x="1460" d="M-70 20q0 29 28 40.5t52 27.5q59 41 135 184l586 1100q23 41 37 63.5t39 22.5q23 0 35 -22.5t28 -67.5l357 -1067q29 -84 52.5 -133t63.5 -72q23 -12 45.5 -18t40 -12.5t28.5 -15.5t11 -27q0 -37 -55 -37q-41 0 -99.5 7t-135.5 7q-92 0 -152.5 -6t-95.5 -6q-41 0 -41 32 q0 23 15.5 33t41.5 21q70 27 70 110q0 18 -4 38t-13 44l-55 168q-12 35 -25.5 53.5t-60.5 18.5h-416q-37 0 -55 -11.5t-35 -43.5l-73 -150q-27 -57 -27 -104q0 -53 27.5 -79t89.5 -42q39 -10 61.5 -17.5t22.5 -35.5q0 -37 -56 -37q-43 0 -97 7t-124 7q-59 0 -110.5 -6 t-94.5 -6q-41 0 -41 32zM461 647q0 -31 47 -31h328q33 0 32 31v10.5t-4 16.5l-110 330q-27 84 -45 83q-18 0 -60 -75l-176 -330q-12 -25 -12 -35zM541 1732q0 10 17 33t42 46.5t49.5 42t38.5 18.5q16 0 27 -15l88 -98q10 -10 10 -25q0 -12 -14 -26l-107 -103q-8 -8 -24 -8 q-8 0 -30 15.5t-43.5 37t-37.5 45t-16 37.5zM903 1732q0 10 17.5 33t42 46.5t49 42t38.5 18.5q16 0 27 -15l88 -98q10 -10 10 -25q0 -12 -14 -26l-106 -103q-8 -8 -25 -8q-8 0 -29.5 15.5t-43 37t-38 45t-16.5 37.5z" />
<glyph unicode="&#xc5;" horiz-adv-x="1460" d="M-68 20q0 29 28 40.5t52 27.5q55 37 133 184l588 1100q23 41 37 63.5t39 22.5q23 0 34 -22.5t27 -67.5l359 -1067q29 -84 51.5 -133t62.5 -72q23 -12 45.5 -18t41 -12.5t29.5 -15.5t11 -27q0 -37 -55 -37q-41 0 -99.5 7t-135.5 7q-92 0 -153.5 -6t-96.5 -6q-41 0 -41 32 q0 23 16.5 33t42.5 21q70 27 70 110q0 18 -4 38t-13 44l-55 168q-12 35 -26.5 53.5t-61.5 18.5h-416q-37 0 -55 -11.5t-35 -43.5l-73 -150q-27 -57 -27 -104q0 -53 27.5 -79t89.5 -42q39 -10 62.5 -17.5t23.5 -35.5q0 -37 -56 -37q-43 0 -98 7t-125 7q-59 0 -109.5 -6 t-93.5 -6q-41 0 -41 32zM463 647q0 -31 47 -31h326q35 0 34 31q0 8 -6 27l-110 330q-27 84 -45 83q-16 0 -58 -75l-176 -330q-12 -25 -12 -35zM571 1714q0 53 19.5 99.5t53.5 80t80 53t99 19.5t99.5 -19.5t80 -53t53 -80t19.5 -99.5t-19.5 -99t-53 -81t-79.5 -54.5 t-100 -19.5q-51 0 -97 19.5t-81 54.5t-54.5 81t-19.5 99zM682 1712q0 -59 41 -100t100 -41t100.5 41t41.5 100t-41 101t-101 42q-59 0 -100 -42t-41 -101z" />
<glyph unicode="&#xc6;" horiz-adv-x="2019" d="M-164 20q0 31 31 42.5t59 29.5q35 23 73 69t87 111l690 922q16 23 28.5 41t12.5 45q0 29 -21.5 43t-68.5 27q-33 8 -53.5 15t-20.5 34q0 37 56 37q16 0 124.5 -7.5t317.5 -7.5q207 0 395.5 7.5t362.5 7.5q29 0 46 -5.5t26.5 -29t12.5 -71.5t3 -134q0 -53 -7.5 -78.5 t-35.5 -25.5q-23 0 -33 15t-14 37.5t-9.5 49.5t-17.5 47q-55 90 -428 90q-63 0 -99 -4t-55.5 -24.5t-28.5 -64.5t-18 -124l-30 -291v-6q0 -27 22 -26h262q51 0 87 12t71 59q27 35 41 64.5t43 29.5q12 0 20.5 -12t8.5 -31q0 -31 -12.5 -101.5t-12.5 -174.5q0 -25 1 -44.5 t1 -31.5q0 -78 -39 -78q-18 0 -28.5 14.5t-17.5 37t-15 49t-23 49.5q-39 61 -166 61h-227q-31 0 -35 -32l-41 -377q-4 -23 -4 -40.5v-29.5q0 -74 42 -96.5t128 -22.5q147 0 251.5 30t205.5 114q31 25 50 50t34.5 44.5t28 32t28.5 12.5q29 0 29 -45q0 -18 -5 -48t-16.5 -64 t-27 -69.5t-37.5 -66.5q-43 -61 -94.5 -79.5t-135.5 -18.5q-78 0 -189.5 7t-258.5 7q-188 0 -287.5 -7t-116.5 -7q-41 0 -41 32q0 16 9.5 25.5t24 16t31.5 12.5t32 18q41 31 57 86t27 139l16 146v4q0 39 -37 39h-473q-39 0 -61 -29l-103 -137q-70 -94 -69 -156 q0 -82 92 -106q41 -10 66.5 -18.5t25.5 -36.5q0 -35 -55 -35q-43 0 -99.5 6t-124.5 6q-55 0 -108 -6t-105 -6q-29 0 -42 6t-13 26zM498 637q0 -6 5 -13.5t11 -7.5h410q37 0 43 58l63 594v14q0 41 -20 41q-18 0 -45 -37l-453 -620q-14 -16 -14 -29z" />
<glyph unicode="&#xc7;" horiz-adv-x="1435" d="M61 672q0 270 150 485q102 147 246.5 223t318.5 76q90 0 165 -16.5t132 -37t97 -36.5t63 -16q29 0 48 12t28 12q41 0 41 -49q0 -10 -4.5 -46t-4.5 -95q0 -92 5.5 -150.5t5.5 -87.5q0 -39 -27 -39q-23 0 -38 39t-46 103q-78 158 -195.5 238.5t-261.5 80.5q-106 0 -192 -43 t-147.5 -125t-94.5 -197.5t-33 -263.5q0 -143 35 -257.5t97.5 -194.5t149.5 -122t192 -42q111 0 213 49t186 141q35 39 50 63.5t42 24.5q23 0 23 -34q0 -18 -26 -66.5t-81 -110.5q-100 -111 -227 -170t-264 -59q-135 0 -253 52.5t-205 145.5t-137.5 224t-50.5 289zM449 -375 l41 90q66 -35 122 -55t115 -20q96 0 97 88q0 82 -103 82q-16 0 -38.5 -4.5t-51.5 -10.5l66 205h69l-34 -113q47 6 73 7q78 0 128 -46.5t50 -123.5q0 -84 -59 -132.5t-170 -48.5q-72 0 -145.5 23.5t-159.5 58.5z" />
<glyph unicode="&#xc8;" horiz-adv-x="1280" d="M6 20q0 16 9.5 25.5t23.5 16t31.5 12.5t31.5 18q41 31 57.5 85t26.5 140l88 805q2 16 3.5 31.5t1.5 32.5q0 66 -21.5 102.5t-73.5 52.5q-41 12 -70.5 18.5t-29.5 39.5q0 37 55 37q16 0 106.5 -7.5t264.5 -7.5q158 0 321.5 7.5t337.5 7.5q29 0 46.5 -5.5t26.5 -29 t12 -71.5t3 -134q0 -53 -7 -78.5t-36 -25.5q-23 0 -33 15t-14 37.5t-9 49.5t-17 47q-55 90 -430 90q-63 0 -99.5 -4t-55.5 -24.5t-27.5 -64.5t-16.5 -124l-31 -291v-6q0 -27 23 -26h262q51 0 87 12t71 59q27 35 41 64.5t43 29.5q12 0 20 -12t8 -31q0 -31 -12 -101.5 t-12 -174.5q0 -25 1 -44.5t1 -31.5q0 -78 -39 -78q-18 0 -28.5 14.5t-18.5 37t-16.5 49t-22.5 49.5q-39 61 -164 61h-227q-31 0 -35 -32l-41 -377q-4 -23 -4 -40.5v-29.5q0 -74 42 -96.5t128 -22.5q147 0 251.5 30t204.5 114q31 25 50.5 50t35 44.5t27.5 32t29 12.5 q29 0 28 -45q0 -18 -6 -48t-16 -64t-26.5 -69.5t-39.5 -66.5q-43 -61 -93 -79.5t-134 -18.5q-78 0 -189.5 7t-258.5 7q-188 0 -288 -7t-116 -7q-41 0 -41 32zM494 1847q0 41 24.5 63.5t59.5 22.5q51 0 98 -59l246 -304h-105l-260 193q-29 23 -46 42t-17 42z" />
<glyph unicode="&#xc9;" horiz-adv-x="1280" d="M6 20q0 16 9.5 25.5t23.5 16t31.5 12.5t31.5 18q41 31 57.5 85t26.5 140l88 805q2 16 3.5 31.5t1.5 32.5q0 66 -21.5 102.5t-73.5 52.5q-41 12 -70.5 18.5t-29.5 39.5q0 37 55 37q16 0 106.5 -7.5t264.5 -7.5q158 0 321.5 7.5t337.5 7.5q29 0 46.5 -5.5t26.5 -29 t12 -71.5t3 -134q0 -53 -7 -78.5t-36 -25.5q-23 0 -33 15t-14 37.5t-9 49.5t-17 47q-55 90 -430 90q-63 0 -99.5 -4t-55.5 -24.5t-27.5 -64.5t-16.5 -124l-31 -291v-6q0 -27 23 -26h262q51 0 87 12t71 59q27 35 41 64.5t43 29.5q12 0 20 -12t8 -31q0 -31 -12 -101.5 t-12 -174.5q0 -25 1 -44.5t1 -31.5q0 -78 -39 -78q-18 0 -28.5 14.5t-18.5 37t-16.5 49t-22.5 49.5q-39 61 -164 61h-227q-31 0 -35 -32l-41 -377q-4 -23 -4 -40.5v-29.5q0 -74 42 -96.5t128 -22.5q147 0 251.5 30t204.5 114q31 25 50.5 50t35 44.5t27.5 32t29 12.5 q29 0 28 -45q0 -18 -6 -48t-16 -64t-26.5 -69.5t-39.5 -66.5q-43 -61 -93 -79.5t-134 -18.5q-78 0 -189.5 7t-258.5 7q-188 0 -288 -7t-116 -7q-41 0 -41 32zM555 1570l307 306q61 57 115 57q33 0 56.5 -25.5t23.5 -60.5q0 -55 -68 -92l-330 -185h-104z" />
<glyph unicode="&#xca;" horiz-adv-x="1280" d="M6 20q0 16 9.5 25.5t23.5 16t31.5 12.5t31.5 18q41 31 57.5 85t26.5 140l88 805q2 16 3.5 31.5t1.5 32.5q0 66 -21.5 102.5t-73.5 52.5q-41 12 -70.5 18.5t-29.5 39.5q0 37 55 37q16 0 106.5 -7.5t264.5 -7.5q158 0 321.5 7.5t337.5 7.5q29 0 46.5 -5.5t26.5 -29 t12 -71.5t3 -134q0 -53 -7 -78.5t-36 -25.5q-23 0 -33 15t-14 37.5t-9 49.5t-17 47q-55 90 -430 90q-63 0 -99.5 -4t-55.5 -24.5t-27.5 -64.5t-16.5 -124l-31 -291v-6q0 -27 23 -26h262q51 0 87 12t71 59q27 35 41 64.5t43 29.5q12 0 20 -12t8 -31q0 -31 -12 -101.5 t-12 -174.5q0 -25 1 -44.5t1 -31.5q0 -78 -39 -78q-18 0 -28.5 14.5t-18.5 37t-16.5 49t-22.5 49.5q-39 61 -164 61h-227q-31 0 -35 -32l-41 -377q-4 -23 -4 -40.5v-29.5q0 -74 42 -96.5t128 -22.5q147 0 251.5 30t204.5 114q31 25 50.5 50t35 44.5t27.5 32t29 12.5 q29 0 28 -45q0 -18 -6 -48t-16 -64t-26.5 -69.5t-39.5 -66.5q-43 -61 -93 -79.5t-134 -18.5q-78 0 -189.5 7t-258.5 7q-188 0 -288 -7t-116 -7q-41 0 -41 32zM424 1570l305 351h127l164 -351h-80l-168 181l-246 -181h-102z" />
<glyph unicode="&#xcb;" horiz-adv-x="1280" d="M6 20q0 16 9.5 25.5t23.5 16t31.5 12.5t31.5 18q41 31 57.5 85t26.5 140l88 805q2 16 3.5 31.5t1.5 32.5q0 66 -21.5 102.5t-73.5 52.5q-41 12 -70.5 18.5t-29.5 39.5q0 37 55 37q16 0 106.5 -7.5t264.5 -7.5q158 0 321.5 7.5t337.5 7.5q29 0 46.5 -5.5t26.5 -29 t12 -71.5t3 -134q0 -53 -7 -78.5t-36 -25.5q-23 0 -33 15t-14 37.5t-9 49.5t-17 47q-55 90 -430 90q-63 0 -99.5 -4t-55.5 -24.5t-27.5 -64.5t-16.5 -124l-31 -291v-6q0 -27 23 -26h262q51 0 87 12t71 59q27 35 41 64.5t43 29.5q12 0 20 -12t8 -31q0 -31 -12 -101.5 t-12 -174.5q0 -25 1 -44.5t1 -31.5q0 -78 -39 -78q-18 0 -28.5 14.5t-18.5 37t-16.5 49t-22.5 49.5q-39 61 -164 61h-227q-31 0 -35 -32l-41 -377q-4 -23 -4 -40.5v-29.5q0 -74 42 -96.5t128 -22.5q147 0 251.5 30t204.5 114q31 25 50.5 50t35 44.5t27.5 32t29 12.5 q29 0 28 -45q0 -18 -6 -48t-16 -64t-26.5 -69.5t-39.5 -66.5q-43 -61 -93 -79.5t-134 -18.5q-78 0 -189.5 7t-258.5 7q-188 0 -288 -7t-116 -7q-41 0 -41 32zM451 1732q0 10 17 33t42 46.5t49.5 42t38.5 18.5q16 0 27 -15l88 -98q10 -10 10 -25q0 -12 -14 -26l-107 -103 q-8 -8 -24 -8q-8 0 -30 15.5t-43.5 37t-37.5 45t-16 37.5zM813 1732q0 10 17.5 33t42 46.5t49 42t38.5 18.5q16 0 27 -15l88 -98q10 -10 10 -25q0 -12 -14 -26l-106 -103q-8 -8 -25 -8q-8 0 -29.5 15.5t-43 37t-38 45t-16.5 37.5z" />
<glyph unicode="&#xcc;" horiz-adv-x="712" d="M16 20q0 16 9.5 25.5t23.5 16t31.5 12.5t32.5 18q41 31 56 85t26 140l90 805q2 16 3 31.5t1 32.5q0 123 -96 155q-41 12 -71 18.5t-30 39.5q0 37 55 37q33 0 100.5 -7.5t168.5 -7.5q92 0 152.5 7.5t95.5 7.5q41 0 41 -33q0 -16 -9.5 -25.5t-24 -16.5t-30.5 -13.5 t-33 -18.5q-41 -31 -56 -84t-26 -139l-90 -805q-2 -20 -3 -34.5t-1 -22.5q0 -70 20.5 -108t73.5 -56q39 -12 70 -18.5t31 -38.5q0 -37 -54 -37q-35 0 -99 7t-163 7q-96 0 -158.5 -6t-95.5 -6q-41 0 -41 32zM209 1847q0 41 24.5 63.5t59.5 22.5q51 0 98 -59l246 -304h-105 l-260 193q-29 23 -46 42t-17 42z" />
<glyph unicode="&#xcd;" horiz-adv-x="712" d="M16 20q0 16 9.5 25.5t23.5 16t31.5 12.5t32.5 18q41 31 56 85t26 140l90 805q2 16 3 31.5t1 32.5q0 123 -96 155q-41 12 -71 18.5t-30 39.5q0 37 55 37q33 0 100.5 -7.5t168.5 -7.5q92 0 152.5 7.5t95.5 7.5q41 0 41 -33q0 -16 -9.5 -25.5t-24 -16.5t-30.5 -13.5 t-33 -18.5q-41 -31 -56 -84t-26 -139l-90 -805q-2 -20 -3 -34.5t-1 -22.5q0 -70 20.5 -108t73.5 -56q39 -12 70 -18.5t31 -38.5q0 -37 -54 -37q-35 0 -99 7t-163 7q-96 0 -158.5 -6t-95.5 -6q-41 0 -41 32zM270 1570l307 306q61 57 115 57q33 0 56.5 -25.5t23.5 -60.5 q0 -55 -68 -92l-330 -185h-104z" />
<glyph unicode="&#xce;" horiz-adv-x="712" d="M16 20q0 16 9.5 25.5t23.5 16t31.5 12.5t32.5 18q41 31 56 85t26 140l90 805q2 16 3 31.5t1 32.5q0 123 -96 155q-41 12 -71 18.5t-30 39.5q0 37 55 37q33 0 100.5 -7.5t168.5 -7.5q92 0 152.5 7.5t95.5 7.5q41 0 41 -33q0 -16 -9.5 -25.5t-24 -16.5t-30.5 -13.5 t-33 -18.5q-41 -31 -56 -84t-26 -139l-90 -805q-2 -20 -3 -34.5t-1 -22.5q0 -70 20.5 -108t73.5 -56q39 -12 70 -18.5t31 -38.5q0 -37 -54 -37q-35 0 -99 7t-163 7q-96 0 -158.5 -6t-95.5 -6q-41 0 -41 32zM139 1570l305 351h127l164 -351h-80l-168 181l-246 -181h-102z" />
<glyph unicode="&#xcf;" horiz-adv-x="712" d="M16 20q0 16 9.5 25.5t23.5 16t31.5 12.5t32.5 18q41 31 56 85t26 140l90 805q2 16 3 31.5t1 32.5q0 123 -96 155q-41 12 -71 18.5t-30 39.5q0 37 55 37q33 0 100.5 -7.5t168.5 -7.5q92 0 152.5 7.5t95.5 7.5q41 0 41 -33q0 -16 -9.5 -25.5t-24 -16.5t-30.5 -13.5 t-33 -18.5q-41 -31 -56 -84t-26 -139l-90 -805q-2 -20 -3 -34.5t-1 -22.5q0 -70 20.5 -108t73.5 -56q39 -12 70 -18.5t31 -38.5q0 -37 -54 -37q-35 0 -99 7t-163 7q-96 0 -158.5 -6t-95.5 -6q-41 0 -41 32zM166 1732q0 10 17 33t42 46.5t49.5 42t38.5 18.5q16 0 27 -15 l88 -98q10 -10 10 -25q0 -12 -14 -26l-107 -103q-8 -8 -24 -8q-8 0 -30 15.5t-43.5 37t-37.5 45t-16 37.5zM528 1732q0 10 17.5 33t42 46.5t49 42t38.5 18.5q16 0 27 -15l88 -98q10 -10 10 -25q0 -12 -14 -26l-106 -103q-8 -8 -25 -8q-8 0 -29.5 15.5t-43 37t-38 45 t-16.5 37.5z" />
<glyph unicode="&#xd0;" horiz-adv-x="1560" d="M25 20q0 16 9 25.5t23.5 16t31.5 12.5t32 18q41 31 57.5 85t26.5 140l41 371h-211l10 109h213l35 325q2 14 3 27.5t1 30.5q0 68 -20.5 106.5t-73.5 54.5q-41 12 -71 18.5t-30 39.5q0 37 56 37q27 0 100.5 -7.5t196.5 -7.5q117 0 215 6.5t178 6.5q315 0 488 -153t173 -435 q0 -211 -94 -395.5t-266 -307.5q-106 -76 -240.5 -115.5t-287.5 -39.5q-86 0 -166 6t-152 6q-82 0 -141.5 -6t-95.5 -6q-41 0 -41 32zM436 240q0 -88 38 -126t140 -38q256 0 433 194q92 104 147 254t55 307q0 117 -33.5 211.5t-96 162t-151.5 104.5t-198 37 q-72 0 -116 -11.5t-69.5 -40t-36.5 -77t-20 -121.5l-30 -299h346l-13 -109h-348l-43 -391q-2 -20 -3 -34.5t-1 -22.5z" />
<glyph unicode="&#xd1;" horiz-adv-x="1585" d="M-12 20q0 29 24.5 39.5t57.5 28.5q51 29 76.5 83t39.5 146l93 582q6 41 13 89t7 106q0 195 -135 237q-25 8 -49.5 11.5t-44 8.5t-31.5 13t-12 27q0 45 61 45q35 0 81 -6.5t101 -6.5q39 0 74 2t70 2q29 0 48 -8t34.5 -23.5t31 -39t35.5 -51.5l651 -924l80 694q2 10 3 27.5 t1 44.5q0 72 -26.5 115t-89.5 69q-25 10 -48.5 14.5t-43 10.5t-30.5 15t-11 28q0 37 55 37t119.5 -7.5t138.5 -7.5q68 0 123 7.5t96 7.5t41 -33q0 -29 -25.5 -40t-58.5 -30q-49 -29 -76.5 -83t-40.5 -144l-147 -1065q-8 -55 -35 -55q-25 0 -45 22.5t-49 63.5l-731 1044 l-101 -768q-2 -16 -2 -33.5v-40.5q0 -137 95 -176q31 -12 59.5 -18t50 -12.5t33.5 -16.5t12 -28q0 -37 -55 -37t-121 7t-139 7q-68 0 -122 -6t-95 -6t-41 32zM631 1593q18 119 72.5 180.5t126.5 61.5q33 0 59 -9l88 -22q23 -6 37.5 -8t24.5 -2q82 0 102 84h66 q-20 -117 -71.5 -176.5t-125.5 -59.5q-31 0 -57 8l-107 27q-16 4 -27.5 5t-21.5 1q-41 0 -63.5 -20.5t-36.5 -69.5h-66z" />
<glyph unicode="&#xd2;" horiz-adv-x="1636" d="M55 635q0 160 59.5 306t172.5 265q242 252 604 252q156 0 284 -48t219 -134t141 -207t50 -268q0 -158 -53 -300.5t-154 -256.5q-119 -135 -277.5 -209t-334.5 -74q-166 0 -298 48t-223 137.5t-140.5 213t-49.5 275.5zM317 635q0 -281 121 -431.5t332 -150.5 q125 0 226.5 52.5t174 148.5t112.5 230t40 296q0 283 -120.5 434.5t-325.5 151.5q-125 0 -227.5 -53t-176.5 -150.5t-115 -231.5t-41 -296zM672 1847q0 41 24.5 63.5t59.5 22.5q51 0 98 -59l246 -304h-105l-260 193q-29 23 -46 42t-17 42z" />
<glyph unicode="&#xd3;" horiz-adv-x="1636" d="M55 635q0 160 59.5 306t172.5 265q242 252 604 252q156 0 284 -48t219 -134t141 -207t50 -268q0 -158 -53 -300.5t-154 -256.5q-119 -135 -277.5 -209t-334.5 -74q-166 0 -298 48t-223 137.5t-140.5 213t-49.5 275.5zM317 635q0 -281 121 -431.5t332 -150.5 q125 0 226.5 52.5t174 148.5t112.5 230t40 296q0 283 -120.5 434.5t-325.5 151.5q-125 0 -227.5 -53t-176.5 -150.5t-115 -231.5t-41 -296zM733 1570l307 306q61 57 115 57q33 0 56.5 -25.5t23.5 -60.5q0 -55 -68 -92l-330 -185h-104z" />
<glyph unicode="&#xd4;" horiz-adv-x="1636" d="M55 635q0 160 59.5 306t172.5 265q242 252 604 252q156 0 284 -48t219 -134t141 -207t50 -268q0 -158 -53 -300.5t-154 -256.5q-119 -135 -277.5 -209t-334.5 -74q-166 0 -298 48t-223 137.5t-140.5 213t-49.5 275.5zM317 635q0 -281 121 -431.5t332 -150.5 q125 0 226.5 52.5t174 148.5t112.5 230t40 296q0 283 -120.5 434.5t-325.5 151.5q-125 0 -227.5 -53t-176.5 -150.5t-115 -231.5t-41 -296zM602 1570l305 351h127l164 -351h-80l-168 181l-246 -181h-102z" />
<glyph unicode="&#xd5;" horiz-adv-x="1636" d="M55 635q0 160 59.5 306t172.5 265q242 252 604 252q156 0 284 -48t219 -134t141 -207t50 -268q0 -158 -53 -300.5t-154 -256.5q-119 -135 -277.5 -209t-334.5 -74q-166 0 -298 48t-223 137.5t-140.5 213t-49.5 275.5zM317 635q0 -281 121 -431.5t332 -150.5 q125 0 226.5 52.5t174 148.5t112.5 230t40 296q0 283 -120.5 434.5t-325.5 151.5q-125 0 -227.5 -53t-176.5 -150.5t-115 -231.5t-41 -296zM657 1593q18 119 72.5 180.5t126.5 61.5q33 0 59 -9l88 -22q23 -6 37.5 -8t24.5 -2q82 0 102 84h66q-20 -117 -71.5 -176.5 t-125.5 -59.5q-31 0 -57 8l-107 27q-16 4 -27.5 5t-21.5 1q-41 0 -63.5 -20.5t-36.5 -69.5h-66z" />
<glyph unicode="&#xd6;" horiz-adv-x="1636" d="M55 635q0 160 59.5 306t172.5 265q242 252 604 252q156 0 284 -48t219 -134t141 -207t50 -268q0 -158 -53 -300.5t-154 -256.5q-119 -135 -277.5 -209t-334.5 -74q-166 0 -298 48t-223 137.5t-140.5 213t-49.5 275.5zM317 635q0 -281 121 -431.5t332 -150.5 q125 0 226.5 52.5t174 148.5t112.5 230t40 296q0 283 -120.5 434.5t-325.5 151.5q-125 0 -227.5 -53t-176.5 -150.5t-115 -231.5t-41 -296zM629 1732q0 10 17 33t42 46.5t49.5 42t38.5 18.5q16 0 27 -15l88 -98q10 -10 10 -25q0 -12 -14 -26l-107 -103q-8 -8 -24 -8 q-8 0 -30 15.5t-43.5 37t-37.5 45t-16 37.5zM991 1732q0 10 17.5 33t42 46.5t49 42t38.5 18.5q16 0 27 -15l88 -98q10 -10 10 -25q0 -12 -14 -26l-106 -103q-8 -8 -25 -8q-8 0 -29.5 15.5t-43 37t-38 45t-16.5 37.5z" />
<glyph unicode="&#xd7;" horiz-adv-x="1705" d="M287 152l458 458l-458 461l116 117l459 -459l461 459l117 -117l-459 -461l459 -458l-117 -119l-461 461l-459 -461z" />
<glyph unicode="&#xd8;" horiz-adv-x="1636" d="M55 631q0 162 59.5 309t172.5 266q242 252 604 252q92 0 175 -15.5t169 -58.5l100 138l17.5 21t25.5 9h66q16 0 16 -16q0 -8 -10 -20l-127 -181q131 -92 195.5 -227t64.5 -309q0 -178 -64.5 -334t-189.5 -275q-240 -229 -581 -229q-195 0 -359 82l-139 -193 q-10 -12 -18.5 -20t-24.5 -8h-66q-8 0 -13 6t-5 10q0 8 10 21l172 235q-250 197 -250 537zM315 635q0 -242 95 -393l741 1028q-119 96 -272 96q-125 0 -229.5 -53t-178.5 -149.5t-115 -230.5t-41 -298zM475 164q111 -111 295 -111q127 0 229.5 53.5t176 148.5t113.5 230.5 t40 296.5q0 258 -108 414z" />
<glyph unicode="&#xd9;" horiz-adv-x="1677" d="M92 1399q0 37 55 37q33 0 98.5 -7.5t164.5 -7.5q92 0 153.5 7.5t95.5 7.5q41 0 41 -33q0 -20 -14 -30.5t-35.5 -20t-43 -22.5t-38.5 -38q-25 -43 -49 -186q-39 -236 -49 -392.5t-10 -215.5q0 -209 90 -316.5t264 -107.5q193 0 316.5 115.5t171.5 345.5q49 250 65 404.5 t16 207.5q0 78 -27.5 114.5t-90.5 69.5q-45 23 -74 30t-29 38q0 37 56 37q35 0 90 -7.5t133 -7.5q72 0 127 7.5t96 7.5t41 -33q0 -31 -30.5 -42t-67.5 -36q-47 -31 -66.5 -89t-36.5 -144q-49 -270 -77.5 -447.5t-57.5 -261.5q-150 -422 -622 -422q-268 0 -405.5 119 t-137.5 344q0 109 13 212t28.5 199.5t28 185.5t12.5 169q0 61 -21.5 98t-72.5 53q-41 12 -71 18.5t-30 39.5zM693 1847q0 41 24.5 63.5t59.5 22.5q51 0 98 -59l246 -304h-105l-260 193q-29 23 -46 42t-17 42z" />
<glyph unicode="&#xda;" horiz-adv-x="1677" d="M92 1399q0 37 55 37q33 0 98.5 -7.5t164.5 -7.5q92 0 153.5 7.5t95.5 7.5q41 0 41 -33q0 -20 -14 -30.5t-35.5 -20t-43 -22.5t-38.5 -38q-25 -43 -49 -186q-39 -236 -49 -392.5t-10 -215.5q0 -209 90 -316.5t264 -107.5q193 0 316.5 115.5t171.5 345.5q49 250 65 404.5 t16 207.5q0 78 -27.5 114.5t-90.5 69.5q-45 23 -74 30t-29 38q0 37 56 37q35 0 90 -7.5t133 -7.5q72 0 127 7.5t96 7.5t41 -33q0 -31 -30.5 -42t-67.5 -36q-47 -31 -66.5 -89t-36.5 -144q-49 -270 -77.5 -447.5t-57.5 -261.5q-150 -422 -622 -422q-268 0 -405.5 119 t-137.5 344q0 109 13 212t28.5 199.5t28 185.5t12.5 169q0 61 -21.5 98t-72.5 53q-41 12 -71 18.5t-30 39.5zM754 1570l307 306q61 57 115 57q33 0 56.5 -25.5t23.5 -60.5q0 -55 -68 -92l-330 -185h-104z" />
<glyph unicode="&#xdb;" horiz-adv-x="1677" d="M92 1399q0 37 55 37q33 0 98.5 -7.5t164.5 -7.5q92 0 153.5 7.5t95.5 7.5q41 0 41 -33q0 -20 -14 -30.5t-35.5 -20t-43 -22.5t-38.5 -38q-25 -43 -49 -186q-39 -236 -49 -392.5t-10 -215.5q0 -209 90 -316.5t264 -107.5q193 0 316.5 115.5t171.5 345.5q49 250 65 404.5 t16 207.5q0 78 -27.5 114.5t-90.5 69.5q-45 23 -74 30t-29 38q0 37 56 37q35 0 90 -7.5t133 -7.5q72 0 127 7.5t96 7.5t41 -33q0 -31 -30.5 -42t-67.5 -36q-47 -31 -66.5 -89t-36.5 -144q-49 -270 -77.5 -447.5t-57.5 -261.5q-150 -422 -622 -422q-268 0 -405.5 119 t-137.5 344q0 109 13 212t28.5 199.5t28 185.5t12.5 169q0 61 -21.5 98t-72.5 53q-41 12 -71 18.5t-30 39.5zM623 1570l305 351h127l164 -351h-80l-168 181l-246 -181h-102z" />
<glyph unicode="&#xdc;" horiz-adv-x="1677" d="M92 1399q0 37 55 37q33 0 98.5 -7.5t164.5 -7.5q92 0 153.5 7.5t95.5 7.5q41 0 41 -33q0 -20 -14 -30.5t-35.5 -20t-43 -22.5t-38.5 -38q-25 -43 -49 -186q-39 -236 -49 -392.5t-10 -215.5q0 -209 90 -316.5t264 -107.5q193 0 316.5 115.5t171.5 345.5q49 250 65 404.5 t16 207.5q0 78 -27.5 114.5t-90.5 69.5q-45 23 -74 30t-29 38q0 37 56 37q35 0 90 -7.5t133 -7.5q72 0 127 7.5t96 7.5t41 -33q0 -31 -30.5 -42t-67.5 -36q-47 -31 -66.5 -89t-36.5 -144q-49 -270 -77.5 -447.5t-57.5 -261.5q-150 -422 -622 -422q-268 0 -405.5 119 t-137.5 344q0 109 13 212t28.5 199.5t28 185.5t12.5 169q0 61 -21.5 98t-72.5 53q-41 12 -71 18.5t-30 39.5zM650 1732q0 10 17 33t42 46.5t49.5 42t38.5 18.5q16 0 27 -15l88 -98q10 -10 10 -25q0 -12 -14 -26l-107 -103q-8 -8 -24 -8q-8 0 -30 15.5t-43.5 37t-37.5 45 t-16 37.5zM1012 1732q0 10 17.5 33t42 46.5t49 42t38.5 18.5q16 0 27 -15l88 -98q10 -10 10 -25q0 -12 -14 -26l-106 -103q-8 -8 -25 -8q-8 0 -29.5 15.5t-43 37t-38 45t-16.5 37.5z" />
<glyph unicode="&#xdd;" horiz-adv-x="1341" d="M55 1395q0 39 56 39q37 0 99 -7.5t148 -7.5q78 0 136.5 6.5t97.5 6.5q41 0 41 -33q0 -27 -22.5 -33t-53.5 -16q-72 -23 -72 -103q0 -41 25 -94l166 -338q39 -82 55 -82q18 0 66 72l229 348q16 25 26.5 47.5t10.5 46.5q0 70 -90 94q-41 10 -65.5 18.5t-24.5 37.5 q0 37 55 37q43 0 98.5 -7.5t124.5 -7.5q59 0 109.5 6.5t93.5 6.5q41 0 41 -33q0 -20 -20.5 -32.5t-54.5 -34t-80 -61.5t-95 -114l-315 -471q-23 -31 -37.5 -61.5t-18.5 -67.5l-28 -256q-2 -16 -3 -30.5t-1 -24.5q0 -72 19.5 -109t74.5 -53q47 -14 84 -20.5t37 -40.5 q0 -37 -56 -37q-29 0 -99.5 7t-182.5 7q-117 0 -185.5 -6t-97.5 -6q-41 0 -41 32q0 31 30 41.5t71 26.5q31 12 50 27.5t30.5 41t18.5 64.5t13 96l19 175q2 10 3 20t1 20q0 29 -7.5 53.5t-21.5 53.5l-238 481q-33 66 -59.5 117t-67.5 84q-16 12 -32.5 20.5t-29.5 14.5 t-21.5 15t-8.5 24zM586 1570l307 306q61 57 115 57q33 0 56.5 -25.5t23.5 -60.5q0 -55 -68 -92l-330 -185h-104z" />
<glyph unicode="&#xde;" horiz-adv-x="1304" d="M6 20q0 16 9.5 25.5t23.5 16t31.5 12.5t31.5 18q41 31 57.5 85t26.5 140l88 805q2 16 3.5 31.5t1.5 32.5q0 66 -21.5 102.5t-73.5 52.5q-41 12 -70.5 18.5t-29.5 39.5q0 37 55 37q33 0 98.5 -7.5t163.5 -7.5q92 0 152.5 7.5t95.5 7.5q41 0 41 -33q0 -29 -26.5 -39 t-57.5 -27q-41 -20 -57.5 -56t-18.5 -99l21 -8q41 4 76 6t69 2q268 0 404.5 -112t136.5 -294q0 -86 -35 -159.5t-99.5 -128t-154.5 -86t-198 -31.5q-104 0 -163 20.5t-59 48.5q0 33 43 33q23 0 50.5 -4t62.5 -4q135 0 216 83t81 218q0 72 -24.5 132t-68.5 103t-105.5 68 t-135.5 25q-80 0 -111.5 -34t-41.5 -120l-72 -639q-2 -16 -3 -30.5t-1 -24.5q0 -70 20.5 -108t73.5 -54q25 -6 47.5 -10t39.5 -9.5t27.5 -14.5t10.5 -27q0 -37 -55 -37q-29 0 -98.5 7t-186.5 7q-92 0 -153.5 -6t-96.5 -6q-41 0 -41 32z" />
<glyph unicode="&#xdf;" horiz-adv-x="991" d="M-133 -272q0 14 12 20t28.5 11t36 12.5t33.5 21.5q39 37 54.5 120t29.5 214l66 604q20 195 55 341.5t92.5 244.5t142.5 148.5t204 50.5q156 0 240.5 -84t84.5 -230q0 -137 -80 -232.5t-225 -127.5v-15q272 -53 272 -323q0 -117 -36.5 -213t-96 -165t-136.5 -105.5 t-157 -36.5q-82 0 -128 30.5t-46 83.5q0 37 22.5 64.5t51.5 27.5q27 0 44.5 -17t32.5 -38.5t31.5 -40t43.5 -18.5t55.5 33.5t53 92t41 139.5t16.5 173q0 209 -152 260q-27 10 -49.5 12t-38.5 6.5t-25.5 12.5t-9.5 26q0 20 12.5 29.5t34 15t48 10.5t55.5 17q76 33 123 122 t47 206q0 106 -40 161.5t-108 55.5t-112 -46t-72.5 -136t-48 -223.5t-37.5 -307.5l-64 -577q-31 -281 -92 -422.5t-172 -141.5q-29 0 -54.5 13.5t-44 34t-28.5 44t-10 42.5z" />
<glyph unicode="&#xe0;" horiz-adv-x="1005" d="M25 291q0 111 43 219t125 203q80 92 164.5 135t189.5 43q37 0 66.5 -9.5t52 -19.5t39 -19t24.5 -9q20 0 41 20t41 46t39.5 46.5t36.5 20.5q10 0 18 -8.5t8 -18.5q0 -18 -29.5 -124.5t-54.5 -307.5l-20 -164q-6 -45 -7 -73.5t-1 -41.5q0 -80 45 -79q23 0 38 13t27.5 29.5 t25.5 30t28 13.5q18 0 18 -27q0 -20 -23.5 -59t-60.5 -76t-81 -64.5t-85 -27.5q-55 0 -88 51t-33 153v17l-12 -2q-141 -217 -321 -217q-113 0 -183.5 83t-70.5 224zM233 334q0 -217 140 -217q78 0 147.5 76.5t91.5 218.5l39 239q6 43 6 76q0 100 -106 100q-68 0 -125 -37.5 t-100 -103t-68 -157t-25 -195.5zM322 1278q0 41 24.5 63.5t59.5 22.5q51 0 98 -59l246 -304h-105l-260 193q-29 23 -46 42t-17 42z" />
<glyph unicode="&#xe1;" horiz-adv-x="1005" d="M25 291q0 111 43 219t125 203q80 92 164.5 135t189.5 43q37 0 66.5 -9.5t52 -19.5t39 -19t24.5 -9q20 0 41 20t41 46t39.5 46.5t36.5 20.5q10 0 18 -8.5t8 -18.5q0 -18 -29.5 -124.5t-54.5 -307.5l-20 -164q-6 -45 -7 -73.5t-1 -41.5q0 -80 45 -79q23 0 38 13t27.5 29.5 t25.5 30t28 13.5q18 0 18 -27q0 -20 -23.5 -59t-60.5 -76t-81 -64.5t-85 -27.5q-55 0 -88 51t-33 153v17l-12 -2q-141 -217 -321 -217q-113 0 -183.5 83t-70.5 224zM233 334q0 -217 140 -217q78 0 147.5 76.5t91.5 218.5l39 239q6 43 6 76q0 100 -106 100q-68 0 -125 -37.5 t-100 -103t-68 -157t-25 -195.5zM383 1001l307 306q61 57 115 57q33 0 56.5 -25.5t23.5 -60.5q0 -55 -68 -92l-330 -185h-104z" />
<glyph unicode="&#xe2;" horiz-adv-x="1005" d="M25 291q0 111 43 219t125 203q80 92 164.5 135t189.5 43q37 0 66.5 -9.5t52 -19.5t39 -19t24.5 -9q20 0 41 20t41 46t39.5 46.5t36.5 20.5q10 0 18 -8.5t8 -18.5q0 -18 -29.5 -124.5t-54.5 -307.5l-20 -164q-6 -45 -7 -73.5t-1 -41.5q0 -80 45 -79q23 0 38 13t27.5 29.5 t25.5 30t28 13.5q18 0 18 -27q0 -20 -23.5 -59t-60.5 -76t-81 -64.5t-85 -27.5q-55 0 -88 51t-33 153v17l-12 -2q-141 -217 -321 -217q-113 0 -183.5 83t-70.5 224zM233 334q0 -217 140 -217q78 0 147.5 76.5t91.5 218.5l39 239q6 43 6 76q0 100 -106 100q-68 0 -125 -37.5 t-100 -103t-68 -157t-25 -195.5zM252 1001l305 351h127l164 -351h-80l-168 181l-246 -181h-102z" />
<glyph unicode="&#xe3;" horiz-adv-x="1005" d="M25 291q0 111 43 219t125 203q80 92 164.5 135t189.5 43q37 0 66.5 -9.5t52 -19.5t39 -19t24.5 -9q20 0 41 20t41 46t39.5 46.5t36.5 20.5q10 0 18 -8.5t8 -18.5q0 -18 -29.5 -124.5t-54.5 -307.5l-20 -164q-6 -45 -7 -73.5t-1 -41.5q0 -80 45 -79q23 0 38 13t27.5 29.5 t25.5 30t28 13.5q18 0 18 -27q0 -20 -23.5 -59t-60.5 -76t-81 -64.5t-85 -27.5q-55 0 -88 51t-33 153v17l-12 -2q-141 -217 -321 -217q-113 0 -183.5 83t-70.5 224zM233 334q0 -217 140 -217q78 0 147.5 76.5t91.5 218.5l39 239q6 43 6 76q0 100 -106 100q-68 0 -125 -37.5 t-100 -103t-68 -157t-25 -195.5zM307 1024q18 119 72.5 180.5t126.5 61.5q33 0 59 -9l88 -22q23 -6 37.5 -8t24.5 -2q82 0 102 84h66q-20 -117 -71.5 -176.5t-125.5 -59.5q-31 0 -57 8l-107 27q-16 4 -27.5 5t-21.5 1q-41 0 -63.5 -20.5t-36.5 -69.5h-66z" />
<glyph unicode="&#xe4;" horiz-adv-x="1005" d="M25 291q0 111 43 219t125 203q80 92 164.5 135t189.5 43q37 0 66.5 -9.5t52 -19.5t39 -19t24.5 -9q20 0 41 20t41 46t39.5 46.5t36.5 20.5q10 0 18 -8.5t8 -18.5q0 -18 -29.5 -124.5t-54.5 -307.5l-20 -164q-6 -45 -7 -73.5t-1 -41.5q0 -80 45 -79q23 0 38 13t27.5 29.5 t25.5 30t28 13.5q18 0 18 -27q0 -20 -23.5 -59t-60.5 -76t-81 -64.5t-85 -27.5q-55 0 -88 51t-33 153v17l-12 -2q-141 -217 -321 -217q-113 0 -183.5 83t-70.5 224zM233 334q0 -217 140 -217q78 0 147.5 76.5t91.5 218.5l39 239q6 43 6 76q0 100 -106 100q-68 0 -125 -37.5 t-100 -103t-68 -157t-25 -195.5zM279 1163q0 10 17 33t42 46.5t49.5 42t38.5 18.5q16 0 27 -15l88 -98q10 -10 10 -25q0 -12 -14 -26l-107 -103q-8 -8 -24 -8q-8 0 -30 15.5t-43.5 37t-37.5 45t-16 37.5zM641 1163q0 10 17.5 33t42 46.5t49 42t38.5 18.5q16 0 27 -15l88 -98 q10 -10 10 -25q0 -12 -14 -26l-106 -103q-8 -8 -25 -8q-8 0 -29.5 15.5t-43 37t-38 45t-16.5 37.5z" />
<glyph unicode="&#xe5;" horiz-adv-x="1005" d="M25 291q0 111 43 219t125 203q80 92 164.5 135t189.5 43q37 0 66.5 -9.5t52 -19.5t39 -19t24.5 -9q20 0 41 20t41 46t39.5 46.5t36.5 20.5q10 0 18 -8.5t8 -18.5q0 -18 -29.5 -124.5t-54.5 -307.5l-20 -164q-6 -45 -7 -73.5t-1 -41.5q0 -80 45 -79q23 0 38 13t27.5 29.5 t25.5 30t28 13.5q18 0 18 -27q0 -20 -23.5 -59t-60.5 -76t-81 -64.5t-85 -27.5q-55 0 -88 51t-33 153v17l-12 -2q-141 -217 -321 -217q-113 0 -183.5 83t-70.5 224zM233 334q0 -217 140 -217q78 0 147.5 76.5t91.5 218.5l39 239q6 43 6 76q0 100 -106 100q-68 0 -125 -37.5 t-100 -103t-68 -157t-25 -195.5zM352 1217q0 53 19.5 99t54.5 81t81 54t99 19t99.5 -19t80 -54t53 -81t19.5 -99t-19.5 -99.5t-54 -80t-81 -53t-99.5 -19.5q-51 0 -97 19.5t-81 53t-54.5 80t-19.5 99.5zM463 1217q0 -59 42 -100.5t101 -41.5t100.5 41t41.5 101q0 59 -41 100 t-101 41q-59 0 -101 -41t-42 -100z" />
<glyph unicode="&#xe6;" horiz-adv-x="1404" d="M23 188q0 152 140 212.5t431 64.5q12 61 19.5 106t7.5 78q0 80 -50.5 127t-128.5 47q-59 0 -97 -37.5t-38 -95.5q0 -12 1 -24.5t1 -26.5q0 -45 -67 -45q-51 0 -82 19.5t-31 54.5t21.5 73.5t63.5 71.5t105.5 53.5t147.5 20.5q109 0 186.5 -40t124.5 -116q154 160 348 160 q100 0 157.5 -47t57.5 -119q0 -94 -93 -177t-273 -128q-86 -23 -133 -24t-47 -23q0 -57 17 -107.5t50 -87.5t77 -57.5t99 -20.5t96.5 17.5t72 38t51 38t34.5 17.5q27 0 27 -27q0 -20 -31 -57t-84 -73t-125.5 -61.5t-156.5 -25.5q-86 0 -159 38t-116 110q-68 -66 -162 -100.5 t-198 -34.5q-127 0 -195.5 57t-68.5 151zM223 195q0 -63 38 -100.5t99 -37.5q94 0 137.5 52.5t59.5 150.5l23 133q-180 0 -268.5 -46t-88.5 -152zM795 485q0 -16 8 -19t31 -3q61 0 115.5 21.5t94 55t63 76.5t23.5 86q0 47 -25.5 74t-72.5 27q-51 0 -95 -30t-76 -77t-49 -102 t-17 -109z" />
<glyph unicode="&#xe7;" horiz-adv-x="829" d="M31 336q0 115 37.5 216t106.5 177t164 119t208 43q57 0 102 -14.5t77 -36t48.5 -48t16.5 -49.5q0 -18 -10.5 -39.5t-26 -40t-36 -29.5t-40.5 -11q-33 0 -52.5 21.5t-39.5 55.5q-29 49 -55.5 80t-81.5 31q-43 0 -84 -27.5t-72 -79t-50.5 -123t-19.5 -161.5 q0 -152 66.5 -236t181.5 -84q72 0 109.5 22.5t44.5 22.5q6 0 16 9.5t22.5 19.5t25.5 19.5t26 9.5q27 0 26 -27q0 -20 -29.5 -56t-81.5 -70t-123 -58.5t-155 -24.5q-141 0 -231 96.5t-90 272.5zM102 -375l41 90q66 -35 122 -55t115 -20q96 0 97 88q0 82 -103 82 q-16 0 -38.5 -4.5t-51.5 -10.5l66 205h69l-34 -113q47 6 73 7q78 0 128 -46.5t50 -123.5q0 -84 -59 -132.5t-170 -48.5q-72 0 -145.5 23.5t-159.5 58.5z" />
<glyph unicode="&#xe8;" horiz-adv-x="839" d="M31 326q0 113 45 215t118.5 180t169 124t195.5 46q102 0 157.5 -47t55.5 -119q0 -94 -92 -177t-272 -128q-86 -23 -133.5 -24t-47.5 -23q0 -57 17.5 -107.5t50.5 -87.5t77 -57.5t99 -20.5t96 17.5t72 38t51.5 38t34.5 17.5q27 0 27 -27q0 -20 -31 -57t-84 -73t-127 -61.5 t-158 -25.5q-70 0 -129 24.5t-102 71t-66.5 113t-23.5 150.5zM227 485q0 -16 8.5 -19t30.5 -3q61 0 115.5 21.5t94.5 55t63.5 76.5t23.5 86q0 47 -25.5 74t-72.5 27q-51 0 -95 -30t-76 -77t-49.5 -102t-17.5 -109zM273 1278q0 41 24.5 63.5t59.5 22.5q51 0 98 -59l246 -304 h-105l-260 193q-29 23 -46 42t-17 42z" />
<glyph unicode="&#xe9;" horiz-adv-x="839" d="M31 326q0 113 45 215t118.5 180t169 124t195.5 46q102 0 157.5 -47t55.5 -119q0 -94 -92 -177t-272 -128q-86 -23 -133.5 -24t-47.5 -23q0 -57 17.5 -107.5t50.5 -87.5t77 -57.5t99 -20.5t96 17.5t72 38t51.5 38t34.5 17.5q27 0 27 -27q0 -20 -31 -57t-84 -73t-127 -61.5 t-158 -25.5q-70 0 -129 24.5t-102 71t-66.5 113t-23.5 150.5zM227 485q0 -16 8.5 -19t30.5 -3q61 0 115.5 21.5t94.5 55t63.5 76.5t23.5 86q0 47 -25.5 74t-72.5 27q-51 0 -95 -30t-76 -77t-49.5 -102t-17.5 -109zM334 1001l307 306q61 57 115 57q33 0 56.5 -25.5 t23.5 -60.5q0 -55 -68 -92l-330 -185h-104z" />
<glyph unicode="&#xea;" horiz-adv-x="839" d="M31 326q0 113 45 215t118.5 180t169 124t195.5 46q102 0 157.5 -47t55.5 -119q0 -94 -92 -177t-272 -128q-86 -23 -133.5 -24t-47.5 -23q0 -57 17.5 -107.5t50.5 -87.5t77 -57.5t99 -20.5t96 17.5t72 38t51.5 38t34.5 17.5q27 0 27 -27q0 -20 -31 -57t-84 -73t-127 -61.5 t-158 -25.5q-70 0 -129 24.5t-102 71t-66.5 113t-23.5 150.5zM203 1001l305 351h127l164 -351h-80l-168 181l-246 -181h-102zM227 485q0 -16 8.5 -19t30.5 -3q61 0 115.5 21.5t94.5 55t63.5 76.5t23.5 86q0 47 -25.5 74t-72.5 27q-51 0 -95 -30t-76 -77t-49.5 -102 t-17.5 -109z" />
<glyph unicode="&#xeb;" horiz-adv-x="839" d="M31 326q0 113 45 215t118.5 180t169 124t195.5 46q102 0 157.5 -47t55.5 -119q0 -94 -92 -177t-272 -128q-86 -23 -133.5 -24t-47.5 -23q0 -57 17.5 -107.5t50.5 -87.5t77 -57.5t99 -20.5t96 17.5t72 38t51.5 38t34.5 17.5q27 0 27 -27q0 -20 -31 -57t-84 -73t-127 -61.5 t-158 -25.5q-70 0 -129 24.5t-102 71t-66.5 113t-23.5 150.5zM227 485q0 -16 8.5 -19t30.5 -3q61 0 115.5 21.5t94.5 55t63.5 76.5t23.5 86q0 47 -25.5 74t-72.5 27q-51 0 -95 -30t-76 -77t-49.5 -102t-17.5 -109zM230 1163q0 10 17 33t42 46.5t49.5 42t38.5 18.5 q16 0 27 -15l88 -98q10 -10 10 -25q0 -12 -14 -26l-107 -103q-8 -8 -24 -8q-8 0 -30 15.5t-43.5 37t-37.5 45t-16 37.5zM592 1163q0 10 17.5 33t42 46.5t49 42t38.5 18.5q16 0 27 -15l88 -98q10 -10 10 -25q0 -12 -14 -26l-106 -103q-8 -8 -25 -8q-8 0 -29.5 15.5t-43 37 t-38 45t-16.5 37.5z" />
<glyph unicode="&#xec;" horiz-adv-x="559" d="M39 803q0 33 39 38t108 9q76 4 121 17.5t64 13.5q41 0 41 -37q0 -8 -3 -26.5t-8 -53.5l-65 -416q-6 -35 -8 -62.5t-2 -47.5q0 -41 13 -61.5t34 -20.5q23 0 38 13t28.5 30.5t25.5 31t27 13.5q20 0 20 -31q0 -20 -24.5 -58t-63.5 -75t-89 -64.5t-99 -27.5q-59 0 -94.5 45 t-35.5 129q0 29 4.5 77t14.5 113l51 301q2 14 3 25.5t1 21.5q0 41 -16.5 56.5t-57.5 15.5q-68 0 -67 31zM72 1278q0 41 24.5 63.5t59.5 22.5q51 0 98 -59l246 -304h-105l-260 193q-29 23 -46 42t-17 42z" />
<glyph unicode="&#xed;" horiz-adv-x="559" d="M39 803q0 33 39 38t108 9q76 4 121 17.5t64 13.5q41 0 41 -37q0 -8 -3 -26.5t-8 -53.5l-65 -416q-6 -35 -8 -62.5t-2 -47.5q0 -41 13 -61.5t34 -20.5q23 0 38 13t28.5 30.5t25.5 31t27 13.5q20 0 20 -31q0 -20 -24.5 -58t-63.5 -75t-89 -64.5t-99 -27.5q-59 0 -94.5 45 t-35.5 129q0 29 4.5 77t14.5 113l51 301q2 14 3 25.5t1 21.5q0 41 -16.5 56.5t-57.5 15.5q-68 0 -67 31zM133 1001l307 306q61 57 115 57q33 0 56.5 -25.5t23.5 -60.5q0 -55 -68 -92l-330 -185h-104z" />
<glyph unicode="&#xee;" horiz-adv-x="559" d="M2 1001l305 351h127l164 -351h-80l-168 181l-246 -181h-102zM39 803q0 33 39 38t108 9q76 4 121 17.5t64 13.5q41 0 41 -37q0 -8 -3 -26.5t-8 -53.5l-65 -416q-6 -35 -8 -62.5t-2 -47.5q0 -41 13 -61.5t34 -20.5q23 0 38 13t28.5 30.5t25.5 31t27 13.5q20 0 20 -31 q0 -20 -24.5 -58t-63.5 -75t-89 -64.5t-99 -27.5q-59 0 -94.5 45t-35.5 129q0 29 4.5 77t14.5 113l51 301q2 14 3 25.5t1 21.5q0 41 -16.5 56.5t-57.5 15.5q-68 0 -67 31z" />
<glyph unicode="&#xef;" horiz-adv-x="559" d="M29 1163q0 10 17 33t42 46.5t49.5 42t38.5 18.5q16 0 27 -15l88 -98q10 -10 10 -25q0 -12 -14 -26l-107 -103q-8 -8 -24 -8q-8 0 -30 15.5t-43.5 37t-37.5 45t-16 37.5zM39 803q0 33 39 38t108 9q76 4 121 17.5t64 13.5q41 0 41 -37q0 -8 -3 -26.5t-8 -53.5l-65 -416 q-6 -35 -8 -62.5t-2 -47.5q0 -41 13 -61.5t34 -20.5q23 0 38 13t28.5 30.5t25.5 31t27 13.5q20 0 20 -31q0 -20 -24.5 -58t-63.5 -75t-89 -64.5t-99 -27.5q-59 0 -94.5 45t-35.5 129q0 29 4.5 77t14.5 113l51 301q2 14 3 25.5t1 21.5q0 41 -16.5 56.5t-57.5 15.5 q-68 0 -67 31zM391 1163q0 10 17.5 33t42 46.5t49 42t38.5 18.5q16 0 27 -15l88 -98q10 -10 10 -25q0 -12 -14 -26l-106 -103q-8 -8 -25 -8q-8 0 -29.5 15.5t-43 37t-38 45t-16.5 37.5z" />
<glyph unicode="&#xf0;" horiz-adv-x="958" d="M27 338q0 115 37.5 215t104.5 175t159 119t200 44q33 0 65.5 -5.5t65.5 -15.5q-14 86 -37.5 160t-68.5 137l-217 -106q-25 -12 -37 -12q-39 0 -39 28q0 14 10.5 28.5t30.5 24.5l205 99q-59 68 -113.5 109.5t-95.5 67.5t-65.5 43t-24.5 38q0 27 39 26q31 0 132 -52 t236 -179l240 119q25 12 35 12q41 0 41 -29q0 -31 -41 -53l-221 -108q111 -131 169 -299t58 -361q0 -135 -38 -245.5t-105.5 -188.5t-160.5 -120t-204 -42q-80 0 -145.5 26.5t-113.5 76t-74.5 118t-26.5 150.5zM242 289q0 -254 159 -254q55 0 105.5 39t88.5 109.5t60.5 170 t22.5 219.5q0 254 -156 254q-57 0 -108.5 -39.5t-90 -111.5t-60 -170t-21.5 -217z" />
<glyph unicode="&#xf1;" horiz-adv-x="1067" d="M-6 621q0 33 23.5 78.5t58.5 87.5t76 72t75 30q61 0 88 -53.5t27 -169.5l10 -7q135 233 344 234q94 0 145.5 -61.5t51.5 -182.5q0 -20 -2 -54t-8 -81l-23 -166q-6 -45 -7 -73.5t-1 -38.5q0 -39 13.5 -59.5t33.5 -20.5q23 0 38 13t27.5 30.5t24.5 31t27 13.5q23 0 22 -31 q0 -20 -24.5 -58t-63.5 -75t-89 -64.5t-99 -27.5q-55 0 -89 42t-34 109q0 37 3 89.5t13 123.5l27 193q2 16 3 30.5t1 28.5q0 80 -31.5 122t-89.5 42q-45 0 -76.5 -26.5t-54 -77t-38 -122t-31.5 -159.5l-48 -272q-12 -66 -22 -90.5t-45 -24.5h-105q-45 0 -45 45q0 4 2 22.5 t9 55.5l57 315q8 47 11 88t3 76q0 88 -51 88q-20 0 -36.5 -14.5t-30 -31.5t-24.5 -31.5t-24 -14.5q-23 0 -22 27zM330 1024q18 119 72.5 180.5t126.5 61.5q33 0 59 -9l88 -22q23 -6 37.5 -8t24.5 -2q82 0 102 84h66q-20 -117 -71.5 -176.5t-125.5 -59.5q-31 0 -57 8l-107 27 q-16 4 -27.5 5t-21.5 1q-41 0 -63.5 -20.5t-36.5 -69.5h-66z" />
<glyph unicode="&#xf2;" horiz-adv-x="958" d="M27 336q0 115 37.5 216t104.5 177t159 119t200 43q82 0 148.5 -26.5t115 -75t75 -116t26.5 -147.5q0 -119 -38 -221t-105.5 -177t-160.5 -118t-202 -43q-80 0 -145.5 26.5t-113.5 76t-74.5 117t-26.5 149.5zM242 289q0 -254 159 -254q55 0 105.5 39t88.5 109.5t60.5 170 t22.5 219.5q0 254 -156 254q-57 0 -108.5 -39.5t-90 -111.5t-60 -170t-21.5 -217zM332 1278q0 41 24.5 63.5t59.5 22.5q51 0 98 -59l246 -304h-105l-260 193q-29 23 -46 42t-17 42z" />
<glyph unicode="&#xf3;" horiz-adv-x="958" d="M27 336q0 115 37.5 216t104.5 177t159 119t200 43q82 0 148.5 -26.5t115 -75t75 -116t26.5 -147.5q0 -119 -38 -221t-105.5 -177t-160.5 -118t-202 -43q-80 0 -145.5 26.5t-113.5 76t-74.5 117t-26.5 149.5zM242 289q0 -254 159 -254q55 0 105.5 39t88.5 109.5t60.5 170 t22.5 219.5q0 254 -156 254q-57 0 -108.5 -39.5t-90 -111.5t-60 -170t-21.5 -217zM393 1001l307 306q61 57 115 57q33 0 56.5 -25.5t23.5 -60.5q0 -55 -68 -92l-330 -185h-104z" />
<glyph unicode="&#xf4;" horiz-adv-x="958" d="M27 336q0 115 37.5 216t104.5 177t159 119t200 43q82 0 148.5 -26.5t115 -75t75 -116t26.5 -147.5q0 -119 -38 -221t-105.5 -177t-160.5 -118t-202 -43q-80 0 -145.5 26.5t-113.5 76t-74.5 117t-26.5 149.5zM242 289q0 -254 159 -254q55 0 105.5 39t88.5 109.5t60.5 170 t22.5 219.5q0 254 -156 254q-57 0 -108.5 -39.5t-90 -111.5t-60 -170t-21.5 -217zM262 1001l305 351h127l164 -351h-80l-168 181l-246 -181h-102z" />
<glyph unicode="&#xf5;" horiz-adv-x="958" d="M27 336q0 115 37.5 216t104.5 177t159 119t200 43q82 0 148.5 -26.5t115 -75t75 -116t26.5 -147.5q0 -119 -38 -221t-105.5 -177t-160.5 -118t-202 -43q-80 0 -145.5 26.5t-113.5 76t-74.5 117t-26.5 149.5zM242 289q0 -254 159 -254q55 0 105.5 39t88.5 109.5t60.5 170 t22.5 219.5q0 254 -156 254q-57 0 -108.5 -39.5t-90 -111.5t-60 -170t-21.5 -217zM317 1024q18 119 72.5 180.5t126.5 61.5q33 0 59 -9l88 -22q23 -6 37.5 -8t24.5 -2q82 0 102 84h66q-20 -117 -71.5 -176.5t-125.5 -59.5q-31 0 -57 8l-107 27q-16 4 -27.5 5t-21.5 1 q-41 0 -63.5 -20.5t-36.5 -69.5h-66z" />
<glyph unicode="&#xf6;" horiz-adv-x="958" d="M27 336q0 115 37.5 216t104.5 177t159 119t200 43q82 0 148.5 -26.5t115 -75t75 -116t26.5 -147.5q0 -119 -38 -221t-105.5 -177t-160.5 -118t-202 -43q-80 0 -145.5 26.5t-113.5 76t-74.5 117t-26.5 149.5zM242 289q0 -254 159 -254q55 0 105.5 39t88.5 109.5t60.5 170 t22.5 219.5q0 254 -156 254q-57 0 -108.5 -39.5t-90 -111.5t-60 -170t-21.5 -217zM289 1163q0 10 17 33t42 46.5t49.5 42t38.5 18.5q16 0 27 -15l88 -98q10 -10 10 -25q0 -12 -14 -26l-107 -103q-8 -8 -24 -8q-8 0 -30 15.5t-43.5 37t-37.5 45t-16 37.5zM651 1163 q0 10 17.5 33t42 46.5t49 42t38.5 18.5q16 0 27 -15l88 -98q10 -10 10 -25q0 -12 -14 -26l-106 -103q-8 -8 -25 -8q-8 0 -29.5 15.5t-43 37t-38 45t-16.5 37.5z" />
<glyph unicode="&#xf7;" horiz-adv-x="1705" d="M254 528v166h1198v-166h-1198zM717 229q0 57 41 97.5t96 40.5q57 0 97 -40t40 -98q0 -55 -39 -95t-98 -40t-98 39t-39 96zM717 989q0 57 41 98t96 41q57 0 97 -40.5t40 -98.5q0 -55 -39 -95t-98 -40t-98 39t-39 96z" />
<glyph unicode="&#xf8;" horiz-adv-x="958" d="M27 338q0 115 36.5 215t103 175t159 119t202.5 44q104 0 187 -45l80 115q8 12 14 18t20 6h43q14 0 15 -14q0 -6 -6 -17l-103 -147q53 -53 84 -122t31 -159q0 -119 -38 -221t-105.5 -177t-160.5 -118t-202 -43q-88 0 -174 39l-90 -133q-8 -12 -14.5 -18.5t-20.5 -6.5h-43 q-14 0 -14 15q0 8 6 18l117 164q-127 111 -127 293zM233 279q0 -51 13 -101l403 572q-35 78 -129 77q-61 0 -113.5 -39.5t-91.5 -111.5t-60.5 -173.5t-21.5 -223.5zM276 96q45 -63 127 -63q55 0 106.5 39t90.5 108.5t61.5 166.5t22.5 214q0 49 -6 98z" />
<glyph unicode="&#xf9;" horiz-adv-x="1081" d="M0 641q0 20 23.5 60t63.5 80t91 71t105 31q59 0 93 -46t34 -139q0 -66 -10.5 -130t-24 -124.5t-23.5 -116t-10 -102.5q0 -57 35 -57q25 0 62.5 29.5t79.5 86t86 135.5t83 177q31 78 43 131t20.5 87t19.5 48.5t38 14.5h104q45 0 45 -46q0 -10 -12 -77l-67 -338 q-25 -117 -25 -183q0 -70 45 -69q23 0 41 16.5t32.5 36t28 35.5t27.5 16q10 0 17.5 -8t7.5 -18q0 -33 -28 -78t-70 -85t-94 -67.5t-101 -27.5q-123 0 -123 168q0 53 12.5 118.5t34.5 143.5l-12 6q-111 -217 -225.5 -324.5t-206.5 -107.5q-121 0 -121 141q0 29 5 69t15 89 l51 258q6 31 8.5 56.5t2.5 41.5q0 41 -13.5 62.5t-33.5 21.5t-39 -18.5t-34 -40t-28.5 -40t-25.5 -18.5q-27 0 -27 31zM363 1278q0 41 24.5 63.5t59.5 22.5q51 0 98 -59l246 -304h-105l-260 193q-29 23 -46 42t-17 42z" />
<glyph unicode="&#xfa;" horiz-adv-x="1081" d="M0 641q0 20 23.5 60t63.5 80t91 71t105 31q59 0 93 -46t34 -139q0 -66 -10.5 -130t-24 -124.5t-23.5 -116t-10 -102.5q0 -57 35 -57q25 0 62.5 29.5t79.5 86t86 135.5t83 177q31 78 43 131t20.5 87t19.5 48.5t38 14.5h104q45 0 45 -46q0 -10 -12 -77l-67 -338 q-25 -117 -25 -183q0 -70 45 -69q23 0 41 16.5t32.5 36t28 35.5t27.5 16q10 0 17.5 -8t7.5 -18q0 -33 -28 -78t-70 -85t-94 -67.5t-101 -27.5q-123 0 -123 168q0 53 12.5 118.5t34.5 143.5l-12 6q-111 -217 -225.5 -324.5t-206.5 -107.5q-121 0 -121 141q0 29 5 69t15 89 l51 258q6 31 8.5 56.5t2.5 41.5q0 41 -13.5 62.5t-33.5 21.5t-39 -18.5t-34 -40t-28.5 -40t-25.5 -18.5q-27 0 -27 31zM424 1001l307 306q61 57 115 57q33 0 56.5 -25.5t23.5 -60.5q0 -55 -68 -92l-330 -185h-104z" />
<glyph unicode="&#xfb;" horiz-adv-x="1081" d="M0 641q0 20 23.5 60t63.5 80t91 71t105 31q59 0 93 -46t34 -139q0 -66 -10.5 -130t-24 -124.5t-23.5 -116t-10 -102.5q0 -57 35 -57q25 0 62.5 29.5t79.5 86t86 135.5t83 177q31 78 43 131t20.5 87t19.5 48.5t38 14.5h104q45 0 45 -46q0 -10 -12 -77l-67 -338 q-25 -117 -25 -183q0 -70 45 -69q23 0 41 16.5t32.5 36t28 35.5t27.5 16q10 0 17.5 -8t7.5 -18q0 -33 -28 -78t-70 -85t-94 -67.5t-101 -27.5q-123 0 -123 168q0 53 12.5 118.5t34.5 143.5l-12 6q-111 -217 -225.5 -324.5t-206.5 -107.5q-121 0 -121 141q0 29 5 69t15 89 l51 258q6 31 8.5 56.5t2.5 41.5q0 41 -13.5 62.5t-33.5 21.5t-39 -18.5t-34 -40t-28.5 -40t-25.5 -18.5q-27 0 -27 31zM293 1001l305 351h127l164 -351h-80l-168 181l-246 -181h-102z" />
<glyph unicode="&#xfc;" horiz-adv-x="1081" d="M0 641q0 20 23.5 60t63.5 80t91 71t105 31q59 0 93 -46t34 -139q0 -66 -10.5 -130t-24 -124.5t-23.5 -116t-10 -102.5q0 -57 35 -57q25 0 62.5 29.5t79.5 86t86 135.5t83 177q31 78 43 131t20.5 87t19.5 48.5t38 14.5h104q45 0 45 -46q0 -10 -12 -77l-67 -338 q-25 -117 -25 -183q0 -70 45 -69q23 0 41 16.5t32.5 36t28 35.5t27.5 16q10 0 17.5 -8t7.5 -18q0 -33 -28 -78t-70 -85t-94 -67.5t-101 -27.5q-123 0 -123 168q0 53 12.5 118.5t34.5 143.5l-12 6q-111 -217 -225.5 -324.5t-206.5 -107.5q-121 0 -121 141q0 29 5 69t15 89 l51 258q6 31 8.5 56.5t2.5 41.5q0 41 -13.5 62.5t-33.5 21.5t-39 -18.5t-34 -40t-28.5 -40t-25.5 -18.5q-27 0 -27 31zM320 1163q0 10 17 33t42 46.5t49.5 42t38.5 18.5q16 0 27 -15l88 -98q10 -10 10 -25q0 -12 -14 -26l-107 -103q-8 -8 -24 -8q-8 0 -30 15.5t-43.5 37 t-37.5 45t-16 37.5zM682 1163q0 10 17.5 33t42 46.5t49 42t38.5 18.5q16 0 27 -15l88 -98q10 -10 10 -25q0 -12 -14 -26l-106 -103q-8 -8 -25 -8q-8 0 -29.5 15.5t-43 37t-38 45t-16.5 37.5z" />
<glyph unicode="&#xfd;" horiz-adv-x="962" d="M-2 571q0 55 21.5 109.5t55.5 98.5t76 71t85 27q55 0 102 -40t95 -119t101 -196.5t121 -275.5q47 100 74 178t27 141q0 33 -10.5 61.5t-21.5 56.5t-21.5 54.5t-10.5 53.5q0 90 90 90q98 0 99 -125q0 -41 -14.5 -116t-48.5 -175t-88 -221t-134 -254q-117 -193 -241 -293 t-218 -100q-66 0 -100.5 31.5t-34.5 86.5q0 45 28.5 74t75.5 29q20 0 40 -9.5t39.5 -19.5t38 -19.5t38.5 -9.5q39 0 81 27t77 68t57.5 90t22.5 96q0 57 -44 176t-143 293q-51 92 -88 138t-69 46q-18 0 -40 -19.5t-38 -58.5q-16 -35 -20.5 -63.5t-30.5 -28.5 q-10 0 -19.5 12.5t-9.5 34.5zM395 1001l307 306q61 57 115 57q33 0 56.5 -25.5t23.5 -60.5q0 -55 -68 -92l-330 -185h-104z" />
<glyph unicode="&#xfe;" horiz-adv-x="966" d="M-106 -391q0 25 22.5 31t36.5 14q41 23 57 145l197 1475q2 10 2 29q0 45 -14.5 65.5t-49.5 20.5q-8 0 -19 -1.5t-24 -1.5q-16 0 -28.5 8.5t-12.5 20.5q0 31 36 38t102 17q86 12 132 27.5t62 15.5q41 0 41 -47q0 -12 -6 -67l-70 -531q47 6 86 10.5t76 4.5q186 0 280.5 -88 t94.5 -254q0 -115 -43 -216.5t-114.5 -178t-167 -120.5t-199.5 -44q-49 0 -129 12l-27 -193q-6 -35 -6 -67q0 -61 47 -76q16 -6 32.5 -7t30 -4t21.5 -9.5t8 -20.5q0 -31 -43 -31q-12 0 -57 4t-125 4q-90 0 -139.5 -6t-59.5 -6q-12 0 -21 8.5t-9 18.5zM262 135q0 -90 98 -90 q66 0 124.5 37t101.5 102.5t67.5 154.5t24.5 193q0 276 -227 277q-63 0 -85 -13.5t-28 -60.5l-72 -540q-2 -16 -3 -32t-1 -28z" />
<glyph unicode="&#xff;" horiz-adv-x="962" d="M-2 571q0 55 21.5 109.5t55.5 98.5t76 71t85 27q55 0 102 -40t95 -119t101 -196.5t121 -275.5q47 100 74 178t27 141q0 33 -10.5 61.5t-21.5 56.5t-21.5 54.5t-10.5 53.5q0 90 90 90q98 0 99 -125q0 -41 -14.5 -116t-48.5 -175t-88 -221t-134 -254q-117 -193 -241 -293 t-218 -100q-66 0 -100.5 31.5t-34.5 86.5q0 45 28.5 74t75.5 29q20 0 40 -9.5t39.5 -19.5t38 -19.5t38.5 -9.5q39 0 81 27t77 68t57.5 90t22.5 96q0 57 -44 176t-143 293q-51 92 -88 138t-69 46q-18 0 -40 -19.5t-38 -58.5q-16 -35 -20.5 -63.5t-30.5 -28.5 q-10 0 -19.5 12.5t-9.5 34.5zM291 1163q0 10 17 33t42 46.5t49.5 42t38.5 18.5q16 0 27 -15l88 -98q10 -10 10 -25q0 -12 -14 -26l-107 -103q-8 -8 -24 -8q-8 0 -30 15.5t-43.5 37t-37.5 45t-16 37.5zM653 1163q0 10 17.5 33t42 46.5t49 42t38.5 18.5q16 0 27 -15l88 -98 q10 -10 10 -25q0 -12 -14 -26l-106 -103q-8 -8 -25 -8q-8 0 -29.5 15.5t-43 37t-38 45t-16.5 37.5z" />
<glyph unicode="&#x152;" horiz-adv-x="2138" d="M55 629q0 188 79 359t216 286q109 90 235 131t285 41q72 0 186.5 -10.5t280.5 -10.5q186 0 359.5 5.5t333.5 5.5q29 0 46 -5.5t26 -29t12.5 -71.5t3.5 -134q0 -53 -7.5 -78.5t-35.5 -25.5q-23 0 -32 15t-14.5 37.5t-9.5 49.5t-16 47q-55 90 -430 90q-63 0 -99 -4 t-55.5 -24.5t-29 -64.5t-17.5 -124l-29 -291v-8q0 -25 21 -24h264q51 0 86 12t70 59q27 35 42 64.5t44 29.5q12 0 20 -12t8 -31q0 -31 -13 -101.5t-13 -174.5q0 -27 1 -45.5t1 -30.5q0 -78 -37 -78q-18 0 -28.5 14.5t-18.5 37t-16.5 49t-22.5 49.5q-39 61 -164 61h-229 q-31 0 -35 -32l-39 -377q-6 -45 -6 -70q0 -74 43 -96.5t129 -22.5q147 0 251.5 30t205.5 114q31 25 50 50t34.5 44.5t28 32t28.5 12.5q27 0 27 -45q0 -18 -5.5 -48t-16.5 -64t-26.5 -69.5t-37.5 -66.5q-43 -61 -94.5 -79.5t-137.5 -18.5q-78 0 -190.5 5t-259.5 5 q-207 0 -346.5 -13.5t-223.5 -13.5q-162 0 -287.5 48.5t-214 135.5t-134.5 207.5t-46 266.5zM322 633q0 -279 122.5 -429.5t333.5 -150.5q74 0 122 15.5t78 48.5t45 83t24 117l90 805q2 16 3 32.5t1 33.5q0 178 -256 178q-125 0 -229.5 -53t-178.5 -149.5t-114.5 -231.5 t-40.5 -299z" />
<glyph unicode="&#x153;" horiz-adv-x="1472" d="M27 338q0 115 37.5 215t104.5 176t159 119t200 43q104 0 184.5 -41t127.5 -119q86 80 170 120t182 40q102 0 158.5 -47t56.5 -119q0 -94 -93 -177t-274 -128q-86 -23 -133 -24t-47 -23q0 -57 17.5 -107.5t50.5 -87.5t77 -57.5t99 -20.5t96 17.5t72 38t52.5 38t35.5 17.5 q25 0 24 -27q0 -20 -30.5 -57t-83.5 -73t-126 -61.5t-157 -25.5q-82 0 -151.5 34.5t-112.5 100.5q-135 -135 -336 -135q-80 0 -145.5 26.5t-113.5 76t-74.5 118t-26.5 150.5zM240 291q0 -258 166 -258q57 0 107 39t88 107.5t60.5 164.5t22.5 209q0 139 -38 206.5t-122 67.5 q-61 0 -112.5 -39.5t-90 -110.5t-60 -169t-21.5 -217zM862 485q0 -16 7.5 -19t29.5 -3q61 0 115.5 21.5t95.5 55t64.5 76.5t23.5 86q0 47 -25.5 74t-72.5 27q-51 0 -95 -30t-76 -77t-49.5 -102t-17.5 -109z" />
<glyph unicode="&#x178;" horiz-adv-x="1341" d="M55 1395q0 39 56 39q37 0 99 -7.5t148 -7.5q78 0 136.5 6.5t97.5 6.5q41 0 41 -33q0 -27 -22.5 -33t-53.5 -16q-72 -23 -72 -103q0 -41 25 -94l166 -338q39 -82 55 -82q18 0 66 72l229 348q16 25 26.5 47.5t10.5 46.5q0 70 -90 94q-41 10 -65.5 18.5t-24.5 37.5 q0 37 55 37q43 0 98.5 -7.5t124.5 -7.5q59 0 109.5 6.5t93.5 6.5q41 0 41 -33q0 -20 -20.5 -32.5t-54.5 -34t-80 -61.5t-95 -114l-315 -471q-23 -31 -37.5 -61.5t-18.5 -67.5l-28 -256q-2 -16 -3 -30.5t-1 -24.5q0 -72 19.5 -109t74.5 -53q47 -14 84 -20.5t37 -40.5 q0 -37 -56 -37q-29 0 -99.5 7t-182.5 7q-117 0 -185.5 -6t-97.5 -6q-41 0 -41 32q0 31 30 41.5t71 26.5q31 12 50 27.5t30.5 41t18.5 64.5t13 96l19 175q2 10 3 20t1 20q0 29 -7.5 53.5t-21.5 53.5l-238 481q-33 66 -59.5 117t-67.5 84q-16 12 -32.5 20.5t-29.5 14.5 t-21.5 15t-8.5 24zM482 1732q0 10 17 33t42 46.5t49.5 42t38.5 18.5q16 0 27 -15l88 -98q10 -10 10 -25q0 -12 -14 -26l-107 -103q-8 -8 -24 -8q-8 0 -30 15.5t-43.5 37t-37.5 45t-16 37.5zM844 1732q0 10 17.5 33t42 46.5t49 42t38.5 18.5q16 0 27 -15l88 -98 q10 -10 10 -25q0 -12 -14 -26l-106 -103q-8 -8 -25 -8q-8 0 -29.5 15.5t-43 37t-38 45t-16.5 37.5z" />
<glyph unicode="&#x2c6;" d="M295 1001l305 351h127l164 -351h-80l-168 181l-246 -181h-102z" />
<glyph unicode="&#x2dc;" d="M350 1024q18 119 72.5 180.5t126.5 61.5q33 0 59 -9l88 -22q23 -6 37.5 -8t24.5 -2q82 0 102 84h66q-20 -117 -71.5 -176.5t-125.5 -59.5q-31 0 -57 8l-107 27q-16 4 -27.5 5t-21.5 1q-41 0 -63.5 -20.5t-36.5 -69.5h-66z" />
<glyph unicode="&#x2000;" horiz-adv-x="983" />
<glyph unicode="&#x2001;" horiz-adv-x="1966" />
<glyph unicode="&#x2002;" horiz-adv-x="983" />
<glyph unicode="&#x2003;" horiz-adv-x="1966" />
<glyph unicode="&#x2004;" horiz-adv-x="655" />
<glyph unicode="&#x2005;" horiz-adv-x="491" />
<glyph unicode="&#x2006;" horiz-adv-x="327" />
<glyph unicode="&#x2007;" horiz-adv-x="327" />
<glyph unicode="&#x2008;" horiz-adv-x="245" />
<glyph unicode="&#x2009;" horiz-adv-x="393" />
<glyph unicode="&#x200a;" horiz-adv-x="109" />
<glyph unicode="&#x2010;" horiz-adv-x="673" d="M94 324v92q0 27 6 39t33 22l373 133q12 4 16 4q20 0 21 -34v-93q0 -27 -4 -40t-33 -23l-373 -133q-12 -4 -16 -4q-23 0 -23 37z" />
<glyph unicode="&#x2011;" horiz-adv-x="673" d="M94 324v92q0 27 6 39t33 22l373 133q12 4 16 4q20 0 21 -34v-93q0 -27 -4 -40t-33 -23l-373 -133q-12 -4 -16 -4q-23 0 -23 37z" />
<glyph unicode="&#x2012;" horiz-adv-x="673" d="M94 324v92q0 27 6 39t33 22l373 133q12 4 16 4q20 0 21 -34v-93q0 -27 -4 -40t-33 -23l-373 -133q-12 -4 -16 -4q-23 0 -23 37z" />
<glyph unicode="&#x2013;" d="M-12 406v8l10 61q6 31 37 31h940q25 0 24 -29v-8l-8 -61q-6 -33 -37 -33h-940q-27 0 -26 31z" />
<glyph unicode="&#x2014;" horiz-adv-x="2048" d="M-12 406v8l10 61q6 31 37 31h1976q25 0 25 -29v-8l-8 -61q-6 -33 -37 -33h-1977q-27 0 -26 31z" />
<glyph unicode="&#x2018;" horiz-adv-x="555" d="M117 1087q0 143 178 299q90 78 151 78q20 0 21 -28q0 -14 -21.5 -37t-47 -52.5t-47 -64.5t-21.5 -78q0 -35 14 -61.5t32.5 -48t33 -41t14.5 -37.5q0 -14 -20.5 -37t-49 -44.5t-57.5 -36.5t-47 -15q-14 0 -38 16t-44.5 44t-35.5 66t-15 78z" />
<glyph unicode="&#x2019;" horiz-adv-x="555" d="M115 907q0 16 21.5 38t48 50.5t48 63.5t21.5 78q0 35 -15.5 62.5t-33 50t-32.5 41t-15 36.5q0 14 21.5 36.5t50 44.5t58 37t46.5 15q16 0 38.5 -17.5t43 -45t36 -64.5t15.5 -76q0 -70 -39 -138t-117 -140q-106 -100 -174 -100q-23 0 -22 28z" />
<glyph unicode="&#x201a;" horiz-adv-x="555" d="M37 -209q0 14 21.5 36.5t47 52.5t47 65t21.5 78q0 35 -14.5 62.5t-32.5 49t-32.5 40t-14.5 36.5q0 14 20.5 36.5t49 44t58.5 37t48 15.5q16 0 38.5 -16.5t43 -44t35 -64.5t14.5 -80q0 -143 -180 -299q-90 -78 -150 -78q-20 0 -20 29z" />
<glyph unicode="&#x201c;" horiz-adv-x="948" d="M117 1087q0 143 178 299q90 78 151 78q20 0 21 -28q0 -14 -21.5 -37t-47 -52.5t-47 -64.5t-21.5 -78q0 -35 14 -61.5t32.5 -48t33 -41t14.5 -37.5q0 -14 -20.5 -37t-49 -44.5t-57.5 -36.5t-47 -15q-14 0 -38 16t-44.5 44t-35.5 66t-15 78zM510 1087q0 143 178 299 q90 78 152 78q20 0 20 -28q0 -14 -21.5 -37t-47 -52.5t-47 -64.5t-21.5 -78q0 -35 14.5 -61.5t32.5 -48t32.5 -41t14.5 -37.5q0 -14 -20.5 -37t-49 -44.5t-57 -36.5t-47.5 -15q-14 0 -37.5 16t-44 44t-36 66t-15.5 78z" />
<glyph unicode="&#x201d;" horiz-adv-x="948" d="M117 907q0 16 21.5 38t47 50.5t47 63.5t21.5 78q0 35 -14.5 62.5t-33 50t-32.5 41t-14 36.5q0 14 20.5 36.5t49 44.5t58 37t46.5 15q16 0 38.5 -17.5t43 -45t36 -64.5t15.5 -76q0 -133 -154 -278q-106 -100 -176 -100q-20 0 -20 28zM510 907q0 16 21.5 38t47 50.5 t47 63.5t21.5 78q0 35 -14.5 62.5t-32.5 50t-32.5 41t-14.5 36.5q0 14 20.5 36.5t49 44.5t58.5 37t46 15t38.5 -17.5t43 -45t36 -64.5t15.5 -76q0 -133 -153 -278q-106 -100 -177 -100q-20 0 -20 28z" />
<glyph unicode="&#x201e;" horiz-adv-x="948" d="M37 -209q0 14 21.5 36.5t47 52.5t47 65t21.5 78q0 35 -14.5 62.5t-32.5 49t-32.5 40t-14.5 36.5q0 14 20.5 36.5t49 44t58.5 37t48 15.5q16 0 38.5 -16.5t43 -44t35 -64.5t14.5 -80q0 -143 -180 -299q-90 -78 -150 -78q-20 0 -20 29zM430 -209q0 14 21.5 36.5t47 52.5 t47 65t21.5 78q0 35 -14 62.5t-32.5 49t-33 40t-14.5 36.5q0 14 20.5 36.5t49 44t58.5 37t48 15.5q16 0 39 -16.5t43.5 -44t34.5 -64.5t14 -80q0 -70 -44 -145.5t-134 -153.5q-47 -41 -85 -59.5t-66 -18.5q-20 0 -21 29z" />
<glyph unicode="&#x2022;" horiz-adv-x="1208" d="M307 762q0 61 23.5 115.5t63.5 94.5t94.5 62.5t115.5 22.5t114.5 -22.5t93.5 -62.5t63.5 -94.5t23.5 -115.5t-23.5 -114.5t-63.5 -94.5t-94 -64.5t-116 -23.5q-61 0 -114.5 23.5t-93.5 63.5t-63.5 94.5t-23.5 115.5z" />
<glyph unicode="&#x2026;" horiz-adv-x="2048" d="M143 154q0 16 14.5 34.5t41.5 44.5q47 49 79.5 76t55.5 27q8 0 18 -4t17 -13l114 -129q10 -10 11 -32q0 -18 -17 -35l-137 -129q-12 -12 -35 -12q-12 0 -38.5 20.5t-54.5 48t-48.5 57t-20.5 46.5zM825 154q0 16 14.5 34.5t41.5 44.5q47 49 79.5 76t55.5 27q8 0 18 -4 t17 -13l114 -129q10 -10 11 -32q0 -18 -17 -35l-137 -129q-12 -12 -35 -12q-12 0 -38.5 20.5t-54.5 48t-48.5 57t-20.5 46.5zM1509 154q0 16 14.5 34.5t41.5 44.5q47 49 79.5 76t55.5 27q8 0 18.5 -4t16.5 -13l114 -129q10 -10 11 -32q0 -18 -17 -35l-137 -129 q-12 -12 -35 -12q-12 0 -38.5 20.5t-54.5 48t-48.5 57t-20.5 46.5z" />
<glyph unicode="&#x202f;" horiz-adv-x="393" />
<glyph unicode="&#x2039;" horiz-adv-x="559" d="M84 426q0 12 18 25q172 129 251 205.5t102 76.5t22 -20q0 -25 -51.5 -98.5t-157.5 -190.5q90 -221 90 -266q0 -33 -24 -33q-18 0 -35.5 19.5t-44.5 57.5t-67 92t-101 124q0 2 -1 4t-1 4z" />
<glyph unicode="&#x203a;" horiz-adv-x="559" d="M39 147q0 25 51.5 98.5t157.5 190.5q-47 111 -68.5 177.5t-21.5 88.5q0 31 24 31q18 0 36 -19.5t44.5 -56t65.5 -91t100 -124.5q2 -6 2 -12q0 -8 -16 -20q-174 -129 -253 -206t-102 -77q-20 0 -20 20z" />
<glyph unicode="&#x205f;" horiz-adv-x="491" />
<glyph unicode="&#x2122;" horiz-adv-x="1683" d="M233 1260l11 188h448l10 -188h-30q-8 78 -39 115.5t-94 37.5h-11v-422q0 -49 39 -53l31 -4v-29h-260v29l33 4q37 4 37 53v422h-15q-115 0 -131 -153h-29zM770 905v29l33 4q41 4 41 51v373q0 49 -41 53l-33 2v31h199l135 -381l137 381h189v-27l-27 -2q-41 -6 -41 -53v-375 q0 -47 41 -53l27 -4v-29h-246v29l30 4q39 2 39 53v375l-163 -463h-27l-170 469v-381q0 -51 39 -53l35 -4v-29h-197z" />
<glyph unicode="&#x25fc;" horiz-adv-x="880" d="M0 0v881h881v-881h-881z" />
<glyph unicode="&#xfb01;" horiz-adv-x="1081" d="M-68 -272q0 14 12.5 20t30 11t37 12.5t33.5 21.5q41 39 54.5 121t27.5 213l66 604v10q0 27 -23 27h-133q-25 0 -25 18v7l8 57q0 12 31 12h127q20 0 27.5 9.5t10.5 29t6 53t16 82.5q55 242 173.5 358.5t323.5 116.5q115 0 176.5 -29.5t61.5 -88.5q0 -25 -7.5 -51.5 t-17.5 -48t-24.5 -35t-30.5 -13.5q-27 0 -45.5 25.5t-46.5 60.5q-70 92 -160 92q-127 0 -180 -202q-23 -86 -34 -175.5t-11 -148.5q0 -23 6 -29t29 -6h213h6q115 0 165 9.5t58 9.5q39 0 39 -37q0 -10 -3 -30.5t-7 -49.5l-64 -416q-6 -35 -8 -62.5t-2 -47.5q0 -41 13 -61.5 t34 -20.5q23 0 38 13t28.5 30.5t25.5 31t27 13.5q20 0 20 -31q0 -20 -24.5 -58t-63.5 -75t-89 -64.5t-99 -27.5q-59 0 -94 45t-35 129q0 29 4 77t14 113l49 293q4 16 4 26.5v20.5q0 47 -25.5 61.5t-84.5 14.5h-154q-35 0 -37 -33l-65 -577q-31 -281 -91.5 -422.5 t-170.5 -141.5q-29 0 -54.5 13.5t-44 34t-30 44t-11.5 42.5z" />
<glyph unicode="&#xfb02;" horiz-adv-x="1085" d="M-68 -272q0 14 12.5 20t30 11t37 12.5t33.5 21.5q41 39 55.5 121t28.5 213l64 604v10q0 27 -23 27h-133q-25 0 -25 18v7l8 57q0 12 31 12h127q23 0 31 11.5t12 39t9.5 72.5t21.5 111q53 207 174 311t301 104q63 0 97 -10t44 -10q16 0 36 11t42 11q45 0 45 -47 q0 -6 -6 -67l-117 -1051q-4 -47 -7 -74.5t-3 -37.5q0 -39 13.5 -59.5t33.5 -20.5q23 0 38 13t27.5 30.5t25 31t26.5 13.5q23 0 22 -31q0 -20 -24.5 -58t-63 -75t-89 -64.5t-99.5 -27.5q-57 0 -91 41t-34 110q0 51 6 103.5t13 109.5l100 881q2 12 2 24.5v22.5q0 145 -113 145 q-139 0 -190 -204q-23 -84 -34 -174.5t-11 -149.5q0 -23 6 -29t29 -6h163q27 0 27 -18v-4l-4 -49q-4 -23 -37 -23h-164q-35 0 -37 -33l-63 -577q-31 -281 -92.5 -422.5t-171.5 -141.5q-29 0 -54.5 13.5t-44 34t-30 44t-11.5 42.5z" />
</font>
</defs>
</svg>
