<?xml version="1.0" encoding="utf-8"?>
<!-- Generator: Adobe Illustrator 18.1.0, SVG Export Plug-In . SVG Version: 6.00 Build 0)  -->
<svg version="1.1" id="Layer_1" xmlns="http://www.w3.org/2000/svg" xmlns:xlink="http://www.w3.org/1999/xlink" x="0px" y="0px"
	 viewBox="0 0 78.5 82.1" enable-background="new 0 0 78.5 82.1" xml:space="preserve">
<g>
	<path fill="#FFFFFF" d="M71.6,61.5c4.3-6.3,6.9-14,6.9-22.2c0-6.1-1.4-11.8-3.9-17c-0.7,1.2-2,2-3.5,2l-1.1,0
		c2.2,4.5,3.4,9.6,3.4,15c0,6.1-1.6,11.7-4.4,16.7L71.6,61.5z"/>
	<path fill="#FFFFFF" d="M7.1,24.2c-1.4,0-2.6-0.7-3.3-1.8C1.4,27.5,0,33.2,0,39.3c0,8.2,2.5,15.9,6.9,22.2l2.5-5.5
		C6.6,51,5,45.3,5,39.3c0-5.4,1.3-10.5,3.5-15.1L7.1,24.2z"/>
	<path fill="#FFFFFF" d="M39.3,5c4.2,0,8.2,0.8,11.9,2.1h10.6C55.4,2.6,47.6,0,39.3,0c-8.4,0-16.1,2.6-22.5,7.1h10.6
		C31.1,5.8,35.1,5,39.3,5z"/>
	<path fill="#FFFFFF" d="M65.6,54c-0.2-0.4-0.5-0.7-0.9-0.8c-2-0.6-3.8-1.1-5.5-1.5V21.8l12.1,0c0,0,0,0,0,0c0.6,0,1.1-0.3,1.3-0.8
		l4.5-9.2c0.2-0.5,0.2-1-0.1-1.5c-0.3-0.4-0.8-0.7-1.3-0.7H48v0l-18,0c0,0,0,0,0,0H2.6c-0.5,0-1,0.3-1.3,0.7c-0.3,0.4-0.3,1-0.1,1.5
		l4.5,9c0.3,0.5,0.8,0.8,1.3,0.8l12,0v30c-1.7,0.4-3.4,0.9-5.3,1.5c-0.4,0.1-0.8,0.4-0.9,0.8L1.4,80c-0.2,0.5-0.1,1.2,0.2,1.6
		c0.3,0.3,0.7,0.5,1.1,0.5c0.1,0,0.3,0,0.4-0.1c22.7-6.8,30.5-4.9,33.2-3.2c1.3,0.8,1.4,1.7,1.4,1.7c0,0,0,0,0,0
		c0,0.5,0.2,0.9,0.6,1.1c0.3,0.2,0.6,0.4,0.9,0.4c0,0,0,0,0,0c0.8,0,1.5-0.6,1.5-1.4c0,0,0.1-0.9,1.4-1.7c2.7-1.7,10.5-3.7,33.2,3.2
		c0.1,0,0.3,0.1,0.4,0.1c0.4,0,0.8-0.2,1.1-0.5c0.4-0.4,0.5-1.1,0.2-1.6L65.6,54z M49.8,50l-0.1-28.2h6.4V51
		C53.8,50.5,51.7,50.1,49.8,50z M70.3,18.8l-20.6,0l0-6.1h23.6L70.3,18.8z M31.5,12.6l15.1,0l0.1,40.9l-6.9-3.5
		c-0.4-0.2-0.9-0.2-1.4,0l-6.9,3.5V12.6z M5.1,12.6h23.5v6.1l-20.4,0L5.1,12.6z M22.2,21.8h6.4V50c-1.9,0.2-4,0.5-6.4,1V21.8z
		 M37.7,76.2c-5.2-3.2-16.3-2.5-32.3,2.1l10-22.4c5.2-1.5,9.6-2.5,13.1-2.9V56c0,0.5,0.3,1,0.7,1.3c0.2,0.1,0.5,0.2,0.8,0.2
		c0.2,0,0.5-0.1,0.7-0.2l6.6-3.3c0.3,0.3,0.4,0.5,0.5,0.6V76.2z M40.8,76.2V54.7c0-0.1,0.1-0.3,0.4-0.5l6.4,3.3
		c0.5,0.2,1,0.2,1.5-0.1c0.4-0.3,0.7-0.8,0.7-1.3l0-3.1c3.6,0.4,8.1,1.3,13.3,2.9l10,22.4C57.1,73.7,46,73,40.8,76.2z"/>
	<path fill="#FFFFFF" d="M40.6,43.6V28.3h1.6c0.8,0,1.5-0.7,1.5-1.5s-0.7-1.5-1.5-1.5h-1.6v-1.8c0-0.8-0.7-1.5-1.5-1.5
		c-0.8,0-1.5,0.7-1.5,1.5v1.8h-1.6c-0.8,0-1.5,0.7-1.5,1.5s0.7,1.5,1.5,1.5h1.6v15.3c0,0.8,0.7,1.5,1.5,1.5
		C39.9,45.1,40.6,44.4,40.6,43.6z"/>
</g>
</svg>
