<?xml version="1.0" encoding="utf-8"?>
<!-- Generator: Adobe Illustrator 18.1.1, SVG Export Plug-In . SVG Version: 6.00 Build 0)  -->
<svg version="1.1" id="Layer_1" xmlns="http://www.w3.org/2000/svg" xmlns:xlink="http://www.w3.org/1999/xlink" x="0px" y="0px"
	 viewBox="0 0 400 400" enable-background="new 0 0 400 400" xml:space="preserve">
<g>
	<g>
		<g>
			<path d="M200.3,371.3C98,371.3,14.7,288,14.7,185.6S98,0,200.3,0S386,83.3,386,185.6S302.7,371.3,200.3,371.3z M200.3,23.7
				c-89.2,0-161.9,72.7-161.9,161.9s72.7,161.9,161.9,161.9s161.9-72.7,161.9-161.9S289.5,23.7,200.3,23.7z"/>
		</g>
	</g>
	<g>
		<g>
			<path fill="#FFFFFF" d="M379.4,378.5l-54.6-122.9c-0.9-1.9-2.5-3.4-4.4-4.1c-9.4-2.8-18.1-5.3-26.2-7.2V103h57.4l0,0
				c2.8,0,5.3-1.6,6.2-4.1l21.2-43.4c0.9-2.2,0.9-4.7-0.3-6.9c-1.2-2.2-3.4-3.4-5.9-3.4H27.1c-2.5,0-4.7,1.2-5.9,3.4
				c-1.2,2.2-1.6,4.7-0.3,6.9l21.5,42.7c1.2,2.5,3.7,4.1,6.2,4.1h56.8v142c-7.8,1.9-16.2,4.4-25.3,6.9c-1.9,0.6-3.7,1.9-4.4,4.1
				L21.2,378.5c-1.2,2.5-0.6,5.6,1.2,7.5c1.2,1.6,3.4,2.5,5.3,2.5c0.6,0,1.2,0,2.2-0.3c50.2-15,90.2-22.8,119.5-22.8
				c41.8,0,44,15.6,44,15.6c0,3.7,3.1,6.6,6.9,6.9h0.3l0,0l0,0c0,0,0,0,0.3,0c3.7,0,6.9-3.1,6.9-6.9c0,0,3.1-15.6,44-15.6
				c29,0,69.3,7.8,119.5,22.8c0.6,0.3,1.2,0.3,2.2,0.3c1.9,0,4.1-0.9,5.3-2.5C380,383.8,380.7,381,379.4,378.5z M279.9,183.8
				c0-3.7,0-7.2,0-10.9V183.8z"/>
		</g>
		<g>
			<path fill="#FFFFFF" d="M372.9,400c-1.9,0-3.7-0.3-5.3-0.9c-49-14.7-88-22.2-116.1-22.2c-23.7,0-30.9,5.6-32.4,7.2
				c-1.6,8.4-8.7,15-17.8,15.3c-0.3,0-0.6,0-0.9,0c-0.3,0-0.9,0-1.6,0c-8.7-0.6-15.6-6.9-17.2-15.3c-1.6-1.6-8.7-7.2-32.4-7.2
				c-27.8,0-66.8,7.5-116.1,22.2c-7.2,2.2-15,0-19.7-5.6c-5-5.6-5.9-13.4-3.1-20.3l54.6-122.9c2.2-5,6.6-8.7,11.9-10.3
				c5.6-1.9,11.2-3.4,16.8-4.7V114.5H48.7c-7.2,0-13.7-4.1-16.8-10.6L10,61.2c-2.8-5.9-2.5-12.8,0.9-18.4s9.4-9,16.2-9h345.7
				c6.6,0,12.5,3.4,16.2,9c3.4,5.6,3.7,12.5,0.9,18.4l-21.2,43.4c-3.1,6.6-9.7,10.6-16.8,10.6h-45.6v120.4c5.9,1.6,11.9,3.1,17.8,5
				c5.3,1.6,9.7,5.3,11.9,10.3l54.6,122.9c3.1,6.9,1.9,14.7-3.1,20.3C383.5,397.8,378.5,400,372.9,400z M85.5,262.4L36.2,373.8
				c46.8-13.4,84.6-20.3,112.9-20.3c31.5,0,45.2,8.7,51.2,16.2c5.9-7.5,19.7-16.2,51.2-16.2c28.4,0,66.1,6.9,112.9,20.3l-49.6-111.4
				c-8.1-2.5-15.9-4.7-23.7-6.6c-5.3-1.2-9-5.9-9-11.5v-49c-0.6,0-1.6,0.3-2.2,0.3c-6.2,0.3-11.9-5-12.2-11.5c0-3.7,0-7.8,0-11.9
				c0.3-6.2,5.3-11.5,11.9-11.5c0,0,0,0,0.3,0c0.6,0,1.6,0,2.2,0.3v-58c0-3.1,1.2-6.2,3.4-8.4s5.3-3.4,8.4-3.4l0,0h54.3l16.5-34
				H34.6l16.5,33.4h54c6.6,0,11.9,5.3,11.9,11.9v142c0,5.3-3.7,10.3-9,11.5C101.1,258,93.6,259.9,85.5,262.4z"/>
		</g>
	</g>
	<g>
		<g>
			<path fill="#FFFFFF" d="M141.3,104.2c-2.2,0-19.3-6.9-21.5-5.9s-2.8,6.6-3.1,12.8c-0.3,6.2,0.3,19.7,0.3,26.8
				c0,7.2,0,11.5,0.6,30c0.6,18.4,1.6,20.6,1.6,32.8s-0.3,15,0.3,21.5c0.6,6.9-3.7,20-2.5,23.7s13.1-1.9,15.9-3.7
				c2.5-1.9,4.1-3.7,4.1-5.6c0-1.9,0.6-13.1,1.6-16.8C138.8,215.9,141.3,104.2,141.3,104.2z"/>
		</g>
	</g>
	<g>
		<g>
			<path fill="#FFFFFF" d="M70.2,56.2c-2.5,0-17.8-0.3-20.3,0.9c-2.5,1.2-12.8-2.5-11.9,5.9c0.9,8.4-2.2,16.8,4.7,19.3
				c6.6,2.5,8.1,7.2,13.1,7.8c5,0.9,18.1,5,21.5,0.9c3.4-4.1,4.1-19.3,2.5-20.6C78,69,70.2,56.2,70.2,56.2z"/>
		</g>
	</g>
	<g>
		<g>
			<path fill="#8E8672" d="M282.4,264.9c-0.3-18.7,0-31.8,0-43.4c0-5.3-1.6-10,1.2-14.4c-8.7-26.8,0.3-64.9,0.6-86.4
				c0-8.4-1.6-15.3,3.7-19H129.8v179.1h157.9C284.6,276.4,282.4,270.8,282.4,264.9z"/>
		</g>
	</g>
	<g>
		<g>
			<path fill="#8E8672" d="M363.8,70.2c4.4-6.2-3.4-15.6,3.4-17.2l0.3-0.3H47.7l21.5,42.7l280.8,0.6
				C352.3,85.2,357.6,79.3,363.8,70.2z"/>
		</g>
	</g>
	<g>
		<g>
			<path d="M287.1,314.5H112.3c-4.1,0-7.2-3.1-7.2-7.2V96.1c0-4.1,3.1-7.2,7.2-7.2h174.7c4.1,0,7.2,3.1,7.2,7.2v211.5
				C294.2,311.4,290.8,314.5,287.1,314.5z M119.5,300.5h160.4V103H119.5V300.5z"/>
		</g>
	</g>
	<g>
		<g>
			<path fill="#FFFFFF" d="M200.3,258c0,0-0.9-34.9-117.9,0.3L27.5,381.3c171.3-51.5,172.5-0.6,172.5-0.6V261.2V258H200.3z"/>
		</g>
		<g>
			<path d="M27.5,388.5c-1.9,0-4.1-0.9-5.3-2.5c-1.9-2.2-2.2-5-1.2-7.5l54.6-122.9c0.9-1.9,2.5-3.4,4.4-4.1
				c35.3-10.6,64-16.2,85.2-16.2c40.2,0,42.1,20,42.1,22.5v122.9c0,3.7-3.1,7.2-6.9,7.2l0,0c-3.7,0-6.9-3.1-7.2-6.9l0,0
				c0,0-2.5-15.6-44-15.6c-29,0-69.3,7.8-119.5,22.8C29,388.1,28.4,388.5,27.5,388.5z M87.4,264.3L40.2,370
				c44.6-12.8,81.1-19,108.6-19c21.8,0,35.6,4.1,44,9V258.7c-0.3-2.8-6.6-9-27.8-9C146,249.6,120.1,254.6,87.4,264.3z"/>
		</g>
	</g>
	<g>
		<g>
			<path fill="#FFFFFF" d="M200.3,258c0,0,0.9-34.9,117.9,0.3l54.6,122.9c-171.3-51.8-172.5-0.6-172.5-0.6V261.2V258z"/>
		</g>
		<g>
			<path d="M372.9,388.5c-0.6,0-1.2,0-2.2-0.3c-50.2-15-90.2-22.8-119.5-22.8c-41.2,0-44,15.6-44,15.6c0,3.7-3.1,7.2-7.2,6.9
				c-3.7,0-6.9-3.1-6.9-7.2V258c0-2.5,1.9-22.5,42.1-22.5c20.9,0,49.6,5.3,85.2,16.2c1.9,0.6,3.7,1.9,4.4,4.1l54.6,122.9
				c1.2,2.5,0.6,5.6-1.2,7.5C376.9,387.5,375,388.5,372.9,388.5z M251.5,351c27.5,0,64,6.6,108.6,19l-46.8-105.8
				c-32.8-9.7-59-14.7-78-14.7c-21.2,0-27.1,6.2-27.8,8.7v101.7C215.9,355.1,229.6,351,251.5,351z"/>
		</g>
	</g>
	<g>
		<g>
			<path d="M351.3,103L351.3,103l-303-0.6c-2.8,0-5-1.6-6.2-4.1L20.6,55.9c-1.2-2.2-0.9-4.7,0.3-6.9c1.2-2.2,3.4-3.4,5.9-3.4h345.7
				c2.5,0,4.7,1.2,5.9,3.4c1.2,2.2,1.6,4.7,0.3,6.9l-21.2,43.4C356.6,101.4,354.1,103,351.3,103z M52.7,88.3L347,88.9l14.4-29H38.4
				L52.7,88.3z"/>
		</g>
	</g>
	<g>
		<g>
			<polygon fill="#FFFFFF" points="243.1,265.2 199.7,243.1 156.6,265.2 156.6,52.7 243.1,53.7 			"/>
		</g>
		<g>
			<g>
				<path fill="#67C9D0" d="M223.1,249.6c1.9,0.3,3.4,0.9,5.3,1.9c0.6,0.3,0.9,0.6,1.6,0.9c0.3,0.3,0.6,0.3,0.9,0.6
					c3.4,0.3,6.2,0.9,8.7,2.2c0.9,0,1.6,0,2.5-0.3c0.3,0,0.6,0,1.2,0V52.7L175,54.6v202.5c3.4-6.9,10.3-12.2,20.3-12.2
					c0.9,0,2.2,0,3.1,0.3c2.5-0.9,5.6-1.6,9-1.6C214,243.4,219.3,245.9,223.1,249.6"/>
			</g>
		</g>
		<g>
			<path d="M243.1,272.1c-1.2,0-2.2-0.3-3.1-0.6L200,251.2l-40.2,20.3c-2.2,1.2-4.7,0.9-6.9-0.3c-2.2-1.2-3.4-3.4-3.4-5.9V52.7
				c0-1.9,0.6-3.7,2.2-5c1.2-1.2,3.1-2.2,5-2.2l86.4,0.9c3.7,0,6.9,3.1,6.9,7.2v211.5c0,2.5-1.2,4.7-3.4,5.9
				C245.6,271.8,244.3,272.1,243.1,272.1z M199.7,236.2c1.2,0,2.2,0.3,3.1,0.6l33.1,16.5V60.5l-72.1-0.9v193.8l32.8-16.5
				C197.5,236.2,198.8,236.2,199.7,236.2z"/>
		</g>
	</g>
	<g>
		<g>
			<line fill="none" x1="199.4" y1="111.4" x2="199.4" y2="206.2"/>
		</g>
		<g>
			<path d="M199.4,213.1c-4.1,0-7.2-3.1-7.2-7.2v-94.5c0-4.1,3.1-7.2,7.2-7.2c4.1,0,7.2,3.1,7.2,7.2v94.9
				C206.6,210,203.4,213.1,199.4,213.1z"/>
		</g>
	</g>
	<g>
		<g>
			<line fill="none" x1="184.7" y1="127" x2="214.4" y2="127"/>
		</g>
		<g>
			<path d="M214.4,133.9h-29.6c-4.1,0-7.2-3.1-7.2-7.2c0-4.1,3.1-7.2,7.2-7.2h29.6c4.1,0,7.2,3.1,7.2,7.2
				C221.2,130.7,218.1,133.9,214.4,133.9z"/>
		</g>
	</g>
</g>
</svg>
