<?xml version="1.0" encoding="utf-8"?>
<!-- Generator: Adobe Illustrator 18.1.0, SVG Export Plug-In . SVG Version: 6.00 Build 0)  -->
<svg version="1.1" id="Layer_1" xmlns="http://www.w3.org/2000/svg" xmlns:xlink="http://www.w3.org/1999/xlink" x="0px" y="0px"
	 viewBox="0 0 129.1 136.9" enable-background="new 0 0 129.1 136.9" xml:space="preserve">
<g>
	<g>
		<path d="M61.7,127.2c-32.8,0-59.5-26.7-59.5-59.5S28.9,8.1,61.7,8.1s59.5,26.7,59.5,59.5S94.5,127.2,61.7,127.2z M61.7,15.7
			C33.1,15.7,9.8,39,9.8,67.7s23.3,51.9,51.9,51.9s51.9-23.3,51.9-51.9S90.3,15.7,61.7,15.7z"/>
	</g>
</g>
<g>
	<g>
		<path fill="#FFFFFF" d="M125.3,71.3L125.3,71.3c-0.2-4.7-4-8.4-8.7-8.4c-4.7,0-8.6,3.7-8.7,8.4h0c0,4-1.3,7.7-3.5,10.8
			c-3.3-1.5-5.8-4.4-6.7-7.8c0.1-0.1,0.3-0.3,0.4-0.4c1.9-0.3,3.5-1.8,4.7-4c3.9-0.7,6.6-6,6.6-13.2c0-7.2-2.7-12.5-6.6-13.2
			c-1.2-2.2-2.8-3.6-4.7-4c-0.3-0.3-0.6-0.6-0.9-0.9v-0.5c0-12.5-6.7-23.4-16.7-29.4c0,0,0,0,0,0c0,0-0.1,0-0.1-0.1
			c-5.1-3-11.1-4.8-17.4-4.8C44,3.8,28.7,19,28.5,37.8c-0.8,0.4-1.5,1-2.1,1.7c-1.9,0.3-3.5,1.8-4.7,4c-3.9,0.7-6.6,6-6.6,13.2
			c0,7.2,2.7,12.5,6.6,13.2c1.2,2.2,2.8,3.6,4.7,4c1.3,1.5,2.9,2.4,4.7,2.4c6.1,0,9.3-9.8,9.3-19.5c0-7.9-2.1-15.9-6.2-18.6
			c3.5-12.6,15-21.9,28.6-21.9c13.5,0,24.9,9,28.5,21.3c-4.8,1.9-7.2,10.6-7.2,19.1c0,9.7,3.2,19.5,9.3,19.5c0,0,0.1,0,0.1,0
			c1.3,3.9,4,7.3,7.6,9.3c-1.4,1.2-3,2.1-4.7,2.8c-7.8-2.2-14.4-3.5-19.8-3.9c-0.7-0.7-1.4-1.5-2-2.4h2.9c1.3,0,2.3-1,2.3-2.3V28.1
			c0-1.3-1-2.3-2.3-2.3H48.5c-1.3,0-2.3,1-2.3,2.3v51.6c0,1.3,1,2.3,2.3,2.3h20.7c0.4,0.8,0.9,1.5,1.4,2.2c-4.7,0.3-7.5,1.5-9.1,2.9
			c-1.8-1.6-5.2-3-11.2-3c-6.7,0-15.9,1.7-27.3,5.2c-0.6,0.2-1.2,0.6-1.4,1.3L4,130c-0.4,0.8-0.2,1.8,0.4,2.4
			c0.4,0.5,1.1,0.8,1.7,0.8c0.2,0,0.4,0,0.7-0.1c16.1-4.8,28.9-7.3,38.3-7.3c13.4,0,14.1,5,14.1,5h0c0,1.2,1,2.2,2.3,2.2
			c0,0,0,0,0,0c0,0,0,0,0,0c0,0,0,0,0,0c1.2,0,2.2-1,2.3-2.2c0-0.1,1-5,14.1-5c9.3,0,22.2,2.5,38.3,7.3c0.2,0.1,0.4,0.1,0.7,0.1
			c0.6,0,1.3-0.3,1.7-0.8c0.6-0.7,0.7-1.6,0.4-2.4l-17.4-39.2c6.5-4,10.8-11.1,10.9-19.2h0c0-2.3,1.9-4.2,4.2-4.2
			c2.3,0,4.1,1.8,4.2,4.1c-0.1,5.8-4.4,10.6-10,11.4c-1,1.7-2.2,3.2-3.6,4.6c0.6,0.1,1.2,0.1,1.8,0.1c8.9,0,16.1-7.1,16.3-16h0
			c0-0.1,0-0.1,0-0.2C125.3,71.4,125.3,71.3,125.3,71.3z M30,64.6c-0.7-1.7-1.3-4.3-1.3-7.9c0-3.6,0.6-6.2,1.3-7.9
			c0.6,2,1,4.7,1,7.9C31,59.9,30.6,62.5,30,64.6z M31.8,71.4C31.8,71.4,31.8,71.3,31.8,71.4C31.8,71.3,31.8,71.3,31.8,71.4
			C31.8,71.3,31.8,71.4,31.8,71.4z M92.6,71.3C92.6,71.3,92.6,71.3,92.6,71.3C92.6,71.3,92.6,71.3,92.6,71.3
			C92.7,71.4,92.7,71.4,92.6,71.3C92.6,71.4,92.6,71.3,92.6,71.3z"/>
	</g>
	<g>
		<path fill="#FFFFFF" d="M116.7,136.9c-0.6,0-1.2-0.1-1.8-0.3c-15.7-4.7-28.2-7.1-37.2-7.1c-7.7,0-10,1.8-10.5,2.3
			c-0.5,2.8-3,4.9-6,4.9c-3,0-5.5-2.1-6-5c-0.5-0.5-2.8-2.3-10.4-2.3c-8.9,0-21.4,2.4-37.2,7.1c-2.2,0.7-4.8,0-6.3-1.8
			c-1.6-1.8-2-4.3-1-6.5L18,89.1c0.7-1.6,2.1-2.8,3.8-3.3c7.9-2.4,14.9-4,20.7-4.8c-0.1-0.4-0.1-0.8-0.1-1.2V69.1
			c-2,6.3-5.7,10.9-11.3,10.9c-1.8,0-4.3-0.5-6.7-2.8c-1.6-0.6-3.5-1.7-5.2-4.1c-4.8-2-8-8.3-8-16.4c0-8.1,3.1-14.4,8-16.4
			c1.7-2.4,3.6-3.6,5.2-4.1c0.1-0.1,0.3-0.3,0.4-0.4C26,15.9,42.7,0,62.8,0c6.7,0,13.3,1.8,19.1,5.2c0.3,0.1,0.5,0.3,0.7,0.4
			c10.8,6.6,17.6,18.3,18.2,30.8c1.4,0.6,3,1.8,4.4,3.8c4.8,2,8,8.3,8,16.4c0,1,0,2-0.1,2.9c1.1-0.3,2.3-0.5,3.6-0.5
			c6.6,0,12,5.1,12.5,11.6c0,0.2,0,0.4,0,0.6c0,0,0,0.1,0,0.2c0,0.1,0,0.1,0,0.2c0,0.2,0,0.3,0,0.5c-0.4,10.7-9.4,19.3-20.1,19.3
			c-0.6,0-1.2,0-1.9-0.1c-0.3,0.3-0.6,0.6-1,0.8l16.2,36.3c1,2.2,0.6,4.7-1,6.5C120.1,136.2,118.5,136.9,116.7,136.9z M77.8,122
			c9.1,0,21.2,2.2,36.2,6.5L97.9,92.3c-0.1-0.2-0.1-0.3-0.2-0.5c-0.8,0.3-1.6,0.4-2.5,0.1c-7.5-2.1-13.9-3.4-19.1-3.8
			c-0.9-0.1-1.7-0.5-2.4-1.1c-0.1-0.1-0.3-0.3-0.4-0.4c-0.7,0.8-1.6,1.3-2.7,1.4c-4,0.2-5.9,1.2-6.8,2c-1.4,1.2-3.5,1.2-5,0
			C58,89.3,55.7,88,50.2,88c-6.2,0-14.8,1.6-25.5,4.8L8.8,128.5c15-4.3,27.1-6.5,36.2-6.5c10.1,0,14.5,2.8,16.4,5.2
			C63.3,124.7,67.7,122,77.8,122z M83.2,81.4c3,0.5,6.3,1.2,9.8,2.1c-0.9-1.2-1.7-2.5-2.3-3.9c-3.2-0.9-5.5-3.4-7.2-6.9v7
			C83.4,80.3,83.4,80.9,83.2,81.4z M50,78.2h19.1c1,0,2,0.4,2.7,1.1c0.7-0.7,1.7-1.1,2.7-1.1h1.4V29.7H50V78.2z M102.5,75.9
			c0.2,0.2,0.3,0.5,0.5,0.7c0.2-0.5,0.4-1,0.5-1.6C103.2,75.3,102.8,75.6,102.5,75.9z M116.1,72c0,1.1-0.1,2.2-0.3,3.3
			c0.7-1.1,1.1-2.4,1.1-3.9c-0.1-0.4-0.8-0.4-0.8,0.1C116.2,71.7,116.1,71.9,116.1,72z M92.9,67.5c1.1,0.1,2.1,0.6,2.8,1.5
			c0.3,0.4,0.5,0.9,0.7,1.4c0.3-0.2,0.7-0.3,1.1-0.4c0.6-0.1,1.4-0.9,2-2.1c0.6-1,1.5-1.7,2.7-1.9c1.5-0.2,3.5-3.7,3.5-9.4
			s-2-9.2-3.5-9.4c-1.1-0.2-2.1-0.9-2.7-1.9c-0.7-1.2-1.4-2-2-2.1c-0.9-0.1-1.7-0.6-2.2-1.3c-0.2-0.2-0.3-0.4-0.5-0.5
			c-0.4-0.3-0.7-0.7-0.9-1.1c-0.3,0.3-0.6,0.5-1,0.6c-2.3,0.9-4.9,7.2-4.9,15.6c0,4.9,0.9,9.1,2.1,12C90.7,67.8,91.8,67.4,92.9,67.5
			z M31.2,40.4c-0.3,0.3-0.6,0.5-0.9,0.7c-0.3,0.2-0.7,0.5-1,0.9c-0.6,0.7-1.4,1.1-2.2,1.3c-0.6,0.1-1.4,0.9-2,2.1
			c-0.6,1-1.5,1.7-2.7,1.9c-1.5,0.2-3.5,3.7-3.5,9.4s2,9.2,3.5,9.4c1.1,0.2,2.1,0.9,2.7,1.9c0.7,1.2,1.4,2,2,2.1
			c0.4,0.1,0.7,0.2,1.1,0.3c0.1-0.5,0.3-0.9,0.7-1.3c0.2-0.3,0.4-0.5,0.7-0.7c0,0,0,0,0,0l0,0c0,0,0,0,0.1,0c-1.3-0.2-2.5-1.1-3-2.3
			c-0.7-1.8-1.6-4.9-1.6-9.3c0-4.4,0.9-7.5,1.6-9.3c0.6-1.5,2.1-2.4,3.7-2.4c1.6,0.1,3,1.2,3.4,2.8c0.8,2.7,1.1,5.7,1.1,9
			c0,3.3-0.4,6.3-1.1,8.9c-0.2,0.8-0.7,1.5-1.3,2c0.8,0.1,1.6,0.5,2.2,1.1c1.2-2.8,2-7.1,2-12c0-8.1-2.3-14-4.5-15.4
			C31.7,41,31.5,40.7,31.2,40.4z M38.5,36.9c1.7,1.9,3,4.5,3.9,7.4V30C40.8,32,39.5,34.4,38.5,36.9z M83.4,30.3v10.3
			c0.9-1.8,2-3.4,3.3-4.6C85.9,33.9,84.8,32,83.4,30.3z M62.8,7.6c-13.9,0-25.7,9.4-29.3,22.1c5.8-10.5,17-17.3,29.3-17.3
			c12.3,0,23.5,6.8,29.3,17.3c-2.1-7.3-7-13.7-13.7-17.8c0,0,0,0,0,0c0,0-0.1,0-0.1-0.1C73.6,9,68.3,7.6,62.8,7.6z M52.6,22.1H73
			c-3.2-1.4-6.6-2.1-10.2-2.1C59.2,20,55.8,20.7,52.6,22.1z"/>
	</g>
</g>
<g>
	<g>
		<path fill="#FFFFFF" d="M61.4,91.4c0,0-0.3-11.2-37.8,0.1L6.1,130.9c54.9-16.5,55.3-0.2,55.3-0.2V92.4V91.4z"/>
	</g>
	<g>
		<path d="M6.1,133.2c-0.6,0-1.3-0.3-1.7-0.8c-0.6-0.7-0.7-1.6-0.4-2.4l17.5-39.4c0.3-0.6,0.8-1.1,1.4-1.3
			c11.3-3.4,20.5-5.2,27.3-5.2c12.9,0,13.5,6.4,13.5,7.2l0,39.4c0,1.2-1,2.3-2.2,2.3c-1.3,0-2.3-1-2.3-2.2l0,0c0,0-0.8-5-14.1-5
			c-9.3,0-22.2,2.5-38.3,7.3C6.5,133.1,6.3,133.2,6.1,133.2z M25.2,93.4l-15.1,33.9c14.3-4.1,26-6.1,34.8-6.1c7,0,11.4,1.3,14.1,2.9
			V91.6c-0.2-0.8-2.2-2.8-8.9-2.8C44.1,88.7,35.7,90.3,25.2,93.4z"/>
	</g>
</g>
<g>
	<g>
		<path fill="#FFFFFF" d="M61.4,91.4c0,0,0.3-11.2,37.8,0.1l17.5,39.4c-54.9-16.5-55.3-0.2-55.3-0.2V92.4V91.4z"/>
	</g>
	<g>
		<path d="M116.7,133.2c-0.2,0-0.4,0-0.7-0.1c-16.1-4.8-28.9-7.3-38.3-7.3c-13.4,0-14.1,5-14.1,5.1c0,1.2-1,2.1-2.3,2.2
			c-1.2,0-2.2-1.1-2.2-2.3V91.4c0-0.8,0.6-7.2,13.5-7.2c6.7,0,15.9,1.7,27.3,5.2c0.6,0.2,1.2,0.6,1.4,1.3l17.5,39.4
			c0.4,0.8,0.2,1.8-0.4,2.4C118,132.9,117.4,133.2,116.7,133.2z M77.8,121.2c8.8,0,20.5,2.1,34.8,6.1L97.6,93.4
			c-10.5-3.1-18.8-4.7-24.9-4.7c-7.9,0-8.9,2.7-8.9,2.7l0,32.7C66.4,122.5,70.8,121.2,77.8,121.2z"/>
	</g>
</g>
<g>
	<g>
		<path d="M31.5,71.3c-4.8,0-7.3-7.4-7.3-14.7S26.7,42,31.5,42c4.8,0,7.3,7.4,7.3,14.7S36.3,71.3,31.5,71.3z M31.4,46.5
			c-0.7,0.2-2.7,3.7-2.7,10.1c0,6.3,2,9.8,2.8,10.1c0.8-0.3,2.8-3.8,2.8-10.1C34.2,50.2,32.2,46.7,31.4,46.5z"/>
	</g>
</g>
<g>
	<g>
		<path d="M27.2,73.9c-5.5,0-8.3-8.7-8.3-17.2c0-8.6,2.9-17.2,8.3-17.2c5.5,0,8.3,8.7,8.3,17.2C35.6,65.2,32.7,73.9,27.2,73.9z
			 M27.2,44c-1.1,0-3.8,4.4-3.8,12.7c0,8.2,2.7,12.7,3.8,12.7c1.1,0,3.8-4.4,3.8-12.7C31,48.4,28.3,44,27.2,44z"/>
	</g>
</g>
<g>
	<g>
		<path d="M22.5,69.9c-4.3,0-7.4-5.6-7.4-13.2s3.1-13.2,7.4-13.2v4.5c-0.7,0-2.9,3-2.9,8.7c0,5.7,2.2,8.7,2.9,8.7V69.9z"/>
	</g>
</g>
<g>
	<g>
		<path d="M31.1,76.2c-6.1,0-9.3-9.8-9.3-19.5s3.2-19.5,9.3-19.5s9.3,9.8,9.3,19.5S37.2,76.2,31.1,76.2z M31.1,41.6
			c-1.7,0-4.7,5.7-4.7,15s3.1,15,4.7,15c1.7,0,4.7-5.7,4.7-15S32.7,41.6,31.1,41.6z"/>
	</g>
</g>
<g>
	<g>
		<g>
			<path d="M92.9,71.3c-4.8,0-7.3-7.4-7.3-14.7S88.1,42,92.9,42c4.8,0,7.3,7.4,7.3,14.7S97.7,71.3,92.9,71.3z M92.9,46.5
				c-0.7,0.2-2.7,3.7-2.7,10.1c0,6.3,2,9.8,2.8,10.1c0.8-0.3,2.8-3.8,2.8-10.1C95.7,50.2,93.7,46.7,92.9,46.5z"/>
		</g>
	</g>
	<g>
		<g>
			<path d="M97.2,73.9c-5.5,0-8.3-8.7-8.3-17.2c0-8.6,2.9-17.2,8.3-17.2c5.5,0,8.3,8.7,8.3,17.2C105.5,65.2,102.7,73.9,97.2,73.9z
				 M97.2,44c-1.1,0-3.8,4.4-3.8,12.7c0,8.2,2.7,12.7,3.8,12.7s3.8-4.4,3.8-12.7C101,48.4,98.3,44,97.2,44z"/>
		</g>
	</g>
	<g>
		<g>
			<path d="M101.9,69.9v-4.5c0.7,0,2.9-3,2.9-8.7c0-5.7-2.2-8.7-2.9-8.7v-4.5c4.3,0,7.4,5.6,7.4,13.2S106.2,69.9,101.9,69.9z"/>
		</g>
	</g>
	<g>
		<g>
			<path d="M93.3,76.2c-6.1,0-9.3-9.8-9.3-19.5s3.2-19.5,9.3-19.5c6.1,0,9.3,9.8,9.3,19.5S99.4,76.2,93.3,76.2z M93.3,41.6
				c-1.7,0-4.7,5.7-4.7,15s3.1,15,4.7,15s4.7-5.7,4.7-15S95,41.6,93.3,41.6z"/>
		</g>
	</g>
	<g>
		<g>
			<path fill="#FFFFFF" d="M101.3,74.5l-1.1-1c2.9-3.1,4.8-9.7,4.8-16.8c0-6.9-1.8-13.2-4.6-16.5l1.1-1c3.1,3.5,4.9,10.2,4.9,17.5
				C106.5,64.2,104.5,71,101.3,74.5z"/>
		</g>
	</g>
</g>
<g>
	<g>
		<path fill="#FFFFFF" d="M23.1,74.5c-3.2-3.5-5.2-10.3-5.2-17.8c0-8.1,2.3-15.3,5.9-18.5l1,1.1c-3.2,2.8-5.4,9.8-5.4,17.3
			c0,7,1.9,13.6,4.8,16.8L23.1,74.5z"/>
	</g>
</g>
<g>
	<g>
		<rect x="52.9" y="32.1" fill="#D59F0F" width="24.9" height="46.5"/>
	</g>
</g>
<g>
	<g>
		<path d="M77.4,82H48.5c-1.3,0-2.3-1-2.3-2.3V28.1c0-1.3,1-2.3,2.3-2.3h28.9c1.3,0,2.3,1,2.3,2.3v51.6C79.7,81,78.6,82,77.4,82z
			 M50.7,77.5h24.4V30.4H50.7V77.5z"/>
	</g>
</g>
<g>
	<g>
		<path d="M62.9,74.7c-2.6,0-4.7-2.1-4.7-4.7s2.1-4.7,4.7-4.7c2.6,0,4.7,2.1,4.7,4.7S65.5,74.7,62.9,74.7z"/>
	</g>
</g>
<g>
	<g>
		<polygon points="53.2,35.8 66.4,46.6 61.7,47.3 72.6,58.6 56.3,47.2 60.6,45.5 		"/>
	</g>
	<g>
		<path d="M72.6,59.4c-0.2,0-0.3,0-0.4-0.1L55.9,47.8c-0.2-0.2-0.4-0.4-0.3-0.7c0-0.3,0.2-0.5,0.5-0.6l3.4-1.4l-6.7-8.9
			c-0.2-0.3-0.2-0.7,0.1-1c0.3-0.3,0.7-0.3,1,0L66.9,46c0.2,0.2,0.3,0.5,0.3,0.8c-0.1,0.3-0.3,0.5-0.6,0.5l-3.2,0.5l9.9,10.2
			c0.3,0.3,0.3,0.7,0,1C73.1,59.3,72.8,59.4,72.6,59.4z M57.9,47.4l8.8,6.2l-5.5-5.7c-0.2-0.2-0.3-0.5-0.2-0.8
			c0.1-0.3,0.3-0.5,0.6-0.5l3-0.5l-6.9-5.6l3.4,4.5c0.1,0.2,0.2,0.4,0.1,0.7s-0.2,0.4-0.4,0.5L57.9,47.4z"/>
	</g>
</g>
<g>
	<g>
		<path d="M103.3,86.6c-6.4-2.4-10.7-8.5-10.7-15.3h4.5c0,4.9,3.1,9.4,7.7,11.1L103.3,86.6z"/>
	</g>
</g>
<g>
	<g>
		<path d="M125.3,71.6h-4.5c0-2.3-1.9-4.2-4.2-4.2c-2.3,0-4.2,1.9-4.2,4.2h-4.5c0-4.8,3.9-8.7,8.7-8.7
			C121.4,62.8,125.3,66.8,125.3,71.6z"/>
	</g>
</g>
<g>
	<g>
		<g>
			<path d="M105.5,82.5c-0.2-0.1-0.4-0.1-0.6-0.2l-0.6,1.6C104.7,83.5,105.1,83,105.5,82.5z"/>
		</g>
	</g>
	<g>
		<g>
			<path d="M120.8,71.3c0,5.9-4.4,10.8-10,11.6c-1,1.7-2.2,3.2-3.6,4.6c0.6,0.1,1.2,0.1,1.8,0.1c9,0,16.3-7.3,16.3-16.3H120.8z"/>
		</g>
	</g>
</g>
<g>
	<g>
		<path d="M89.4,94.2c-9.1,0-17.3-5.4-21-13.7l4.2-1.8c2.9,6.7,9.6,11,16.9,11c10.2,0,18.4-8.3,18.4-18.4h4.5
			C112.4,83.9,102.1,94.2,89.4,94.2z"/>
	</g>
</g>
<g>
	<g>
		<g>
			<polygon fill="#FFFFFF" points="54.4,5.7 38.3,14.9 32.9,24 32.3,33.6 39.9,22.8 55.7,14.3 73.5,15.1 87.8,24.5 93.1,27.9 
				85.4,15.1 69.6,6.6 			"/>
		</g>
	</g>
	<g>
		<g>
			<g>
				<path fill="#8E8672" d="M89.4,22.2c0.2,0.2,0.4,0.3,0.5,0.4c-0.1-0.7-0.1-1.5,0-2.2c-0.8-0.6-1.4-1.4-1.8-2.3
					c-0.6-0.2-1.2-0.5-1.6-0.9l-2.6-3.7c0-0.1-0.1-0.3-0.1-0.4c-1.8-1-2.9-2.7-3.4-4.6c-3.8-1.6-8-2.6-12.4-2.6
					c-12.6,0-23.4,7.3-28.7,17.8c0.9-0.6,2-0.9,3.2-1c0.6-3.1,3-5.8,7.2-5.8c0.7,0,1.3,0.1,1.8,0.2c1.2-1.3,3-2.2,5.3-2.2
					c0.7,0,1.3,0.1,1.9,0.2c2.9-0.9,6-1.4,9.2-1.4c3.8,0,7.5,0.7,10.9,2l-1.5,0.7l10.5,8l3.5,1.5L89.4,22.2z"/>
			</g>
		</g>
		<g>
			<g>
				<path d="M94.8,48.2c-1.3,0-2.3-1-2.3-2.3c0-16.4-13.3-29.7-29.7-29.7S33.1,29.5,33.1,45.9c0,1.3-1,2.3-2.3,2.3s-2.3-1-2.3-2.3
					v-7.8c0-18.9,15.4-34.3,34.3-34.3s34.3,15.4,34.3,34.3v7.8C97.1,47.2,96.1,48.2,94.8,48.2z M62.8,11.6
					c10.3,0,19.6,4.6,25.9,11.8c-5.1-9-14.8-15.1-25.9-15.1S42,14.4,36.9,23.5C43.2,16.2,52.5,11.6,62.8,11.6z"/>
			</g>
		</g>
	</g>
</g>
</svg>
