<?xml version="1.0" encoding="utf-8"?>
<!-- Generator: Adobe Illustrator 18.1.0, SVG Export Plug-In . SVG Version: 6.00 Build 0)  -->
<svg version="1.1" id="Layer_1" xmlns="http://www.w3.org/2000/svg" xmlns:xlink="http://www.w3.org/1999/xlink" x="0px" y="0px"
	 viewBox="0 0 125.8 135" enable-background="new 0 0 125.8 135" xml:space="preserve">
<g>
	<g>
		<path d="M64.1,125.8c-32.8,0-59.5-26.7-59.5-59.5c0-32.8,26.7-59.5,59.5-59.5c32.8,0,59.5,26.7,59.5,59.5
			C123.6,99.1,96.9,125.8,64.1,125.8z M64.1,14.3c-28.6,0-51.9,23.3-51.9,51.9c0,28.6,23.3,51.9,51.9,51.9
			c28.6,0,51.9-23.3,51.9-51.9C116,37.6,92.7,14.3,64.1,14.3z"/>
	</g>
</g>
<g>
	<g>
		<g>
			<path fill="#FFFFFF" d="M121.8,128l-15.3-34.5l13-38c0,0,0,0,0,0c0-0.1,0-0.2,0-0.3c0-0.1,0-0.2,0-0.3c0,0,0,0,0,0L117.6,40
				c-0.1-0.6-0.5-1.1-1-1.2c-0.5-0.2-1.1,0-1.6,0.4l-5.4,5.4c0,0,0,0,0,0l-5.2,5.2c0,0,0,0,0,0c-0.1,0.1-0.1,0.1-0.1,0.2
				c-0.1,0.1-0.1,0.2-0.2,0.3c0,0,0,0,0,0L92.3,84.6c-1.1-0.3-2.3-0.5-3.3-0.7c5.1-6.8,9.8-16.6,9.9-24.9c0-8.9-3.5-16.7-9.9-21.9
				c-3.1-2.6-6.4-3.8-10.3-3.8c-2.5,0-5,0.5-7.4,1c-1.7,0.4-3.5,0.7-5.3,0.9c-0.5-5.9-5.5-10.6-11.5-10.6c-1.3,0-2.3,1-2.3,2.3
				s1,2.3,2.3,2.3c3.5,0,6.4,2.7,6.9,6.1c-1.8-0.2-3.6-0.5-5.4-0.9c-2.4-0.5-4.9-1-7.4-1c-3.9,0-7.1,1.2-10.3,3.8
				c-7,5.8-10,15-9.9,21.6c0,8.2,3.7,17.8,9.7,25.6c-1.1,0.3-2.3,0.5-3.5,0.8L19.2,39.7c-0.1-0.4-0.4-0.7-0.8-0.9
				c-0.4-0.2-0.8-0.2-1.2-0.1L4.8,43c-0.8,0.3-1.2,1.1-1,1.9l17.3,51L6.9,128c-0.4,0.8-0.2,1.8,0.4,2.4c0.4,0.5,1.1,0.8,1.7,0.8
				c0.2,0,0.4,0,0.7-0.1c34.4-10.4,46.3-7.5,50.3-4.8c1.9,1.3,2.1,2.5,2.1,2.5c0,0,0,0,0,0c0,0.7,0.3,1.3,0.8,1.7
				c0.4,0.3,0.9,0.5,1.4,0.6c1.3,0,2.3-0.9,2.3-2.2c0-0.1,0.2-1.3,2.1-2.6c4-2.6,15.9-5.5,50.3,4.8c0.2,0.1,0.4,0.1,0.7,0.1
				c0.6,0,1.3-0.3,1.7-0.8C122,129.8,122.1,128.8,121.8,128z"/>
		</g>
		<g>
			<path fill="#FFFFFF" d="M119.7,135c-0.6,0-1.2-0.1-1.8-0.3c-15.8-4.7-28.3-7.2-37.2-7.2c-6.2,0-8.9,1.2-9.9,1.9
				c-0.2,0.2-0.4,0.3-0.5,0.4c-0.5,2.9-2.9,5-6,5c-1.5,0-2.9-0.5-3.9-1.5c-0.3-0.2-0.6-0.5-0.8-0.8H59l-0.4-1.8
				c-0.1-0.3-0.2-0.6-0.2-0.9c-0.1-0.1-0.2-0.2-0.5-0.4c-1.1-0.7-3.8-1.9-9.9-1.9c-8.9,0-21.4,2.4-37.2,7.2c-2.2,0.7-4.8,0-6.3-1.8
				c-1.6-1.8-2-4.3-1-6.5l13.7-30.7L0.3,46.1c-0.9-2.8,0.6-5.8,3.3-6.7l12.5-4.2c1.4-0.5,2.8-0.3,4,0.3c1.3,0.6,2.2,1.7,2.7,3.1
				l3.5,10.2C28,43.4,31.2,38,36,34c3.9-3.2,8.2-4.7,13.1-4.6c-0.4-0.8-0.6-1.7-0.6-2.7c0-3.3,2.7-6.1,6.1-6.1
				c6.5,0,12.3,4.2,14.4,10.1c0.5-0.1,1.1-0.2,1.7-0.3c2.5-0.5,5.3-1.1,8.1-1.1c4.7,0,8.9,1.5,12.7,4.7c4.5,3.7,7.7,8.5,9.6,14
				c0-0.1,0.1-0.1,0.1-0.1c0,0,0.1-0.1,0.1-0.2l0.3-0.4l0.4-0.3l10.4-10.4c1.4-1.4,3.6-1.9,5.5-1.3c1.9,0.7,3.3,2.3,3.5,4.3l2,15.3
				l-0.1,0.4c0,0.1,0,0.2,0,0.2c0,0,0,0.1,0,0.3v0.1l-0.2,0.8l-12.5,36.6l14.7,33.1c1,2.1,0.6,4.7-1,6.5
				C123.1,134.2,121.4,135,119.7,135z M62.9,128.6c0,0,0,0.1,0,0.1l3,0c0-0.3-0.1-0.5-0.2-0.7L62.9,128.6z M80.8,120
				c9,0,21.2,2.2,36.2,6.5l-14.6-32.9l13.3-38.8l0-0.1l0-0.1l-1.2-9.6l-6.9,6.9L94.8,89l-3.3-0.8c-1.1-0.3-2.2-0.5-3.2-0.7l-5.8-1.2
				l3.5-4.8c5.5-7.4,9.1-16.3,9.2-22.7c0-7.7-3-14.4-8.5-19c-2.5-2-4.9-2.9-7.9-2.9c-2.1,0-4.3,0.4-6.6,0.9c-1.9,0.4-3.8,0.8-5.7,1
				l-0.6,0.1l0.1,0.4l-2.1-0.2l-1.2,0.1l0-0.2l-1.5-0.1c-2-0.2-3.8-0.6-5.8-1c-2.2-0.5-4.5-0.9-6.6-0.9c-3,0-5.4,0.9-7.9,2.9
				c-6,4.9-8.6,13.1-8.6,18.6c0,7.2,3.4,16.2,8.9,23.3l3.6,4.7L39,87.8c-1.1,0.2-2.3,0.5-3.4,0.8l-3.4,0.8L16.4,43.1l-8.2,2.8
				l17.1,50.3l-13.5,30.4c25.4-7.3,42.6-8.5,50.3-3.4c1,0.7,1.8,1.4,2.3,2.1c0.5-0.7,1.3-1.4,2.3-2.1C69.8,121,74.6,120,80.8,120z"
				/>
		</g>
	</g>
	<g>
		<g>
			<path fill="#FFFFFF" d="M61.3,24.5c0.3,0.2,7.2,3.9,15.8,3.9l0,0c7.8,0,18.4-3.2,24.9-18.4c0.5-1.1,0-2.4-1.1-2.9
				c-0.3-0.1-7-3.4-15.3-3.4c-3.2,0-6.2,0.5-8.9,1.4c-7.2,2.5-12.7,8-16.4,16.4C59.8,22.7,60.3,23.9,61.3,24.5z"/>
		</g>
		<g>
			<path fill="#FFFFFF" d="M77,32.2c-9.3,0-16.8-3.9-17.6-4.4c-2.7-1.5-3.9-4.8-2.6-7.7c4.1-9.5,10.3-15.7,18.6-18.5
				C78.6,0.5,82,0,85.6,0c9.2,0,16.6,3.6,16.9,3.7c2.9,1.4,4.2,4.9,2.9,7.8C102.1,19.3,94,32.2,77,32.2z M64.4,21.8
				c2.2,1,7.1,2.9,12.7,2.9c9.2,0,16.2-4.9,20.8-14.7c-2.2-0.9-6.9-2.4-12.3-2.4c-2.7,0-5.3,0.4-7.7,1.2
				C72.1,10.8,67.5,15.1,64.4,21.8z"/>
		</g>
	</g>
</g>
<g>
	<g>
		<g>
			<path fill="#8E8672" d="M36.1,94.1c-0.7-2-0.5-3.7,0.3-5.1c-1.9-1.5-2.8-3.8-2.8-6.2C32.8,82,32.3,81,32,79.9
				c-0.8-1.3-1.2-2.9-1.2-4.5c-0.2-0.5-0.4-1.1-0.4-1.7c-0.9-1.1-1.5-2.6-1.7-4c-0.6-1-0.9-2.1-1-3.2c-0.8-1.1-1.2-2.5-1.3-3.9
				c-0.2-0.5-0.4-0.9-0.5-1.4c-1.4-1.6-2-3.9-1.8-6c-0.8-1.1-1.3-2.4-1.5-3.7c-3.5-1.4-4.9-5.4-4.2-8.9l-8.5,2.9
				c-0.8,0.3-1.2,1.1-0.9,1.9l17.5,51.4C29.5,96.9,32.7,95.4,36.1,94.1z"/>
		</g>
	</g>
	<g>
		<g>
			<path fill="#8E8672" d="M118.9,51.8c-1.7-2.1-2.2-5.2-1.3-7.8l-3,3c0,0,0,0,0,0l-5.2,5.2c0,0,0,0,0,0c-0.1,0.1-0.1,0.2-0.2,0.2
				c-0.1,0.1-0.1,0.2-0.2,0.3c0,0,0,0,0,0l-16.9,49.5c3.7-1.3,7.6-2,11.4-1.3c0-0.7,0.1-1.5,0.2-2.2c-0.6-2.4-0.2-5.2,1.4-7.1
				c0.3-2,1.3-3.9,2.9-5.1c0.1-0.5,0.3-1,0.5-1.4c-0.4-2.4,0.2-5,1.8-6.8c0.2-1.3,0.6-2.6,1.4-3.6c-0.5-2.8,0.4-5.8,2.6-7.6
				c-0.1-2.2,0.7-4.3,2.2-5.8c0.2-0.6,0.4-1.1,0.7-1.6c0.2-1.5,0.8-3,1.8-4.2C118.9,54.2,118.8,53,118.9,51.8z"/>
		</g>
	</g>
</g>
<g>
	<g>
		<g>
			<path d="M9.3,52.8c-0.9,0-1.8-0.6-2.2-1.5c-0.4-1.2,0.2-2.5,1.4-2.9l4.3-1.4c1.2-0.4,2.5,0.2,2.9,1.4c0.4,1.2-0.2,2.5-1.4,2.9
				l-4.3,1.4C9.8,52.8,9.6,52.8,9.3,52.8z"/>
		</g>
	</g>
	<g>
		<g>
			<path d="M10,56.9c-0.6,0-1.2-0.4-1.4-1c-0.3-0.8,0.2-1.7,0.9-1.9l2.9-1c0.8-0.3,1.7,0.2,1.9,0.9c0.3,0.8-0.2,1.7-0.9,1.9l-2.9,1
				C10.3,56.9,10.2,56.9,10,56.9z"/>
		</g>
	</g>
	<g>
		<g>
			<path d="M11.3,60.7c-0.6,0-1.2-0.4-1.4-1c-0.3-0.8,0.2-1.7,0.9-1.9l2.9-1c0.8-0.3,1.7,0.2,1.9,0.9c0.3,0.8-0.2,1.7-0.9,1.9
				l-2.9,1C11.6,60.7,11.5,60.7,11.3,60.7z"/>
		</g>
	</g>
	<g>
		<g>
			<path d="M14.3,69.7c-0.6,0-1.2-0.4-1.4-1c-0.3-0.8,0.2-1.7,0.9-1.9l2.9-1c0.8-0.3,1.7,0.2,1.9,0.9c0.3,0.8-0.2,1.7-0.9,1.9
				l-2.9,1C14.7,69.6,14.5,69.7,14.3,69.7z"/>
		</g>
	</g>
	<g>
		<g>
			<path d="M15.6,73.5c-0.6,0-1.2-0.4-1.4-1c-0.3-0.8,0.2-1.7,0.9-1.9l2.9-1c0.8-0.3,1.7,0.2,1.9,0.9s-0.2,1.7-0.9,1.9l-2.9,1
				C16,73.4,15.8,73.5,15.6,73.5z"/>
		</g>
	</g>
	<g>
		<g>
			<path d="M18.7,82.4c-0.6,0-1.2-0.4-1.4-1c-0.3-0.8,0.2-1.7,0.9-1.9l2.9-1c0.8-0.3,1.7,0.2,1.9,0.9c0.3,0.8-0.2,1.7-0.9,1.9
				l-2.9,1C19,82.4,18.8,82.4,18.7,82.4z"/>
		</g>
	</g>
	<g>
		<g>
			<path d="M20,86.2c-0.6,0-1.2-0.4-1.4-1c-0.3-0.8,0.2-1.7,0.9-1.9l2.9-1c0.8-0.3,1.7,0.2,1.9,0.9c0.3,0.8-0.2,1.7-0.9,1.9l-2.9,1
				C20.3,86.2,20.1,86.2,20,86.2z"/>
		</g>
	</g>
	<g>
		<g>
			<path d="M23,95.2c-0.6,0-1.2-0.4-1.4-1c-0.3-0.8,0.2-1.7,0.9-1.9l2.9-1c0.8-0.3,1.7,0.2,1.9,0.9c0.3,0.8-0.2,1.7-0.9,1.9l-2.9,1
				C23.3,95.1,23.2,95.2,23,95.2z"/>
		</g>
	</g>
	<g>
		<g>
			<path d="M24.3,98.9c-0.6,0-1.2-0.4-1.4-1c-0.3-0.8,0.2-1.7,0.9-1.9l2.9-1c0.8-0.3,1.7,0.2,1.9,0.9c0.3,0.8-0.2,1.7-0.9,1.9
				l-2.9,1C24.6,98.9,24.4,98.9,24.3,98.9z"/>
		</g>
	</g>
	<g>
		<g>
			<path d="M27.3,107.9c-0.6,0-1.2-0.4-1.4-1c-0.3-0.8,0.2-1.7,0.9-1.9l2.9-1c0.8-0.3,1.7,0.2,1.9,0.9c0.3,0.8-0.2,1.7-0.9,1.9
				l-2.9,1C27.6,107.9,27.5,107.9,27.3,107.9z"/>
		</g>
	</g>
	<g>
		<g>
			<path d="M28.6,111.7c-0.6,0-1.2-0.4-1.4-1c-0.3-0.8,0.2-1.7,0.9-1.9l2.9-1c0.8-0.3,1.7,0.2,1.9,0.9c0.3,0.8-0.2,1.7-0.9,1.9
				l-2.9,1C28.9,111.7,28.8,111.7,28.6,111.7z"/>
		</g>
	</g>
	<g>
		<g>
			<path d="M13.7,65.5c-0.9,0-1.8-0.6-2.2-1.5c-0.4-1.2,0.2-2.5,1.4-2.9l4.3-1.4c1.2-0.4,2.5,0.2,2.9,1.4c0.4,1.2-0.2,2.5-1.4,2.9
				l-4.3,1.4C14.2,65.5,13.9,65.5,13.7,65.5z"/>
		</g>
	</g>
	<g>
		<g>
			<path d="M18,78.3c-0.9,0-1.8-0.6-2.2-1.5c-0.4-1.2,0.2-2.5,1.4-2.9l4.3-1.4c1.2-0.4,2.5,0.2,2.9,1.4c0.4,1.2-0.2,2.5-1.4,2.9
				l-4.3,1.4C18.5,78.2,18.2,78.3,18,78.3z"/>
		</g>
	</g>
	<g>
		<g>
			<path d="M22.3,91c-0.9,0-1.8-0.6-2.2-1.5c-0.4-1.2,0.2-2.5,1.4-2.9l4.3-1.4c1.2-0.4,2.5,0.2,2.9,1.4c0.4,1.2-0.2,2.5-1.4,2.9
				l-4.3,1.4C22.8,91,22.6,91,22.3,91z"/>
		</g>
	</g>
	<g>
		<g>
			<path d="M26.6,103.8c-0.9,0-1.8-0.6-2.2-1.5c-0.4-1.2,0.2-2.5,1.4-2.9l4.3-1.4c1.2-0.4,2.5,0.2,2.9,1.4c0.4,1.2-0.2,2.5-1.4,2.9
				l-4.3,1.4C27.1,103.7,26.9,103.8,26.6,103.8z"/>
		</g>
	</g>
	<g>
		<g>
			<path d="M31,116.5c-0.9,0-1.8-0.6-2.2-1.5c-0.4-1.2,0.2-2.5,1.4-2.9l4.3-1.4c1.2-0.4,2.5,0.2,2.9,1.4c0.4,1.2-0.2,2.5-1.4,2.9
				l-4.3,1.4C31.5,116.5,31.2,116.5,31,116.5z"/>
		</g>
	</g>
	<g>
		<g>
			<path d="M31.5,124c-0.2,0-0.5-0.1-0.7-0.2c-0.4-0.2-0.6-0.5-0.8-0.9l-26.5-78c-0.1-0.4-0.1-0.8,0.1-1.2c0.2-0.4,0.5-0.6,0.9-0.8
				L17,38.7c0.8-0.3,1.7,0.2,1.9,0.9l26.5,78c0.1,0.4,0.1,0.8-0.1,1.2c-0.2,0.4-0.5,0.6-0.9,0.8L32,123.9
				C31.9,123.9,31.7,124,31.5,124z M7,45.4l25.5,75.2l9.6-3.3L16.6,42.1L7,45.4z"/>
		</g>
	</g>
</g>
<g>
	<g>
		<g>
			<polygon points="115,42.3 113.4,43.2 111.9,44.3 112.4,45.8 113.3,47.2 115,46.8 116.4,46 			"/>
		</g>
	</g>
	<g>
		<g>
			<path d="M100.6,106.7c-0.2,0-0.3,0-0.5-0.1l-12.5-4.3c-0.4-0.1-0.7-0.4-0.9-0.8c-0.2-0.4-0.2-0.8-0.1-1.2l17.2-50.2
				c0.3-0.8,1.1-1.2,1.9-0.9c0.8,0.3,1.2,1.1,0.9,1.9L90,100l9.6,3.3l16.7-48.7c0.3-0.8,1.1-1.2,1.9-0.9c0.8,0.3,1.2,1.1,0.9,1.9
				L102,105.7C101.8,106.3,101.2,106.7,100.6,106.7z"/>
		</g>
	</g>
	<g>
		<g>
			<g>
				<path d="M97.2,116.5c-0.2,0-0.3,0-0.5-0.1c-0.8-0.3-1.2-1.1-0.9-1.9l2.9-8.4l-9.6-3.3l-2.9,8.4c-0.3,0.8-1.1,1.2-1.9,0.9
					c-0.8-0.3-1.2-1.1-0.9-1.9l3.4-9.8c0.3-0.8,1.1-1.2,1.9-0.9l12.5,4.3c0.4,0.1,0.7,0.4,0.9,0.8c0.2,0.4,0.2,0.8,0.1,1.2l-3.4,9.8
					C98.4,116.1,97.8,116.5,97.2,116.5z"/>
			</g>
		</g>
		<g>
			<g>
				<path d="M91.6,120.1c-1,0-2-0.2-2.9-0.5c-4.2-1.4-6.6-5.7-5.4-9.4c0.3-0.8,1.1-1.2,1.9-0.9c0.8,0.3,1.2,1.1,0.9,1.9
					c-0.7,2.2,0.8,4.7,3.5,5.6c1.3,0.5,2.7,0.4,3.9,0c1.1-0.4,1.9-1.2,2.2-2.2c0.3-0.8,1.1-1.2,1.9-0.9c0.8,0.3,1.2,1.1,0.9,1.9
					c-0.6,1.9-2.1,3.3-4,4.1C93.7,119.9,92.7,120.1,91.6,120.1z"/>
			</g>
		</g>
	</g>
	<g>
		<g>
			<path d="M99.4,109.7c-0.2,0-0.3,0-0.5-0.1l-12.3-4.2c-0.8-0.3-1.2-1.1-0.9-1.9c0.3-0.8,1.1-1.2,1.9-0.9l12.3,4.2
				c0.8,0.3,1.2,1.1,0.9,1.9C100.6,109.3,100,109.7,99.4,109.7z"/>
		</g>
	</g>
	<g>
		<g>
			<path d="M98.3,112.9c-0.2,0-0.3,0-0.5-0.1l-12.3-4.2c-0.8-0.3-1.2-1.1-0.9-1.9c0.3-0.8,1.1-1.2,1.9-0.9l12.3,4.2
				c0.8,0.3,1.2,1.1,0.9,1.9C99.5,112.5,98.9,112.9,98.3,112.9z"/>
		</g>
	</g>
	<g>
		<g>
			<path d="M105.2,52.3c-0.4,0-0.8-0.1-1.1-0.4c-0.6-0.6-0.6-1.6,0-2.1l5.2-5.2c0.6-0.6,1.6-0.6,2.1,0c0.6,0.6,0.6,1.6,0,2.1
				l-5.2,5.2C106,52.1,105.6,52.3,105.2,52.3z"/>
		</g>
	</g>
	<g>
		<g>
			<path d="M117.7,56.5c-0.8,0-1.4-0.6-1.5-1.3l-1.5-11.7l-3.2,3.2c-0.6,0.6-1.6,0.6-2.1,0c-0.6-0.6-0.6-1.6,0-2.1l5.4-5.4
				c0.4-0.4,1-0.5,1.6-0.4c0.5,0.2,0.9,0.7,1,1.2l1.9,14.8c0.1,0.8-0.5,1.6-1.3,1.7C117.8,56.5,117.8,56.5,117.7,56.5z"/>
		</g>
	</g>
	<g>
		<g>
			<path d="M92.5,103.3c-0.2,0-0.3,0-0.5-0.1c-0.8-0.3-1.2-1.1-0.9-1.9L107,54.7c0.3-0.8,1.1-1.2,1.9-0.9c0.8,0.3,1.2,1.1,0.9,1.9
				l-15.9,46.6C93.7,102.9,93.1,103.3,92.5,103.3z"/>
		</g>
	</g>
	<g>
		<g>
			<path d="M96.4,104.7c-0.2,0-0.3,0-0.5-0.1c-0.8-0.3-1.2-1.1-0.9-1.9L111,56.1c0.3-0.8,1.1-1.2,1.9-0.9c0.8,0.3,1.2,1.1,0.9,1.9
				l-15.9,46.6C97.7,104.3,97.1,104.7,96.4,104.7z"/>
		</g>
	</g>
	<g>
		<g>
			<path d="M117.6,56.9c-0.2,0-0.5-0.1-0.7-0.2l-3.7-2l-1.9,0c-0.3,0-0.6-0.1-0.9-0.3l-1.7-1.2l-3.8-0.6c-0.8-0.1-1.4-0.9-1.3-1.7
				c0.1-0.8,0.9-1.4,1.7-1.3l4.2,0.7c0.2,0,0.5,0.1,0.6,0.3l1.6,1.1l1.8,0c0.2,0,0.5,0.1,0.7,0.2l4.1,2.1c0.7,0.4,1,1.3,0.6,2
				C118.7,56.6,118.1,56.9,117.6,56.9z"/>
		</g>
	</g>
</g>
<g>
	<g>
		<path fill="#FFFFFF" d="M42.1,85.6c-4.4,0.8-9.6,2.1-15.9,3.9L8.8,128.9c54.9-16.5,55.3-0.2,55.3-0.2V90.4v-1c0,0,0-1.8-2.4-3.2"
			/>
	</g>
	<g>
		<path d="M8.8,131.2c-0.6,0-1.3-0.3-1.7-0.8c-0.6-0.7-0.7-1.6-0.4-2.4l17.5-39.4c0.3-0.6,0.8-1.1,1.4-1.3c6-1.8,11.4-3.1,16.1-4
			l0.8,4.5c-4.3,0.8-9.2,2-14.6,3.6l-15.1,33.9c24.2-6.9,41.1-7.9,49-3.1V89.6c0-0.2-0.3-0.8-1.3-1.4l2.3-3.9c3.4,2,3.6,4.8,3.6,5.1
			l0,39.4c0,1.2-1,2.3-2.2,2.3c0,0,0,0,0,0c-1.2,0-2.2-1-2.3-2.2l0,0c0,0-0.2-1.3-2.1-2.5c-4-2.6-15.9-5.5-50.3,4.8
			C9.2,131.2,9,131.2,8.8,131.2z"/>
	</g>
</g>
<g>
	<g>
		<path fill="#FFFFFF" d="M84.5,85.3c4.7,0.8,10.4,2.1,17.5,4.2l17.5,39.4c-54.9-16.5-55.3-0.2-55.3-0.2V90.4v-1c0,0,0-1.3,1.5-2.5"
			/>
	</g>
	<g>
		<path d="M119.4,131.2c-0.2,0-0.4,0-0.7-0.1c-35-10.5-46.7-7.4-50.6-4.6c-1.6,1.2-1.8,2.3-1.8,2.3c0,1.2-1,2.2-2.3,2.2
			c-1.2,0-2.2-1-2.2-2.3V89.4c0-0.4,0.2-2.5,2.3-4.3l2.9,3.5c-0.5,0.4-0.7,0.8-0.7,1v32.6c7.9-4.8,24.7-3.7,49,3.1l-15.1-33.9
			c-6.1-1.8-11.5-3.1-16.2-3.9l0.7-4.5c5.1,0.8,11.1,2.3,17.7,4.3c0.6,0.2,1.2,0.6,1.4,1.3l17.5,39.4c0.4,0.8,0.2,1.8-0.4,2.4
			C120.7,130.9,120.1,131.2,119.4,131.2z"/>
	</g>
</g>
<g>
	<g>
		<path fill="none" d="M77.1,7.4c-5.7,1.9-11.2,6.3-15,15.2c0,0,25.7,14.2,37.5-13.3C99.6,9.2,88.1,3.6,77.1,7.4"/>
	</g>
</g>
<g>
	<g>
		<path fill="none" d="M30.5,58.6c0,9.9,5.6,20.8,12.3,27.8c8.9,9.4,14.7-2.8,23.9,0.8c8.6,3.4,12.1,5.1,18.6-2.7
			c5.9-7.1,11-17.5,11.1-25.7c0-7.8-3-15.2-9.1-20.2c-7.9-6.5-14.9-1.2-23.9-1.2c-8.9,0-15.9-5.3-23.8,1.2
			C33.6,43.7,30.4,52,30.5,58.6z"/>
	</g>
</g>
<g>
	<g>
		<path fill="#5D5E5E" d="M63.2,22c0,0,13.6-5.8,21.3-7.9"/>
	</g>
</g>
<g>
	<g>
		<path fill="#D59F0F" d="M97.5,52.1c-0.8-0.7-1.6-1.4-2.3-2.3c-2.2-2.7-3.7-5.5-4.2-8.7c-2.7-0.8-4.3-3-4.8-5.5
			C81,35,75.7,37.5,69.5,37.5c-8.9,0-15.9-5.3-23.8,1.2c-6,5-9.2,13.3-9.1,19.9c0,9.9,5.6,20.8,12.3,27.8c8.9,9.4,14.7-2.8,23.9,0.8
			c2.4,1,4.5,1.8,6.3,2.3c0.9-2.4,3-4.4,6.3-4.5c0.6-2.4,2.2-4.4,4.8-5.2c0.5-0.5,1-1.1,1.6-1.4c0.1-1.4,0.5-2.8,1.3-4
			c-0.1-2.3,0.7-4.6,2.3-6.1c-0.3-1.6-0.2-3.2,0.4-4.7c0.2-1.1,0.6-2.2,1.2-3.1C95.7,57.9,95.9,54.5,97.5,52.1z"/>
	</g>
</g>
<g>
	<g>
		<path fill="#D59F0F" d="M100.2,7.3c-4.4-1.2-10.8-2.1-17,0.1c-5.7,1.9-11.2,6.3-15,15.2c0,0,9.5,5.2,19.6,3.1
			c0.8-2.2,2.5-4,5.1-4.6c0,0,0.1-0.1,0.1-0.1c0.5-1.5,1.5-2.9,3-3.7c0.6-1.8,1.8-3.4,3.7-4.3c0.2-0.7,0.5-1.3,0.8-2
			C100.1,9.8,100,8.5,100.2,7.3z"/>
	</g>
</g>
<g>
	<g>
		<path d="M76.8,28.4C76.8,28.4,76.8,28.4,76.8,28.4c-8.5,0-15.5-3.8-15.8-3.9c-1-0.6-1.5-1.8-1-2.9c3.6-8.4,9.1-14,16.4-16.4
			c2.8-0.9,5.8-1.4,8.9-1.4c8.3,0,15,3.2,15.3,3.4c1.1,0.5,1.6,1.8,1.1,2.9C95.2,25.3,84.5,28.4,76.8,28.4z M65.1,21.4
			c2.4,1,6.8,2.5,11.6,2.5c8.7,0,15.3-4.5,19.8-13.5C94.2,9.5,90,8.3,85.3,8.3c-2.7,0-5.2,0.4-7.5,1.2
			C72.5,11.3,68.2,15.3,65.1,21.4z"/>
	</g>
</g>
<g>
	<g>
		<path d="M76.4,92.4c-2.9,0-5.9-1.2-9.8-2.7l-0.8-0.3C65,89,64,88.8,63.1,88.8c-2,0-4,0.8-6,1.7c-2.2,0.9-4.5,1.9-7.1,1.9h0
			c-3.1,0-6-1.4-8.8-4.4c-7.9-8.3-12.9-19.8-12.9-29.4C28.1,52,31.1,42.7,38.2,37c3.1-2.6,6.4-3.8,10.3-3.8c2.5,0,5,0.5,7.4,1
			c2.5,0.5,5,1,7.7,1c2.6,0,5.2-0.5,7.7-1c2.4-0.5,4.9-1,7.4-1c3.9,0,7.1,1.2,10.3,3.8c6.4,5.3,9.9,13.1,9.9,21.9
			C98.5,68.2,92.7,79.2,87,86C83.3,90.5,80.1,92.4,76.4,92.4z M63.1,84.3c1.5,0,3,0.3,4.5,0.9l0.8,0.3c3.5,1.4,6,2.4,8.1,2.4
			c1.6,0,3.6-0.6,7.1-4.7c6.1-7.4,10.5-17.3,10.6-24.2c0-7.5-2.9-14-8.2-18.4c-2.3-1.9-4.6-2.7-7.4-2.7c-2,0-4.2,0.4-6.5,0.9
			c-2.7,0.5-5.5,1.1-8.6,1.1c-3.1,0-5.9-0.6-8.6-1.1c-2.3-0.5-4.4-0.9-6.5-0.9c-2.8,0-5.1,0.8-7.4,2.7c-5.8,4.8-8.4,12.7-8.3,18.1
			c0,8.5,4.6,18.8,11.7,26.3c2.5,2.6,4.3,2.9,5.5,2.9c1.7,0,3.5-0.7,5.4-1.5C57.6,85.3,60.2,84.3,63.1,84.3z"/>
	</g>
</g>
<g>
	<g>
		<path d="M63.2,23.6c-0.6,0-1.1-0.3-1.4-0.9c-0.3-0.8,0-1.7,0.8-2c0.6-0.2,13.8-5.9,21.5-8c0.8-0.2,1.6,0.3,1.9,1.1
			c0.2,0.8-0.3,1.6-1.1,1.9c-7.5,2-20.9,7.8-21.1,7.8C63.6,23.5,63.4,23.6,63.2,23.6z"/>
	</g>
</g>
<g>
	<g>
		<path d="M63.5,38.3c-1.3,0-2.3-1-2.3-2.3c0-3.9-3.1-7-7-7C53,29,52,28,52,26.7s1-2.3,2.3-2.3c6.4,0,11.6,5.2,11.6,11.6
			C65.8,37.3,64.8,38.3,63.5,38.3z"/>
	</g>
</g>
</svg>
