<?xml version="1.0" encoding="utf-8"?>
<!-- Generator: Adobe Illustrator 18.1.1, SVG Export Plug-In . SVG Version: 6.00 Build 0)  -->
<svg version="1.1" id="Layer_1" xmlns="http://www.w3.org/2000/svg" xmlns:xlink="http://www.w3.org/1999/xlink" x="0px" y="0px"
	 viewBox="0 0 400 400" enable-background="new 0 0 400 400" xml:space="preserve">
<g>
	<g>
		<path d="M191.7,371.7c-95.8,0-173.8-78-173.8-173.8s78-174.1,173.8-174.1s173.8,78,173.8,173.8S287.5,371.7,191.7,371.7z
			 M191.7,45.9C108.1,45.9,40,114,40,197.8s68.1,151.6,151.6,151.6s151.6-68.1,151.6-151.6S275.2,45.9,191.7,45.9z"/>
	</g>
</g>
<g>
	<g>
		<path fill="#FFFFFF" d="M377.5,208.3L377.5,208.3c-0.6-13.7-11.7-24.5-25.4-24.5s-25.1,10.8-25.4,24.5l0,0
			c0,11.7-3.8,22.5-10.2,31.6c-9.6-4.4-16.9-12.9-19.6-22.8c0.3-0.3,0.9-0.9,1.2-1.2c5.6-0.9,10.2-5.3,13.7-11.7
			c11.4-2,19.3-17.5,19.3-38.6s-7.9-36.5-19.3-38.6c-3.5-6.4-8.2-10.5-13.7-11.7c-0.9-0.9-1.8-1.8-2.6-2.6v-1.5
			c0-36.5-19.6-68.4-48.8-85.9l0,0c0,0-0.3,0-0.3-0.3c-14.9-8.8-32.4-14-50.8-14c-55.5,0-100.2,44.4-100.8,99.3
			c-2.3,1.2-4.4,2.9-6.1,5c-5.6,0.9-10.2,5.3-13.7,11.7c-11.4,2-19.3,17.5-19.3,38.6s7.9,36.5,19.3,38.6c3.5,6.4,8.2,10.5,13.7,11.7
			c3.8,4.4,8.5,7,13.7,7c17.8,0,27.2-28.6,27.2-57c0-23.1-6.1-46.5-18.1-54.3c10.2-36.8,43.8-64,83.6-64c39.4,0,72.8,26.3,83.3,62.2
			c-14,5.6-21,31-21,55.8c0,28.3,9.3,57,27.2,57h0.3c3.8,11.4,11.7,21.3,22.2,27.2c-4.1,3.5-8.8,6.1-13.7,8.2
			c-22.8-6.4-42.1-10.2-57.9-11.4c-2-2-4.1-4.4-5.8-7h8.5c3.8,0,6.7-2.9,6.7-6.7V82.1c0-3.8-2.9-6.7-6.7-6.7h-84.7
			c-3.8,0-6.7,2.9-6.7,6.7v150.8c0,3.8,2.9,6.7,6.7,6.7h60.5c1.2,2.3,2.6,4.4,4.1,6.4c-13.7,0.9-21.9,4.4-26.6,8.5
			c-5.3-4.7-15.2-8.8-32.7-8.8c-19.6,0-46.5,5-79.8,15.2c-1.8,0.6-3.5,1.8-4.1,3.8L23.1,379.8c-1.2,2.3-0.6,5.3,1.2,7
			c1.2,1.5,3.2,2.3,5,2.3c0.6,0,1.2,0,2-0.3c47-14,84.4-21.3,111.9-21.3c39.2,0,41.2,14.6,41.2,14.6l0,0c0,3.5,2.9,6.4,6.7,6.4l0,0
			l0,0l0,0c3.5,0,6.4-2.9,6.7-6.4c0-0.3,2.9-14.6,41.2-14.6c27.2,0,64.9,7.3,111.9,21.3c0.6,0.3,1.2,0.3,2,0.3c1.8,0,3.8-0.9,5-2.3
			c1.8-2,2-4.7,1.2-7l-50.8-114.5c19-11.7,31.6-32.4,31.8-56.1l0,0c0-6.7,5.6-12.3,12.3-12.3c6.7,0,12,5.3,12.3,12
			c-0.3,16.9-12.9,31-29.2,33.3c-2.9,5-6.4,9.3-10.5,13.4c1.8,0.3,3.5,0.3,5.3,0.3c26,0,47-20.7,47.6-46.7l0,0c0-0.3,0-0.3,0-0.6
			C377.5,208.6,377.5,208.3,377.5,208.3z M99.1,188.8c-2-5-3.8-12.6-3.8-23.1c0-10.5,1.8-18.1,3.8-23.1c1.8,5.8,2.9,13.7,2.9,23.1
			C102,175,100.8,182.6,99.1,188.8z M104.3,208.6C104.3,208.6,104.3,208.3,104.3,208.6C104.3,208.3,104.3,208.3,104.3,208.6
			C104.3,208.3,104.3,208.6,104.3,208.6z M282,208.3L282,208.3L282,208.3C282.2,208.6,282.2,208.6,282,208.3
			C282,208.6,282,208.3,282,208.3z"/>
	</g>
	<g>
		<path fill="#FFFFFF" d="M352.4,400c-1.8,0-3.5-0.3-5.3-0.9c-45.9-13.7-82.4-20.7-108.7-20.7c-22.5,0-29.2,5.3-30.7,6.7
			c-1.5,8.2-8.8,14.3-17.5,14.3c-8.8,0-16.1-6.1-17.5-14.6c-1.5-1.5-8.2-6.7-30.4-6.7c-26,0-62.5,7-108.7,20.7c-6.4,2-14,0-18.4-5.3
			c-4.7-5.3-5.8-12.6-2.9-19L64,260.3c2-4.7,6.1-8.2,11.1-9.6c23.1-7,43.5-11.7,60.5-14c-0.3-1.2-0.3-2.3-0.3-3.5v-31.3
			c-5.8,18.4-16.7,31.8-33,31.8c-5.3,0-12.6-1.5-19.6-8.2c-4.7-1.8-10.2-5-15.2-12c-14-5.8-23.4-24.3-23.4-47.9s9.1-42.1,23.4-47.9
			c5-7,10.5-10.5,15.2-12c0.3-0.3,0.9-0.9,1.2-1.2C87.4,46.5,136.2,0,194.9,0c19.6,0,38.9,5.3,55.8,15.2c0.9,0.3,1.5,0.9,2,1.2
			c31.6,19.3,51.4,53.5,53.2,90c4.1,1.8,8.8,5.3,12.9,11.1c14,5.8,23.4,24.3,23.4,47.9c0,2.9,0,5.8-0.3,8.5
			c3.2-0.9,6.7-1.5,10.5-1.5c19.3,0,35.1,14.9,36.5,33.9c0,0.6,0,1.2,0,1.8c0,0,0,0.3,0,0.6c0,0.3,0,0.3,0,0.6c0,0.6,0,0.9,0,1.5
			c-1.2,31.3-27.5,56.4-58.7,56.4c-1.8,0-3.5,0-5.6-0.3c-0.9,0.9-1.8,1.8-2.9,2.3L369,375.2c2.9,6.4,1.8,13.7-2.9,19
			C362.3,398,357.6,400,352.4,400z M238.7,356.5c26.6,0,61.9,6.4,105.8,19l-47-105.8c-0.3-0.6-0.3-0.9-0.6-1.5
			c-2.3,0.9-4.7,1.2-7.3,0.3c-21.9-6.1-40.6-9.9-55.8-11.1c-2.6-0.3-5-1.5-7-3.2c-0.3-0.3-0.9-0.9-1.2-1.2c-2,2.3-4.7,3.8-7.9,4.1
			c-11.7,0.6-17.2,3.5-19.9,5.8c-4.1,3.5-10.2,3.5-14.6,0c-2.3-2-9.1-5.8-25.1-5.8c-18.1,0-43.2,4.7-74.5,14L37.1,375.5
			c43.8-12.6,79.2-19,105.8-19c29.5,0,42.4,8.2,47.9,15.2C196.3,364.4,209.2,356.5,238.7,356.5z M254.5,237.8
			c8.8,1.5,18.4,3.5,28.6,6.1c-2.6-3.5-5-7.3-6.7-11.4c-9.3-2.6-16.1-9.9-21-20.2v20.5C255.1,234.6,255.1,236.4,254.5,237.8z
			 M157.5,228.5h55.8c2.9,0,5.8,1.2,7.9,3.2c2-2,5-3.2,7.9-3.2h4.1V86.8h-75.7V228.5z M310.9,221.8c0.6,0.6,0.9,1.5,1.5,2
			c0.6-1.5,1.2-2.9,1.5-4.7C312.9,220,311.8,220.9,310.9,221.8z M350.6,210.4c0,3.2-0.3,6.4-0.9,9.6c2-3.2,3.2-7,3.2-11.4
			c-0.3-1.2-2.3-1.2-2.3,0.3C350.9,209.5,350.6,210.1,350.6,210.4z M282.8,197.2c3.2,0.3,6.1,1.8,8.2,4.4c0.9,1.2,1.5,2.6,2,4.1
			c0.9-0.6,2-0.9,3.2-1.2c1.8-0.3,4.1-2.6,5.8-6.1c1.8-2.9,4.4-5,7.9-5.6c4.4-0.6,10.2-10.8,10.2-27.5s-5.8-26.9-10.2-27.5
			c-3.2-0.6-6.1-2.6-7.9-5.6c-2-3.5-4.1-5.8-5.8-6.1c-2.6-0.3-5-1.8-6.4-3.8c-0.6-0.6-0.9-1.2-1.5-1.5c-1.2-0.9-2-2-2.6-3.2
			c-0.9,0.9-1.8,1.5-2.9,1.8c-6.7,2.6-14.3,21-14.3,45.6c0,14.3,2.6,26.6,6.1,35.1C276.4,198.1,279.6,196.9,282.8,197.2z M102.6,118
			c-0.9,0.9-1.8,1.5-2.6,2c-0.9,0.6-2,1.5-2.9,2.6c-1.8,2-4.1,3.2-6.4,3.8c-1.8,0.3-4.1,2.6-5.8,6.1c-1.8,2.9-4.4,5-7.9,5.6
			c-4.4,0.6-10.2,10.8-10.2,27.5s5.8,26.9,10.2,27.5c3.2,0.6,6.1,2.6,7.9,5.6c2,3.5,4.1,5.8,5.8,6.1c1.2,0.3,2,0.6,3.2,0.9
			c0.3-1.5,0.9-2.6,2-3.8c0.6-0.9,1.2-1.5,2-2l0,0l0,0c0,0,0,0,0.3,0c-3.8-0.6-7.3-3.2-8.8-6.7c-2-5.3-4.7-14.3-4.7-27.2
			c0-12.9,2.6-21.9,4.7-27.2c1.8-4.4,6.1-7,10.8-7c4.7,0.3,8.8,3.5,9.9,8.2c2.3,7.9,3.2,16.7,3.2,26.3s-1.2,18.4-3.2,26
			c-0.6,2.3-2,4.4-3.8,5.8c2.3,0.3,4.7,1.5,6.4,3.2c3.5-8.2,5.8-20.7,5.8-35.1c0-23.7-6.7-40.9-13.1-45
			C104,119.8,103.4,118.9,102.6,118z M123.9,107.8c5,5.6,8.8,13.1,11.4,21.6V87.7C130.6,93.5,126.8,100.5,123.9,107.8z M255.1,88.5
			v30.1c2.6-5.3,5.8-9.9,9.6-13.4C262.4,99.1,259.2,93.5,255.1,88.5z M194.9,22.2c-40.6,0-75.1,27.5-85.6,64.6
			c16.9-30.7,49.7-50.5,85.6-50.5s68.7,19.9,85.6,50.5c-6.1-21.3-20.5-40-40-52l0,0c0,0-0.3,0-0.3-0.3
			C226.4,26.3,211,22.2,194.9,22.2z M165.1,64.6h59.6c-9.3-4.1-19.3-6.1-29.8-6.1S174.4,60.5,165.1,64.6z"/>
	</g>
</g>
<g>
	<g>
		<path fill="#FFFFFF" d="M190.8,267.1c0,0-0.9-32.7-110.4,0.3L29.2,382.5c160.4-48.2,161.6-0.6,161.6-0.6V270V267.1L190.8,267.1z"
			/>
	</g>
	<g>
		<path d="M29.2,389.2c-1.8,0-3.8-0.9-5-2.3c-1.8-2-2-4.7-1.2-7l51.1-115.1c0.9-1.8,2.3-3.2,4.1-3.8c33-9.9,59.9-15.2,79.8-15.2
			c37.7,0,39.4,18.7,39.4,21v115.1c0,3.5-2.9,6.7-6.4,6.7c-3.8,0-6.7-2.9-6.7-6.4l0,0c0,0-2.3-14.6-41.2-14.6
			c-27.2,0-64.9,7.3-111.9,21.3C30.4,388.9,29.8,389.2,29.2,389.2z M85,272.9L40.9,372c41.8-12,76-17.8,101.7-17.8
			c20.5,0,33.3,3.8,41.2,8.5v-95c-0.6-2.3-6.4-8.2-26-8.2C140.2,259.2,115.7,263.8,85,272.9z"/>
	</g>
</g>
<g>
	<g>
		<path fill="#FFFFFF" d="M190.8,267.1c0,0,0.9-32.7,110.4,0.3l51.1,115.1c-160.4-48.2-161.6-0.6-161.6-0.6V270V267.1L190.8,267.1z"
			/>
	</g>
	<g>
		<path d="M352.4,389.2c-0.6,0-1.2,0-2-0.3c-47-14-84.4-21.3-111.9-21.3c-39.2,0-41.2,14.6-41.2,14.9c0,3.5-2.9,6.1-6.7,6.4
			c-3.5,0-6.4-3.2-6.4-6.7V267.1c0-2.3,1.8-21,39.4-21c19.6,0,46.5,5,79.8,15.2c1.8,0.6,3.5,1.8,4.1,3.8l51.1,115.1
			c1.2,2.3,0.6,5.3-1.2,7C356.2,388.3,354.4,389.2,352.4,389.2z M238.7,354.1c25.7,0,59.9,6.1,101.7,17.8l-43.8-99.1
			c-30.7-9.1-54.9-13.7-72.8-13.7c-23.1,0-26,7.9-26,7.9v95.5C205.4,357.9,218.3,354.1,238.7,354.1z"/>
	</g>
</g>
<g>
	<g>
		<path d="M103.4,208.3c-14,0-21.3-21.6-21.3-43s7.3-42.7,21.3-42.7s21.3,21.6,21.3,43S117.5,208.3,103.4,208.3z M103.1,135.9
			c-2,0.6-7.9,10.8-7.9,29.5c0,18.4,5.8,28.6,8.2,29.5c2.3-0.9,8.2-11.1,8.2-29.5C111.3,146.7,105.5,136.4,103.1,135.9z"/>
	</g>
</g>
<g>
	<g>
		<path d="M90.9,215.9c-16.1,0-24.3-25.4-24.3-50.3c0-25.1,8.5-50.3,24.3-50.3c16.1,0,24.3,25.4,24.3,50.3
			C115.4,190.5,106.9,215.9,90.9,215.9z M90.9,128.6c-3.2,0-11.1,12.9-11.1,37.1c0,24,7.9,37.1,11.1,37.1c3.2,0,11.1-12.9,11.1-37.1
			S94.1,128.6,90.9,128.6z"/>
	</g>
</g>
<g>
	<g>
		<path d="M77.1,204.2c-12.6,0-21.6-16.4-21.6-38.6s9.1-38.6,21.6-38.6v13.1c-2,0-8.5,8.8-8.5,25.4s6.4,25.4,8.5,25.4V204.2z"/>
	</g>
</g>
<g>
	<g>
		<path d="M102.3,222.6c-17.8,0-27.2-28.6-27.2-57s9.3-57,27.2-57s27.2,28.6,27.2,57S120.1,222.6,102.3,222.6z M102.3,121.5
			c-5,0-13.7,16.7-13.7,43.8s9.1,43.8,13.7,43.8c5,0,13.7-16.7,13.7-43.8S106.9,121.5,102.3,121.5z"/>
	</g>
</g>
<g>
	<g>
		<g>
			<path d="M282.8,208.3c-14,0-21.3-21.6-21.3-43s7.3-42.7,21.3-42.7c14,0,21.3,21.6,21.3,43S296.9,208.3,282.8,208.3z M282.8,135.9
				c-2,0.6-7.9,10.8-7.9,29.5c0,18.4,5.8,28.6,8.2,29.5c2.3-0.9,8.2-11.1,8.2-29.5C291,146.7,285.2,136.4,282.8,135.9z"/>
		</g>
	</g>
	<g>
		<g>
			<path d="M295.4,215.9c-16.1,0-24.3-25.4-24.3-50.3c0-25.1,8.5-50.3,24.3-50.3c16.1,0,24.3,25.4,24.3,50.3
				S311.5,215.9,295.4,215.9z M295.4,128.6c-3.2,0-11.1,12.9-11.1,37.1c0,24,7.9,37.1,11.1,37.1c3.2,0,11.1-12.9,11.1-37.1
				S298.6,128.6,295.4,128.6z"/>
		</g>
	</g>
	<g>
		<g>
			<path d="M309.1,204.2v-13.1c2,0,8.5-8.8,8.5-25.4s-6.4-25.4-8.5-25.4v-13.1c12.6,0,21.6,16.4,21.6,38.6S321.7,204.2,309.1,204.2z
				"/>
		</g>
	</g>
	<g>
		<g>
			<path d="M284,222.6c-17.8,0-27.2-28.6-27.2-57s9.3-57,27.2-57c17.8,0,27.2,28.6,27.2,57S301.8,222.6,284,222.6z M284,121.5
				c-5,0-13.7,16.7-13.7,43.8s9.1,43.8,13.7,43.8c4.7,0,13.7-16.7,13.7-43.8S289,121.5,284,121.5z"/>
		</g>
	</g>
	<g>
		<g>
			<path fill="#FFFFFF" d="M307.4,217.7l-3.2-2.9c8.5-9.1,14-28.3,14-49.1c0-20.2-5.3-38.6-13.4-48.2l3.2-2.9
				c9.1,10.2,14.3,29.8,14.3,51.1C322.6,187.6,316.7,207.5,307.4,217.7z"/>
		</g>
	</g>
</g>
<g>
	<g>
		<path fill="#FFFFFF" d="M78.9,217.7c-9.3-10.2-15.2-30.1-15.2-52c0-23.7,6.7-44.7,17.2-54.1l2.9,3.2c-9.3,8.2-15.8,28.6-15.8,50.5
			c0,20.5,5.6,39.7,14,49.1L78.9,217.7z"/>
	</g>
</g>
<g>
	<g>
		<rect x="166" y="93.8" fill="#67C9D0" width="72.8" height="135.9"/>
	</g>
</g>
<g>
	<g>
		<path d="M237.5,239.6h-84.4c-3.8,0-6.7-2.9-6.7-6.7V82.1c0-3.8,2.9-6.7,6.7-6.7h84.4c3.8,0,6.7,2.9,6.7,6.7v150.8
			C244.3,236.7,241.1,239.6,237.5,239.6z M159.5,226.4h71.3V88.8h-71.3V226.4z"/>
	</g>
</g>
<g>
	<g>
		<path d="M195.2,218.3c-7.6,0-13.7-6.1-13.7-13.7c0-7.6,6.1-13.7,13.7-13.7s13.7,6.1,13.7,13.7
			C208.9,212.1,202.8,218.3,195.2,218.3z"/>
	</g>
</g>
<g>
	<g>
		<polygon points="166.8,104.6 205.4,136.2 191.7,138.2 223.5,171.2 175.9,137.9 188.5,132.9 		"/>
	</g>
	<g>
		<path d="M223.5,173.6c-0.6,0-0.9,0-1.2-0.3l-47.6-33.6c-0.6-0.6-1.2-1.2-0.9-2c0-0.9,0.6-1.5,1.5-1.8l9.9-4.1l-19.6-26
			c-0.6-0.9-0.6-2,0.3-2.9c0.9-0.9,2-0.9,2.9,0l38,31.6c0.6,0.6,0.9,1.5,0.9,2.3c-0.3,0.9-0.9,1.5-1.8,1.5l-9.3,1.5l28.9,29.8
			c0.9,0.9,0.9,2,0,2.9C225,173.3,224.1,173.6,223.5,173.6z M180.6,138.5l25.7,18.1L190.2,140c-0.6-0.6-0.9-1.5-0.6-2.3
			c0.3-0.9,0.9-1.5,1.8-1.5l8.8-1.5L180,118.3l9.9,13.1c0.3,0.6,0.6,1.2,0.3,2c-0.3,0.9-0.6,1.2-1.2,1.5L180.6,138.5z"/>
	</g>
</g>
<g>
	<g>
		<path d="M313.2,253c-18.7-7-31.3-24.8-31.3-44.7h13.1c0,14.3,9.1,27.5,22.5,32.4L313.2,253z"/>
	</g>
</g>
<g>
	<g>
		<path d="M377.5,209.2h-13.1c0-6.7-5.6-12.3-12.3-12.3c-6.7,0-12.3,5.6-12.3,12.3h-13.1c0-14,11.4-25.4,25.4-25.4
			C366.1,183.5,377.5,195.2,377.5,209.2z"/>
	</g>
</g>
<g>
	<g>
		<g>
			<path d="M319.6,241.1c-0.6-0.3-1.2-0.3-1.8-0.6l-1.8,4.7C317.3,244,318.5,242.5,319.6,241.1z"/>
		</g>
	</g>
	<g>
		<g>
			<path d="M364.4,208.3c0,17.2-12.9,31.6-29.2,33.9c-2.9,5-6.4,9.3-10.5,13.4c1.8,0.3,3.5,0.3,5.3,0.3c26.3,0,47.6-21.3,47.6-47.6
				H364.4z"/>
		</g>
	</g>
</g>
<g>
	<g>
		<path d="M272.6,275.2c-26.6,0-50.5-15.8-61.4-40l12.3-5.3c8.5,19.6,28,32.1,49.4,32.1c29.8,0,53.8-24.3,53.8-53.8h13.1
			C339.8,245.1,309.7,275.2,272.6,275.2z"/>
	</g>
</g>
<g>
	<g>
		<g>
			<polygon fill="#FFFFFF" points="170.3,16.7 123.3,43.5 107.5,70.1 105.8,98.2 128,66.6 174.1,41.8 226.2,44.1 267.9,71.6 
				283.4,81.5 260.9,44.1 214.8,19.3 			"/>
		</g>
	</g>
	<g>
		<g>
			<g>
				<path fill="#8E8672" d="M272.6,64.9c0.6,0.6,1.2,0.9,1.5,1.2c-0.3-2-0.3-4.4,0-6.4c-2.3-1.8-4.1-4.1-5.3-6.7
					c-1.8-0.6-3.5-1.5-4.7-2.6l-7.6-10.8c0-0.3-0.3-0.9-0.3-1.2c-5.3-2.9-8.5-7.9-9.9-13.4c-11.1-4.7-23.4-7.6-36.2-7.6
					c-36.8,0-68.4,21.3-83.9,52c2.6-1.8,5.8-2.6,9.3-2.9c1.8-9.1,8.8-16.9,21-16.9c2,0,3.8,0.3,5.3,0.6c3.5-3.8,8.8-6.4,15.5-6.4
					c2,0,3.8,0.3,5.6,0.6c8.5-2.6,17.5-4.1,26.9-4.1c11.1,0,21.9,2,31.8,5.8l-4.4,2l30.7,23.4l10.2,4.4L272.6,64.9z"/>
			</g>
		</g>
		<g>
			<g>
				<path d="M288.4,140.8c-3.8,0-6.7-2.9-6.7-6.7c0-47.9-38.9-86.8-86.8-86.8s-86.8,38.9-86.8,86.8c0,3.8-2.9,6.7-6.7,6.7
					s-6.7-2.9-6.7-6.7v-22.8c0-55.2,45-100.2,100.2-100.2s100.2,45,100.2,100.2v22.8C295.1,137.9,292.2,140.8,288.4,140.8z
					 M194.9,33.9c30.1,0,57.3,13.4,75.7,34.5c-14.9-26.3-43.2-44.1-75.7-44.1s-60.8,17.8-75.7,44.4
					C137.6,47.3,164.8,33.9,194.9,33.9z"/>
			</g>
		</g>
	</g>
</g>
</svg>
