<?xml version="1.0" encoding="utf-8"?>
<!-- Generator: Adobe Illustrator 18.1.1, SVG Export Plug-In . SVG Version: 6.00 Build 0)  -->
<svg version="1.1" id="Layer_1" xmlns="http://www.w3.org/2000/svg" xmlns:xlink="http://www.w3.org/1999/xlink" x="0px" y="0px"
	 viewBox="0 0 400 400" enable-background="new 0 0 400 400" xml:space="preserve">
<g>
	<g>
		<g>
			<path d="M195.2,368.6c-96.1,0-174.4-78.2-174.4-174.4C20.8,97.9,99,19.6,195.2,19.6S369.5,97.9,369.5,194
				C369.5,290.4,291.3,368.6,195.2,368.6z M195.2,41.9c-83.8,0-152.1,68.3-152.1,152.1s68.3,152.1,152.1,152.1
				S347.3,277.8,347.3,194C347.5,110.2,279.3,41.9,195.2,41.9z"/>
		</g>
	</g>
	<g>
		<g>
			<path fill="#FFFFFF" d="M313.3,264.3c-0.9-1.8-2.3-3.2-4.1-3.8c-1.2-0.3-2.1-0.6-3.2-0.9c9.4-9.1,17.3-20.2,23.7-33.4h10
				c18.2,0,33.1-17,33.1-37.5c0-18.5-11.7-33.7-27-36.9c0-0.9,0-1.5,0-2.3c0-20.8-44-30.5-87-31.4c7.3-19.9,11.1-42.5,11.7-66.2
				c0.6-1.8,1.2-3.5,1.2-5.6c-0.3-24.3-54.8-35.2-105.5-35.2S61,22,61,46c0,1.2,0,2.3,0,3.5c-16.7,3.2-29.6,19.6-29.6,39.9
				c0,22.3,15.8,40.4,35.5,40.4h10.8c18.2,40.1,49.5,65.9,87,66.5c1.5,5.6,2.9,11.1,5,16.4c4.4,11.7,10,22.3,16.4,31.4
				c-5.6-1.8-12.9-3.2-22.6-3.2c-19.6,0-46.6,5-80,15.2c-1.8,0.6-3.5,1.8-4.1,3.8L28.1,375.1c-1.2,2.3-0.6,5.3,1.2,7
				c1.2,1.5,3.2,2.3,5,2.3c0.6,0,1.2,0,2.1-0.3c47.2-14.1,84.7-21.4,112.2-21.4c39.3,0,41.3,14.7,41.3,14.7l0,0c0,0.3,0,0.6,0,0.9
				v3.5c0,3.5,2.9,6.7,6.4,6.7l0,0c3.5,0,6.4-2.9,6.7-6.4c0-0.3,2.9-14.7,41.3-14.7c27.3,0,65.1,7.3,112.2,21.4
				c0.6,0.3,1.2,0.3,2.1,0.3c1.8,0,3.8-0.9,5-2.3c1.8-2.1,2.1-4.7,1.2-7L313.3,264.3z M345.2,165.3c8.2,2.9,14.1,12.3,14.1,23.2
				c0,13.5-8.8,24.3-19.6,24.3h-4.4C340.5,198.4,343.7,182.3,345.2,165.3z"/>
		</g>
		<g>
			<path fill="#FFFFFF" d="M358.4,400c-1.8,0-3.5-0.3-5-0.9c-46-13.8-82.6-20.8-109-20.8c-22.3,0-29,5.3-30.5,6.7
				c-1.5,8.2-8.8,14.4-17.6,14.4c-10,0-17.9-8.2-17.9-17.9v-1.5c-1.8-1.8-8.8-6.4-30.5-6.4c-26.1,0-62.7,7-109,20.8
				c-6.7,2.1-14.1,0-18.5-5.3c-4.7-5.3-5.9-12.6-2.9-19l51.6-114.9c2.1-4.7,6.2-8.2,11.1-9.7c35.2-10.5,63.6-15.8,84.7-15.5
				c-2.1-4.4-4.1-8.8-5.6-13.2c-1.2-2.9-2.1-6.2-3.2-9.7c-35.5-4.1-66.2-27.5-85.6-66.5h-3.8c-25.8,0-46.6-23.2-46.6-51.3
				c0-21.7,12-40.7,29.9-48.1C57.1,2.1,147.4,0,166.2,0c19.3,0,116.3,2.3,116.3,46c0,2.3-0.3,5-1.2,7.3c-0.6,18.8-3.2,36.9-7.9,53.9
				c28.7,2.1,76.5,9.4,82.6,36c16.4,7.3,27.5,24.9,27.5,45.1c0,27-19.9,48.6-44.2,48.6h-3.2c-4.1,7.6-8.8,14.4-13.8,20.8
				c0.3,0.6,0.6,1.2,0.9,1.8l51.3,115.2c2.9,6.4,1.8,13.8-2.9,19C368.4,397.7,363.7,400,358.4,400z M244.4,356
				c26.4,0,62.1,6.4,106.1,19l-46.6-104.6l-19.6-5.9l13.8-13.2c8.5-7.9,15.5-18.2,21.4-30.2l2.9-5.9l2.3-6.4
				c5-13.8,8.2-28.7,9.4-44.5l0.6-6.4v-8.8c0-6.7-25.5-19.3-76.2-20.5l-15.5-0.3l5.3-14.7c6.7-18.5,10.5-40.1,11.1-62.7v-1.8
				l0.6-1.8c0.3-0.6,0.3-1.2,0.3-1.5c0-10-35.8-24-94.1-24S72.1,35.8,72.1,46v12.6L63,60.4C51.3,62.7,42.5,75,42.5,89.1
				c0,16.1,10.8,29.3,24.3,29.3h17.9l2.9,6.4c17,38.1,45.1,59.8,77.4,60.4h8.5l2.1,8.2c1.5,5.9,2.9,10.8,4.7,15.5
				c3.8,10.5,8.8,20.2,14.9,28.7l19.9,28.1l-32.5-11.1c-5-1.8-11.4-2.6-19-2.6c-18.2,0-43.4,4.7-74.7,14.1L42.2,370.7
				c44-12.6,79.4-19,106.1-19c29,0,41.9,7.9,47.8,14.7h4.1v1.2C207.2,361.6,220.4,356,244.4,356z"/>
		</g>
	</g>
	<g>
		<g>
			<path fill="#FFFFFF" d="M195.2,262c0,0-0.9-32.8-110.8,0.3L33.1,377.7c160.9-48.4,162.1-0.6,162.1-0.6V264.9V262z"/>
		</g>
		<g>
			<path d="M33.1,384.5c-1.8,0-3.8-0.9-5-2.3c-1.8-2.1-2.1-4.7-1.2-7l51.3-115.5c0.9-1.8,2.3-3.2,4.1-3.8
				c33.4-9.7,60.1-14.9,80-14.9c37.8,0,39.6,18.8,39.6,21.1v115.5c0,3.5-2.9,6.7-6.4,6.7l0,0c-3.5,0-6.4-2.9-6.7-6.4l0,0
				c0,0-2.3-14.7-41.3-14.7c-27.3,0-65.1,7.3-112.2,21.4C34.3,384.5,33.7,384.5,33.1,384.5z M89.1,267.8l-44,99.6
				c41.9-12,76.2-17.9,102-17.9c20.5,0,33.4,3.8,41.3,8.5v-95.5c-0.6-2.3-6.4-8.2-26.1-8.2C144.5,254.4,119.9,258.8,89.1,267.8z"/>
		</g>
	</g>
	<g>
		<g>
			<path fill="#FFFFFF" d="M290.1,262.3c5,1.5,10.3,2.9,15.8,4.7l51.3,115.5c-160.9-48.4-162.1-0.6-162.1-0.6V269.3v-2.9
				c0,0,0-5.3,7.6-9.7"/>
		</g>
		<g>
			<path d="M357.5,388.9c-0.6,0-1.2,0-2.1-0.3c-102.6-30.8-136.8-21.7-148.3-13.5c-4.7,3.5-5.3,6.7-5.3,6.7c0,3.5-3.2,6.4-6.7,6.4
				c-3.5,0-6.4-2.9-6.4-6.7V266.7c0-1.2,0.6-9.4,10.8-15.2l6.4,11.7c-3.2,1.8-4.1,3.8-4.1,4.1v95.5c23.2-14.1,72.4-10.8,143.6,9.1
				l-44.2-99.3c-4.4-1.5-8.8-2.6-12.9-3.5l3.5-12.9c5,1.5,10.5,2.9,16.1,4.7c1.8,0.6,3.5,1.8,4.1,3.8l51.3,115.5
				c1.2,2.3,0.6,5.3-1.2,7C361,388,359.3,388.9,357.5,388.9z"/>
		</g>
	</g>
	<g>
		<g>
			<path fill="none" stroke="#000000" stroke-width="3" stroke-linejoin="round" stroke-miterlimit="10" d="M59.2,104.6"/>
		</g>
	</g>
	<g>
		<g>
			<path fill="#8E8672" d="M340.2,166.2c-0.3,0-0.9,0-1.2,0c-1.8,0-3.2-0.3-5-0.6c-2.9,1.5-6.4,2.6-10.5,2.6c-3.8,0-6.7-0.9-9.7-2.1
				c-2.6,1.5-5.9,2.6-9.4,2.9v22.9l-22.3-8.8l-18.5-9.4c-1.2,0.6-2.6,0.9-4.1,1.2c-0.6,1.8-1.5,3.5-2.3,5.3l-14.9-1.2l-23.2-2.3
				c-0.9-2.3-1.5-4.7-1.5-7c-0.6,0-0.9,0-1.5,0c-5.6,0-10.3-1.8-13.8-4.7c-3.5,2.9-7.9,4.7-13.8,4.7c-2.1,0-3.8-0.3-5.6-0.6
				c5.9,60.4,38.4,102.6,79.1,106.7c3.5-3.8,8.8-6.4,15.5-6.4c1.2,0,2.3,0,3.5,0.3c2.6-4.7,6.7-8.5,12.9-10c2.6-3.8,6.7-7,12-8.2
				c1.8-5.3,5.3-10,10.5-12.6c1.8-5,5.3-9.7,10.5-12c0.3-5.3,2.3-10.3,5.9-14.1c0.3-2.1,0.9-4.1,1.8-6.2c-2.1-7-1.2-15.2,2.9-21.1
				C336.7,178.8,337.3,171.7,340.2,166.2z"/>
		</g>
	</g>
	<g>
		<g>
			<path fill="#8E8672" d="M264,77.1c-1.8-5-1.8-10.5-0.3-15.5c-3.2,1.5-7,2.3-11.7,2.3c-4.4,0-8.2-0.9-11.7-2.6
				c-3.2,2.1-7,3.2-11.4,3.5v7.6l-34,5.6l-7-3.8c-1.5,0.3-2.9,0.3-4.4,0.3c-1.8,0-3.5-0.3-5-0.6c-1.8,1.5-4.1,2.3-6.4,3.2v0.3h-0.6
				c-1.8,0.3-3.5,0.6-5.6,0.6c-1.5,0-2.9-0.3-4.4-0.3c-2.9,1.8-6.4,2.6-10.8,2.6c-3.5,0-6.7-0.6-9.4-2.1c-1.8,1.2-4.1,2.3-6.4,2.9
				V85l-29,12.6v-8.2l5.3-16.7c-0.3-0.3-0.3-0.6-0.6-0.6c-1.8,0.3-3.5,0.6-5.6,0.6c-6.2,0-10.8-2.1-14.4-5.3
				c-2.9-0.6-5.3-1.8-7.6-3.2h-0.3c5.9,62.7,35.8,109,75,124.2c2.3-1.2,5-1.8,7.9-2.1c-0.9-7,1.2-14.7,6.2-19.6
				c-8.5-4.7-13.8-10.3-13.8-17.6c0-21.4,47.5-31.4,92.3-31.6c1.5-1.5,3.2-2.9,5.3-4.1c0-6.2,2.3-12.6,7-16.7
				C260.2,90.5,260.8,82.9,264,77.1z"/>
		</g>
	</g>
	<g>
		<g>
			<path d="M159.1,170.5c-0.6-7-1.2-14.1-1.2-21.4h13.2c0,6.7,0.3,13.5,0.9,20.2L159.1,170.5z"/>
		</g>
	</g>
	<g>
		<g>
			<path d="M168.5,212.7c-4.7-12.9-7.9-27.3-9.7-42.2l13.2-1.5c1.5,13.8,4.4,27,8.8,39L168.5,212.7z"/>
		</g>
	</g>
	<g>
		<g>
			<path d="M251.1,281.8c-35.5,0-67.1-26.4-82.6-69.2l12.6-4.7c13.8,37.8,39.9,60.4,70,60.4c45.7,0,80-51.3,80-119.6h13.2
				C344.3,224.6,304.2,281.8,251.1,281.8z"/>
		</g>
	</g>
	<g>
		<g>
			<path d="M338.5,225.9h-16.1v-13.2h16.1c10.8,0,19.6-10.8,19.6-24.3c0-13.5-8.8-24.3-19.6-24.3v-13.2c18.2,0,33.1,17,33.1,37.5
				C371.6,209.2,356.6,225.9,338.5,225.9z"/>
		</g>
	</g>
	<g>
		<g>
			<path fill="#67C9D0" d="M326.7,161.8c2.6,0,5,0.3,7,0.9c0.6-0.3,1.2-0.9,1.8-1.2c1.5-4.7,4.4-8.8,8.8-11.4
				c-0.3-0.6-0.3-0.9-0.6-1.5c-2.6-2.1-4.4-4.7-5.9-7.6c-4.4-2.1-7.6-5.6-9.4-9.4c-15.5-4.4-36.9-7-60.7-7
				c-47.8,0-86.7,11.1-86.7,24.9c0,13.8,38.7,24.9,86.7,24.9c0.9,0,2.1,0,2.9,0l0,0l34.6,14.4C303.3,176.1,310.3,161.8,326.7,161.8z
				"/>
		</g>
	</g>
	<g>
		<g>
			<path d="M310,203.7c-0.9,0-1.8-0.3-2.6-0.6l-54.5-22.3c-0.6,0-1.2,0-1.8,0c-44.8,0-93.2-10-93.2-31.6c0-21.7,48.4-31.6,93.2-31.6
				s93.5,10,93.5,31.6c0,14.1-19.3,21.7-38.4,26.1l9.7,18.8c1.2,2.3,0.9,5.6-1.2,7.6C313.6,202.8,311.8,203.7,310,203.7z
				 M257.6,168.2L296,184l-5.3-10.5c-0.9-1.8-0.9-4.1,0-6.2c0.9-1.8,2.6-3.2,4.7-3.5c27.5-4.7,36-12.3,36-14.7
				c0-5.6-27.3-18.2-80-18.2s-80,12.9-80,18.2c0,5.6,27.3,18.2,80,18.2h2.9C255.5,167.3,256.4,167.6,257.6,168.2z"/>
		</g>
	</g>
	<g>
		<g>
			<path d="M165,196.3c-60.1,0-105.2-64.5-105.2-150.3H73c0,77.9,39.6,136.8,92,136.8L165,196.3L165,196.3z"/>
		</g>
	</g>
	<g>
		<g>
			<path d="M83.2,129.5H65.6c-19.6,0-35.5-18.2-35.5-40.4S46,48.6,65.6,48.6v13.2c-12.3,0-22,12-22,27c0,14.9,10,27,22,27h17.6
				V129.5z"/>
		</g>
	</g>
	<g>
		<g>
			<path fill="#67C9D0" d="M252,28.7c-5-2.1-10-3.8-14.7-5.9c-15.8-3.2-34.9-5-55.4-5c-54.5,0-98.8,12.6-98.8,28.4
				c0,10.3,19,19,47.5,24l0,0l-10.3,19.9c2.9-1.5,6.2-2.1,10-2.1s7,0.9,9.7,2.1l38.4-15.8l0,0c1.2,0,2.3,0,3.5,0
				c19.9,0,38.7-1.8,54.2-4.7c2.9-4.4,7.3-7.9,12.6-9.7c4.1-1.5,8.5-2.3,12.6-3.8c0.3,0,0.6-0.3,0.9-0.3c1.2-2.1,2.3-4.1,3.5-5.9
				C262.3,41.6,260.8,32.5,252,28.7z"/>
		</g>
	</g>
	<g>
		<g>
			<path d="M98.2,107.3c-1.8,0-3.5-0.9-5-2.1c-1.8-2.1-2.3-5-1.2-7.6l11.4-22.3c-19.3-4.4-44-12.9-44-29c0-24,54.5-34.9,105.2-34.9
				s105.2,10.8,105.2,34.9s-54.5,34.9-105.2,34.9h-2.1l-62.1,25.5C99.9,107,99,107.3,98.2,107.3z M165,24.3c-59.5,0-92,14.4-92,21.7
				c0,3.2,10.3,12,41.9,17.6c2.1,0.3,3.8,1.8,4.7,3.5c0.9,1.8,0.9,4.1,0,5.9l-7.3,14.4l46-19c0.9-0.6,2.1-0.6,3.2-0.9h3.5
				c59.5,0,92-14.4,92-21.7C257,38.7,224.5,24.3,165,24.3z"/>
		</g>
	</g>
	<g>
		<g>
			<polygon points="164.1,196.3 164.1,183.2 164.7,183.2 165.3,196.3 			"/>
		</g>
	</g>
	<g>
		<g>
			<path d="M254.1,126.6l-12.3-5.3c7.9-18.2,13.2-44.8,14.1-70.9L269,51C268.1,78.5,262.6,107,254.1,126.6z"/>
		</g>
	</g>
</g>
</svg>
