<?xml version="1.0" encoding="utf-8"?>
<!-- Generator: Adobe Illustrator 18.1.1, SVG Export Plug-In . SVG Version: 6.00 Build 0)  -->
<svg version="1.1" id="Layer_1" xmlns="http://www.w3.org/2000/svg" xmlns:xlink="http://www.w3.org/1999/xlink" x="0px" y="0px"
	 viewBox="0 0 400 400" enable-background="new 0 0 400 400" xml:space="preserve">
<g>
	<g>
		<path d="M203.6,372.7c-97.2,0-176.3-79.1-176.3-176.3S106.4,20.1,203.6,20.1s176.3,79.1,176.3,176.3S300.7,372.7,203.6,372.7z
			 M203.6,42.4c-84.7,0-153.8,69-153.8,153.8s69,153.8,153.8,153.8s153.8-69,153.8-153.8S288.3,42.4,203.6,42.4z"/>
	</g>
</g>
<g>
	<g>
		<g>
			<path fill="#FFFFFF" d="M374.5,379.3L329.2,277l38.5-112.6l0,0c0-0.3,0-0.6,0-0.9c0-0.3,0-0.6,0-0.9l0,0l-5.6-44.1
				c-0.3-1.8-1.5-3.3-3-3.6c-1.5-0.6-3.3,0-4.7,1.2l-16,16l0,0L323,147.6l0,0c-0.3,0.3-0.3,0.3-0.3,0.6c-0.3,0.3-0.3,0.6-0.6,0.9
				l0,0l-35,101.6c-3.3-0.9-6.8-1.5-9.8-2.1c15.1-20.1,29-49.2,29.3-73.8c0-26.4-10.4-49.5-29.3-64.9c-9.2-7.7-19-11.3-30.5-11.3
				c-7.4,0-14.8,1.5-21.9,3c-5,1.2-10.4,2.1-15.7,2.7c-1.5-17.5-16.3-31.4-34.1-31.4c-3.9,0-6.8,3-6.8,6.8c0,3.9,3,6.8,6.8,6.8
				c10.4,0,19,8,20.4,18.1c-5.3-0.6-10.7-1.5-16-2.7c-7.1-1.5-14.5-3-21.9-3c-11.6,0-21,3.6-30.5,11.3c-20.7,17.2-29.6,44.4-29.3,64
				c0,24.3,11,52.7,28.7,75.9c-3.3,0.9-6.8,1.5-10.4,2.4L70.5,117.6c-0.3-1.2-1.2-2.1-2.4-2.7c-1.2-0.6-2.4-0.6-3.6-0.3l-36.7,12.7
				c-2.4,0.9-3.6,3.3-3,5.6l51.3,151.1l-42.1,95.1c-1.2,2.4-0.6,5.3,1.2,7.1c1.2,1.5,3.3,2.4,5,2.4c0.6,0,1.2,0,2.1-0.3
				c101.9-30.8,137.2-22.2,149-14.2c5.6,3.9,6.2,7.4,6.2,7.4l0,0c0,2.1,0.9,3.9,2.4,5c1.2,0.9,2.7,1.5,4.1,1.8
				c3.9,0,6.8-2.7,6.8-6.5c0-0.3,0.6-3.9,6.2-7.7c11.9-7.7,47.1-16.3,149,14.2c0.6,0.3,1.2,0.3,2.1,0.3c1.8,0,3.9-0.9,5-2.4
				C375.1,384.6,375.4,381.6,374.5,379.3z"/>
		</g>
		<g>
			<path fill="#FFFFFF" d="M368.3,400c-1.8,0-3.6-0.3-5.3-0.9c-46.8-13.9-83.9-21.3-110.2-21.3c-18.4,0-26.4,3.6-29.3,5.6
				c-0.6,0.6-1.2,0.9-1.5,1.2c-1.5,8.6-8.6,14.8-17.8,14.8c-4.4,0-8.6-1.5-11.6-4.4c-0.9-0.6-1.8-1.5-2.4-2.4h-1.8l-1.2-5.3
				c-0.3-0.9-0.6-1.8-0.6-2.7c-0.3-0.3-0.6-0.6-1.5-1.2c-3.3-2.1-11.3-5.6-29.3-5.6c-26.4,0-63.4,7.1-110.2,21.3
				c-6.5,2.1-14.2,0-18.7-5.3c-4.7-5.3-5.9-12.7-3-19.3l40.6-91l-50.1-147c-2.7-8.3,1.8-17.2,9.8-19.9l37-12.4
				c4.1-1.5,8.3-0.9,11.9,0.9c3.9,1.8,6.5,5,8,9.2l10.4,30.2c5-16,14.5-32,28.7-43.9c11.6-9.5,24.3-13.9,38.8-13.6
				c-1.2-2.4-1.8-5-1.8-8c0-9.8,8-18.1,18.1-18.1c19.3,0,36.4,12.4,42.7,29.9c1.5-0.3,3.3-0.6,5-0.9c7.4-1.5,15.7-3.3,24-3.3
				c13.9,0,26.4,4.4,37.6,13.9c13.3,11,22.8,25.2,28.4,41.5c0-0.3,0.3-0.3,0.3-0.3s0.3-0.3,0.3-0.6l0.9-1.2l1.2-0.9l30.8-30.8
				c4.1-4.1,10.7-5.6,16.3-3.9c5.6,2.1,9.8,6.8,10.4,12.7l5.9,45.3l-0.3,1.2c0,0.3,0,0.6,0,0.6s0,0.3,0,0.9v0.3l-0.6,2.4l-37,108.4
				l43.6,98.1c3,6.2,1.8,13.9-3,19.3C378.4,397.6,373.3,400,368.3,400z M200,381v0.3h8.9c0-0.9-0.3-1.5-0.6-2.1L200,381z M253,355.6
				c26.7,0,62.8,6.5,107.3,19.3L317,277.3l39.4-115v-0.3v-0.3l-3.6-28.4l-20.4,20.4l-37.9,109.9l-9.8-2.4c-3.3-0.9-6.5-1.5-9.5-2.1
				l-17.2-3.6l10.4-14.2c16.3-21.9,27-48.3,27.3-67.3c0-22.8-8.9-42.7-25.2-56.3c-7.4-5.9-14.5-8.6-23.4-8.6
				c-6.2,0-12.7,1.2-19.6,2.7c-5.6,1.2-11.3,2.4-16.9,3l-1.8,0.3l0.3,1.2l-6.2-0.6l-3.6,0.3v-0.6l-4.4-0.3c-5.9-0.6-11.3-1.8-17.2-3
				c-6.5-1.5-13.3-2.7-19.6-2.7c-8.9,0-16,2.7-23.4,8.6c-17.8,14.5-25.5,38.8-25.5,55.1c0,21.3,10.1,48,26.4,69l10.7,13.9l-17.2,3.9
				c-3.3,0.6-6.8,1.5-10.1,2.4l-10.1,2.4L62.2,127.7L37.9,136l50.7,149l-40,90.1c75.3-21.6,126.2-25.2,149-10.1
				c3,2.1,5.3,4.1,6.8,6.2c1.5-2.1,3.9-4.1,6.8-6.2C220.4,358.5,234.7,355.6,253,355.6z"/>
		</g>
	</g>
	<g>
		<g>
			<path fill="#FFFFFF" d="M195.3,72.6c0.9,0.6,21.3,11.6,46.8,11.6l0,0c23.1,0,54.5-9.5,73.8-54.5c1.5-3.3,0-7.1-3.3-8.6
				c-0.9-0.3-20.7-10.1-45.3-10.1c-9.5,0-18.4,1.5-26.4,4.1c-21.3,7.4-37.6,23.7-48.6,48.6C190.8,67.3,192.3,70.8,195.3,72.6z"/>
		</g>
		<g>
			<path fill="#FFFFFF" d="M241.8,95.4c-27.6,0-49.8-11.6-52.1-13c-8-4.4-11.6-14.2-7.7-22.8C194.1,31.4,212.4,13,237,4.7
				c9.5-3.3,19.6-4.7,30.2-4.7c27.3,0,49.2,10.7,50.1,11c8.6,4.1,12.4,14.5,8.6,23.1C316.1,57.2,292.1,95.4,241.8,95.4z M204.4,64.6
				c6.5,3,21,8.6,37.6,8.6c27.3,0,48-14.5,61.6-43.6c-6.5-2.7-20.4-7.1-36.4-7.1c-8,0-15.7,1.2-22.8,3.6
				C227.3,32,213.6,44.7,204.4,64.6z"/>
		</g>
	</g>
</g>
<g>
	<g>
		<g>
			<path fill="#8E8672" d="M120.6,278.8c-2.1-5.9-1.5-11,0.9-15.1c-5.6-4.4-8.3-11.3-8.3-18.4c-2.4-2.4-3.9-5.3-4.7-8.6
				c-2.4-3.9-3.6-8.6-3.6-13.3c-0.6-1.5-1.2-3.3-1.2-5c-2.7-3.3-4.4-7.7-5-11.9c-1.8-3-2.7-6.2-3-9.5c-2.4-3.3-3.6-7.4-3.9-11.6
				c-0.6-1.5-1.2-2.7-1.5-4.1c-4.1-4.7-5.9-11.6-5.3-17.8c-2.4-3.3-3.9-7.1-4.4-11c-10.4-4.1-14.5-16-12.4-26.4L43,134.8
				c-2.4,0.9-3.6,3.3-2.7,5.6l51.9,152.3C101,287.1,110.5,282.7,120.6,278.8z"/>
		</g>
	</g>
	<g>
		<g>
			<path fill="#8E8672" d="M365.9,153.5c-5-6.2-6.5-15.4-3.9-23.1l-8.9,8.9l0,0l-15.4,15.4l0,0c-0.3,0.3-0.3,0.6-0.6,0.6
				c-0.3,0.3-0.3,0.6-0.6,0.9l0,0l-50.1,146.7c11-3.9,22.5-5.9,33.8-3.9c0-2.1,0.3-4.4,0.6-6.5c-1.8-7.1-0.6-15.4,4.1-21
				c0.9-5.9,3.9-11.6,8.6-15.1c0.3-1.5,0.9-3,1.5-4.1c-1.2-7.1,0.6-14.8,5.3-20.1c0.6-3.9,1.8-7.7,4.1-10.7
				c-1.5-8.3,1.2-17.2,7.7-22.5c-0.3-6.5,2.1-12.7,6.5-17.2c0.6-1.8,1.2-3.3,2.1-4.7c0.6-4.4,2.4-8.9,5.3-12.4
				C365.9,160.6,365.6,157,365.9,153.5z"/>
		</g>
	</g>
</g>
<g>
	<g>
		<g>
			<path d="M41.2,156.4c-2.7,0-5.3-1.8-6.5-4.4c-1.2-3.6,0.6-7.4,4.1-8.6l12.7-4.1c3.6-1.2,7.4,0.6,8.6,4.1c1.2,3.6-0.6,7.4-4.1,8.6
				l-12.7,4.1C42.7,156.4,42.1,156.4,41.2,156.4z"/>
		</g>
	</g>
	<g>
		<g>
			<path d="M43.3,168.6c-1.8,0-3.6-1.2-4.1-3c-0.9-2.4,0.6-5,2.7-5.6l8.6-3c2.4-0.9,5,0.6,5.6,2.7c0.9,2.4-0.6,5-2.7,5.6l-8.6,3
				C44.1,168.6,43.9,168.6,43.3,168.6z"/>
		</g>
	</g>
	<g>
		<g>
			<path d="M47.1,179.9c-1.8,0-3.6-1.2-4.1-3c-0.9-2.4,0.6-5,2.7-5.6l8.6-3c2.4-0.9,5,0.6,5.6,2.7c0.9,2.4-0.6,5-2.7,5.6l-8.6,3
				C48,179.9,47.7,179.9,47.1,179.9z"/>
		</g>
	</g>
	<g>
		<g>
			<path d="M56,206.5c-1.8,0-3.6-1.2-4.1-3c-0.9-2.4,0.6-5,2.7-5.6l8.6-3c2.4-0.9,5,0.6,5.6,2.7c0.9,2.4-0.6,5-2.7,5.6l-8.6,3
				C57.2,206.2,56.6,206.5,56,206.5z"/>
		</g>
	</g>
	<g>
		<g>
			<path d="M59.9,217.8c-1.8,0-3.6-1.2-4.1-3c-0.9-2.4,0.6-5,2.7-5.6l8.6-3c2.4-0.9,5,0.6,5.6,2.7c0.6,2.1-0.6,5-2.7,5.6l-8.6,3
				C61,217.5,60.4,217.8,59.9,217.8z"/>
		</g>
	</g>
	<g>
		<g>
			<path d="M69,244.1c-1.8,0-3.6-1.2-4.1-3c-0.9-2.4,0.6-5,2.7-5.6l8.6-3c2.4-0.9,5,0.6,5.6,2.7c0.9,2.4-0.6,5-2.7,5.6l-8.6,3
				C69.9,244.1,69.3,244.1,69,244.1z"/>
		</g>
	</g>
	<g>
		<g>
			<path d="M72.9,255.4c-1.8,0-3.6-1.2-4.1-3c-0.9-2.4,0.6-5,2.7-5.6l8.6-3c2.4-0.9,5,0.6,5.6,2.7c0.9,2.4-0.6,5-2.7,5.6l-8.6,3
				C73.8,255.4,73.2,255.4,72.9,255.4z"/>
		</g>
	</g>
	<g>
		<g>
			<path d="M81.8,282.1c-1.8,0-3.6-1.2-4.1-3c-0.9-2.4,0.6-5,2.7-5.6l8.6-3c2.4-0.9,5,0.6,5.6,2.7c0.9,2.4-0.6,5-2.7,5.6l-8.6,3
				C82.7,281.8,82.4,282.1,81.8,282.1z"/>
		</g>
	</g>
	<g>
		<g>
			<path d="M85.6,293c-1.8,0-3.6-1.2-4.1-3c-0.9-2.4,0.6-5,2.7-5.6l8.6-3c2.4-0.9,5,0.6,5.6,2.7c0.9,2.4-0.6,5-2.7,5.6l-8.6,3
				C86.5,293,85.9,293,85.6,293z"/>
		</g>
	</g>
	<g>
		<g>
			<path d="M94.5,319.7c-1.8,0-3.6-1.2-4.1-3c-0.9-2.4,0.6-5,2.7-5.6l8.6-3c2.4-0.9,5,0.6,5.6,2.7c0.9,2.4-0.6,5-2.7,5.6l-8.6,3
				C95.4,319.7,95.1,319.7,94.5,319.7z"/>
		</g>
	</g>
	<g>
		<g>
			<path d="M98.4,331c-1.8,0-3.6-1.2-4.1-3c-0.9-2.4,0.6-5,2.7-5.6l8.6-3c2.4-0.9,5,0.6,5.6,2.7c0.9,2.4-0.6,5-2.7,5.6l-8.6,3
				C99.3,331,99,331,98.4,331z"/>
		</g>
	</g>
	<g>
		<g>
			<path d="M54.2,194.1c-2.7,0-5.3-1.8-6.5-4.4c-1.2-3.6,0.6-7.4,4.1-8.6l12.7-4.1c3.6-1.2,7.4,0.6,8.6,4.1c1.2,3.6-0.6,7.4-4.1,8.6
				l-12.7,4.1C55.7,194.1,54.8,194.1,54.2,194.1z"/>
		</g>
	</g>
	<g>
		<g>
			<path d="M67,232c-2.7,0-5.3-1.8-6.5-4.4c-1.2-3.6,0.6-7.4,4.1-8.6l12.7-4.1c3.6-1.2,7.4,0.6,8.6,4.1c1.2,3.6-0.6,7.4-4.1,8.6
				L69,231.7C68.4,231.7,67.6,232,67,232z"/>
		</g>
	</g>
	<g>
		<g>
			<path d="M79.7,269.6c-2.7,0-5.3-1.8-6.5-4.4c-1.2-3.6,0.6-7.4,4.1-8.6l12.7-4.1c3.6-1.2,7.4,0.6,8.6,4.1c1.2,3.6-0.6,7.4-4.1,8.6
				l-12.7,4.1C81.2,269.6,80.6,269.6,79.7,269.6z"/>
		</g>
	</g>
	<g>
		<g>
			<path d="M92.4,307.6c-2.7,0-5.3-1.8-6.5-4.4c-1.2-3.6,0.6-7.4,4.1-8.6l12.7-4.1c3.6-1.2,7.4,0.6,8.6,4.1c1.2,3.6-0.6,7.4-4.1,8.6
				l-12.7,4.1C93.9,307.3,93.3,307.6,92.4,307.6z"/>
		</g>
	</g>
	<g>
		<g>
			<path d="M105.5,345.2c-2.7,0-5.3-1.8-6.5-4.4c-1.2-3.6,0.6-7.4,4.1-8.6l12.7-4.1c3.6-1.2,7.4,0.6,8.6,4.1
				c1.2,3.6-0.6,7.4-4.1,8.6l-12.7,4.1C107,345.2,106.1,345.2,105.5,345.2z"/>
		</g>
	</g>
	<g>
		<g>
			<path d="M107,367.4c-0.6,0-1.5-0.3-2.1-0.6c-1.2-0.6-1.8-1.5-2.4-2.7L24,133c-0.3-1.2-0.3-2.4,0.3-3.6c0.6-1.2,1.5-1.8,2.7-2.4
				l37-12.4c2.4-0.9,5,0.6,5.6,2.7l78.5,231.1c0.3,1.2,0.3,2.4-0.3,3.6c-0.6,1.2-1.5,1.8-2.7,2.4l-36.7,12.7
				C108.1,367.1,107.6,367.4,107,367.4z M34.4,134.5l75.6,222.8l28.4-9.8L62.8,124.7L34.4,134.5z"/>
		</g>
	</g>
</g>
<g>
	<g>
		<g>
			<polygon points="354.4,125.3 349.6,128 345.2,131.3 346.7,135.7 349.3,139.9 354.4,138.7 358.5,136.3 			"/>
		</g>
	</g>
	<g>
		<g>
			<path d="M311.7,316.1c-0.6,0-0.9,0-1.5-0.3l-37-12.7c-1.2-0.3-2.1-1.2-2.7-2.4c-0.6-1.2-0.6-2.4-0.3-3.6l51-148.7
				c0.9-2.4,3.3-3.6,5.6-2.7c2.4,0.9,3.6,3.3,2.7,5.6l-49.2,144.9l28.4,9.8l49.5-144.3c0.9-2.4,3.3-3.6,5.6-2.7
				c2.4,0.9,3.6,3.3,2.7,5.6l-50.7,148.4C315.3,315,313.5,316.1,311.7,316.1z"/>
		</g>
	</g>
	<g>
		<g>
			<g>
				<path d="M301.6,345.2c-0.6,0-0.9,0-1.5-0.3c-2.4-0.9-3.6-3.3-2.7-5.6l8.6-24.9l-28.4-9.8l-8.6,24.9c-0.9,2.4-3.3,3.6-5.6,2.7
					c-2.4-0.9-3.6-3.3-2.7-5.6l10.1-29c0.9-2.4,3.3-3.6,5.6-2.7l37,12.7c1.2,0.3,2.1,1.2,2.7,2.4c0.6,1.2,0.6,2.4,0.3,3.6l-10.1,29
					C305.2,344,303.4,345.2,301.6,345.2z"/>
			</g>
		</g>
		<g>
			<g>
				<path d="M285,355.9c-3,0-5.9-0.6-8.6-1.5c-12.4-4.1-19.6-16.9-16-27.9c0.9-2.4,3.3-3.6,5.6-2.7s3.6,3.3,2.7,5.6
					c-2.1,6.5,2.4,13.9,10.4,16.6c3.9,1.5,8,1.2,11.6,0c3.3-1.2,5.6-3.6,6.5-6.5c0.9-2.4,3.3-3.6,5.6-2.7c2.4,0.9,3.6,3.3,2.7,5.6
					c-1.8,5.6-6.2,9.8-11.9,12.1C291.3,355.3,288.3,355.9,285,355.9z"/>
			</g>
		</g>
	</g>
	<g>
		<g>
			<path d="M308.1,325c-0.6,0-0.9,0-1.5-0.3l-36.4-12.4c-2.4-0.9-3.6-3.3-2.7-5.6c0.9-2.4,3.3-3.6,5.6-2.7l36.4,12.4
				c2.4,0.9,3.6,3.3,2.7,5.6C311.7,323.9,309.9,325,308.1,325z"/>
		</g>
	</g>
	<g>
		<g>
			<path d="M304.9,334.5c-0.6,0-0.9,0-1.5-0.3L267,321.8c-2.4-0.9-3.6-3.3-2.7-5.6c0.9-2.4,3.3-3.6,5.6-2.7l36.4,12.4
				c2.4,0.9,3.6,3.3,2.7,5.6C308.4,333.3,306.7,334.5,304.9,334.5z"/>
		</g>
	</g>
	<g>
		<g>
			<path d="M325.3,155c-1.2,0-2.4-0.3-3.3-1.2c-1.8-1.8-1.8-4.7,0-6.2l15.4-15.4c1.8-1.8,4.7-1.8,6.2,0c1.8,1.8,1.8,4.7,0,6.2
				l-15.4,15.4C327.7,154.4,326.5,155,325.3,155z"/>
		</g>
	</g>
	<g>
		<g>
			<path d="M362.4,167.4c-2.4,0-4.1-1.8-4.4-3.9l-4.4-34.7l-9.5,9.5c-1.8,1.8-4.7,1.8-6.2,0c-1.8-1.8-1.8-4.7,0-6.2l16-16
				c1.2-1.2,3-1.5,4.7-1.2c1.5,0.6,2.7,2.1,3,3.6l5.6,43.9c0.3,2.4-1.5,4.7-3.9,5C362.7,167.4,362.7,167.4,362.4,167.4z"/>
		</g>
	</g>
	<g>
		<g>
			<path d="M287.7,306.1c-0.6,0-0.9,0-1.5-0.3c-2.4-0.9-3.6-3.3-2.7-5.6l47.1-138.1c0.9-2.4,3.3-3.6,5.6-2.7
				c2.4,0.9,3.6,3.3,2.7,5.6l-47.1,138.1C291.3,304.9,289.5,306.1,287.7,306.1z"/>
		</g>
	</g>
	<g>
		<g>
			<path d="M299.3,310.2c-0.6,0-0.9,0-1.5-0.3c-2.4-0.9-3.6-3.3-2.7-5.6l47.4-138.1c0.9-2.4,3.3-3.6,5.6-2.7
				c2.4,0.9,3.6,3.3,2.7,5.6l-47.1,138.1C303.1,309,301.3,310.2,299.3,310.2z"/>
		</g>
	</g>
	<g>
		<g>
			<path d="M362.1,168.6c-0.6,0-1.5-0.3-2.1-0.6l-11-5.9h-5.6c-0.9,0-1.8-0.3-2.7-0.9l-5-3.6l-11.3-1.8c-2.4-0.3-4.1-2.7-3.9-5
				c0.3-2.4,2.7-4.1,5-3.9l12.4,2.1c0.6,0,1.5,0.3,1.8,0.9l4.7,3.3h5.3c0.6,0,1.5,0.3,2.1,0.6l12.1,6.2c2.1,1.2,3,3.9,1.8,5.9
				C365.3,167.7,363.6,168.6,362.1,168.6z"/>
		</g>
	</g>
</g>
<g>
	<g>
		<path fill="#FFFFFF" d="M138.4,253.6c-13,2.4-28.4,6.2-47.1,11.6L39.7,381.9c162.7-48.9,163.9-0.6,163.9-0.6V267.9v-3
			c0,0,0-5.3-7.1-9.5"/>
	</g>
	<g>
		<path d="M39.7,388.7c-1.8,0-3.9-0.9-5-2.4c-1.8-2.1-2.1-4.7-1.2-7.1l51.9-116.7c0.9-1.8,2.4-3.3,4.1-3.9
			c17.8-5.3,33.8-9.2,47.7-11.9l2.4,13.3c-12.7,2.4-27.3,5.9-43.3,10.7L51.6,371.3c71.7-20.4,121.8-23.4,145.2-9.2v-96.6
			c0-0.6-0.9-2.4-3.9-4.1l6.8-11.6c10.1,5.9,10.7,14.2,10.7,15.1v116.7c0,3.6-3,6.8-6.5,6.8l0,0c-3.6,0-6.5-3-6.8-6.5l0,0
			c0,0-0.6-3.9-6.2-7.4c-11.9-7.7-47.1-16.3-149,14.2C40.9,388.7,40.3,388.7,39.7,388.7z"/>
	</g>
</g>
<g>
	<g>
		<path fill="#FFFFFF" d="M264,252.7c13.9,2.4,30.8,6.2,51.9,12.4l51.9,116.7c-162.7-48.9-163.9-0.6-163.9-0.6V267.9v-3
			c0,0,0-3.9,4.4-7.4"/>
	</g>
	<g>
		<path d="M367.4,388.7c-0.6,0-1.2,0-2.1-0.3c-103.7-31.1-138.4-21.9-149.9-13.6c-4.7,3.6-5.3,6.8-5.3,6.8c0,3.6-3,6.5-6.8,6.5
			c-3.6,0-6.5-3-6.5-6.8V264.9c0-1.2,0.6-7.4,6.8-12.7l8.6,10.4c-1.5,1.2-2.1,2.4-2.1,3v96.6c23.4-14.2,73.2-11,145.2,9.2
			l-44.7-100.4c-18.1-5.3-34.1-9.2-48-11.6l2.1-13.3c15.1,2.4,32.9,6.8,52.4,12.7c1.8,0.6,3.6,1.8,4.1,3.9L373,379.3
			c1.2,2.4,0.6,5.3-1.2,7.1C371.3,387.9,369.5,388.7,367.4,388.7z"/>
	</g>
</g>
<g>
	<g>
		<path fill="none" d="M242.1,21.9c-16.9,5.6-33.2,18.7-44.4,45c0,0,76.1,42.1,111.1-39.4C308.7,27.3,274.7,10.7,242.1,21.9"/>
	</g>
</g>
<g>
	<g>
		<path fill="none" d="M104,173.6c0,29.3,16.6,61.6,36.4,82.4c26.4,27.9,43.6-8.3,70.8,2.4c25.5,10.1,35.9,15.1,55.1-8
			c17.5-21,32.6-51.9,32.9-76.1c0-23.1-8.9-45-27-59.9c-23.4-19.3-44.1-3.6-70.8-3.6c-26.4,0-47.1-15.7-70.5,3.6
			C113.2,129.5,103.7,154.1,104,173.6z"/>
	</g>
</g>
<g>
	<g>
		<path fill="#5D5E5E" d="M200.9,65.2c0,0,40.3-17.2,63.1-23.4"/>
	</g>
</g>
<g>
	<g>
		<path fill="#67C9D0" d="M302.5,154.4c-2.4-2.1-4.7-4.1-6.8-6.8c-6.5-8-11-16.3-12.4-25.8c-8-2.4-12.7-8.9-14.2-16.3
			c-15.4-1.8-31.1,5.6-49.5,5.6c-26.4,0-47.1-15.7-70.5,3.6c-17.8,14.8-27.3,39.4-27,59c0,29.3,16.6,61.6,36.4,82.4
			c26.4,27.9,43.6-8.3,70.8,2.4c7.1,3,13.3,5.3,18.7,6.8c2.7-7.1,8.9-13,18.7-13.3c1.8-7.1,6.5-13,14.2-15.4c1.5-1.5,3-3.3,4.7-4.1
			c0.3-4.1,1.5-8.3,3.9-11.9c-0.3-6.8,2.1-13.6,6.8-18.1c-0.9-4.7-0.6-9.5,1.2-13.9c0.6-3.3,1.8-6.5,3.6-9.2
			C297.2,171.6,297.8,161.5,302.5,154.4z"/>
	</g>
</g>
<g>
	<g>
		<path fill="#67C9D0" d="M310.5,21.6c-13-3.6-32-6.2-50.4,0.3c-16.9,5.6-33.2,18.7-44.4,45c0,0,28.1,15.4,58.1,9.2
			c2.4-6.5,7.4-11.9,15.1-13.6l0.3-0.3c1.5-4.4,4.4-8.6,8.9-11c1.8-5.3,5.3-10.1,11-12.7c0.6-2.1,1.5-3.9,2.4-5.9
			C310.2,29,309.9,25.2,310.5,21.6z"/>
	</g>
</g>
<g>
	<g>
		<path d="M241.2,84.1L241.2,84.1c-25.2,0-45.9-11.3-46.8-11.6c-3-1.8-4.4-5.3-3-8.6c10.7-24.9,27-41.5,48.6-48.6
			c8.3-2.7,17.2-4.1,26.4-4.1c24.6,0,44.4,9.5,45.3,10.1c3.3,1.5,4.7,5.3,3.3,8.6C295.7,75,264,84.1,241.2,84.1z M206.5,63.4
			c7.1,3,20.1,7.4,34.4,7.4c25.8,0,45.3-13.3,58.7-40c-6.8-2.7-19.3-6.2-33.2-6.2c-8,0-15.4,1.2-22.2,3.6
			C228.4,33.5,215.7,45.3,206.5,63.4z"/>
	</g>
</g>
<g>
	<g>
		<path d="M240,273.8c-8.6,0-17.5-3.6-29-8l-2.4-0.9c-2.4-1.2-5.3-1.8-8-1.8c-5.9,0-11.9,2.4-17.8,5c-6.5,2.7-13.3,5.6-21,5.6l0,0
			c-9.2,0-17.8-4.1-26.1-13c-23.4-24.6-38.2-58.7-38.2-87.1c-0.6-19.6,8.3-47.1,29.3-64c9.2-7.7,19-11.3,30.5-11.3
			c7.4,0,14.8,1.5,21.9,3c7.4,1.5,14.8,3,22.8,3c7.7,0,15.4-1.5,22.8-3c7.1-1.5,14.5-3,21.9-3c11.6,0,21,3.6,30.5,11.3
			c19,15.7,29.3,38.8,29.3,64.9c-1.2,27.6-18.4,60.1-35.3,80.3C260.4,268.1,251,273.8,240,273.8z M200.6,249.8
			c4.4,0,8.9,0.9,13.3,2.7l2.4,0.9c10.4,4.1,17.8,7.1,24,7.1c4.7,0,10.7-1.8,21-13.9c18.1-21.9,31.1-51.3,31.4-71.7
			c0-22.2-8.6-41.5-24.3-54.5c-6.8-5.6-13.6-8-21.9-8c-5.9,0-12.4,1.2-19.3,2.7c-8,1.5-16.3,3.3-25.5,3.3s-17.5-1.8-25.5-3.3
			c-6.8-1.5-13-2.7-19.3-2.7c-8.3,0-15.1,2.4-21.9,8c-17.2,14.2-24.9,37.6-24.6,53.6c0,25.2,13.6,55.7,34.7,77.9
			c7.4,7.7,12.7,8.6,16.3,8.6c5,0,10.4-2.1,16-4.4C184.3,252.7,192,249.8,200.6,249.8z"/>
	</g>
</g>
<g>
	<g>
		<path d="M200.9,69.9c-1.8,0-3.3-0.9-4.1-2.7c-0.9-2.4,0-5,2.4-5.9c1.8-0.6,40.9-17.5,63.7-23.7c2.4-0.6,4.7,0.9,5.6,3.3
			c0.6,2.4-0.9,4.7-3.3,5.6c-22.2,5.9-61.9,23.1-62.5,23.1C202.1,69.6,201.5,69.9,200.9,69.9z"/>
	</g>
</g>
<g>
	<g>
		<path d="M201.8,113.5c-3.9,0-6.8-3-6.8-6.8c0-11.6-9.2-20.7-20.7-20.7c-3.6,0-6.5-3-6.5-6.8c0-3.9,3-6.8,6.8-6.8
			c19,0,34.4,15.4,34.4,34.4C208.6,110.5,205.6,113.5,201.8,113.5z"/>
	</g>
</g>
</svg>
