<?xml version="1.0" encoding="utf-8"?>
<!-- Generator: Adobe Illustrator 18.1.0, SVG Export Plug-In . SVG Version: 6.00 Build 0)  -->
<svg version="1.1" id="Layer_1" xmlns="http://www.w3.org/2000/svg" xmlns:xlink="http://www.w3.org/1999/xlink" x="0px" y="0px"
	 viewBox="0 0 122.8 136.3" enable-background="new 0 0 122.8 136.3" xml:space="preserve">
<g>
	<g>
		<g>
			<path d="M61.3,127.1c-32.8,0-59.5-26.7-59.5-59.5S28.5,8.1,61.3,8.1c32.8,0,59.5,26.7,59.5,59.5S94.1,127.1,61.3,127.1z
				 M61.3,15.7C32.6,15.7,9.3,39,9.3,67.6s23.3,51.9,51.9,51.9c28.6,0,51.9-23.3,51.9-51.9S89.9,15.7,61.3,15.7z"/>
		</g>
	</g>
	<g>
		<g>
			<path fill="#FFFFFF" d="M118.8,129.3L101.3,90c-0.3-0.6-0.8-1.1-1.4-1.3c0,0-0.1,0-0.1,0V35.1c0-0.1,0-0.1,0-0.2h0
				c0-1.6-0.4-3.3-1-4.8c0,0,0-0.1,0-0.1c0,0,0,0-0.1-0.1c-1.9-4.3-6.3-8.1-12.6-10.9v-1.7c0-0.6-0.4-1.2-0.9-1.4c0,0-0.1,0-0.1,0
				c-0.1,0-0.3-0.1-0.4-0.1L81,4.8c-0.2-0.6-0.8-1-1.4-1h0h-3.2h0c-0.7,0-1.3,0.4-1.5,1.1l-3,10.2c-1.4-0.2-2.8-0.4-4.3-0.5l-0.1,0
				l-3.2-9.7c-0.2-0.6-0.8-1-1.4-1h-3.2c-0.7,0-1.3,0.4-1.5,1.1l-2.9,9.7c-1.5,0.1-2.9,0.3-4.3,0.5L47.6,4.8c-0.2-0.6-0.8-1-1.4-1h0
				h-3.2h0c-0.7,0-1.3,0.4-1.5,1.1l-3.3,10.9c-0.8,0-1.5,0.7-1.5,1.5V19C28,22.9,23,28.6,23,34.9h0c0,0.1,0,0.1,0,0.2v53.6
				c0,0,0,0-0.1,0c-0.6,0.2-1.2,0.6-1.4,1.3L4,129.3c-0.4,0.8-0.2,1.8,0.4,2.4c0.4,0.5,1.1,0.8,1.7,0.8c0.2,0,0.4,0,0.7-0.1
				c16.1-4.8,28.9-7.3,38.3-7.3c13.4,0,14.1,5,14.1,5h0c0,0.7,0.4,1.3,0.9,1.7c0.4,0.3,0.9,0.5,1.4,0.5c1.3,0,2.3-0.9,2.3-2.2
				c0-0.1,0.7-5.1,14.1-5.1c9.3,0,22.2,2.5,38.3,7.3c0.2,0.1,0.4,0.1,0.7,0.1c0.6,0,1.3-0.3,1.7-0.8
				C119,131.1,119.2,130.1,118.8,129.3z"/>
		</g>
		<g>
			<path fill="#FFFFFF" d="M116.7,136.3c-0.6,0-1.2-0.1-1.7-0.3c-15.7-4.7-28.2-7.1-37.2-7.1c-7.7,0-10,1.8-10.4,2.3
				c-0.5,2.9-2.9,5-6,5c-1.5,0-2.8-0.5-3.9-1.5c-1.1-0.9-1.8-2.1-2.1-3.6c-0.5-0.5-2.8-2.3-10.4-2.3c-8.9,0-21.4,2.4-37.2,7.1
				c-2.2,0.7-4.8,0-6.3-1.8c-1.6-1.8-2-4.3-1-6.5L18,88.4c0.3-0.6,0.7-1.2,1.2-1.7V35.1c0,0,0-0.1,0-0.1c0,0,0-0.1,0-0.1
				c0-7.2,5-13.8,13.8-18.3c0.2-1.4,1-2.7,2.1-3.5l2.8-9.3C38.5,1.6,40.6,0,42.9,0h3.2c2.3,0,4.3,1.5,5.1,3.7L53,9l1.5-5.2
				C55.2,1.6,57.3,0,59.6,0h3.2c2.3,0,4.3,1.5,5,3.7L69.6,9l1.6-5.2C71.9,1.5,73.9,0,76.3,0h3.2c2.3,0,4.3,1.5,5.1,3.7l3.1,9.4
				c1.2,0.8,2,2.1,2.2,3.6c5.8,3,10,6.9,12.2,11.3c0.2,0.3,0.4,0.7,0.5,1c0.8,1.9,1.2,3.9,1.2,5.9c0,0,0,0.1,0,0.1c0,0,0,0.1,0,0.1
				v51.6c0.5,0.5,0.9,1.1,1.2,1.8l17.5,39.4c1,2.2,0.6,4.7-1,6.5C120.1,135.6,118.5,136.3,116.7,136.3z M77.8,121.3
				c9,0,21.2,2.2,36.2,6.5L98.1,92.1c-1.3-0.6-2.1-1.9-2.1-3.4l0-53.5c0-0.2,0-0.5,0-0.7c0-1-0.3-2-0.7-3c0,0,0-0.1-0.1-0.1
				c-1.5-3.4-5.3-6.6-10.7-9c-1.4-0.6-2.3-2-2.3-3.5v-0.2c-0.6-0.5-1.1-1.1-1.3-1.8l-3-9.3l-2.5,8.4c-0.5,1.8-2.3,2.9-4.2,2.7
				c-1.5-0.2-2.8-0.4-4-0.5c-1.5-0.1-2.9-1.2-3.3-2.6l-2.6-8l-2.3,7.9c-0.4,1.5-1.8,2.6-3.3,2.7c-1.3,0.1-2.6,0.3-4.1,0.5
				c-1.8,0.3-3.6-0.8-4.2-2.6l-2.8-8.5l-2.7,9.2c-0.2,0.8-0.7,1.5-1.3,1.9V19c0,1.5-0.9,2.9-2.3,3.5C31.1,25.6,27,30,26.8,34.6
				c0,0.2,0,0.4,0,0.6c0,0,0,0,0,0.1v53.4c0,1.4-0.8,2.7-2.1,3.4L8.8,127.9c15-4.3,27.1-6.5,36.2-6.5c10.1,0,14.5,2.8,16.4,5.2
				C63.3,124.1,67.7,121.3,77.8,121.3z"/>
		</g>
	</g>
	<g>
		<g>
			<path fill="#FFFFFF" d="M84.1,22.1c-13.7-6.1-27.2-4.9-35.8-3c-1.2,1.8-3.2,3-6,3c-1,0-1.9-0.2-2.6-0.4C39.2,21.9,39,22,39,22
				c-8.7,3.6-13.7,9.2-13.7,15.3h0c0,0.1,0,0.1,0,0.2v52c0,1.2,1,2.1,2.1,2.1h68v-0.5c1.2,0,2.1-1,2.1-2.1V37.3
				C97.5,31.4,92.7,26,84.1,22.1z"/>
		</g>
	</g>
	<g>
		<g>
			<path fill="#D59F0F" d="M99.7,67.7c-0.2-0.6-0.4-1.3-0.4-2c-0.1-0.8-0.1-1.7,0-2.6c-1.7-2.8-1.5-6.6,0.4-9.1c0,0,0,0,0,0
				c-0.2-0.6-0.3-1.2-0.4-1.9c-1.9-2.5-2.1-6.3-0.5-9c0.1-2.4,0.2-4.8,0.2-7.2c0-0.6,0.1-1.1,0.2-1.6c-0.3-1-0.4-2-0.3-3
				c0-0.4,0-0.8,0-1.2c-2.2-2.3-5.4-4.4-9.3-6.1c-2-0.9-4-1.6-6-2.2v19.7l-11.9,6.4V19.5c-1.3-0.1-2.5-0.1-3.8-0.2v30.4H54.9V20.6
				c-1.5,0.3-2.9,0.6-4.1,1l0.3,26.8l-12.7-6.5v-15c-5,3.4-7.8,7.6-7.8,12.1h0c0,0.1,0,0.1,0,0.2v48c1-0.6,2.2-0.9,3.7-0.9
				c0.9,0,1.7,0.2,2.4,0.4c1.1-0.7,2.5-1.2,4.1-1.2c0.5,0,1,0.1,1.5,0.1c1-0.6,2.2-0.9,3.7-0.9c1.1,0,2,0.2,2.9,0.5
				c1-0.5,2.2-0.8,3.5-0.8c0.2,0,0.4,0,0.6,0V86l11.6,1.4c0.1,0.1,0.1,0.2,0.2,0.2c0.1-0.1,0.2-0.1,0.3-0.2l1.7,0.2l0.2-1
				c0.6-0.1,1.2-0.2,1.9-0.2c0.9,0,1.7,0.2,2.4,0.4c1-0.6,2.3-1,3.9-1c1.3,0,2.5,0.3,3.4,0.8c1-0.5,2.1-0.8,3.4-0.8
				c2,0,3.6,0.7,4.8,1.7c1-0.5,2.1-0.8,3.4-0.8c2.8,0,4.7,1.2,5.9,2.9c0.5-0.3,1-0.6,1.5-0.8c-0.4-2.2,0.2-4.7,1.6-6.4
				c0-0.7,0-1.4,0.1-2c-0.1-0.3-0.1-0.6-0.1-0.9c-0.2-0.7-0.4-1.5-0.4-2.3c-0.9-2-0.9-4.4-0.1-6.4C98.9,69.8,99.2,68.7,99.7,67.7z"
				/>
		</g>
	</g>
	<g>
		<g>
			<path fill="#FFFFFF" d="M61.4,90.8c0,0-0.3-11.2-37.8,0.1L6.1,130.3c54.9-16.5,55.3-0.2,55.3-0.2V91.7V90.8z"/>
		</g>
		<g>
			<path d="M6.1,132.5c-0.6,0-1.3-0.3-1.7-0.8c-0.6-0.7-0.7-1.6-0.4-2.4L21.5,90c0.3-0.6,0.8-1.1,1.4-1.3
				c11.3-3.4,20.5-5.2,27.3-5.2c12.9,0,13.5,6.4,13.5,7.2l0,39.4c0,1.2-1,2.3-2.2,2.3c0,0,0,0,0,0c-1.2,0-2.2-1-2.3-2.2l0,0
				c0,0-0.8-5-14.1-5c-9.3,0-22.2,2.5-38.3,7.3C6.5,132.5,6.3,132.5,6.1,132.5z M25.2,92.8l-15.1,33.9c14.3-4.1,26-6.1,34.8-6.1
				c7,0,11.4,1.3,14.1,2.9V90.9c-0.2-0.8-2.2-2.8-8.9-2.8C44.1,88.1,35.7,89.7,25.2,92.8z"/>
		</g>
	</g>
	<g>
		<g>
			<path fill="#FFFFFF" d="M61.4,90.8c0,0,0.3-11.2,37.8,0.1l17.5,39.4c-54.9-16.5-55.3-0.2-55.3-0.2V91.7V90.8z"/>
		</g>
		<g>
			<path d="M116.7,132.5c-0.2,0-0.4,0-0.7-0.1c-16.1-4.8-28.9-7.3-38.3-7.3c-13.4,0-14.1,5-14.1,5.1c0,1.2-1.1,2.2-2.3,2.2
				c-1.2,0-2.2-1.1-2.2-2.3V90.8c0-0.8,0.6-7.2,13.5-7.2c6.7,0,15.9,1.7,27.3,5.2c0.6,0.2,1.2,0.6,1.4,1.3l17.5,39.4
				c0.4,0.8,0.2,1.8-0.4,2.4C118,132.3,117.4,132.5,116.7,132.5z M77.8,120.6c8.8,0,20.5,2.1,34.8,6.1L97.6,92.8
				c-10.5-3.1-18.8-4.7-24.9-4.7c-6.8,0-8.7,2-8.9,2.8v32.6C66.4,121.9,70.8,120.6,77.8,120.6z"/>
		</g>
	</g>
	<g>
		<g>
			<path d="M99.8,34.9h-4.5c0-4.5-4.2-8.8-11.5-11.9l1.8-4.2C94.6,22.6,99.8,28.5,99.8,34.9z"/>
		</g>
	</g>
	<g>
		<g>
			<path d="M72.9,19.8c-1.9-0.3-3.8-0.6-5.8-0.8l0.4-4.5c2.1,0.2,4.2,0.4,6.2,0.8L72.9,19.8z"/>
		</g>
	</g>
	<g>
		<g>
			<polygon points="67.1,17.6 66.4,17.5 66.7,13 67.5,13 			"/>
		</g>
	</g>
	<g>
		<g>
			
				<rect x="53.7" y="15.1" transform="matrix(7.355997e-02 0.9973 -0.9973 7.355997e-02 67.067 -41.6887)" width="4.5" height="0.4"/>
		</g>
	</g>
	<g>
		<g>
			<path d="M50.6,19.7l-0.7-4.5c1.9-0.3,3.8-0.5,5.7-0.7L56,19C54.2,19.2,52.4,19.4,50.6,19.7z"/>
		</g>
	</g>
	<g>
		<g>
			<path d="M27.5,34.9H23c0-6.5,5.3-12.4,14.6-16.2l1.8,4.2C31.9,25.9,27.5,30.4,27.5,34.9z"/>
		</g>
	</g>
	<g>
		<g>
			<path fill="#FFFFFF" d="M64.9,47.1c0,1.9-1.6,3.5-3.5,3.5c-1.9,0-3.5-1.6-3.5-3.5V32.5c0-1.9,1.6-3.5,3.5-3.5
				c1.9,0,3.5,1.6,3.5,3.5"/>
		</g>
	</g>
	<g>
		<g>
			<g>
				<path fill="#FFFFFF" d="M84.6,15.8L81,4.8c-0.2-0.6-0.8-1-1.4-1h-3.2c-0.7,0-1.3,0.4-1.5,1.1l-3.3,10.9c-0.8,0-1.5,0.7-1.5,1.5
					v2v2v28h3v-0.4H74v-1.1h2.3H77v-4.3h2.7v0.5h3v-0.5h0.8v-4h2.5V21.3v-2v-2C86.1,16.5,85.4,15.8,84.6,15.8z"/>
			</g>
		</g>
		<g>
			<g>
				<path fill="#FFFFFF" d="M51.2,15.8l-3.6-11c-0.2-0.6-0.8-1-1.4-1h-3.2c-0.7,0-1.3,0.4-1.5,1.1l-3.3,10.9c-0.8,0-1.5,0.7-1.5,1.5
					v2v2v12.5h2.3h0.7v9.7h0.1h3h3.4v4v0.3h3v1.1h0.3v0.3h3V21.3v-2v-2C52.7,16.5,52,15.8,51.2,15.8z"/>
			</g>
		</g>
		<g>
			<g>
				<path fill="#FFFFFF" d="M67.9,15.8l-3.6-11c-0.2-0.6-0.8-1-1.4-1h-3.2c-0.7,0-1.3,0.4-1.5,1.1l-3.3,10.9c-0.8,0-1.5,0.7-1.5,1.5
					v2v2v29.1h2.3h0.7h0.1v0.2h3v-0.2h2.7H63v0.3h3v-0.4l0.3-0.1v0.2h3V21.3v-2v-2C69.4,16.5,68.7,15.8,67.9,15.8z"/>
			</g>
		</g>
	</g>
	<g>
		<g>
			<path fill="#FFFFFF" d="M79,78.7c5.6,0,10.1-4.5,10.1-10.1c0-5.6-4.5-10.1-10.1-10.1H43.8c-5.6,0-10.1,4.5-10.1,10.1
				c0,5.6,4.5,10.1,10.1,10.1H79z"/>
		</g>
		<g>
			<path d="M79,80.9H43.8c-6.8,0-12.3-5.5-12.3-12.3c0-6.8,5.5-12.3,12.3-12.3H79c6.8,0,12.3,5.5,12.3,12.3
				C91.3,75.4,85.8,80.9,79,80.9z M43.8,60.8c-4.3,0-7.8,3.5-7.8,7.8c0,4.3,3.5,7.8,7.8,7.8H79c4.3,0,7.8-3.5,7.8-7.8
				c0-4.3-3.5-7.8-7.8-7.8H43.8z"/>
		</g>
	</g>
	<g>
		<g>
			<g>
				<path fill="#8E8672" d="M50.9,49.3h0.3v-0.8l-0.1,0l0.1-28.6l-1.9-5l-2.7-9.2c-0.2,0.2-0.4,0.4-0.5,0.8l-3.3,10.9
					c-0.8,0-1.5,0.7-1.5,1.5v16.4l0.7,7.6l2.3,2.1l4.4,2.5L50.9,49.3z"/>
			</g>
		</g>
		<g>
			<g>
				<polygon fill="#FFFFFF" points="44.6,27.9 41.3,29.4 40.2,42.8 47.8,49.2 47.8,34.8 47.8,29.4 				"/>
			</g>
		</g>
		<g>
			<path fill="#8E8672" d="M68.4,34.8l-0.8-17.4L66,13.8l-3.3-7.3l-3.2,10.9c-0.8,0-1.5,0.7-1.5,1.5v11.1l3-1.9l3.5,1.9l1,2.9v17.3
				l-3.9,1.6l-3.2-0.9L58,49.9v1.9h3.2v0.2h3v-0.2h3.4v0.3h0.9V49l-0.6,0.2l0.6-9.8V34.8z"/>
		</g>
	</g>
	<g>
		<g>
			<path d="M27.5,90.4H23V35.1c0-1.3,1-2.3,2.3-2.3h12.5c1.3,0,2.3,1,2.3,2.3c0,7.2,9.7,13.3,21.3,13.3c11.3,0,20.9-5.8,21.3-12.8
				c0-0.1,0-0.3,0-0.4c0-1.3,1-2.3,2.3-2.3h12.6c1.3,0,2.3,1,2.3,2.3v54.7h-4.5V37.3H87c-1.6,8.8-12.5,15.5-25.6,15.5
				c-13.4,0-24.1-6.7-25.6-15.5h-8.2V90.4z"/>
		</g>
	</g>
	<g>
		<g>
			<g>
				<rect x="49.7" y="19.3" width="3" height="29.9"/>
			</g>
		</g>
		<g>
			<g>
				<path fill="none" stroke="#000000" stroke-width="2" stroke-linejoin="round" stroke-miterlimit="10" d="M38.2,38.7"/>
			</g>
		</g>
		<g>
			<g>
				<path fill="none" stroke="#000000" stroke-width="2" stroke-linejoin="round" stroke-miterlimit="10" d="M38.2,38.7"/>
			</g>
		</g>
		<g>
			<g>
				<rect x="36.7" y="19.3" width="3" height="14.4"/>
			</g>
		</g>
		<g>
			<g>
				<path d="M52.7,21.3h-3v-2.4h-9.9v2.4h-3v-3.9c0-0.8,0.7-1.5,1.5-1.5h13c0.8,0,1.5,0.7,1.5,1.5V21.3z"/>
			</g>
		</g>
		<g>
			<g>
				<rect x="38.2" y="21.3" width="13" height="3"/>
			</g>
		</g>
		<g>
			<g>
				<path d="M49.3,47.5h-3V32c0-0.9-0.8-1.7-1.7-1.7c-0.9,0-1.7,0.8-1.7,1.7v11.5h-3V32c0-2.6,2.1-4.7,4.7-4.7
					c2.6,0,4.7,2.1,4.7,4.7V47.5z"/>
			</g>
		</g>
		<g>
			<g>
				<path d="M50.1,18.8H39.3c-0.5,0-0.9-0.2-1.2-0.6c-0.3-0.4-0.4-0.9-0.2-1.3l3.6-12c0.2-0.6,0.8-1.1,1.5-1.1h3.2
					c0.7,0,1.2,0.4,1.4,1l3.9,12c0.2,0.5,0.1,1-0.2,1.4C51,18.6,50.6,18.8,50.1,18.8z M41.4,15.8H48l-2.9-9h-1L41.4,15.8z"/>
			</g>
		</g>
	</g>
	<g>
		<g>
			<path fill="#8E8672" d="M85.8,34.5c-0.7-1.8-0.7-3.9-0.1-5.8c-0.4-1-0.6-2.2-0.5-3.3c-0.4-1.6-0.2-3.4,0.4-4.9
				c-0.2-1-0.3-2-0.1-3c-0.9-0.8-1.5-1.9-1.9-3c-0.4-0.7-0.8-1.4-1-2.2c-1.6-1.9-2.1-4.6-1.6-7h-0.1c-0.7,0-1.3,0.4-1.5,1.1
				l-3.3,10.9c-0.8,0-1.5,0.7-1.5,1.5v12.6l1.8-2.1l4.4-0.1l0.3,2.7l0,10.4l-6.4,5.1l-0.1-2.6v3.7c1.1-1.3,2.7-2.2,4.8-2.3
				c0.9-1.7,2.4-3,4.6-3.5c0.3-1,0.8-2,1.6-2.8C85.1,38.2,85.1,36.2,85.8,34.5z"/>
		</g>
	</g>
	<g>
		<g>
			<g>
				<rect x="66.3" y="19.3" width="3" height="31.1"/>
			</g>
		</g>
		<g>
			<g>
				<rect x="53.4" y="19.3" width="3" height="31"/>
			</g>
		</g>
		<g>
			<g>
				<path d="M69.4,21.3h-3v-2.4h-9.9v2.4h-3v-3.9c0-0.8,0.7-1.5,1.5-1.5h13c0.8,0,1.5,0.7,1.5,1.5V21.3z"/>
			</g>
		</g>
		<g>
			<g>
				<rect x="54.9" y="21.3" width="13" height="3"/>
			</g>
		</g>
		<g>
			<g>
				<path d="M66,50.6h-3V32c0-0.9-0.8-1.7-1.7-1.7c-0.9,0-1.7,0.8-1.7,1.7v18.6h-3V32c0-2.6,2.1-4.7,4.7-4.7c2.6,0,4.7,2.1,4.7,4.7
					V50.6z"/>
			</g>
		</g>
		<g>
			<g>
				<path d="M66.8,18.8H56c-0.5,0-0.9-0.2-1.2-0.6c-0.3-0.4-0.4-0.9-0.2-1.3l3.6-12c0.2-0.6,0.8-1.1,1.5-1.1h3.2
					c0.7,0,1.2,0.4,1.4,1l3.9,12c0.2,0.5,0.1,1-0.2,1.4C67.7,18.6,67.3,18.8,66.8,18.8z M58.1,15.8h6.6l-2.9-9h-1L58.1,15.8z"/>
			</g>
		</g>
	</g>
	<g>
		<g>
			<g>
				<rect x="83" y="19.3" width="3" height="20.1"/>
			</g>
		</g>
		<g>
			<g>
				<rect x="70.1" y="19.3" width="3" height="29.9"/>
			</g>
		</g>
		<g>
			<g>
				<path d="M86,21.3h-3v-2.4h-9.9v2.4h-3v-3.9c0-0.8,0.7-1.5,1.5-1.5h13c0.8,0,1.5,0.7,1.5,1.5V21.3z"/>
			</g>
		</g>
		<g>
			<g>
				<rect x="71.6" y="21.3" width="13" height="3"/>
			</g>
		</g>
		<g>
			<g>
				<path d="M76.3,47.8h-3V32c0-2.6,2.1-4.7,4.7-4.7c2.6,0,4.7,2.1,4.7,4.7v12h-3V32c0-0.9-0.8-1.7-1.7-1.7c-0.9,0-1.7,0.8-1.7,1.7
					V47.8z"/>
			</g>
		</g>
		<g>
			<g>
				<path d="M83.5,18.8H72.7c-0.5,0-0.9-0.2-1.2-0.6c-0.3-0.4-0.4-0.9-0.2-1.3l3.6-12c0.2-0.6,0.8-1.1,1.5-1.1h3.2
					c0.7,0,1.2,0.4,1.4,1l3.9,12c0.2,0.5,0.1,1-0.2,1.4C84.4,18.6,83.9,18.8,83.5,18.8z M74.7,15.8h6.6l-2.9-9h-1L74.7,15.8z"/>
			</g>
		</g>
	</g>
</g>
</svg>
