<?xml version="1.0" encoding="utf-8"?>
<!-- Generator: Adobe Illustrator 18.1.1, SVG Export Plug-In . SVG Version: 6.00 Build 0)  -->
<svg version="1.1" id="Layer_1" xmlns="http://www.w3.org/2000/svg" xmlns:xlink="http://www.w3.org/1999/xlink" x="0px" y="0px"
	 viewBox="0 0 400 400" enable-background="new 0 0 400 400" xml:space="preserve">
<g>
	<g>
		<g>
			<path d="M208.5,372.4c-96.9,0-175.8-78.9-175.8-175.8S111.5,20.6,208.5,20.6c96.9,0,175.8,78.9,175.8,175.8
				S305.4,372.4,208.5,372.4z M208.5,43c-84.6,0-153.4,68.8-153.4,153.4s68.8,153.4,153.4,153.4S361.9,281,361.9,196.5
				S293.1,43,208.5,43z"/>
		</g>
	</g>
	<g>
		<g>
			<path fill="#FFFFFF" d="M379.2,377.7l-52-117c-0.8-1.8-2.4-3.1-4.2-3.7c-24.9-7.5-46.2-12.3-63.8-14.2l19.1-19.1
				c0.1-0.1,0.3-0.1,0.3-0.2c9.3-9.3,9.3-24.4,0-33.8c-7.4-7.4-18.6-8.8-27.5-4.4l-22.7-22.7c4.1-7.1,10.2-17.7,14.1-25.5
				c27-9.3,45.6-17.2,60.3-29.7c2.2-1.9,2.9-5,1.9-7.7l-1.2-2.8l3.4,1.1c2.6,0.8,5.5,0.1,7.2-2c2.3-2.6,4.5-5.4,6.7-8.5
				c1.3-1.8,1.7-4.1,0.9-6.2l-2.7-7.4l4.3,1.3c2.9,0.8,6.1-0.4,7.7-3c15.7-27,21.6-49.9,21.9-50.8c0.6-2.3-0.1-4.6-1.7-6.3
				c-1.7-1.7-4-2.4-6.3-1.9c-1.5,0.3-36.8,8.8-69.3,38c-29.1,23.7-52.5,53.6-69.7,89.3l-44.3-44.3c4.9-9,3.6-20.6-4-28.2
				c-9.3-9.3-24.4-9.3-33.8,0c-0.2,0.2-0.2,0.3-0.3,0.4c-0.1,0.1-0.2,0.1-0.2,0.1l-96.1,95.9c-0.1,0.1-0.3,0.3-0.3,0.3
				c-4.3,4.5-6.7,10.3-6.7,16.5c0,6.3,2.4,12.3,7,16.8l0,0l0,0l62.7,62.7l-52,117.1c-1.1,2.4-0.7,5.2,1.1,7.2
				c1.3,1.5,3.1,2.3,5.1,2.3c0.7,0,1.3-0.1,1.9-0.3c47.7-14.4,86.1-21.7,113.8-21.7c39.7,0,42,14.9,42.1,14.9l0,0
				c0.1,3.6,3.1,6.6,6.7,6.6l0,0h0.1l0,0c3.6,0,6.7-2.9,6.7-6.6c0-0.2,2.9-14.9,42.1-14.9c27.7,0,65.9,7.3,113.8,21.7
				c0.7,0.2,1.3,0.3,1.9,0.3c1.9,0,3.7-0.8,5.1-2.3C379.8,382.9,380.2,380,379.2,377.7z"/>
		</g>
		<g>
			<path fill="#FFFFFF" d="M373.1,398.3c-1.8,0-3.5-0.3-5.1-0.8c-46.7-14.1-84-21.2-110.5-21.2c-22.7,0-29.6,5.3-31.2,6.9
				c-1.5,8.3-8.8,14.6-17.6,14.6c-8.9,0-16.3-6.2-17.8-14.7c-1.4-1.4-8.2-6.8-31.2-6.8c-26.6,0-63.7,7.2-110.5,21.2
				c-6.6,1.9-14.1-0.2-18.6-5.3c-4.6-5.2-5.7-12.7-2.9-19.1l48.8-109.9L19.3,206c-0.1-0.1-0.2-0.2-0.3-0.3
				c-6.4-6.6-9.9-15.2-9.9-24.4c0-9,3.5-17.6,9.6-24.1c0.3-0.3,0.5-0.5,0.8-0.8l95.8-95.7c0.3-0.3,0.5-0.6,0.8-0.8
				c6.7-6.7,15.4-10.3,24.8-10.3s18.2,3.6,24.8,10.3c8.8,8.8,12,21.6,9.1,33.3l28.4,28.4c17-31,39-57.5,65.3-79
				c34.7-31,72.5-40,74.1-40.3c5.8-1.3,12.5,0.5,16.8,4.9c4.4,4.5,6.1,10.9,4.6,16.9c-0.3,1-6.5,25.3-23.1,53.7
				c-1.8,3-4.4,5.4-7.4,6.9c-0.2,3.4-1.3,6.7-3.5,9.6c-2.4,3.4-4.9,6.4-7.3,9.2c-2,2.3-4.5,4-7.3,5.1c-1,2.8-2.8,5.4-5.2,7.4
				c-15.3,13.1-34.4,21.5-59.7,30.3c-2.4,4.6-5.4,9.9-8.1,14.6l11.6,11.6c2.6-0.6,5.2-0.8,7.8-0.8c9.3,0,18.1,3.6,24.7,10.2
				c13.6,13.6,13.6,35.9,0,49.6c-0.3,0.3-0.6,0.6-0.9,0.8l-2.9,2.9c13.1,2.6,27.7,6.3,43.6,11.1c5.1,1.5,9.1,5.1,11.2,9.9l52,117
				c2.9,6.4,1.7,13.9-2.9,19.1C383.1,396.1,378.2,398.3,373.1,398.3z M257.3,353.9c26.9,0,63.1,6.6,107.6,19.5l-47.2-106.3
				c-23.2-6.9-43.4-11.4-59.9-13.2c-4.3-0.5-7.9-3.4-9.3-7.4c-1.4-4-0.4-8.6,2.7-11.6l19.1-19.1c0.1-0.1,0.3-0.3,0.4-0.3
				c0.2-0.2,0.3-0.3,0.5-0.4c4.4-4.8,4.2-12.5-0.6-17.3c-3.8-3.8-9.9-4.6-14.7-2.3c-4.3,2.2-9.5,1.3-13-2.1l-22.7-22.7
				c-3.6-3.6-4.3-9.2-1.8-13.6c4.2-7.2,10.1-17.4,13.9-24.9c1.3-2.6,3.6-4.6,6.4-5.6c23.5-8,41-15.2,54.1-25.6
				c-1.5-4-0.7-8.5,2.3-11.6c3-3.2,7.6-4.4,11.8-2.9l0.5,0.2c0.9-1.2,1.9-2.4,2.9-3.6l-1.9-5.1c-1.4-4-0.5-8.4,2.4-11.5
				c2.9-3,7.2-4.3,11.3-3.1l0.9,0.3c8.6-15.2,13.8-29,16.6-37.1c-11.7,4-34.9,13.6-56.7,33.1c-0.2,0.1-0.3,0.3-0.4,0.3
				c-27.8,22.6-50.2,51.3-66.7,85.4c-1.6,3.3-4.6,5.6-8.3,6.1c-3.5,0.6-7.2-0.6-9.8-3.1l-44.3-44.3c-3.5-3.5-4.3-8.9-1.9-13.2
				c2.7-5,1.9-11-2.1-15c-4.5-4.5-12.5-4.8-17.3-0.6c-0.1,0.1-0.2,0.3-0.3,0.3c-0.2,0.3-0.4,0.4-0.6,0.7c-0.3,0.3-0.5,0.4-0.8,0.7
				l-95.5,95.5c-2.5,2.6-3.7,5.7-3.7,9c0,3.4,1.3,6.5,3.7,8.8c0.1,0.1,0.2,0.2,0.3,0.3l62.5,62.5c3.3,3.3,4.2,8.3,2.3,12.5L52,373.4
				c44.5-12.9,80.8-19.5,107.6-19.5c30.1,0,43.2,8.3,48.8,15.4C214.3,362.2,227.5,353.9,257.3,353.9z"/>
		</g>
	</g>
	<g>
		<g>
			<path fill="#FFFFFF" d="M208.5,263.1c0,0-0.8-33.3-112.4,0.3l-52,117c163.2-49.2,164.5-0.5,164.5-0.5V265.9V263.1z"/>
		</g>
		<g>
			<path d="M44,387.1c-1.9,0-3.7-0.8-5.1-2.3c-1.8-1.9-2.2-4.8-1.1-7.2l52-117c0.8-1.8,2.4-3.1,4.2-3.7c33.8-10.2,61-15.3,81-15.3
				c38.4,0,40,19,40.1,21.2V380c0,3.7-2.9,6.7-6.7,6.7c-3.7,0.1-6.7-2.9-6.8-6.6l0,0c0,0-2.3-14.9-42.1-14.9
				c-27.7,0-65.9,7.3-113.8,21.7C45.3,387,44.7,387.1,44,387.1z M101,269L56.1,369.9c42.6-12,77.5-18.2,103.7-18.2
				c20.9,0,33.9,3.9,42.1,8.8v-96.9c-0.7-2.4-6.4-8.4-26.6-8.4C157,255.1,132,259.8,101,269z"/>
		</g>
	</g>
	<g>
		<g>
			<path fill="#FFFFFF" d="M208.6,263.1c0,0,0.8-33.3,112.4,0.3l52,117c-163.2-49.2-164.5-0.5-164.5-0.5V265.9V263.1z"/>
		</g>
		<g>
			<path d="M373.1,387.1c-0.7,0-1.3-0.1-1.9-0.3c-47.7-14.4-86.1-21.7-113.8-21.7c-39.2,0-42,14.8-42.1,14.9c-0.1,3.7-3,6.7-6.8,6.6
				c-3.7-0.1-6.7-3-6.7-6.7V263.1c0.1-2.4,1.7-21.4,40.1-21.4c20,0,47.2,5.1,81,15.3c1.9,0.6,3.4,1.9,4.2,3.7l52,117
				c1.1,2.4,0.7,5.2-1.1,7.2C376.8,386.4,374.9,387.1,373.1,387.1z M257.3,351.7c26.2,0,61,6.1,103.7,18.2L316.1,269
				c-31.1-9.2-56.1-13.9-74.2-13.9c-20.2,0-26,5.9-26.6,8.4v96.9C223.4,355.6,236.5,351.7,257.3,351.7z"/>
		</g>
	</g>
	<g>
		<g>
			<polyline fill="#FFFFFF" points="205.6,149.4 140.7,84.5 32,193.3 153.4,314.8 262.2,206 221.4,165.1 			"/>
		</g>
		<g>
			<g>
				<path fill="#D39F29" d="M243.4,191.4c-0.3-0.1-0.5-0.2-0.8-0.3c-2.9-1.7-5.7-3.6-8.3-5.9c-3.9-3.9-6.5-8.9-8.7-13.9
					c-0.1,0-0.2,0-0.3,0c-14.9,0-22.1-12-21.6-23.5c0-1,0-2.1,0.1-3.1c-2.5-2.4-4.9-5-7.1-7.7c-7.3-4.5-14.9-9.3-20.3-15.6
					c-7.2-8.3-13.6-17.2-21.6-24.8L54.3,197.3l95.6,95.7c2.5-3.8,6.2-6.9,11.5-8.8c6.9-2.5,14.3-8.9,20.7-14.8
					c7.2-9,16.2-16.6,25.3-24c2.9-2.9,5.8-5.9,8.6-8.9c7.8-8.6,15.3-17.3,24.6-24.4c4.1-3.2,8.5-6,11.7-9.9c0.4-0.8,0.9-1.4,1.3-2.1
					C249.7,198.6,246.1,195.8,243.4,191.4z"/>
			</g>
		</g>
		<g>
			<path d="M153.4,321.5c-1.8,0-3.5-0.7-4.7-1.9L27.2,198.1c-2.6-2.6-2.6-6.9,0-9.5L136,79.8c2.5-2.5,7-2.5,9.5,0l64.8,64.8
				c2.6,2.6,2.6,6.9,0,9.5s-6.9,2.6-9.5,0l-60.1-60.1l-99.2,99.3l111.9,112l99.3-99.3l-36.1-36.1c-2.6-2.6-2.6-6.9,0-9.5
				c2.6-2.6,6.9-2.6,9.5,0l40.8,40.8c1.3,1.3,1.9,2.9,1.9,4.7c0,1.8-0.7,3.5-1.9,4.7L158.2,319.6C157,320.8,155.2,321.5,153.4,321.5
				z"/>
		</g>
	</g>
	<g>
		<g>
			<path fill="#FFFFFF" d="M125.7,74.6c-6.9,6.9-6.9,18,0,24.9c6.9,6.9,18,6.9,24.9,0c6.9-6.9,6.9-18,0-24.9
				C143.7,67.8,132.6,67.8,125.7,74.6z"/>
		</g>
	</g>
	<g>
		<g>
			<path d="M106.8,218.9c-1.2,0-2.3-0.4-3.2-1.3c-1.8-1.8-1.8-4.5,0-6.3l55.1-55.1c1.8-1.8,4.5-1.8,6.3,0c1.8,1.8,1.8,4.5,0,6.3
				l-55.1,55.1C109.1,218.4,107.9,218.9,106.8,218.9z"/>
		</g>
	</g>
	<g>
		<g>
			<path d="M93.1,206.6c-1.2,0-2.3-0.4-3.2-1.3c-1.8-1.8-1.8-4.5,0-6.3l55.1-55.1c1.8-1.8,4.5-1.8,6.3,0c1.8,1.8,1.8,4.5,0,6.3
				l-55.1,55.1C95.3,206.1,94.2,206.6,93.1,206.6z"/>
		</g>
	</g>
	<g>
		<g>
			<path d="M147,261.6c-1.2,0-2.3-0.4-3.2-1.3c-1.8-1.8-1.8-4.5,0-6.3l55.1-55.1c1.8-1.8,4.5-1.8,6.3,0c1.8,1.8,1.8,4.5,0,6.3
				l-55.1,55.1C149.3,261.2,148.2,261.6,147,261.6z"/>
		</g>
	</g>
	<g>
		<g>
			<path d="M119.6,231.7c-1.2,0-2.4-0.4-3.2-1.3c-1.8-1.8-1.7-4.6,0.1-6.3l55-53.7c1.8-1.7,4.6-1.7,6.3,0.1c1.8,1.8,1.7,4.6-0.1,6.3
				l-55,53.7C121.8,231.2,120.7,231.7,119.6,231.7z"/>
		</g>
	</g>
	<g>
		<g>
			<path d="M134.3,246.5c-1.2,0-2.3-0.4-3.2-1.3c-1.8-1.8-1.8-4.5,0-6.3l48.3-48.3c1.8-1.8,4.5-1.8,6.3,0c1.8,1.8,1.8,4.5,0,6.3
				l-48.3,48.3C136.6,246,135.5,246.5,134.3,246.5z"/>
		</g>
	</g>
	<g>
		<g>
			<path fill="#FFFFFF" d="M152.3,97.2L57,192.5l-0.9,0.8c-6.7,6.7-17.4,6.7-24.1,0c-6.7-6.7-6.7-17.4,0-24.1l0.1-0.1L128.2,73"/>
		</g>
		<g>
			<g>
				<path fill="#8D8572" d="M160.8,87.9c0-1.5,0.2-2.9,0.4-4.3c-0.8-1.2-1.4-2.4-1.9-3.5l-10.2-10.3l-89,89l0,0l0,0l-7.1,7.1L53,166
					c-6.7,6.7-6.7,17.4,0,24.1c1.2,1.2,2.5,2.1,3.9,2.9c1-2.1,2.5-4,4.2-5.7l4.5-2.2l1.3-1.7c1-0.4,2-0.9,3.2-1.2
					c2.1-3.4,5.1-6.1,9-7.8c2-8.7,8.6-16,19.7-16.5c0.3-10.4,6.9-20.6,19.8-21.6c2.7-6.2,8.2-11.2,16.4-12.2c1.5-6.9,6-13,13.3-15.5
					c1.3-7.1,5.6-13.4,12.8-16.3c-0.3-1.3-0.3-2.6-0.3-4V87.9z"/>
			</g>
		</g>
		<g>
			<path d="M44,205.1L44,205.1c-6.3,0-12.3-2.4-16.8-7c-4.5-4.5-7-10.4-7-16.8c0-6.2,2.4-12,6.7-16.5c0.1-0.2,0.3-0.3,0.3-0.3
				l96.2-96.3c2.6-2.6,6.9-2.6,9.5,0s2.6,6.9,0,9.5l-95.8,95.9c-0.1,0.1-0.3,0.3-0.3,0.3c-1.9,1.9-3,4.5-3,7.3s1.1,5.4,3,7.3
				c1.9,1.9,4.5,3,7.3,3l0,0c2.8,0,5.3-1.1,7.3-3l1.2-1.1l95-95.1c2.6-2.6,6.9-2.6,9.5,0s2.6,6.9,0,9.5l-96.5,96.3
				C56.3,202.5,50.4,205.1,44,205.1z"/>
		</g>
	</g>
	<g>
		<g>
			<path d="M55.1,201.2c-1.7,0-3.5-0.7-4.7-1.9c-2.6-2.6-2.6-6.9,0-9.5c4-4,4-10.7,0-14.7c-1.9-1.9-4.6-3-7.4-3l0,0
				c-2.8,0-5.4,1.1-7.3,3c-2.6,2.6-6.9,2.6-9.5,0c-2.6-2.6-2.6-6.9,0-9.5c4.5-4.5,10.5-7,16.8-7l0,0c6.4,0,12.4,2.5,16.8,7
				c9.3,9.3,9.3,24.4,0,33.8C58.5,200.5,56.8,201.2,55.1,201.2z"/>
		</g>
	</g>
	<g>
		<g>
			<path d="M152.8,103.4c-1.7,0-3.5-0.7-4.7-1.9c-2.6-2.6-2.6-6.9,0-9.5c4-4,4-10.7,0-14.7c-4-4-10.7-4-14.7,0
				c-2.6,2.6-6.9,2.6-9.5,0c-2.6-2.6-2.6-6.9,0-9.5c9.3-9.3,24.4-9.3,33.8,0c9.3,9.3,9.3,24.4,0,33.8
				C156.3,102.7,154.6,103.4,152.8,103.4z"/>
		</g>
	</g>
	<g>
		<g>
			<path fill="#FFFFFF" d="M247.2,196.1c-6.9,6.9-6.9,18,0,24.9s18,6.9,24.9,0c6.9-6.9,6.9-18,0-24.9
				C265.3,189.2,254.1,189.2,247.2,196.1z"/>
		</g>
	</g>
	<g>
		<g>
			<path fill="#FFFFFF" d="M273.8,218.6l-95.3,95.3l-0.9,0.8c-6.7,6.7-17.4,6.7-24.1,0c-6.7-6.7-6.7-17.4,0-24.1l0.1-0.1l96.1-96.1"
				/>
		</g>
		<g>
			<g>
				<g>
					<path fill="#8D8572" d="M279,208.1c-0.2-0.9-0.3-1.8-0.4-2.7l-10.9-10.9l-93.1,93.1c3.5,3.2,5.7,7.5,7,12
						c0.2,0,0.3,0.1,0.4,0.1c1.2-0.3,2.4-0.7,3.6-0.9c0.2-0.1,0.3-0.1,0.5-0.2c1.7-0.6,3.5-0.9,5.1-1.2l0,0c4-4,9.1-6.4,14.3-7.2
						c0.5-0.3,0.9-0.7,1.4-1c1.3-0.8,2.9-1.4,4.4-2c2-5.4,5.7-10.1,11.1-12.8c0.3-0.2,0.5-0.3,0.8-0.4s0.8-0.3,1.1-0.5
						c2.3-4.8,6-8.8,11.1-11.3c3.1-5.6,8.3-9.9,15.5-11.6c0.1-0.1,0.2-0.2,0.3-0.2c1.1-11.4,8.5-21.9,22.3-23.3
						c0.2-0.2,0.3-0.4,0.6-0.6c1.4-3.4,3.5-6.4,6.1-8.9C279.4,214.6,278.9,211.4,279,208.1z"/>
				</g>
			</g>
		</g>
		<g>
			<path d="M165.5,326.5c-6.3,0-12.3-2.4-16.8-7c-4.5-4.5-7-10.4-7-16.8c0-6.2,2.4-12.1,6.7-16.6c0.1-0.1,0.2-0.3,0.3-0.3l96.1-96.1
				c2.6-2.6,6.9-2.6,9.5,0c2.6,2.6,2.6,6.9,0,9.5l-95.8,95.9c-0.1,0.1-0.2,0.3-0.3,0.3c-1.9,1.9-3,4.5-3,7.3s1.1,5.4,3,7.3
				c3.9,3.9,10.7,3.9,14.6,0l1.2-1.1l95.1-95.2c2.6-2.6,6.9-2.6,9.5,0c2.6,2.6,2.6,6.9,0,9.5L182,319.8
				C177.8,324,171.9,326.5,165.5,326.5z"/>
		</g>
	</g>
	<g>
		<g>
			<path d="M176.6,322.7c-1.7,0-3.5-0.7-4.7-1.9c-2.6-2.6-2.6-6.9,0-9.5c4-4,4-10.7,0-14.7c-4-4-10.7-4-14.7,0
				c-2.6,2.6-6.9,2.6-9.5,0c-2.6-2.6-2.6-6.9,0-9.5c9.3-9.3,24.4-9.3,33.8,0c9.3,9.3,9.3,24.5,0,33.8
				C180,322,178.3,322.7,176.6,322.7z"/>
		</g>
	</g>
	<g>
		<g>
			<path d="M273.9,225.4c-1.7,0-3.5-0.7-4.7-1.9c-2.6-2.6-2.6-6.9,0-9.5c4-4,4-10.7,0-14.7c-4-4-10.7-4-14.7,0
				c-2.6,2.6-6.9,2.6-9.5,0c-2.6-2.6-2.6-6.9,0-9.5c9.3-9.3,24.4-9.3,33.8,0c9.3,9.3,9.3,24.4,0,33.8
				C277.2,224.8,275.5,225.4,273.9,225.4z"/>
		</g>
	</g>
	<g>
		<g>
			<path fill="#FFFFFF" d="M330.6,62.2c1-2.4,2.4-4.6,4-6.8c3.4-4.4,6.7-9.9,9.2-14.8c2.3-4.3,2.4-11,3.4-16.2
				c0.1-0.4,0.2-0.8,0.3-1.2c-12.9,4.7-34.4,14.6-54.7,32.8C264.8,79,233.3,115.4,213.1,172c3.5-2.9,7.2-5.6,10.1-9.2
				c-0.8,1.2-1.8,2.3-2.6,3.5c1-1.3,1.9-2.4,2.9-3.5c0.2-0.3,0.3-0.7,0.5-1c4.8-8.3,6.7-16.3,13.7-23.4c5.5-5.6,14.1-8.2,21.3-10.8
				c6.1-2.2,12.4-3.8,18.6-5.6c5.6-2.3,10.4-4.5,14.9-6.9c0-3.6,0.8-7.2,2.4-10.3c1.3-6.3,5.1-12,11.5-14.7l-1.7-4l7.6,2.5
				c0-1.1,0.2-2.2,0.3-3.3c0.3-3.2,1.3-6.4,2.8-9.4l0.2-0.4c1.6-3.3,4.2-5.7,7.2-7.4l-1.5-4.1l6.5,1.9
				C328.7,64.3,329.6,63.2,330.6,62.2z"/>
		</g>
	</g>
	<g>
		<g>
			<path fill="#8D8573" d="M330.6,62.2c1-2.4,2.4-4.6,4-6.8c3.4-4.4,6.7-9.9,9.2-14.8c2.3-4.3,2.4-11,3.4-16.2
				c0.1-0.4,0.2-0.8,0.3-1.2c-12.9,4.7-34.4,14.6-54.7,32.8C264.8,79,233.3,115.4,213.1,172c3.5-2.9,7.2-5.6,10.1-9.2
				c-0.8,1.2-1.8,2.3-2.6,3.5c1-1.3,1.9-2.4,2.9-3.5c0.2-0.3,0.3-0.7,0.5-1c4.8-8.3,6.7-16.3,13.7-23.4c5.5-5.6,14.1-8.2,21.3-10.8
				c6.1-2.2,12.4-3.8,18.6-5.6c5.6-2.3,10.4-4.5,14.9-6.9c0-3.6,0.8-7.2,2.4-10.3c1.3-6.3,5.1-12,11.5-14.7l-1.7-4l7.6,2.5
				c0-1.1,0.2-2.2,0.3-3.3c0.3-3.2,1.3-6.4,2.8-9.4l0.2-0.4c1.6-3.3,4.2-5.7,7.2-7.4l-1.5-4.1l6.5,1.9
				C328.7,64.3,329.6,63.2,330.6,62.2z"/>
		</g>
	</g>
	<g>
		<g>
			<path d="M197.4,185.9c-1.5,0-2.9-0.5-4.2-1.5c-2.2-1.8-3-4.7-2.2-7.3c17.4-52.3,45.9-94.7,84.6-126.1
				c32.5-29.2,67.9-37.6,69.3-38c2.3-0.5,4.6,0.2,6.3,1.9c1.6,1.7,2.3,4,1.7,6.3c-0.3,0.9-6.1,23.8-21.9,50.8c-1.5,2.7-4.7,4-7.7,3
				l-4.3-1.3l2.7,7.4c0.8,2.1,0.4,4.5-0.9,6.2c-2.3,3.1-4.5,5.9-6.7,8.5c-1.8,2.1-4.6,2.9-7.2,2l-3.4-1.1l1.2,2.8
				c1.1,2.7,0.3,5.8-1.9,7.7c-14.7,12.5-33.3,20.5-60.3,29.7c-6.4,12.6-18.2,32.3-18.7,33.2c-0.6,0.9-1.3,1.8-2.3,2.3l-20.7,12.4
				C199.7,185.6,198.6,185.9,197.4,185.9z M336.1,30c-12.4,4.7-32.7,14.1-51.7,31.2c-32.5,26.4-57.3,60.7-74.1,102.6l2.9-1.8
				c3.1-5.2,13.6-23.2,18.5-33.3c0.8-1.6,2.2-2.9,3.9-3.5c28.1-9.5,43.4-16.4,54.7-25.1l-4.9-11.8c-1-2.4-0.5-5.2,1.3-7.2
				s4.5-2.6,7.1-1.8l13.1,4.4c0.3-0.5,0.8-0.9,1.1-1.4L302.1,66c-0.8-2.4-0.3-5.1,1.4-6.9c1.8-1.9,4.4-2.5,6.7-1.9l11.9,3.5
				C328.7,48.7,333.2,37.8,336.1,30z"/>
		</g>
	</g>
</g>
</svg>
